<svg width="265" height="50" viewBox="0 0 265 50" fill="none" xmlns="http://www.w3.org/2000/svg">
<g opacity="0.8">
<path d="M29.928 35.5V32.356H32.424V35.5H29.928ZM8.376 41.452C6.952 41.452 5.68 41.188 4.56 40.66C3.44 40.148 2.56 39.436 1.92 38.524C1.28 37.612 0.96 36.572 0.96 35.404C0.96 35.084 0.984 34.668 1.032 34.156C1.08 33.628 1.144 33.044 1.224 32.404C1.304 31.764 1.392 31.108 1.488 30.436C1.6 29.748 1.704 29.084 1.8 28.444L5.424 28.924C5.264 29.996 5.12 30.972 4.992 31.852C4.88 32.716 4.792 33.452 4.728 34.06C4.664 34.652 4.632 35.092 4.632 35.38C4.632 35.972 4.776 36.484 5.064 36.916C5.352 37.364 5.776 37.708 6.336 37.948C6.896 38.188 7.576 38.308 8.376 38.308C9.224 38.308 9.896 38.18 10.392 37.924C10.888 37.684 11.24 37.356 11.448 36.94C11.656 36.54 11.76 36.084 11.76 35.572V25.9H15.432V35.572C15.432 36.756 15.128 37.788 14.52 38.668C13.912 39.548 13.072 40.228 12 40.708C10.944 41.204 9.736 41.452 8.376 41.452ZM15.384 35.5L15.432 32.356H17.136C17.632 32.356 18.016 32.284 18.288 32.14C18.56 31.98 18.744 31.668 18.84 31.204C18.952 30.724 19.008 30.004 19.008 29.044V24.7H22.68V29.044C22.68 30.548 22.48 31.78 22.08 32.74C21.68 33.684 21.072 34.38 20.256 34.828C19.44 35.276 18.4 35.5 17.136 35.5H15.384ZM23.688 35.5C22.984 35.5 22.288 35.372 21.6 35.116C20.928 34.844 20.296 34.452 19.704 33.94L21.936 31.636C22.224 31.876 22.512 32.06 22.8 32.188C23.088 32.3 23.384 32.356 23.688 32.356H28.272L26.256 34.132V28.924C26.256 28.684 26.224 28.308 26.16 27.796C26.112 27.268 26.032 26.676 25.92 26.02C25.824 25.348 25.712 24.668 25.584 23.98L29.208 23.428C29.32 24.004 29.424 24.652 29.52 25.372C29.632 26.092 29.728 26.772 29.808 27.412C29.888 28.052 29.928 28.556 29.928 28.924V35.5H23.688ZM32.424 35.5V32.356C32.52 32.356 32.592 32.396 32.64 32.476C32.704 32.54 32.752 32.644 32.784 32.788C32.832 32.916 32.864 33.076 32.88 33.268C32.896 33.46 32.904 33.676 32.904 33.916C32.904 34.156 32.896 34.38 32.88 34.588C32.864 34.78 32.832 34.948 32.784 35.092C32.752 35.22 32.704 35.324 32.64 35.404C32.592 35.468 32.52 35.5 32.424 35.5ZM40.3101 35.5V32.356H43.4301V35.5H40.3101ZM43.4301 35.5V32.356C43.5261 32.356 43.5981 32.396 43.6461 32.476C43.7101 32.54 43.7581 32.644 43.7901 32.788C43.8381 32.916 43.8701 33.076 43.8861 33.268C43.9021 33.46 43.9101 33.676 43.9101 33.916C43.9101 34.156 43.9021 34.38 43.8861 34.588C43.8701 34.78 43.8381 34.948 43.7901 35.092C43.7581 35.22 43.7101 35.324 43.6461 35.404C43.5981 35.468 43.5261 35.5 43.4301 35.5ZM32.4141 35.5C32.3181 35.5 32.2461 35.468 32.1981 35.404C32.1341 35.324 32.0861 35.22 32.0541 35.092C32.0221 34.948 31.9981 34.78 31.9821 34.588C31.9501 34.38 31.9341 34.156 31.9341 33.916C31.9341 33.596 31.9501 33.324 31.9821 33.1C32.0141 32.86 32.0701 32.676 32.1501 32.548C32.2141 32.42 32.3021 32.356 32.4141 32.356V35.5ZM32.4141 35.5V32.356H38.8701L36.6381 34.204V23.428H40.3101V35.5H32.4141ZM34.3821 21.196V18.268H37.8861V21.196H34.3821ZM39.1101 21.196V18.268H42.6141V21.196H39.1101ZM57.9737 35.5V32.356H60.4937V35.5H57.9737ZM43.4297 35.5C43.3497 35.5 43.2777 35.468 43.2137 35.404C43.1497 35.324 43.1017 35.22 43.0697 35.092C43.0377 34.948 43.0137 34.78 42.9977 34.588C42.9657 34.38 42.9497 34.156 42.9497 33.916C42.9497 33.596 42.9657 33.324 42.9977 33.1C43.0297 32.86 43.0857 32.676 43.1657 32.548C43.2297 32.42 43.3177 32.356 43.4297 32.356V35.5ZM43.4297 35.5V32.356H55.4777L54.3257 33.292V30.388C54.3257 29.572 54.2377 28.924 54.0617 28.444C53.9017 27.964 53.6617 27.62 53.3417 27.412C53.0217 27.204 52.6137 27.1 52.1177 27.1H46.8377L44.6537 23.956L45.9257 21.532C46.0537 21.292 46.1977 21.028 46.3577 20.74C46.5337 20.436 46.7577 20.068 47.0297 19.636C47.3177 19.188 47.6777 18.628 48.1097 17.956L51.2057 19.684C50.8057 20.26 50.4857 20.748 50.2457 21.148C50.0057 21.548 49.7977 21.892 49.6217 22.18C49.4617 22.468 49.3097 22.756 49.1657 23.044L48.3017 24.676L47.8217 23.956H52.1177C53.1577 23.956 54.0457 24.124 54.7817 24.46C55.5177 24.796 56.1177 25.268 56.5817 25.876C57.0617 26.468 57.4137 27.148 57.6377 27.916C57.8617 28.684 57.9737 29.508 57.9737 30.388V35.5H43.4297ZM60.4937 35.5V32.356C60.5737 32.356 60.6457 32.396 60.7097 32.476C60.7737 32.54 60.8217 32.644 60.8537 32.788C60.8857 32.916 60.9097 33.076 60.9257 33.268C60.9577 33.46 60.9737 33.676 60.9737 33.916C60.9737 34.156 60.9577 34.38 60.9257 34.588C60.9097 34.78 60.8857 34.948 60.8537 35.092C60.8217 35.22 60.7737 35.324 60.7097 35.404C60.6457 35.468 60.5737 35.5 60.4937 35.5ZM63.1562 35.5V18.628H66.8282V35.5H63.1562ZM60.4922 35.5V32.356H63.1562V35.5H60.4922ZM60.4922 35.5C60.4122 35.5 60.3402 35.468 60.2762 35.404C60.2122 35.324 60.1642 35.22 60.1322 35.092C60.1002 34.948 60.0762 34.78 60.0602 34.588C60.0282 34.38 60.0122 34.156 60.0122 33.916C60.0122 33.596 60.0282 33.324 60.0602 33.1C60.0922 32.86 60.1482 32.676 60.2282 32.548C60.2922 32.42 60.3802 32.356 60.4922 32.356V35.5ZM70.5495 35.5V18.628H74.1975V35.5H70.5495ZM77.4405 41.692C77.2645 41.692 77.0485 41.676 76.7925 41.644C76.5365 41.628 76.2725 41.612 76.0005 41.596L76.1205 38.5C76.3765 38.5 76.6245 38.508 76.8645 38.524C77.1045 38.54 77.2805 38.548 77.3925 38.548C77.9845 38.548 78.4485 38.316 78.7845 37.852C79.1365 37.388 79.3125 36.716 79.3125 35.836V23.428H82.9845V35.836C82.9845 36.972 82.7525 37.98 82.2885 38.86C81.8245 39.756 81.1765 40.452 80.3445 40.948C79.5125 41.444 78.5445 41.692 77.4405 41.692ZM86.6511 35.5V18.628H90.2991V35.5H86.6511ZM86.9151 16.564C86.5951 16.18 86.3471 15.812 86.1711 15.46C86.0111 15.108 85.9311 14.74 85.9311 14.356C85.9311 13.764 86.0831 13.244 86.3871 12.796C86.6911 12.332 87.0911 11.972 87.5871 11.716C88.0831 11.444 88.6271 11.308 89.2191 11.308C89.5551 11.308 89.8911 11.356 90.2271 11.452C90.5631 11.532 90.8431 11.652 91.0671 11.812L90.2031 13.42C90.0591 13.34 89.9071 13.284 89.7471 13.252C89.6031 13.22 89.4591 13.204 89.3151 13.204C88.9311 13.204 88.6351 13.308 88.4271 13.516C88.2191 13.724 88.1151 13.988 88.1151 14.308C88.1151 14.5 88.1551 14.684 88.2351 14.86C88.3151 15.036 88.4351 15.212 88.5951 15.388L86.9151 16.564ZM85.3791 16.804V14.932H91.5711V16.804H85.3791Z" fill="#383838"/>
<path d="M135.84 4.97655V9.9531H137.483L138.217 9.21984C138.974 9.6835 139.864 9.9531 140.817 9.9531C143.563 9.9531 145.791 7.72585 145.791 4.97655C145.791 2.22726 143.563 0 140.815 0C138.067 0 135.84 2.22726 135.84 4.97655Z" fill="#F26B6D"/>
<path fill-rule="evenodd" clip-rule="evenodd" d="M101 26.9059C101 16.3652 109.54 7.81177 120.081 7.81177C130.621 7.81177 139.175 16.3652 139.175 26.9059V46H132.864L130.057 43.1936C127.157 44.9661 123.733 46 120.081 46C109.553 46 101 37.4466 101 26.9059ZM121.45 38.0643H122.471V19.279C122.471 18.9046 122.172 18.2569 121.695 17.7281C121.058 16.8645 120.033 16.3044 118.877 16.3044H116.942V34.5436C116.942 36.4766 118.509 38.0436 120.442 38.0436H121.038C121.173 38.0573 121.311 38.0643 121.45 38.0643Z" fill="#8262B0"/>
<path d="M166.466 24.4356C165.799 23.7685 165.013 23.2348 164.109 22.8494C163.205 22.464 162.241 22.2712 161.218 22.2712C160.195 22.2712 159.247 22.464 158.342 22.8494C157.438 23.2348 156.652 23.7685 155.985 24.4356C155.303 25.1175 154.77 25.9031 154.384 26.7926C153.984 27.6969 153.791 28.6456 153.791 29.6833C153.791 30.721 153.984 31.6549 154.384 32.5592C154.785 33.4634 155.318 34.2491 155.985 34.931C156.652 35.6129 157.438 36.1318 158.342 36.532C159.247 36.9174 160.195 37.1102 161.218 37.1102C161.974 37.1102 162.701 36.9767 163.383 36.7247C164.079 36.4727 164.717 36.1169 165.31 35.6722C165.399 36.0428 165.591 36.3393 165.873 36.5765C166.155 36.8137 166.496 36.9323 166.896 36.9323C167.133 36.9323 167.355 36.8878 167.578 36.7989C167.785 36.7099 167.978 36.5765 168.126 36.4282C168.275 36.28 168.408 36.0873 168.497 35.8798C168.586 35.6722 168.63 35.4499 168.63 35.2127V29.6981C168.63 28.6752 168.438 27.7117 168.052 26.8074C167.667 25.918 167.148 25.1175 166.466 24.4504M164.939 31.2398C164.732 31.729 164.45 32.1589 164.079 32.5295C163.724 32.9001 163.294 33.1818 162.79 33.4041C162.3 33.6117 161.767 33.7303 161.203 33.7303C160.64 33.7303 160.121 33.6265 159.632 33.4041C159.143 33.1966 158.713 32.9001 158.342 32.5295C157.972 32.1589 157.675 31.729 157.468 31.2398C157.26 30.7506 157.142 30.2318 157.142 29.6685C157.142 29.1051 157.245 28.5863 157.468 28.0823C157.675 27.5931 157.972 27.1632 158.342 26.7926C158.713 26.422 159.143 26.1403 159.632 25.9328C160.121 25.7253 160.64 25.6067 161.189 25.6067C161.737 25.6067 162.271 25.7104 162.775 25.9328C163.264 26.1403 163.694 26.4368 164.064 26.7926C164.42 27.1484 164.717 27.5783 164.924 28.0823C165.132 28.5715 165.236 29.1051 165.236 29.6685C165.236 30.2318 165.132 30.7358 164.924 31.2398" fill="#383838"/>
<path d="M179.289 22.449H179.259C178.207 22.449 177.199 22.6565 176.25 23.0716C175.301 23.4867 174.486 24.0352 173.774 24.7467C173.063 25.4583 172.514 26.2736 172.099 27.2223C171.684 28.1711 171.491 29.1791 171.491 30.2464V35.2718C171.491 35.4942 171.536 35.7165 171.625 35.9241C171.714 36.1316 171.847 36.3095 171.995 36.4577C172.159 36.606 172.336 36.7246 172.544 36.8135C172.752 36.9025 172.989 36.9469 173.226 36.9469C173.463 36.9469 173.671 36.9025 173.863 36.8135C174.056 36.7246 174.234 36.606 174.382 36.4577C174.53 36.3095 174.649 36.1316 174.738 35.9241C174.827 35.7165 174.857 35.4942 174.857 35.2718V30.202C174.857 29.5942 174.975 29.0309 175.212 28.512C175.449 27.9784 175.761 27.5188 176.161 27.1334C176.561 26.7331 177.021 26.4218 177.555 26.1995C178.088 25.9771 178.651 25.8585 179.244 25.8585H179.274C179.511 25.8585 179.734 25.814 179.956 25.7251C180.164 25.6362 180.356 25.5176 180.519 25.3693C180.682 25.2211 180.801 25.0432 180.905 24.8357C180.994 24.6281 181.038 24.4058 181.038 24.1686C181.038 23.6794 180.89 23.2791 180.579 22.9678C180.267 22.6565 179.837 22.4934 179.274 22.4934" fill="#383838"/>
<path d="M194.261 24.4356C193.594 23.7685 192.809 23.2348 191.904 22.8494C191 22.464 190.036 22.2712 189.014 22.2712C187.991 22.2712 187.042 22.464 186.138 22.8494C185.233 23.2348 184.448 23.7685 183.781 24.4356C183.099 25.1175 182.565 25.9031 182.18 26.7926C181.779 27.6969 181.587 28.6456 181.587 29.6833C181.587 30.721 181.779 31.6549 182.18 32.5592C182.58 33.4634 183.114 34.2491 183.781 34.931C184.448 35.6129 185.233 36.1318 186.138 36.532C187.042 36.9174 187.991 37.1102 189.014 37.1102C189.77 37.1102 190.496 36.9767 191.178 36.7247C191.875 36.4727 192.512 36.1169 193.105 35.6722C193.194 36.0428 193.387 36.3393 193.668 36.5765C193.95 36.8137 194.291 36.9323 194.691 36.9323C194.928 36.9323 195.151 36.8878 195.373 36.7989C195.581 36.7099 195.773 36.5765 195.922 36.4282C196.07 36.28 196.203 36.0873 196.292 35.8798C196.381 35.6722 196.426 35.4499 196.426 35.2127V29.6981C196.426 28.6752 196.233 27.7117 195.847 26.8074C195.462 25.918 194.943 25.1175 194.261 24.4504M192.734 31.2398C192.527 31.729 192.245 32.1589 191.875 32.5295C191.519 32.9001 191.089 33.1818 190.585 33.4041C190.096 33.6117 189.562 33.7303 188.999 33.7303C188.435 33.7303 187.917 33.6265 187.427 33.4041C186.938 33.1966 186.508 32.9001 186.138 32.5295C185.767 32.1589 185.471 31.729 185.263 31.2398C185.056 30.7506 184.937 30.2318 184.937 29.6685C184.937 29.1051 185.041 28.5863 185.263 28.0823C185.471 27.5931 185.767 27.1632 186.138 26.7926C186.508 26.422 186.938 26.1403 187.427 25.9328C187.917 25.7253 188.435 25.6067 188.999 25.6067C189.562 25.6067 190.081 25.7104 190.585 25.9328C191.074 26.1403 191.504 26.4368 191.875 26.7926C192.23 27.1484 192.527 27.5783 192.734 28.0823C192.942 28.5715 193.046 29.1051 193.046 29.6685C193.046 30.2318 192.942 30.7358 192.734 31.2398Z" fill="#383838"/>
<path d="M205.883 34.0711C205.735 33.9081 205.557 33.7895 205.349 33.6857C205.142 33.5968 204.92 33.5375 204.682 33.5375C204.164 33.5375 203.734 33.404 203.408 33.1372C203.067 32.8704 202.903 32.4553 202.903 31.9216V18.5503C202.903 18.3131 202.859 18.0908 202.755 17.8832C202.666 17.6757 202.533 17.4978 202.37 17.3495C202.207 17.2013 202.029 17.0827 201.821 16.9938C201.614 16.9048 201.391 16.8604 201.154 16.8604C200.917 16.8604 200.71 16.9048 200.517 16.9938C200.324 17.0827 200.146 17.2013 199.998 17.3495C199.85 17.4978 199.731 17.6757 199.642 17.8832C199.553 18.0908 199.509 18.3131 199.509 18.5503V32.0254C199.524 32.7518 199.672 33.4189 199.939 34.0118C200.206 34.6196 200.576 35.1236 201.05 35.5535C201.525 35.9834 202.059 36.3096 202.681 36.5467C203.304 36.7839 203.956 36.9025 204.668 36.9025C205.157 36.9025 205.557 36.7543 205.868 36.443C206.18 36.1317 206.343 35.7314 206.343 35.2571C206.343 35.0347 206.298 34.8123 206.224 34.6048C206.135 34.3973 206.031 34.2194 205.883 34.0563" fill="#383838"/>
<path d="M220.278 24.3909C219.596 23.7239 218.81 23.205 217.906 22.8196C217.001 22.4342 216.053 22.2415 215.03 22.2415C214.007 22.2415 213.043 22.4342 212.139 22.8196C211.235 23.205 210.449 23.7387 209.767 24.4058C209.1 25.0729 208.552 25.8585 208.166 26.7628C207.766 27.6671 207.573 28.6306 207.573 29.6535C207.573 30.6764 207.766 31.6399 208.166 32.5442C208.552 33.4485 209.1 34.2341 209.767 34.9012C210.434 35.5683 211.235 36.102 212.139 36.5022C213.043 36.8877 214.007 37.0804 215.03 37.0804C215.623 37.0804 216.156 37.0359 216.631 36.947C217.105 36.858 217.535 36.7394 217.906 36.5912C218.291 36.4429 218.617 36.2799 218.914 36.0872C219.21 35.8944 219.462 35.7017 219.685 35.4942C219.877 35.346 220.025 35.1681 220.129 34.9754C220.233 34.7826 220.292 34.5899 220.322 34.3972C220.352 34.2045 220.337 34.0118 220.292 33.8191C220.248 33.6264 220.174 33.4485 220.07 33.2854C219.922 33.0482 219.744 32.8555 219.507 32.7073C219.284 32.559 219.017 32.4849 218.721 32.4849C218.543 32.4849 218.365 32.5146 218.158 32.5887C217.965 32.648 217.757 32.7666 217.55 32.9C216.942 33.4633 216.097 33.745 215.03 33.745C214.6 33.745 214.2 33.6857 213.814 33.5671C213.429 33.4485 213.073 33.2706 212.762 33.0482C212.436 32.8259 212.154 32.559 211.917 32.2329C211.665 31.9216 211.487 31.5658 211.353 31.1804H220.841C221.345 31.1804 221.745 31.0321 222.042 30.7357C222.353 30.4392 222.501 30.0538 222.501 29.5794C222.501 28.5565 222.279 27.6078 221.893 26.7183C221.493 25.8289 220.959 25.058 220.278 24.3909ZM211.235 28.3935C211.353 27.9784 211.531 27.6078 211.768 27.2668C212.006 26.9259 212.302 26.6442 212.628 26.3922C212.969 26.155 213.34 25.9623 213.77 25.8289C214.185 25.6955 214.644 25.6362 215.119 25.6362C215.593 25.6362 216.053 25.6955 216.468 25.8289C216.898 25.9475 217.283 26.1402 217.624 26.3774C217.965 26.6146 218.261 26.911 218.499 27.252C218.736 27.593 218.929 27.9784 219.032 28.4083H211.235V28.3935Z" fill="#383838"/>
<path d="M227.526 28.1416C227.749 27.6524 228.03 27.2225 228.401 26.8519C228.757 26.4813 229.187 26.1848 229.676 25.9624C230.165 25.7401 230.669 25.6363 231.203 25.6363C231.677 25.6363 232.122 25.7104 232.537 25.8587C232.967 26.0069 233.397 26.2441 233.827 26.5702C234.049 26.7481 234.286 26.9112 234.538 27.0594C234.79 27.2077 235.072 27.2818 235.368 27.2818C235.546 27.2818 235.724 27.2521 235.917 27.178C236.11 27.1039 236.302 26.9853 236.51 26.8074C236.703 26.6443 236.836 26.4516 236.925 26.2441C237.014 26.0366 237.058 25.8142 237.058 25.577C237.058 25.3398 236.999 25.1026 236.895 24.8803C236.792 24.6431 236.643 24.4356 236.436 24.228C235.798 23.5758 235.027 23.0866 234.138 22.7604C233.249 22.4343 232.315 22.2712 231.351 22.2712C230.313 22.2712 229.335 22.464 228.431 22.8494C227.512 23.2348 226.726 23.7685 226.029 24.4356C225.347 25.1026 224.799 25.8883 224.413 26.8074C224.013 27.7117 223.82 28.6901 223.82 29.7278H223.835C223.835 29.7278 223.835 29.7426 223.82 29.7574C223.82 30.7951 224.013 31.7587 224.413 32.6629C224.814 33.5672 225.347 34.3381 226.029 35.0051C226.711 35.6722 227.512 36.1911 228.431 36.5765C229.35 36.9471 230.313 37.1398 231.351 37.1398C232.329 37.1398 233.263 36.9619 234.138 36.621C235.027 36.28 235.783 35.776 236.436 35.1237C236.628 34.9162 236.777 34.6938 236.88 34.4715C236.984 34.2491 237.029 34.0119 237.029 33.7747C237.029 33.5376 236.999 33.3152 236.91 33.1077C236.821 32.9001 236.688 32.7074 236.51 32.5592C236.302 32.3813 236.095 32.2479 235.902 32.1737C235.709 32.0996 235.517 32.0551 235.339 32.0551C235.042 32.0551 234.761 32.1293 234.509 32.2775C234.257 32.4257 234.019 32.5888 233.812 32.7667C233.382 33.1373 232.937 33.3745 232.507 33.5227C232.077 33.6561 231.588 33.7303 231.025 33.7303C230.491 33.7303 229.987 33.5968 229.513 33.3597C229.039 33.1225 228.638 32.8112 228.282 32.4406C227.942 32.07 227.66 31.6401 227.452 31.1509C227.245 30.6765 227.156 30.1873 227.156 29.6981H227.171C227.171 29.1496 227.274 28.6456 227.497 28.1564" fill="#383838"/>
<path d="M251.69 32.6776C251.378 32.396 251.022 32.2626 250.652 32.2626C250.415 32.2626 250.178 32.3219 249.97 32.4256C249.748 32.5294 249.555 32.6776 249.377 32.8407C249.006 33.1668 248.621 33.3892 248.191 33.5374C247.761 33.6857 247.302 33.745 246.812 33.745C246.249 33.745 245.73 33.6412 245.226 33.4337C244.737 33.2261 244.307 32.9445 243.937 32.5887C243.581 32.2329 243.284 31.8178 243.077 31.3286C242.869 30.8394 242.765 30.3354 242.765 29.7869V25.8437H248.176C248.413 25.8437 248.636 25.7993 248.843 25.7103C249.051 25.6214 249.229 25.5028 249.392 25.3545C249.54 25.2063 249.673 25.0284 249.762 24.8209C249.851 24.6133 249.896 24.4058 249.896 24.1686C249.896 23.9314 249.851 23.7091 249.762 23.5015C249.673 23.294 249.555 23.1161 249.392 22.953C249.229 22.8048 249.051 22.6714 248.843 22.5824C248.636 22.4935 248.413 22.449 248.176 22.449H242.765V19.7362C242.765 19.499 242.721 19.2766 242.632 19.0691C242.543 18.8616 242.425 18.6837 242.276 18.5206C242.128 18.3724 241.95 18.239 241.743 18.15C241.535 18.0611 241.328 18.0166 241.105 18.0166C240.883 18.0166 240.66 18.0611 240.453 18.15C240.245 18.239 240.067 18.3576 239.904 18.5206C239.756 18.6689 239.623 18.8616 239.534 19.0691C239.445 19.2766 239.4 19.499 239.4 19.7362V29.7276C239.4 30.7505 239.593 31.7141 239.979 32.6183C240.364 33.5078 240.898 34.2935 241.58 34.9605C242.247 35.6276 243.032 36.1465 243.937 36.5319C244.841 36.9173 245.804 37.11 246.827 37.11C247.761 37.11 248.636 36.9618 249.436 36.6505C250.252 36.3392 250.963 35.8945 251.586 35.2867C251.779 35.1088 251.912 34.9012 252.016 34.6789C252.119 34.4565 252.179 34.2193 252.194 33.9673C252.208 33.7301 252.179 33.493 252.105 33.2558C252.031 33.0334 251.897 32.8259 251.704 32.6628" fill="#383838"/>
<path d="M263.712 30.884C263.46 30.3948 263.134 29.9798 262.704 29.624C262.289 29.2682 261.8 28.9569 261.237 28.7197C260.673 28.4677 260.095 28.2602 259.487 28.0675C259.117 27.9489 258.776 27.8451 258.45 27.7562C258.138 27.6672 257.872 27.5634 257.634 27.4597C257.412 27.3559 257.234 27.2373 257.101 27.1039C256.967 26.9705 256.908 26.8074 256.908 26.6147C256.908 26.2441 257.086 25.9624 257.427 25.7846C257.768 25.6067 258.287 25.5177 258.954 25.5177C259.221 25.5177 259.473 25.5325 259.68 25.577C259.888 25.6067 260.095 25.666 260.288 25.7401C260.481 25.8142 260.673 25.9031 260.851 26.0069C261.029 26.1107 261.237 26.2293 261.444 26.3627C261.637 26.4516 261.83 26.4813 261.993 26.4813C262.215 26.4813 262.423 26.4368 262.6 26.3479C262.793 26.2589 262.956 26.1255 263.104 25.9624C263.297 25.7549 263.416 25.4881 263.46 25.1619C263.505 24.8358 263.46 24.5097 263.297 24.1687C263.119 23.8278 262.867 23.5313 262.541 23.2941C262.215 23.0569 261.83 22.8494 261.415 22.7011C260.999 22.5529 260.555 22.4491 260.08 22.375C259.606 22.3157 259.161 22.2712 258.731 22.2712C257.975 22.2712 257.279 22.375 256.641 22.5677C256.004 22.7753 255.455 23.0569 254.996 23.4423C254.536 23.8129 254.18 24.2725 253.914 24.8062C253.647 25.3398 253.528 25.9328 253.528 26.5851C253.528 27.2373 253.647 27.7562 253.914 28.2157C254.166 28.6604 254.492 29.0607 254.892 29.3868C255.292 29.7129 255.722 29.9946 256.196 30.217C256.671 30.4393 257.13 30.6469 257.575 30.8396C257.827 30.9285 258.124 31.0175 258.479 31.1509C258.835 31.2695 259.176 31.4029 259.502 31.5659C259.828 31.7142 260.11 31.8921 260.332 32.07C260.555 32.2479 260.673 32.4554 260.673 32.6629C260.673 32.8556 260.614 33.0187 260.525 33.1669C260.421 33.3152 260.288 33.4338 260.11 33.5376C259.932 33.6413 259.725 33.7154 259.502 33.7747C259.28 33.834 259.028 33.8637 258.776 33.8637C258.479 33.8637 258.213 33.834 257.946 33.7747C257.679 33.7154 257.427 33.6265 257.204 33.5227C256.982 33.419 256.775 33.2855 256.582 33.1521C256.389 33.0039 256.241 32.8556 256.108 32.7074C255.841 32.4702 255.574 32.2923 255.292 32.1886C255.025 32.0848 254.759 32.0255 254.521 32.0255C254.24 32.0255 253.988 32.0848 253.75 32.2182C253.513 32.3368 253.335 32.5147 253.202 32.737C253.069 32.9594 253.009 33.2262 253.009 33.5079C253.009 33.7896 253.098 34.1157 253.291 34.4715C253.558 34.9755 253.899 35.3906 254.314 35.7315C254.744 36.0725 255.203 36.3393 255.707 36.5617C256.211 36.7692 256.73 36.9174 257.264 37.0064C257.797 37.0953 258.301 37.1398 258.776 37.1398C259.547 37.1398 260.258 37.0212 260.896 36.784C261.533 36.5468 262.096 36.2355 262.556 35.8205C263.03 35.4202 263.386 34.9458 263.653 34.3973C263.92 33.8489 264.053 33.2707 264.053 32.6481C264.053 31.981 263.935 31.4029 263.683 30.9137" fill="#383838"/>
</g>
</svg>
