<svg width="77" height="89" viewBox="0 0 77 89" fill="none" xmlns="http://www.w3.org/2000/svg">
<g clip-path="url(#clip0_1514_4638)">
<path d="M40.0494 82.9337L40.1475 80.7272C40.1577 80.7218 40.1679 80.7164 40.1781 80.711C41.2297 80.1593 42.4348 81.1581 42.0989 82.2971C41.7829 83.3688 41.5706 84.5241 40.9922 85.4622C40.6504 86.007 40.1904 86.4679 39.6463 86.8108C39.1021 87.1537 38.4878 87.3698 37.8488 87.443L36.5129 88.2609C36.3296 87.239 36.37 86.1895 36.6314 85.1846C36.8927 84.1798 37.3688 83.2436 38.0268 82.4405C38.4005 81.9936 38.8289 81.5955 39.3019 81.2557C39.6219 82.0994 40.0494 82.9337 40.0494 82.9337Z" fill="#F2F2F2"/>
<path d="M52.0092 60.5397C54.5812 57.8871 58.3085 56.3659 62.2352 56.3659L62.3867 56.3663C64.9731 56.3672 67.5134 55.6812 69.7478 54.3784L69.9803 54.2429L69.793 54.0499C68.7792 53.001 67.9327 51.8025 67.2831 50.4964C67.7444 50.9265 68.2947 51.25 68.8949 51.4439C69.4951 51.6378 70.1306 51.6974 70.7564 51.6185C71.4171 51.5397 72.0514 51.3123 72.6117 50.9535C73.172 50.5946 73.6438 50.1135 73.9916 49.5463C75.364 47.3195 77 44.1598 77 41.7527C76.9979 39.7182 76.5719 37.7063 75.7491 35.8455C74.9264 33.9847 73.725 32.3157 72.2216 30.9449C71.2698 30.0867 70.5095 29.0375 69.9904 27.8657C69.4712 26.6939 69.2049 25.4259 69.2087 24.1443L69.2094 23.9619C69.2097 22.2745 69.0035 20.5935 68.5954 18.9563L68.554 18.7909L68.3839 18.7969C67.2869 18.8342 66.1894 18.7423 65.114 18.523C66.1227 18.3992 67.1096 18.1367 68.0465 17.743L68.2295 17.6689L68.1674 17.4814C63.8864 14.8308 54.2228 16.2034 48.6138 3.37034C44.0657 -7.03554 28.0183 12.6076 28.0183 23.9619C28.0183 25.1204 29.1649 26.6515 28.3065 27.4172C19.0279 35.6951 25.43 41.0106 27.4485 46.3593C27.9274 47.6283 26.889 49.0215 26.889 50.3944C26.889 50.6274 26.8949 50.8679 26.9067 51.1092L26.9245 51.4801L27.2339 51.2743C27.8459 50.8734 28.4132 50.408 28.9262 49.8863C28.3941 51.1108 28.1433 52.439 28.1923 53.7732C28.2413 55.1074 28.5889 56.4137 29.2094 57.5959C30.1818 59.4311 31.1225 60.745 32.0054 61.5008C34.8337 63.9211 38.4798 65.1696 42.1981 64.991C45.9163 64.8123 49.4259 63.22 52.0092 60.5397Z" fill="#5A9E78"/>
<path d="M36.4734 88.1528C36.4102 88.1527 36.3491 88.1299 36.3014 88.0884C36.2537 88.0469 36.2225 87.9896 36.2136 87.927C36.2024 87.8486 35.1088 79.9611 36.091 69.4783C36.9981 59.7971 39.9111 45.8529 48.6373 34.4007C48.6582 34.3732 48.6843 34.3501 48.7142 34.3327C48.744 34.3153 48.777 34.3039 48.8112 34.2993C48.8454 34.2946 48.8803 34.2968 48.9137 34.3056C48.947 34.3144 48.9784 34.3297 49.0059 34.3506C49.0333 34.3716 49.0564 34.3977 49.0738 34.4276C49.0911 34.4575 49.1024 34.4904 49.107 34.5247C49.1116 34.5589 49.1094 34.5937 49.1006 34.6271C49.0917 34.6605 49.0764 34.6918 49.0554 34.7193C40.4045 46.0725 37.515 59.9145 36.6143 69.5273C35.6378 79.9491 36.7229 87.7751 36.734 87.853C36.7392 87.8902 36.7364 87.9282 36.7258 87.9643C36.7151 88.0005 36.6968 88.0339 36.6721 88.0623C36.6474 88.0907 36.6169 88.1135 36.5826 88.1291C36.5483 88.1447 36.5111 88.1528 36.4734 88.1528Z" fill="#3F3D56"/>
<path d="M43.5961 50.553C43.5406 50.5531 43.4865 50.5355 43.4416 50.5029C43.3966 50.4703 43.3632 50.4243 43.346 50.3715C43.3288 50.3187 43.3288 50.2619 43.3459 50.2091C43.3631 50.1563 43.3965 50.1103 43.4414 50.0776C43.4731 50.0546 46.6654 47.7544 51.4378 46.007C55.8496 44.3918 62.5584 42.9275 69.4649 45.1257C69.4979 45.1361 69.5284 45.1529 69.5549 45.1751C69.5813 45.1974 69.6031 45.2246 69.619 45.2553C69.6349 45.286 69.6446 45.3195 69.6475 45.3539C69.6504 45.3883 69.6465 45.423 69.6361 45.4559C69.6256 45.4888 69.6087 45.5193 69.5864 45.5457C69.5642 45.5721 69.5369 45.5939 69.5062 45.6097C69.4755 45.6255 69.442 45.6352 69.4075 45.6381C69.3731 45.6409 69.3385 45.637 69.3056 45.6265C62.5405 43.4735 55.9534 44.9136 51.6186 46.5006C46.9142 48.2231 43.7815 50.4802 43.7504 50.5028C43.7056 50.5355 43.6516 50.553 43.5961 50.553Z" fill="#3F3D56"/>
<path d="M31.5669 20.5983C31.5628 20.543 31.5764 20.4878 31.6057 20.4406C31.635 20.3934 31.6784 20.3567 31.7298 20.3358C31.7813 20.3149 31.838 20.3108 31.8919 20.3241C31.9458 20.3373 31.9941 20.3674 32.0299 20.4098C32.0551 20.4397 34.5792 23.4581 36.6658 28.0923C38.5945 32.3763 40.5381 38.9622 38.8431 46.0091C38.8268 46.0769 38.7842 46.1354 38.7248 46.1718C38.6653 46.2082 38.5939 46.2195 38.5261 46.2032C38.4584 46.1869 38.3998 46.1443 38.3635 46.0849C38.3271 46.0255 38.3158 45.954 38.3321 45.8862C39.9922 38.9837 38.0816 32.5174 36.1865 28.3081C34.1297 23.74 31.6528 20.778 31.6281 20.7486C31.5923 20.7063 31.5708 20.6537 31.5669 20.5983Z" fill="#3F3D56"/>
<path d="M31.9209 34.149C31.6992 35.938 30.4596 37.413 28.6569 37.413C27.7912 37.413 26.961 37.0692 26.3489 36.457C25.7367 35.8449 25.3929 35.0147 25.3929 34.149C25.3929 32.3464 26.8619 31.0517 28.6569 30.885C30.5614 30.7082 32.2056 31.8522 31.9209 34.149Z" fill="#2F2E41"/>
<path d="M27.1443 86.7124L25.9013 86.7123L25.31 81.918L27.1445 81.9181L27.1443 86.7124Z" fill="#FFB6B6"/>
<path d="M27.1913 88.0112L23.369 88.011V87.9627C23.3691 87.5681 23.5258 87.1898 23.8048 86.9108C24.0838 86.6318 24.4622 86.475 24.8568 86.475L25.5551 85.9453L26.8577 86.4751L27.1914 86.4751L27.1913 88.0112Z" fill="#2F2E41"/>
<path d="M32.0427 86.7124L30.7997 86.7123L30.2085 81.918L32.043 81.9181L32.0427 86.7124Z" fill="#FFB6B6"/>
<path d="M32.0859 88.0112L28.2636 88.011V87.9627C28.2636 87.5681 28.4204 87.1898 28.6994 86.9108C28.9784 86.6318 29.3568 86.475 29.7513 86.475L30.4496 85.9453L31.7523 86.4751L32.0859 86.4751L32.0859 88.0112Z" fill="#2F2E41"/>
<path d="M22.8703 56.6896L21.9915 59.7025L23.0268 72.4629C23.0268 72.4629 22.4937 73.2608 22.8703 73.2608C23.2469 73.2608 23.7299 73.4377 23.4256 73.9142C23.1214 74.3906 24.1613 76.1012 24.1613 76.1012L25.6322 85.187L27.5064 85.1593C27.5064 85.1593 28.4592 84.6285 27.9245 84.0918C27.3897 83.555 27.0131 83.555 27.5153 83.0528C28.0174 82.5507 28.0174 82.7019 28.0174 82.3125C28.0174 81.923 28.5205 77.1634 27.3274 75.3376L27.6869 67.8937L28.5337 75.1953L30.2772 84.9359L32.0826 84.9211C32.0826 84.9211 32.9166 84.1173 32.915 83.5223C32.9135 82.9273 32.3998 82.8779 32.7822 82.526C33.1646 82.1741 33.1646 76.768 32.0347 73.7629C32.0347 73.7629 31.3956 72.084 32.0361 71.5086C32.6767 70.9333 32.0369 70.275 32.0369 70.275C32.0369 70.275 31.0224 69.9083 32.0379 68.8516C33.0533 67.7948 32.0433 60.3213 32.0433 60.3213C32.0433 60.3213 33.1535 57.3045 32.0291 56.1182C30.9048 54.932 22.8703 56.6896 22.8703 56.6896Z" fill="#2F2E41"/>
<path d="M38.5202 61.875L36.9523 58.0859L35.717 58.7722L36.463 62.6267C36.3883 62.8709 36.3832 63.1311 36.4483 63.378C36.5133 63.6249 36.646 63.8488 36.8313 64.0245C37.0166 64.2002 37.2473 64.3207 37.4973 64.3725C37.7474 64.4243 38.007 64.4053 38.2468 64.3177C38.4867 64.23 38.6973 64.0772 38.8551 63.8764C39.0129 63.6756 39.1115 63.4348 39.1399 63.181C39.1683 62.9272 39.1254 62.6705 39.0159 62.4398C38.9064 62.2091 38.7348 62.0135 38.5202 61.875Z" fill="#FFB6B6"/>
<path d="M12.2112 31.9147L14.5969 35.25L15.6445 34.3017L14.0446 30.7165C14.062 30.4617 14.008 30.2071 13.8887 29.9814C13.7694 29.7556 13.5895 29.5676 13.3692 29.4384C13.1489 29.3093 12.8969 29.2442 12.6416 29.2504C12.3863 29.2566 12.1378 29.3339 11.9241 29.4736C11.7103 29.6134 11.5397 29.8099 11.4316 30.0412C11.3234 30.2726 11.2819 30.5295 11.3117 30.7831C11.3416 31.0367 11.4415 31.277 11.6004 31.4769C11.7593 31.6768 11.9709 31.8284 12.2112 31.9147Z" fill="#FFB6B6"/>
<path d="M22.6318 56.9935C21.0844 59.3936 28.8625 62.4395 31.8469 61.2166C32.3695 61.0025 34.1672 60.2953 32.9384 59.3148C31.7097 58.3343 33.0809 58.1963 33.1133 57.558C33.135 57.1313 32.8046 56.1951 33.1493 56.2353C33.494 56.2754 33.8975 55.6853 33.1467 55.4313C32.396 55.1774 33.1387 54.9458 33.1321 54.7047C33.0603 52.074 31.0419 47.8896 31.0419 47.8896L34.6789 57.1866C34.6789 57.1866 34.652 58.7951 35.1158 58.3035C35.5796 57.812 35.5459 59.4029 35.5459 59.4029C35.5459 59.4029 36.2355 59.8842 35.839 60.152C35.4424 60.4199 36.2659 61.2434 36.2659 61.2434L38.1875 61.1062C38.1875 61.1062 38.1574 59.6787 37.8293 59.363C37.5012 59.0473 37.6624 58.5506 37.6624 58.5506C37.6624 58.5506 36.8081 57.7944 37.3808 57.1804C38.1174 56.3908 35.4319 43.0535 34.5052 43.1856C34.3742 42.5479 34.0694 41.9589 33.6245 41.4836C33.1796 41.0083 32.612 40.6653 31.9843 40.4925L29.9089 39.9211L29.5403 38.4589H26.618L26.1089 39.4197L23.8872 40.4223C23.4687 39.8318 23.1559 39.2096 21.4422 39.0079C21.4422 39.0079 16.8246 34.8065 17.05 34.4784C17.2755 34.1504 16.5596 33.3823 16.5596 33.3823C16.5596 33.3823 15.9483 33.1822 16.2933 33.0754C16.6382 32.9686 15.9862 32.7216 15.9862 32.7216C15.9862 32.7216 15.3823 32.5629 15.6671 32.354C15.952 32.1451 14.7167 32.0078 14.7167 32.0078L13.1139 33.3155L13.4378 33.8648C13.4378 33.8648 13.2403 34.6128 13.4981 34.3397C13.7559 34.0667 13.8044 34.8591 13.8044 34.8591C13.8044 34.8591 13.936 35.7268 14.7167 35.9882C15.4973 36.2497 16.0892 38.7334 16.0892 38.7334C17.9302 41.1271 20.1029 42.9944 22.6775 44.2236C21.6741 45.3754 22.6318 56.9935 22.6318 56.9935Z" fill="#928EDE"/>
<path d="M28.297 37.6052C26.6985 37.6052 25.4026 36.3093 25.4026 34.7108C25.4026 33.1123 26.6985 31.8164 28.297 31.8164C29.8955 31.8164 31.1914 33.1123 31.1914 34.7108C31.1914 36.3093 29.8955 37.6052 28.297 37.6052Z" fill="#FFB6B6"/>
<path d="M31.2948 35.0261C31.2032 35.655 30.6671 36.5325 30.7927 36.5325C30.9182 36.5325 31.8108 33.9397 30.9182 33.7707C30.2708 33.648 30.1261 33.7556 29.521 33.4932L29.6063 33.5736C29.2059 33.8648 28.6485 33.6853 28.1915 33.4957C27.7333 33.3074 27.1771 33.1279 26.7754 33.4179C26.5231 33.5999 26.4164 33.9163 26.2595 34.1849C26.1025 34.4549 25.8125 34.7097 25.5138 34.6268C25.274 34.5603 25.1359 34.2916 25.1371 34.0431C25.1384 33.7945 25.4621 33.5581 25.3531 33.335C25.03 32.6741 25.3205 32.2237 26.0247 31.9127C26.2808 31.8738 26.5369 31.834 26.793 31.7934C26.6588 31.6075 26.4961 31.444 26.3109 31.3088C26.3892 31.1082 26.5245 30.935 26.7001 30.8104C26.9047 30.6887 27.1583 30.6975 27.3956 30.71C27.9254 30.7376 28.4547 30.7652 28.9837 30.7929C29.3753 30.8129 29.7808 30.8368 30.1311 31.0163C30.568 31.241 30.8542 31.6792 31.0626 32.1248C31.5296 33.1266 31.4555 33.9326 31.2948 35.0261Z" fill="#2F2E41"/>
<path d="M43.3349 88.3341L14.8688 88.3727C14.8292 88.3727 14.7912 88.3569 14.7631 88.3289C14.7351 88.3009 14.7193 88.2629 14.7193 88.2232C14.7193 88.1836 14.7351 88.1456 14.7631 88.1175C14.7912 88.0895 14.8292 88.0737 14.8688 88.0737L43.3349 88.0352C43.3745 88.0352 43.4126 88.0509 43.4406 88.0789C43.4686 88.107 43.4844 88.145 43.4844 88.1846C43.4844 88.2243 43.4686 88.2623 43.4406 88.2903C43.4126 88.3184 43.3745 88.3341 43.3349 88.3341Z" fill="#CACACA"/>
<path d="M53.629 75.3076C53.5765 74.9469 53.9543 74.5934 54.4727 74.518C54.9912 74.4425 55.4541 74.6738 55.5065 75.0344C55.559 75.3951 55.1813 75.7487 54.6628 75.8241C54.1443 75.8995 53.6815 75.6683 53.629 75.3076Z" fill="#5A9E78"/>
<path d="M47.4571 74.7061C47.4046 74.3454 47.7824 73.9918 48.3009 73.9164C48.8194 73.841 49.2822 74.0722 49.3347 74.4329C49.3871 74.7936 49.0094 75.1471 48.4909 75.2225C47.9724 75.298 47.5096 75.0667 47.4571 74.7061Z" fill="#3F3D56"/>
<path d="M55.3243 70.3076C55.2718 69.9469 55.6496 69.5934 56.1681 69.518C56.6865 69.4425 57.1494 69.6738 57.2019 70.0344C57.2543 70.3951 56.8766 70.7487 56.3581 70.8241C55.8396 70.8995 55.3768 70.6683 55.3243 70.3076Z" fill="#FF6584"/>
<path d="M58.0051 68.2622C58.0026 67.9311 58.1873 67.6613 58.4176 67.6596C58.648 67.6578 58.8367 67.9248 58.8392 68.2559C58.8417 68.587 58.657 68.8569 58.4267 68.8586C58.1963 68.8604 58.0076 68.5934 58.0051 68.2622Z" fill="#5A9E78"/>
<path d="M58.9152 64.4536C58.9127 64.1225 59.0974 63.8527 59.3278 63.851C59.5581 63.8492 59.7469 64.1162 59.7494 64.4473C59.7519 64.7785 59.5672 65.0483 59.3368 65.05C59.1065 65.0518 58.9177 64.7848 58.9152 64.4536Z" fill="#3F3D56"/>
<path d="M51.841 71.1607C51.8385 70.8296 52.0232 70.5597 52.2535 70.558C52.4839 70.5562 52.6727 70.8233 52.6752 71.1544C52.6777 71.4855 52.493 71.7553 52.2626 71.7571C52.0323 71.7588 51.8435 71.4918 51.841 71.1607Z" fill="#5A9E78"/>
<path d="M54.8254 72.649C54.8229 72.3178 55.0076 72.048 55.2379 72.0463C55.4683 72.0445 55.657 72.3115 55.6595 72.6427C55.662 72.9738 55.4773 73.2436 55.247 73.2453C55.0167 73.2471 54.8279 72.9801 54.8254 72.649Z" fill="#FF6584"/>
<path d="M50.6691 75.399C50.6666 75.0678 50.8513 74.798 51.0817 74.7963C51.312 74.7945 51.5008 75.0615 51.5033 75.3927C51.5058 75.7238 51.3211 75.9936 51.0907 75.9953C50.8604 75.9971 50.6716 75.7301 50.6691 75.399Z" fill="#3F3D56"/>
<path d="M6.17587 55.9756C6.12339 55.6149 6.50115 55.2614 7.01962 55.1859C7.53809 55.1105 8.00094 55.3417 8.05342 55.7024C8.1059 56.0631 7.72813 56.4166 7.20966 56.4921C6.69119 56.5675 6.22834 56.3363 6.17587 55.9756Z" fill="#5A9E78"/>
<path d="M0.00399266 55.3701C-0.0484844 55.0094 0.329284 54.6559 0.847755 54.5805C1.36623 54.505 1.82907 54.7363 1.88154 55.0969C1.93402 55.4576 1.55626 55.8112 1.03779 55.8866C0.519319 55.962 0.0564697 55.7308 0.00399266 55.3701Z" fill="#3F3D56"/>
<path d="M7.86728 50.9756C7.8148 50.6149 8.19256 50.2614 8.71103 50.1859C9.2295 50.1105 9.69235 50.3417 9.74483 50.7024C9.7973 51.0631 9.41954 51.4166 8.90107 51.4921C8.3826 51.5675 7.91976 51.3363 7.86728 50.9756Z" fill="#FF6584"/>
<path d="M10.548 48.9302C10.5455 48.5991 10.7302 48.3293 10.9606 48.3275C11.1909 48.3258 11.3797 48.5928 11.3822 48.9239C11.3847 49.255 11.2 49.5248 10.9697 49.5266C10.7393 49.5283 10.5506 49.2613 10.548 48.9302Z" fill="#5A9E78"/>
<path d="M11.4582 45.1177C11.4557 44.7866 11.6404 44.5168 11.8707 44.515C12.1011 44.5133 12.2898 44.7803 12.2923 45.1114C12.2948 45.4425 12.1101 45.7123 11.8798 45.7141C11.6495 45.7158 11.4607 45.4488 11.4582 45.1177Z" fill="#3F3D56"/>
<path d="M4.38399 51.8286C4.38149 51.4975 4.56618 51.2277 4.79652 51.226C5.02686 51.2242 5.21562 51.4912 5.21812 51.8223C5.22063 52.1535 5.03593 52.4233 4.80559 52.425C4.57525 52.4268 4.3865 52.1598 4.38399 51.8286Z" fill="#5A9E78"/>
<path d="M7.36836 53.3169C7.36586 52.9858 7.55056 52.716 7.7809 52.7142C8.01124 52.7125 8.19999 52.9795 8.2025 53.3106C8.205 53.6417 8.02031 53.9116 7.78997 53.9133C7.55963 53.9151 7.37087 53.648 7.36836 53.3169Z" fill="#FF6584"/>
<path d="M3.21993 56.0669C3.21742 55.7358 3.40212 55.466 3.63246 55.4642C3.8628 55.4625 4.05156 55.7295 4.05406 56.0606C4.05656 56.3917 3.87186 56.6616 3.64152 56.6633C3.41118 56.6651 3.22243 56.398 3.21993 56.0669Z" fill="#3F3D56"/>
<path d="M29.1524 20.1943C29.1 19.8337 29.4777 19.4801 29.9962 19.4047C30.5147 19.3293 30.9775 19.5605 31.03 19.9212C31.0825 20.2818 30.7047 20.6354 30.1862 20.7108C29.6678 20.7862 29.2049 20.555 29.1524 20.1943Z" fill="white"/>
<path d="M22.9767 19.5928C22.9242 19.2321 23.3019 18.8786 23.8204 18.8031C24.3389 18.7277 24.8017 18.9589 24.8542 19.3196C24.9067 19.6803 24.5289 20.0338 24.0104 20.1092C23.492 20.1847 23.0291 19.9535 22.9767 19.5928Z" fill="#3F3D56"/>
<path d="M30.8438 15.1982C30.7914 14.8376 31.1691 14.484 31.6876 14.4086C32.2061 14.3332 32.6689 14.5644 32.7214 14.9251C32.7739 15.2857 32.3961 15.6393 31.8776 15.7147C31.3592 15.7901 30.8963 15.5589 30.8438 15.1982Z" fill="#FF6584"/>
<path d="M33.5207 13.149C33.5182 12.8178 33.7029 12.548 33.9332 12.5463C34.1636 12.5445 34.3523 12.8115 34.3548 13.1427C34.3573 13.4738 34.1726 13.7436 33.9423 13.7453C33.712 13.7471 33.5232 13.4801 33.5207 13.149Z" fill="#5A9E78"/>
<path d="M34.4348 9.33646C34.4323 9.00534 34.617 8.73551 34.8473 8.73377C35.0776 8.73203 35.2664 8.99904 35.2689 9.33015C35.2714 9.66127 35.0867 9.9311 34.8564 9.93284C34.626 9.93458 34.4373 9.66757 34.4348 9.33646Z" fill="#3F3D56"/>
<path d="M27.3605 16.0474C27.358 15.7163 27.5427 15.4464 27.7731 15.4447C28.0034 15.443 28.1922 15.71 28.1947 16.0411C28.1972 16.3722 28.0125 16.642 27.7822 16.6438C27.5518 16.6455 27.3631 16.3785 27.3605 16.0474Z" fill="#5A9E78"/>
<path d="M30.341 17.5396C30.3385 17.2085 30.5232 16.9386 30.7536 16.9369C30.9839 16.9352 31.1727 17.2022 31.1752 17.5333C31.1777 17.8644 30.993 18.1342 30.7626 18.136C30.5323 18.1377 30.3435 17.8707 30.341 17.5396Z" fill="#FF6584"/>
<path d="M26.1887 20.2896C26.1862 19.9585 26.3709 19.6886 26.6012 19.6869C26.8315 19.6852 27.0203 19.9522 27.0228 20.2833C27.0253 20.6144 26.8406 20.8842 26.6103 20.886C26.3799 20.8877 26.1912 20.6207 26.1887 20.2896Z" fill="#3F3D56"/>
</g>
<defs>
<clipPath id="clip0_1514_4638">
<rect width="77" height="87.9481" fill="white" transform="matrix(-1 0 0 1 77 0.425781)"/>
</clipPath>
</defs>
</svg>
