<svg width="59" height="46" viewBox="0 0 59 46" fill="none" xmlns="http://www.w3.org/2000/svg">
<g clip-path="url(#clip0_1507_6900)">
<path d="M8.52877 0.761719H50.9932C53.1163 0.761719 55.1525 1.60527 56.6538 3.1068C58.1551 4.60832 58.9985 6.64483 58.9985 8.76831V15.8248H0.523438V8.76831C0.523438 6.64483 1.36685 4.60832 2.86814 3.1068C4.36943 1.60527 6.40562 0.761719 8.52877 0.761719Z" fill="#ED1C24"/>
<path d="M58.9891 15.6758H0.523438V30.7389H58.9891V15.6758Z" fill="white"/>
<path d="M0.523438 30.5898H58.9891V37.6149C58.9891 39.7467 58.1423 41.7912 56.6352 43.2986C55.128 44.8061 53.0838 45.6529 50.9523 45.6529H8.73008C6.55354 45.6529 4.46615 44.7882 2.92711 43.2489C1.38806 41.7096 0.523438 39.6219 0.523438 37.445V30.5898Z" fill="#231F20"/>
<path d="M30.9568 25.0866C30.8435 25.1186 30.7406 25.1799 30.6587 25.2645C30.5767 25.349 30.5186 25.4538 30.4902 25.568C30.4609 25.468 30.4096 25.3758 30.3401 25.2982C30.2706 25.2205 30.1847 25.1593 30.0885 25.1191H30.0295C29.9257 25.1064 29.8208 25.1316 29.7341 25.19C29.7007 25.2116 29.6719 25.2397 29.6495 25.2727C29.6272 25.3057 29.6118 25.3429 29.6042 25.382C29.5747 25.3228 29.5332 25.2705 29.4824 25.2283C29.4315 25.1861 29.3724 25.1549 29.3089 25.1368C29.2804 25.134 29.2517 25.134 29.2232 25.1368C29.1347 25.1325 29.0467 25.1529 28.9692 25.1959C28.9022 25.2325 28.8453 25.2853 28.8039 25.3495C28.7477 25.4322 28.6887 25.5533 28.5883 25.5326C28.4879 25.5119 28.4908 25.4499 28.4554 25.3938C28.4131 25.3321 28.3561 25.282 28.2896 25.248C28.2231 25.214 28.1491 25.1971 28.0744 25.1989C28.2277 24.6154 28.2718 24.0086 28.2043 23.4092C28.2256 23.8722 28.1918 24.3362 28.1039 24.7913C28.0803 24.9094 28.033 25.0512 27.912 25.0866C27.7909 25.1221 27.6875 25.0128 27.6166 24.9153C27.5458 24.8179 27.5074 24.7706 27.4572 24.6938C27.4394 24.9892 27.4188 25.314 27.401 25.6241C27.401 25.7305 27.3656 25.8663 27.2593 25.887C27.1399 25.7664 27.0322 25.6349 26.9374 25.4942C26.9197 25.7954 26.896 26.0967 26.8665 26.3979C26.8665 26.519 26.8222 26.6666 26.707 26.6932C26.5918 26.7198 26.4855 26.6135 26.4117 26.5101C26.3431 26.4001 26.282 26.2857 26.2286 26.1675L26.2109 26.2886C26.1928 26.4382 26.1477 26.5833 26.078 26.7168C26.0415 26.7837 25.9877 26.8395 25.9222 26.8785C25.8568 26.9175 25.782 26.9381 25.7059 26.9383C25.4873 25.6035 25.7797 24.2449 25.7915 22.8923C25.7915 22.0418 25.697 21.1529 25.9835 20.3555C26.5108 20.4248 27.0157 20.6126 27.4601 20.9048C27.6359 21.0336 27.8204 21.1501 28.0124 21.2533C27.8986 21.3412 27.7938 21.4401 27.6993 21.5486C27.6175 21.6438 27.5562 21.7548 27.5191 21.8747C27.482 21.9946 27.47 22.1208 27.4837 22.2456C27.5358 22.466 27.6436 22.6694 27.7968 22.8362L28.9604 24.3129C28.9958 24.3601 29.0342 24.4044 29.0756 24.4517C29.1458 24.5323 29.2311 24.5985 29.3266 24.6466C29.3868 24.6739 29.4525 24.6871 29.5186 24.685C29.5621 24.6815 29.6049 24.6715 29.6455 24.6555C29.7257 24.6198 29.7979 24.5686 29.8582 24.5048C29.8995 24.4635 29.9379 24.4192 29.9763 24.3778C30.2039 24.1059 30.4169 23.822 30.6142 23.5273L30.8889 24.7972L30.9568 25.0866Z" fill="#F7941D"/>
<path d="M31.1443 25.9474C31.032 25.9981 30.9327 26.0736 30.8539 26.1682C30.7751 26.2629 30.7189 26.3742 30.6895 26.4938C30.6068 26.4688 30.5307 26.4259 30.4664 26.3682C30.4021 26.3106 30.3512 26.2395 30.3174 26.1601L30.2996 26.1985C30.2527 26.2903 30.1747 26.3624 30.0794 26.4019C29.9842 26.4414 29.878 26.4457 29.7799 26.4141C29.647 26.3639 29.5259 26.2428 29.3841 26.2693C29.3144 26.2968 29.2472 26.3305 29.1833 26.3698C29.1676 26.3782 29.1507 26.3842 29.1331 26.3875C29.1019 26.3934 29.0698 26.3934 29.0386 26.3875C28.9402 26.349 28.8469 26.2984 28.761 26.2369H28.7403C28.6476 26.1959 28.5441 26.1858 28.4452 26.2081C28.3462 26.2304 28.2571 26.284 28.191 26.3609C28.1654 26.2862 28.1238 26.218 28.0693 26.1609C28.0147 26.1037 27.9484 26.0592 27.875 26.0301C27.9104 25.9002 27.9429 25.7702 27.9784 25.6373C28.0138 25.5044 28.0522 25.342 28.0876 25.1943C28.1568 25.1955 28.2248 25.2126 28.2863 25.2444C28.3478 25.2761 28.4011 25.3217 28.442 25.3775C28.4775 25.4336 28.51 25.5015 28.5749 25.5163C28.6399 25.531 28.7344 25.4158 28.7905 25.3332C28.832 25.269 28.8888 25.2162 28.9559 25.1796C29.0334 25.1366 29.1214 25.1162 29.2099 25.1205C29.2384 25.1177 29.2671 25.1177 29.2955 25.1205C29.3591 25.1386 29.4182 25.1698 29.469 25.212C29.5199 25.2542 29.5614 25.3065 29.5909 25.3656C29.5985 25.3265 29.6139 25.2894 29.6362 25.2564C29.6585 25.2234 29.6873 25.1953 29.7208 25.1737C29.8075 25.1153 29.9124 25.0901 30.0161 25.1028H30.0752C30.1713 25.143 30.2573 25.2042 30.3268 25.2818C30.3963 25.3595 30.4475 25.4517 30.4768 25.5517C30.5052 25.4374 30.5634 25.3327 30.6453 25.2482C30.7273 25.1636 30.8301 25.1023 30.9435 25.0703L31.1443 25.9474Z" fill="#F7941D"/>
<path d="M31.4269 27.2674L31.3147 27.3501C31.2748 27.3862 31.2258 27.4107 31.1729 27.421C31.0666 27.421 30.9869 27.3383 30.9219 27.2556C30.8569 27.1729 30.7654 27.0843 30.665 27.1139C30.5646 27.1434 30.5409 27.2261 30.4996 27.3029C30.4582 27.3797 30.3785 27.4564 30.2958 27.4299C30.2636 27.3643 30.2158 27.3077 30.1566 27.2649C30.0974 27.2222 30.0285 27.1947 29.9562 27.1847C29.8832 27.1765 29.8092 27.1861 29.7408 27.2129C29.6723 27.2396 29.6115 27.2827 29.5634 27.3383C29.5132 27.4003 29.46 27.483 29.3803 27.4683C29.3006 27.4535 29.2592 27.2379 29.1411 27.232C29.023 27.2261 29.017 27.3265 28.9462 27.3678C28.9046 27.3869 28.8578 27.3915 28.8134 27.3808C28.7689 27.3701 28.7293 27.3447 28.701 27.3088C28.647 27.2361 28.6097 27.1524 28.5918 27.0637C28.5103 27.0538 28.4276 27.064 28.3509 27.0934C28.2742 27.1227 28.2059 27.1703 28.1517 27.232C28.1015 27.2881 28.0454 27.3649 27.9716 27.3501C27.9391 27.3399 27.9104 27.3204 27.8889 27.294L27.6172 27.0164C27.7028 26.6856 27.7885 26.3549 27.8712 26.0241C27.9446 26.0531 28.0109 26.0977 28.0655 26.1548C28.12 26.2119 28.1615 26.2802 28.1872 26.3549C28.2533 26.278 28.3424 26.2244 28.4413 26.2021C28.5403 26.1797 28.6437 26.1898 28.7365 26.2308H28.7572C28.8431 26.2923 28.9363 26.3429 29.0348 26.3814C29.066 26.3874 29.098 26.3874 29.1293 26.3814C29.1468 26.3782 29.1638 26.3722 29.1795 26.3637C29.2433 26.3244 29.3105 26.2908 29.3803 26.2633C29.5221 26.2367 29.6431 26.3578 29.776 26.408C29.8742 26.4397 29.9804 26.4353 30.0756 26.3958C30.1708 26.3563 30.2489 26.2842 30.2958 26.1924L30.3135 26.154C30.3474 26.2335 30.3983 26.3045 30.4626 26.3622C30.5268 26.4199 30.603 26.4627 30.6857 26.4878C30.7151 26.3682 30.7713 26.2568 30.8501 26.1622C30.9289 26.0675 31.0282 25.992 31.1405 25.9414C31.235 26.3814 31.3236 26.8274 31.4269 27.2674Z" fill="#F7941D"/>
<path d="M31.4871 27.561C30.167 27.8002 28.8114 27.6703 27.4766 27.5404L27.6154 27.0117L27.8871 27.2893C27.9086 27.3157 27.9373 27.3352 27.9698 27.3454C28.0436 27.3454 28.0997 27.2834 28.1499 27.2273C28.2041 27.1656 28.2724 27.118 28.3491 27.0887C28.4258 27.0593 28.5084 27.0492 28.59 27.059C28.6079 27.1477 28.6452 27.2314 28.6992 27.3041C28.7275 27.34 28.7671 27.3654 28.8116 27.3761C28.856 27.3868 28.9028 27.3823 28.9443 27.3632C29.0152 27.3218 29.0566 27.2214 29.1393 27.2273C29.222 27.2332 29.2633 27.4459 29.3785 27.4636C29.4937 27.4813 29.5114 27.3956 29.5616 27.3336C29.6096 27.278 29.6705 27.235 29.739 27.2082C29.8074 27.1814 29.8813 27.1718 29.9544 27.1801C30.0267 27.19 30.0955 27.2175 30.1548 27.2603C30.214 27.303 30.2618 27.3596 30.294 27.4252C30.3767 27.4518 30.4535 27.372 30.4978 27.2982C30.5421 27.2244 30.5805 27.1328 30.6632 27.1092C30.7458 27.0856 30.8551 27.1682 30.9201 27.2509C30.9851 27.3336 31.0648 27.4281 31.1711 27.4163C31.2239 27.4061 31.273 27.3815 31.3129 27.3454L31.4251 27.2627L31.4871 27.561Z" fill="#F7941D"/>
<path d="M33.5388 25.492C33.5191 25.9626 33.4407 26.4288 33.3055 26.88C33.276 26.9804 33.2258 27.0927 33.1254 27.1104C33.025 27.1281 32.9541 27.0543 32.895 26.9834C32.7557 26.8097 32.655 26.6084 32.5997 26.3927C32.574 26.4364 32.5365 26.4719 32.4917 26.4954C32.4468 26.5189 32.3962 26.5294 32.3457 26.5256C32.2158 26.505 32.139 26.3721 32.0829 26.251C31.9677 25.997 31.8643 25.7341 31.7875 25.4684C31.7693 25.4898 31.7443 25.5044 31.7167 25.5097C31.5956 25.5392 31.5099 25.3945 31.4715 25.2764C31.387 25.0054 31.3316 24.7263 31.3062 24.4436L31.2884 24.5085C31.272 24.6101 31.2196 24.7023 31.1408 24.7684C31.1057 24.7888 31.0666 24.8009 31.0262 24.804C30.9857 24.8071 30.9452 24.801 30.9075 24.7861L30.6328 23.5162C30.8297 23.2268 31.0098 22.9315 31.1733 22.6302C31.368 22.3118 31.4834 21.9512 31.5099 21.5789C31.5103 21.4001 31.4678 21.2239 31.3859 21.065C31.7049 20.8849 31.9943 20.6515 32.3073 20.4596C32.5402 20.3106 32.7969 20.2027 33.0663 20.1406L33.2258 21.5198C33.2849 22.0219 33.3439 22.5269 33.3941 23.0289C33.4325 23.4099 33.468 23.7879 33.5005 24.166C33.54 24.6068 33.5528 25.0496 33.5388 25.492Z" fill="#F7941D"/>
<path d="M30.6345 19.041C30.5932 19.4456 30.5489 19.8532 30.5046 20.2578C30.5046 20.3671 30.481 20.4734 30.4721 20.5826C30.4721 20.621 30.4721 20.6653 30.4249 20.686C30.3776 20.7067 30.289 20.621 30.2742 20.5383C30.2595 20.4557 30.2477 20.3966 30.2359 20.3257H30.1886V20.3818C30.1679 20.4911 30.0823 20.6299 29.976 20.5886C29.8696 20.5472 29.8903 20.4675 29.8844 20.3907V20.373H29.784C29.7828 20.3857 29.7828 20.3986 29.784 20.4114C29.7604 20.5236 29.6895 20.6653 29.5773 20.6417C29.465 20.6181 29.4591 20.494 29.4562 20.3966V20.3789C29.3824 20.3833 29.3085 20.3833 29.2347 20.3789C29.1669 20.4819 29.0854 20.5753 28.9925 20.6565L29.028 20.3611H28.9748C28.9219 20.4428 28.8516 20.5116 28.7688 20.5627C28.6861 20.6138 28.593 20.6458 28.4964 20.6565C28.5525 20.6565 28.6263 20.4704 28.6854 20.2844C28.7444 20.0983 28.7769 19.9654 28.7858 19.9182C28.8513 19.6546 28.8801 19.3833 28.8714 19.1119C28.874 18.8467 28.831 18.583 28.7444 18.3322C28.6647 18.1314 28.4993 18.0605 28.3398 17.9217C28.682 17.8654 29.0189 17.7804 29.3469 17.6678C29.5116 17.6053 29.6885 17.5819 29.8637 17.5993C30.039 17.6168 30.2078 17.6745 30.3569 17.7682C30.525 17.9218 30.6302 18.1322 30.6523 18.3588C30.6757 18.586 30.6697 18.8153 30.6345 19.041Z" fill="#F7941D"/>
<path d="M32.2936 20.4726C31.9806 20.6646 31.703 20.8979 31.3722 21.078C31.4541 21.2369 31.4966 21.4132 31.4963 21.5919C31.4698 21.9642 31.3543 22.3248 31.1596 22.6433C30.9942 22.9504 30.814 23.2457 30.6191 23.5293C30.4218 23.8239 30.2088 24.1078 29.9812 24.3798C29.9428 24.4212 29.9044 24.4655 29.8631 24.5068C29.8028 24.5705 29.7306 24.6217 29.6504 24.6574C29.6098 24.6735 29.567 24.6834 29.5235 24.6869C29.4574 24.689 29.3917 24.6759 29.3315 24.6486C29.236 24.6005 29.1507 24.5343 29.0805 24.4536C29.0391 24.4064 29.0007 24.3621 28.9653 24.3148L27.784 22.8205C27.6372 22.6565 27.5337 22.4586 27.4827 22.2446C27.4678 22.1198 27.4787 21.9932 27.5147 21.8728C27.5508 21.7524 27.6113 21.6407 27.6924 21.5447C27.7869 21.4362 27.8917 21.3373 28.0055 21.2493C27.8135 21.1461 27.629 21.0297 27.4532 20.9008C27.0088 20.6086 26.5039 20.4208 25.9766 20.3515C25.9766 20.3102 26.0061 20.2688 26.0238 20.2304C26.1017 20.0001 26.2545 19.8025 26.4579 19.6693C26.5906 19.6049 26.7356 19.5702 26.8831 19.5676C27.0305 19.5651 27.1767 19.5947 27.3114 19.6545C27.5788 19.7757 27.8391 19.9117 28.0911 20.0621C28.2719 20.1517 28.4607 20.2239 28.6552 20.2777C28.5961 20.4637 28.5223 20.6469 28.4662 20.6498C28.5628 20.6391 28.6559 20.6071 28.7387 20.556C28.8214 20.505 28.8918 20.4361 28.9446 20.3545H28.9978L28.9623 20.6498C29.0552 20.5686 29.1367 20.4753 29.2045 20.3722C29.2783 20.3766 29.3522 20.3766 29.426 20.3722V20.3899C29.426 20.4874 29.4526 20.6144 29.5471 20.635C29.6416 20.6557 29.7302 20.5169 29.7538 20.4047C29.7526 20.3919 29.7526 20.3791 29.7538 20.3663H29.8542V20.384C29.8542 20.4608 29.8749 20.5523 29.9458 20.5819C30.0167 20.6114 30.1377 20.4844 30.1584 20.3752V20.319H30.2057C30.2057 20.3899 30.2322 20.4608 30.2441 20.5317C30.2559 20.6026 30.3238 20.7236 30.3947 20.6793C30.4656 20.635 30.436 20.6144 30.4419 20.576C30.4419 20.4667 30.4626 20.3604 30.4744 20.2511C30.6531 20.2007 30.8262 20.1324 30.9912 20.0473C31.3323 19.6924 31.7961 19.4812 32.2877 19.4567C32.3938 19.4412 32.5021 19.4499 32.6044 19.4821C32.7066 19.5143 32.8003 19.5692 32.8784 19.6427C32.9763 19.7846 33.0307 19.9519 33.0349 20.1241C32.7698 20.1972 32.5191 20.3151 32.2936 20.4726Z" fill="#F7941D"/>
</g>
<defs>
<clipPath id="clip0_1507_6900">
<rect x="0.523438" y="0.761719" width="58.4751" height="44.89" rx="10" fill="white"/>
</clipPath>
</defs>
</svg>
