<svg width="136" height="75" viewBox="0 0 136 75" fill="none" xmlns="http://www.w3.org/2000/svg">
<g clip-path="url(#clip0_1514_4722)">
<path d="M18.2879 39.0313H13.9363C13.7833 39.0312 13.6366 39.092 13.5284 39.2002C13.4202 39.3084 13.3594 39.4552 13.3594 39.6082V41.5182C13.3594 41.6713 13.4202 41.818 13.5284 41.9262C13.6366 42.0344 13.7833 42.0952 13.9363 42.0952H14.6574V44.9571H17.5668V42.0952H18.2879C18.4409 42.0952 18.5877 42.0344 18.6959 41.9262C18.8041 41.818 18.8649 41.6713 18.8649 41.5182V39.6082C18.8649 39.4552 18.8041 39.3084 18.6959 39.2002C18.5877 39.092 18.4409 39.0313 18.2879 39.0313Z" fill="#928EDE"/>
<path d="M22.6407 56.5097C19.9756 52.61 18.6132 47.9668 18.7486 43.2454C18.751 43.1365 18.7156 43.03 18.6485 42.9442C18.5813 42.8584 18.4866 42.7984 18.3803 42.7745V41.9492H13.7844V42.7631H13.721C13.6562 42.7632 13.5921 42.7766 13.5327 42.8026C13.4733 42.8285 13.4199 42.8665 13.3759 42.914C13.3318 42.9615 13.298 43.0176 13.2766 43.0788C13.2552 43.14 13.2466 43.2049 13.2514 43.2696C13.6135 48.3167 12.3908 52.8429 9.58351 56.8482C9.42196 57.0783 9.33943 57.3547 9.3483 57.6358L9.85084 73.1807C9.86292 73.5274 10.0084 73.856 10.257 74.098C10.5056 74.34 10.8381 74.4767 11.185 74.4794H21.5802C21.9311 74.4766 22.267 74.3368 22.5163 74.09C22.7657 73.8431 22.9088 73.5086 22.9152 73.1577L23.1088 58.0649C23.1146 57.511 22.9512 56.9684 22.6407 56.5097Z" fill="#3F3D56"/>
<path opacity="0.2" d="M17.3722 39.6445C17.3722 39.9747 17.2411 40.2913 17.0077 40.5247C16.7743 40.7581 16.4577 40.8892 16.1275 40.8892C15.7974 40.8892 15.4808 40.7581 15.2474 40.5247C15.014 40.2913 14.8828 39.9747 14.8828 39.6445" fill="black"/>
<path d="M20.9928 61.6756H19.734C19.6138 60.8958 19.2185 60.1847 18.6196 59.6711C18.0207 59.1574 17.2577 58.875 16.4687 58.875C15.6797 58.875 14.9167 59.1574 14.3178 59.6711C13.7189 60.1847 13.3236 60.8958 13.2034 61.6756H11.9446C11.8106 61.6756 11.6783 61.7046 11.5566 61.7605C11.4349 61.8165 11.3267 61.8981 11.2395 61.9997C11.1523 62.1014 11.0881 62.2207 11.0513 62.3495C11.0146 62.4782 11.0061 62.6135 11.0264 62.7458L12.3937 71.6334H20.245L21.9058 62.7758C21.931 62.6416 21.9263 62.5036 21.892 62.3714C21.8578 62.2393 21.7948 62.1163 21.7076 62.0113C21.6205 61.9063 21.5112 61.8217 21.3877 61.7637C21.2641 61.7057 21.1293 61.6756 20.9928 61.6756Z" fill="#928EDE"/>
<path d="M126.775 47.3867L126.473 59.455L126.099 74.4203H113.371L112.933 56.8867L112.695 47.3867H126.775Z" fill="#E6E6E6"/>
<path d="M120.583 40.9688H118.781V64.8485H120.583V40.9688Z" fill="#928EDE"/>
<path d="M125.869 56.4803L125.528 73.6333H113.927L113.527 53.5367C114.573 53.2432 115.667 53.168 116.743 53.3159C117.818 53.4639 118.852 53.8317 119.779 54.3966C121.717 55.543 123.895 56.1602 125.869 56.4803Z" fill="#3F3D56"/>
<path d="M116.806 58.4102H115.152V60.0639H116.806V58.4102Z" fill="#E6E6E6"/>
<path d="M117.931 55.0273H116.277V56.6811H117.931V55.0273Z" fill="#E6E6E6"/>
<path d="M121.481 57.3679L120.152 56.3828L119.167 57.7111L120.496 58.6962L121.481 57.3679Z" fill="#E6E6E6"/>
<path d="M124.469 60.3054L123.141 59.3203L122.155 60.6486L123.484 61.6337L124.469 60.3054Z" fill="#E6E6E6"/>
<path d="M119.395 61.9929L118.066 61.0078L117.081 62.3361L118.41 63.3212L119.395 61.9929Z" fill="#E6E6E6"/>
<path d="M123.283 54.3712C123.47 54.3712 123.621 54.2199 123.621 54.0332C123.621 53.8466 123.47 53.6953 123.283 53.6953C123.097 53.6953 122.945 53.8466 122.945 54.0332C122.945 54.2199 123.097 54.3712 123.283 54.3712Z" fill="#3F3D56"/>
<path d="M116.412 52.1212C116.599 52.1212 116.75 51.9699 116.75 51.7832C116.75 51.5966 116.599 51.4453 116.412 51.4453C116.226 51.4453 116.074 51.5966 116.074 51.7832C116.074 51.9699 116.226 52.1212 116.412 52.1212Z" fill="#3F3D56"/>
<path d="M122.162 49.7501C122.349 49.7501 122.5 49.5988 122.5 49.4121C122.5 49.2255 122.349 49.0742 122.162 49.0742C121.976 49.0742 121.824 49.2255 121.824 49.4121C121.824 49.5988 121.976 49.7501 122.162 49.7501Z" fill="#3F3D56"/>
<path d="M68.0613 74.318C88.506 74.318 105.08 57.7443 105.08 37.2996C105.08 16.8549 88.506 0.28125 68.0613 0.28125C47.6167 0.28125 31.043 16.8549 31.043 37.2996C31.043 57.7443 47.6167 74.318 68.0613 74.318Z" fill="#928EDE"/>
<path opacity="0.2" d="M68.0625 64.3206C61.8114 64.3205 55.7536 62.153 50.9215 58.1873C46.0893 54.2216 42.7817 48.7031 41.5622 42.5721C40.3427 36.441 41.2867 30.0768 44.2335 24.5638C47.1803 19.0508 51.9475 14.7302 57.7228 12.338C63.4981 9.94579 69.9242 9.63011 75.9061 11.4447C81.8881 13.2594 87.0558 17.092 90.5287 22.2896C94.0017 27.4873 95.565 33.7283 94.9522 39.9493C94.3395 46.1704 91.5887 51.9865 87.1685 56.4067C84.6653 58.9236 81.6877 60.919 78.4082 62.2774C75.1286 63.6358 71.6122 64.3303 68.0625 64.3206ZM68.0625 11.9473C54.0826 11.9473 42.7091 23.3208 42.7091 37.3007C42.7091 51.2806 54.0826 62.6542 68.0625 62.6542C82.0424 62.6542 93.4159 51.2806 93.4159 37.3007C93.4159 23.3208 82.0424 11.9473 68.0625 11.9473Z" fill="black"/>
<path d="M68.0616 63.4865C82.5241 63.4865 94.2483 51.7624 94.2483 37.2999C94.2483 22.8374 82.5241 11.1133 68.0616 11.1133C53.5992 11.1133 41.875 22.8374 41.875 37.2999C41.875 51.7624 53.5992 63.4865 68.0616 63.4865Z" fill="#3F3D56"/>
<path d="M48.5861 26.8268C48.3875 26.4379 48.2676 26.0136 48.233 25.5782C48.1985 25.1429 48.2502 24.705 48.385 24.2896C48.5198 23.8742 48.7352 23.4894 49.0188 23.1573C49.3025 22.8252 49.6488 22.5523 50.0379 22.3541C50.4271 22.1559 50.8515 22.0364 51.2869 22.0023C51.7223 21.9683 52.1602 22.0203 52.5754 22.1556C52.9907 22.2909 53.3752 22.5067 53.707 22.7906C54.0388 23.0746 54.3114 23.4212 54.5092 23.8106L61.9076 38.3387C62.1061 38.7277 62.2261 39.152 62.2606 39.5874C62.2952 40.0227 62.2435 40.4606 62.1087 40.876C61.9739 41.2914 61.7585 41.6762 61.4749 42.0083C61.1912 42.3404 60.8449 42.6133 60.4558 42.8115C60.0666 43.0097 59.6422 43.1292 59.2068 43.1633C58.7714 43.1973 58.3335 43.1452 57.9183 43.01C57.503 42.8747 57.1185 42.6589 56.7867 42.375C56.4549 42.091 56.1823 41.7444 55.9845 41.355L48.5861 26.8268Z" fill="#FF6584"/>
<path opacity="0.2" d="M49.4196 28.4485L49.0781 27.778C50.7823 26.4539 52.7834 25.4801 55.0011 24.7617L55.3426 25.4322C52.9423 25.9321 50.9002 26.8571 49.4196 28.4485Z" fill="black"/>
<path opacity="0.2" d="M51.0016 31.5735L50.6602 30.903C52.3643 29.5789 54.3654 28.6051 56.5832 27.8867L56.9246 28.5572C54.5244 29.0571 52.4823 29.9821 51.0016 31.5735Z" fill="black"/>
<path opacity="0.2" d="M52.5993 34.7102L52.2578 34.0397C53.962 32.7156 55.9631 31.7418 58.1808 31.0234L58.5223 31.694C56.122 32.1938 54.0799 33.1188 52.5993 34.7102Z" fill="black"/>
<path opacity="0.2" d="M54.193 37.8391L53.8516 37.1686C55.5557 35.8445 57.5568 34.8707 59.7746 34.1523L60.116 34.8229C57.7158 35.3227 55.6737 36.2477 54.193 37.8391Z" fill="black"/>
<path opacity="0.2" d="M55.7829 40.9641L55.4414 40.2936C57.1455 38.9695 59.1467 37.9957 61.3644 37.2773L61.7059 37.9479C59.3056 38.4477 57.2635 39.3727 55.7829 40.9641Z" fill="black"/>
<path d="M43.0352 32.264C42.8367 31.8751 42.7167 31.4508 42.6822 31.0155C42.6478 30.5801 42.6994 30.1423 42.8343 29.7269C42.9691 29.3115 43.1845 28.9268 43.4681 28.5947C43.7517 28.2627 44.098 27.9898 44.4871 27.7916C44.8763 27.5934 45.3007 27.4739 45.7361 27.4398C46.1714 27.4058 46.6092 27.4578 47.0245 27.5931C47.4397 27.7283 47.8242 27.944 48.156 28.228C48.4878 28.5119 48.7604 28.8584 48.9582 29.2478L56.3566 43.7759C56.7555 44.5613 56.8263 45.4728 56.5535 46.3103C56.2807 47.1478 55.6866 47.8428 54.9017 48.2425C54.1168 48.6422 53.2053 48.7139 52.3675 48.442C51.5297 48.1701 50.8341 47.5767 50.4336 46.7922L43.0352 32.264Z" fill="#FF6584"/>
<path opacity="0.2" d="M43.861 33.886L43.5195 33.2155C45.2237 31.8914 47.2248 30.9176 49.4426 30.1992L49.784 30.8697C47.3837 31.3696 45.3417 32.2946 43.861 33.886Z" fill="black"/>
<path opacity="0.2" d="M45.4547 37.0149L45.1133 36.3444C46.8174 35.0203 48.8186 34.0465 51.0363 33.3281L51.3778 33.9987C48.9775 34.4985 46.9354 35.4235 45.4547 37.0149Z" fill="black"/>
<path opacity="0.2" d="M47.0524 40.1516L46.7109 39.4811C48.4151 38.157 50.4162 37.1832 52.634 36.4648L52.9754 37.1354C50.5751 37.6352 48.5331 38.5602 47.0524 40.1516Z" fill="black"/>
<path opacity="0.2" d="M48.6462 43.2766L48.3047 42.6061C50.0088 41.282 52.01 40.3082 54.2277 39.5898L54.5692 40.2604C52.1689 40.7602 50.1268 41.6852 48.6462 43.2766Z" fill="black"/>
<path opacity="0.2" d="M50.2282 46.4016L49.8867 45.7311C51.5909 44.407 53.592 43.4332 55.8097 42.7148L56.1512 43.3854C53.7509 43.8852 51.7088 44.8102 50.2282 46.4016Z" fill="black"/>
<path d="M85.5564 38.1336L85.5798 38.1336C86.3767 38.1403 87.1571 37.9066 87.8192 37.4631C88.4813 37.0196 88.9943 36.3869 89.2914 35.6474C89.9024 34.1029 90.2103 32.4552 90.1984 30.7943C90.1568 23.7643 84.4375 17.997 77.408 17.8997C74.4143 17.8578 71.4982 18.8524 69.154 20.7149C66.8099 22.5774 65.1819 25.1933 64.546 28.119C63.9102 31.0447 64.3056 34.1003 65.6653 36.7677C67.0249 39.4352 69.2652 41.5504 72.0063 42.7549C72.7306 43.0756 73.535 43.1699 74.3139 43.0255C75.0928 42.881 75.8099 42.5046 76.3712 41.9455C77.5749 40.7354 79.0063 39.7756 80.5827 39.1213C82.1592 38.4671 83.8496 38.1314 85.5564 38.1336Z" fill="#E6E6E6"/>
<path d="M78.8906 34.203C81.2571 34.203 83.1756 32.2845 83.1756 29.9179C83.1756 27.5513 81.2571 25.6328 78.8906 25.6328C76.524 25.6328 74.6055 27.5513 74.6055 29.9179C74.6055 32.2845 76.524 34.203 78.8906 34.203Z" fill="#F9A825"/>
<path d="M69.5829 29.4432C69.8617 29.4432 70.0877 29.2172 70.0877 28.9384C70.0877 28.6596 69.8617 28.4336 69.5829 28.4336C69.3041 28.4336 69.0781 28.6596 69.0781 28.9384C69.0781 29.2172 69.3041 29.4432 69.5829 29.4432Z" fill="#3F3D56"/>
<path d="M52.9111 29.908C53.1898 29.908 53.4159 29.682 53.4159 29.4032C53.4159 29.1244 53.1898 28.8984 52.9111 28.8984C52.6323 28.8984 52.4062 29.1244 52.4062 29.4032C52.4062 29.682 52.6323 29.908 52.9111 29.908Z" fill="#3F3D56"/>
<path d="M72.2665 24.201C72.5453 24.201 72.7713 23.975 72.7713 23.6962C72.7713 23.4174 72.5453 23.1914 72.2665 23.1914C71.9877 23.1914 71.7617 23.4174 71.7617 23.6962C71.7617 23.975 71.9877 24.201 72.2665 24.201Z" fill="#3F3D56"/>
<path d="M72.2548 38.7557C72.5336 38.7557 72.7596 38.5297 72.7596 38.2509C72.7596 37.9721 72.5336 37.7461 72.2548 37.7461C71.976 37.7461 71.75 37.9721 71.75 38.2509C71.75 38.5297 71.976 38.7557 72.2548 38.7557Z" fill="#3F3D56"/>
<path d="M82.2587 23.1659C82.5375 23.1659 82.7635 22.9398 82.7635 22.6611C82.7635 22.3823 82.5375 22.1562 82.2587 22.1562C81.9799 22.1562 81.7539 22.3823 81.7539 22.6611C81.7539 22.9398 81.9799 23.1659 82.2587 23.1659Z" fill="#3F3D56"/>
<path d="M49.6415 36.9705C49.9203 36.9705 50.1463 36.7445 50.1463 36.4657C50.1463 36.1869 49.9203 35.9609 49.6415 35.9609C49.3627 35.9609 49.1367 36.1869 49.1367 36.4657C49.1367 36.7445 49.3627 36.9705 49.6415 36.9705Z" fill="#3F3D56"/>
<path d="M53.329 44.2323C53.6078 44.2323 53.8338 44.0063 53.8338 43.7275C53.8338 43.4487 53.6078 43.2227 53.329 43.2227C53.0502 43.2227 52.8242 43.4487 52.8242 43.7275C52.8242 44.0063 53.0502 44.2323 53.329 44.2323Z" fill="#3F3D56"/>
<path d="M76.51 46.5863C77.5618 46.5863 78.4144 45.7336 78.4144 44.6818C78.4144 43.63 77.5618 42.7773 76.51 42.7773C75.4581 42.7773 74.6055 43.63 74.6055 44.6818C74.6055 45.7336 75.4581 46.5863 76.51 46.5863Z" fill="#FF6584"/>
<path opacity="0.2" d="M77.9427 44.8008C77.9427 45.1796 77.7922 45.5429 77.5243 45.8108C77.2564 46.0787 76.8931 46.2291 76.5143 46.2291C76.1355 46.2291 75.7722 46.0787 75.5043 45.8108C75.2364 45.5429 75.0859 45.1796 75.0859 44.8008" fill="black"/>
<path opacity="0.2" d="M75.0859 44.5573C75.0859 44.1784 75.2364 43.8151 75.5043 43.5473C75.7722 43.2794 76.1355 43.1289 76.5143 43.1289C76.8931 43.1289 77.2564 43.2794 77.5243 43.5473C77.7922 43.8151 77.9427 44.1784 77.9427 44.5573" fill="black"/>
<path d="M75.7948 44.2008C75.8605 44.2008 75.9138 44.1209 75.9138 44.0223C75.9138 43.9237 75.8605 43.8438 75.7948 43.8438C75.7291 43.8438 75.6758 43.9237 75.6758 44.0223C75.6758 44.1209 75.7291 44.2008 75.7948 44.2008Z" fill="#FF6584"/>
<path d="M76.5097 43.9626C76.5754 43.9626 76.6287 43.8826 76.6287 43.784C76.6287 43.6854 76.5754 43.6055 76.5097 43.6055C76.4439 43.6055 76.3906 43.6854 76.3906 43.784C76.3906 43.8826 76.4439 43.9626 76.5097 43.9626Z" fill="#FF6584"/>
<path d="M76.5097 45.5133C76.5754 45.5133 76.6287 45.4334 76.6287 45.3348C76.6287 45.2362 76.5754 45.1562 76.5097 45.1562C76.4439 45.1562 76.3906 45.2362 76.3906 45.3348C76.3906 45.4334 76.4439 45.5133 76.5097 45.5133Z" fill="#FF6584"/>
<path d="M77.2284 44.568C77.2941 44.568 77.3474 44.4881 77.3474 44.3895C77.3474 44.2909 77.2941 44.2109 77.2284 44.2109C77.1627 44.2109 77.1094 44.2909 77.1094 44.3895C77.1094 44.4881 77.1627 44.568 77.2284 44.568Z" fill="#FF6584"/>
<path d="M77.1034 45.8727C77.1691 45.8727 77.2224 45.7928 77.2224 45.6942C77.2224 45.5956 77.1691 45.5156 77.1034 45.5156C77.0377 45.5156 76.9844 45.5956 76.9844 45.6942C76.9844 45.7928 77.0377 45.8727 77.1034 45.8727Z" fill="#FF6584"/>
<path d="M75.6815 45.2751C75.7473 45.2751 75.8006 45.1951 75.8006 45.0965C75.8006 44.9979 75.7473 44.918 75.6815 44.918C75.6158 44.918 75.5625 44.9979 75.5625 45.0965C75.5625 45.1951 75.6158 45.2751 75.6815 45.2751Z" fill="#FF6584"/>
<path d="M80.3225 41.4652C81.3743 41.4652 82.2269 40.6126 82.2269 39.5607C82.2269 38.5089 81.3743 37.6562 80.3225 37.6562C79.2706 37.6562 78.418 38.5089 78.418 39.5607C78.418 40.6126 79.2706 41.4652 80.3225 41.4652Z" fill="#FF6584"/>
<path opacity="0.2" d="M81.7552 39.6836C81.7552 40.0624 81.6047 40.4257 81.3368 40.6936C81.0689 40.9615 80.7056 41.112 80.3268 41.112C79.948 41.112 79.5847 40.9615 79.3168 40.6936C79.0489 40.4257 78.8984 40.0624 78.8984 39.6836" fill="black"/>
<path opacity="0.2" d="M78.8984 39.444C78.8984 39.0652 79.0489 38.7019 79.3168 38.434C79.5847 38.1661 79.948 38.0156 80.3268 38.0156C80.7056 38.0156 81.0689 38.1661 81.3368 38.434C81.6047 38.7019 81.7552 39.0652 81.7552 39.444" fill="black"/>
<path d="M79.6073 39.0797C79.673 39.0797 79.7263 38.9998 79.7263 38.9012C79.7263 38.8026 79.673 38.7227 79.6073 38.7227C79.5416 38.7227 79.4883 38.8026 79.4883 38.9012C79.4883 38.9998 79.5416 39.0797 79.6073 39.0797Z" fill="#FF6584"/>
<path d="M80.3261 38.8415C80.3918 38.8415 80.4451 38.7615 80.4451 38.6629C80.4451 38.5643 80.3918 38.4844 80.3261 38.4844C80.2603 38.4844 80.207 38.5643 80.207 38.6629C80.207 38.7615 80.2603 38.8415 80.3261 38.8415Z" fill="#FF6584"/>
<path d="M80.3261 40.3922C80.3918 40.3922 80.4451 40.3123 80.4451 40.2137C80.4451 40.1151 80.3918 40.0352 80.3261 40.0352C80.2603 40.0352 80.207 40.1151 80.207 40.2137C80.207 40.3123 80.2603 40.3922 80.3261 40.3922Z" fill="#FF6584"/>
<path d="M81.0292 39.4391C81.0949 39.4391 81.1482 39.3592 81.1482 39.2606C81.1482 39.162 81.0949 39.082 81.0292 39.082C80.9634 39.082 80.9102 39.162 80.9102 39.2606C80.9102 39.3592 80.9634 39.4391 81.0292 39.4391Z" fill="#FF6584"/>
<path d="M80.9159 40.7516C80.9816 40.7516 81.0349 40.6717 81.0349 40.5731C81.0349 40.4745 80.9816 40.3945 80.9159 40.3945C80.8502 40.3945 80.7969 40.4745 80.7969 40.5731C80.7969 40.6717 80.8502 40.7516 80.9159 40.7516Z" fill="#FF6584"/>
<path d="M79.4901 40.1501C79.5559 40.1501 79.6092 40.0701 79.6092 39.9715C79.6092 39.8729 79.5559 39.793 79.4901 39.793C79.4244 39.793 79.3711 39.8729 79.3711 39.9715C79.3711 40.0701 79.4244 40.1501 79.4901 40.1501Z" fill="#FF6584"/>
<path d="M84.1232 44.0824C85.175 44.0824 86.0277 43.2297 86.0277 42.1779C86.0277 41.1261 85.175 40.2734 84.1232 40.2734C83.0714 40.2734 82.2188 41.1261 82.2188 42.1779C82.2188 43.2297 83.0714 44.0824 84.1232 44.0824Z" fill="#928EDE"/>
<path opacity="0.2" d="M85.5559 42.2969C85.5559 42.6757 85.4055 43.039 85.1376 43.3069C84.8697 43.5748 84.5064 43.7252 84.1276 43.7252C83.7488 43.7252 83.3854 43.5748 83.1176 43.3069C82.8497 43.039 82.6992 42.6757 82.6992 42.2969" fill="black"/>
<path opacity="0.2" d="M82.6992 42.0612C82.6992 41.6824 82.8497 41.319 83.1176 41.0512C83.3854 40.7833 83.7488 40.6328 84.1276 40.6328C84.5064 40.6328 84.8697 40.7833 85.1376 41.0512C85.4055 41.319 85.5559 41.6824 85.5559 42.0612" fill="black"/>
<path d="M83.4198 41.7008C83.4855 41.7008 83.5388 41.6209 83.5388 41.5223C83.5388 41.4237 83.4855 41.3438 83.4198 41.3438C83.3541 41.3438 83.3008 41.4237 83.3008 41.5223C83.3008 41.6209 83.3541 41.7008 83.4198 41.7008Z" fill="#928EDE"/>
<path d="M84.1268 41.4704C84.1926 41.4704 84.2459 41.3904 84.2459 41.2918C84.2459 41.1932 84.1926 41.1133 84.1268 41.1133C84.0611 41.1133 84.0078 41.1932 84.0078 41.2918C84.0078 41.3904 84.0611 41.4704 84.1268 41.4704Z" fill="#928EDE"/>
<path d="M84.1268 43.0172C84.1926 43.0172 84.2459 42.9373 84.2459 42.8387C84.2459 42.7401 84.1926 42.6602 84.1268 42.6602C84.0611 42.6602 84.0078 42.7401 84.0078 42.8387C84.0078 42.9373 84.0611 43.0172 84.1268 43.0172Z" fill="#928EDE"/>
<path d="M84.8456 42.0602C84.9113 42.0602 84.9646 41.9803 84.9646 41.8817C84.9646 41.7831 84.9113 41.7031 84.8456 41.7031C84.7799 41.7031 84.7266 41.7831 84.7266 41.8817C84.7266 41.9803 84.7799 42.0602 84.8456 42.0602Z" fill="#928EDE"/>
<path d="M84.7245 43.3727C84.7902 43.3727 84.8435 43.2928 84.8435 43.1942C84.8435 43.0956 84.7902 43.0156 84.7245 43.0156C84.6588 43.0156 84.6055 43.0956 84.6055 43.1942C84.6055 43.2928 84.6588 43.3727 84.7245 43.3727Z" fill="#928EDE"/>
<path d="M83.2948 42.7751C83.3605 42.7751 83.4138 42.6951 83.4138 42.5965C83.4138 42.4979 83.3605 42.418 83.2948 42.418C83.2291 42.418 83.1758 42.4979 83.1758 42.5965C83.1758 42.6951 83.2291 42.7751 83.2948 42.7751Z" fill="#928EDE"/>
<path d="M74.6115 44.3168C75.6633 44.3168 76.516 43.4641 76.516 42.4123C76.516 41.3605 75.6633 40.5078 74.6115 40.5078C73.5597 40.5078 72.707 41.3605 72.707 42.4123C72.707 43.4641 73.5597 44.3168 74.6115 44.3168Z" fill="#928EDE"/>
<path opacity="0.2" d="M76.0364 42.5312C76.0364 42.9101 75.8859 43.2734 75.618 43.5413C75.3502 43.8091 74.9869 43.9596 74.608 43.9596C74.2292 43.9596 73.8659 43.8091 73.598 43.5413C73.3302 43.2734 73.1797 42.9101 73.1797 42.5312" fill="black"/>
<path opacity="0.2" d="M73.1797 42.2995C73.1797 41.9206 73.3302 41.5573 73.598 41.2895C73.8659 41.0216 74.2292 40.8711 74.608 40.8711C74.9869 40.8711 75.3502 41.0216 75.618 41.2895C75.8859 41.5573 76.0364 41.9206 76.0364 42.2995" fill="black"/>
<path d="M73.8964 41.9391C73.9621 41.9391 74.0154 41.8592 74.0154 41.7606C74.0154 41.662 73.9621 41.582 73.8964 41.582C73.8306 41.582 73.7773 41.662 73.7773 41.7606C73.7773 41.8592 73.8306 41.9391 73.8964 41.9391Z" fill="#928EDE"/>
<path d="M74.6112 41.7008C74.677 41.7008 74.7302 41.6209 74.7302 41.5223C74.7302 41.4237 74.677 41.3438 74.6112 41.3438C74.5455 41.3438 74.4922 41.4237 74.4922 41.5223C74.4922 41.6209 74.5455 41.7008 74.6112 41.7008Z" fill="#928EDE"/>
<path d="M74.6112 43.2477C74.677 43.2477 74.7302 43.1678 74.7302 43.0692C74.7302 42.9706 74.677 42.8906 74.6112 42.8906C74.5455 42.8906 74.4922 42.9706 74.4922 43.0692C74.4922 43.1678 74.5455 43.2477 74.6112 43.2477Z" fill="#928EDE"/>
<path d="M75.3222 42.2985C75.3879 42.2985 75.4412 42.2186 75.4412 42.12C75.4412 42.0213 75.3879 41.9414 75.3222 41.9414C75.2564 41.9414 75.2031 42.0213 75.2031 42.12C75.2031 42.2186 75.2564 42.2985 75.3222 42.2985Z" fill="#928EDE"/>
<path d="M75.205 43.6071C75.2707 43.6071 75.324 43.5272 75.324 43.4285C75.324 43.3299 75.2707 43.25 75.205 43.25C75.1392 43.25 75.0859 43.3299 75.0859 43.4285C75.0859 43.5272 75.1392 43.6071 75.205 43.6071Z" fill="#928EDE"/>
<path d="M73.7714 43.0172C73.8371 43.0172 73.8904 42.9373 73.8904 42.8387C73.8904 42.7401 73.8371 42.6602 73.7714 42.6602C73.7056 42.6602 73.6523 42.7401 73.6523 42.8387C73.6523 42.9373 73.7056 43.0172 73.7714 43.0172Z" fill="#928EDE"/>
<path d="M78.8889 45.1527C79.9407 45.1527 80.7933 44.3 80.7933 43.2482C80.7933 42.1964 79.9407 41.3438 78.8889 41.3438C77.837 41.3438 76.9844 42.1964 76.9844 43.2482C76.9844 44.3 77.837 45.1527 78.8889 45.1527Z" fill="#928EDE"/>
<path opacity="0.2" d="M80.3216 43.3672C80.3216 43.5548 80.2846 43.7405 80.2128 43.9138C80.1411 44.0871 80.0358 44.2446 79.9032 44.3772C79.7706 44.5098 79.6131 44.615 79.4398 44.6868C79.2665 44.7586 79.0808 44.7955 78.8932 44.7955C78.7056 44.7955 78.5199 44.7586 78.3466 44.6868C78.1733 44.615 78.0158 44.5098 77.8832 44.3772C77.7506 44.2446 77.6453 44.0871 77.5736 43.9138C77.5018 43.7405 77.4648 43.5548 77.4648 43.3672" fill="black"/>
<path opacity="0.2" d="M77.4648 43.1315C77.4648 42.9439 77.5018 42.7582 77.5736 42.5849C77.6453 42.4116 77.7506 42.2541 77.8832 42.1215C78.0158 41.9888 78.1733 41.8836 78.3466 41.8119C78.5199 41.7401 78.7056 41.7031 78.8932 41.7031C79.0808 41.7031 79.2665 41.7401 79.4398 41.8119C79.6131 41.8836 79.7706 41.9888 79.9032 42.1215C80.0358 42.2541 80.1411 42.4116 80.2128 42.5849C80.2846 42.7582 80.3216 42.9439 80.3216 43.1315" fill="black"/>
<path d="M78.1737 42.7751C78.2395 42.7751 78.2927 42.6951 78.2927 42.5965C78.2927 42.4979 78.2395 42.418 78.1737 42.418C78.108 42.418 78.0547 42.4979 78.0547 42.5965C78.0547 42.6951 78.108 42.7751 78.1737 42.7751Z" fill="#928EDE"/>
<path d="M78.8925 42.5368C78.9582 42.5368 79.0115 42.4568 79.0115 42.3582C79.0115 42.2596 78.9582 42.1797 78.8925 42.1797C78.8267 42.1797 78.7734 42.2596 78.7734 42.3582C78.7734 42.4568 78.8267 42.5368 78.8925 42.5368Z" fill="#928EDE"/>
<path d="M78.8925 44.0876C78.9582 44.0876 79.0115 44.0076 79.0115 43.909C79.0115 43.8104 78.9582 43.7305 78.8925 43.7305C78.8267 43.7305 78.7734 43.8104 78.7734 43.909C78.7734 44.0076 78.8267 44.0876 78.8925 44.0876Z" fill="#928EDE"/>
<path d="M79.6073 43.1344C79.673 43.1344 79.7263 43.0545 79.7263 42.9559C79.7263 42.8573 79.673 42.7773 79.6073 42.7773C79.5416 42.7773 79.4883 42.8573 79.4883 42.9559C79.4883 43.0545 79.5416 43.1344 79.6073 43.1344Z" fill="#928EDE"/>
<path d="M79.4901 44.4391C79.5559 44.4391 79.6092 44.3592 79.6092 44.2606C79.6092 44.162 79.5559 44.082 79.4901 44.082C79.4244 44.082 79.3711 44.162 79.3711 44.2606C79.3711 44.3592 79.4244 44.4391 79.4901 44.4391Z" fill="#928EDE"/>
<path d="M78.0604 43.8493C78.1262 43.8493 78.1795 43.7693 78.1795 43.6707C78.1795 43.5721 78.1262 43.4922 78.0604 43.4922C77.9947 43.4922 77.9414 43.5721 77.9414 43.6707C77.9414 43.7693 77.9947 43.8493 78.0604 43.8493Z" fill="#928EDE"/>
<path d="M81.8732 47.1762C82.925 47.1762 83.7777 46.3235 83.7777 45.2717C83.7777 44.2199 82.925 43.3672 81.8732 43.3672C80.8214 43.3672 79.9688 44.2199 79.9688 45.2717C79.9688 46.3235 80.8214 47.1762 81.8732 47.1762Z" fill="#FF6584"/>
<path opacity="0.2" d="M83.2981 45.3906C83.2981 45.7694 83.1476 46.1328 82.8798 46.4006C82.6119 46.6685 82.2486 46.819 81.8698 46.819C81.4909 46.819 81.1276 46.6685 80.8598 46.4006C80.5919 46.1328 80.4414 45.7694 80.4414 45.3906" fill="black"/>
<path opacity="0.2" d="M80.4414 45.1588C80.4414 44.78 80.5919 44.4167 80.8598 44.1488C81.1276 43.881 81.4909 43.7305 81.8698 43.7305C82.2486 43.7305 82.6119 43.881 82.8798 44.1488C83.1476 44.4167 83.2981 44.78 83.2981 45.1588" fill="black"/>
<path d="M81.1542 44.7985C81.2199 44.7985 81.2732 44.7186 81.2732 44.62C81.2732 44.5213 81.2199 44.4414 81.1542 44.4414C81.0884 44.4414 81.0352 44.5213 81.0352 44.62C81.0352 44.7186 81.0884 44.7985 81.1542 44.7985Z" fill="#FF6584"/>
<path d="M81.8729 44.568C81.9387 44.568 81.992 44.4881 81.992 44.3895C81.992 44.2909 81.9387 44.2109 81.8729 44.2109C81.8072 44.2109 81.7539 44.2909 81.7539 44.3895C81.7539 44.4881 81.8072 44.568 81.8729 44.568Z" fill="#FF6584"/>
<path d="M81.8729 46.1149C81.9387 46.1149 81.992 46.035 81.992 45.9364C81.992 45.8377 81.9387 45.7578 81.8729 45.7578C81.8072 45.7578 81.7539 45.8377 81.7539 45.9364C81.7539 46.035 81.8072 46.1149 81.8729 46.1149Z" fill="#FF6584"/>
<path d="M82.58 45.1579C82.6457 45.1579 82.699 45.0779 82.699 44.9793C82.699 44.8807 82.6457 44.8008 82.58 44.8008C82.5142 44.8008 82.4609 44.8807 82.4609 44.9793C82.4609 45.0779 82.5142 45.1579 82.58 45.1579Z" fill="#FF6584"/>
<path d="M82.4628 46.4665C82.5285 46.4665 82.5818 46.3865 82.5818 46.2879C82.5818 46.1893 82.5285 46.1094 82.4628 46.1094C82.397 46.1094 82.3438 46.1893 82.3438 46.2879C82.3438 46.3865 82.397 46.4665 82.4628 46.4665Z" fill="#FF6584"/>
<path d="M81.0292 45.8727C81.0949 45.8727 81.1482 45.7928 81.1482 45.6942C81.1482 45.5956 81.0949 45.5156 81.0292 45.5156C80.9634 45.5156 80.9102 45.5956 80.9102 45.6942C80.9102 45.7928 80.9634 45.8727 81.0292 45.8727Z" fill="#FF6584"/>
<path d="M57.3798 38.5174C57.6586 38.5174 57.8846 38.2914 57.8846 38.0126C57.8846 37.7338 57.6586 37.5078 57.3798 37.5078C57.101 37.5078 56.875 37.7338 56.875 38.0126C56.875 38.2914 57.101 38.5174 57.3798 38.5174Z" fill="#3F3D56"/>
<path d="M71.0963 56.3372L58.9727 52.9751L59.4371 51.25L71.5607 54.6123L71.0963 56.3372Z" fill="#F9A825"/>
<path d="M69.3181 55.757C65.1664 56.5518 60.9017 56.5518 56.75 55.757V53.9688C60.911 54.6584 65.1571 54.6584 69.3181 53.9688V55.757Z" fill="#F9A825"/>
<path d="M70.615 50.3898C66.4633 51.1846 62.1985 51.1846 58.0469 50.3898V48.6016C62.2079 49.2912 66.454 49.2912 70.615 48.6016V50.3898Z" fill="#F9A825"/>
<path d="M74.9626 52.546C70.8109 53.3408 66.5462 53.3408 62.3945 52.546V50.7578C66.5555 51.4474 70.8016 51.4474 74.9626 50.7578V52.546Z" fill="#F9A825"/>
<path d="M76.0212 54.5734C71.8695 55.3682 67.6048 55.3682 63.4531 54.5734V52.7852C67.6141 53.4748 71.8602 53.4748 76.0212 52.7852V54.5734Z" fill="#F9A825"/>
<path d="M79.7027 57.2174L67.3032 59.3002L67.0156 57.5359L79.415 55.4531L79.7027 57.2174Z" fill="#F9A825"/>
<path d="M77.851 57.4452C74.4133 59.9232 70.5388 61.7303 66.431 62.7715L65.6953 61.1466C69.7672 60.0065 73.6249 58.2072 77.1153 55.8203L77.851 57.4452Z" fill="#F9A825"/>
<path d="M76.8237 52.0272C73.3859 54.5053 69.5115 56.3123 65.4036 57.3535L64.668 55.7287C68.7399 54.5885 72.5976 52.7892 76.088 50.4023L76.8237 52.0272Z" fill="#F9A825"/>
<path d="M81.644 52.1288C78.2063 54.6068 74.3318 56.4139 70.224 57.4551L69.4883 55.8302C73.5602 54.69 77.4179 52.8908 80.9083 50.5039L81.644 52.1288Z" fill="#F9A825"/>
<path d="M83.4487 53.5311C80.0109 56.0092 76.1365 57.8162 72.0286 58.8575L71.293 57.2326C75.3649 56.0924 79.2226 54.2931 82.713 51.9062L83.4487 53.5311Z" fill="#F9A825"/>
<path d="M68.4194 50.0352H67.8242V50.6303H68.4194V50.0352Z" fill="#3F594F"/>
<path d="M70.2045 60.3945H69.6094V60.9897H70.2045V60.3945Z" fill="#3F594F"/>
<path d="M60.6772 50.0352H60.082V50.6303H60.6772V50.0352Z" fill="#3F594F"/>
<path d="M74.4858 57.4102H73.8906V58.0053H74.4858V57.4102Z" fill="#3F594F"/>
<path d="M74.8452 53.9609H74.25V54.5561H74.8452V53.9609Z" fill="#3F594F"/>
<path d="M65.0293 52.335L64.3398 51.8672L64.0725 52.2612L64.762 52.729L65.0293 52.335Z" fill="#3F594F"/>
<path d="M72.0528 53.6397L71.3633 53.1719L71.096 53.5659L71.7855 54.0337L72.0528 53.6397Z" fill="#3F594F"/>
<path d="M63.4825 55.9092L62.793 55.4414L62.5257 55.8354L63.2151 56.3032L63.4825 55.9092Z" fill="#3F594F"/>
<path d="M67.8408 55.8692L68.3086 55.1797L67.9146 54.9124L67.4468 55.6019L67.8408 55.8692Z" fill="#3F594F"/>
<path d="M71.0517 56.7051L71.5195 56.0156L71.1255 55.7483L70.6577 56.4378L71.0517 56.7051Z" fill="#3F594F"/>
<path d="M79.6338 53.8418L80.1016 53.1523L79.7076 52.885L79.2398 53.5745L79.6338 53.8418Z" fill="#3F594F"/>
</g>
<defs>
<clipPath id="clip0_1514_4722">
<rect width="135.974" height="74.3401" fill="white" transform="translate(0 0.28125)"/>
</clipPath>
</defs>
</svg>
