<svg width="115" height="91" viewBox="0 0 115 91" fill="none" xmlns="http://www.w3.org/2000/svg">
<g clip-path="url(#clip0_1514_4845)">
<path d="M88.3131 83.653H36.2372C35.9144 83.6526 35.6049 83.5241 35.3766 83.2955C35.1483 83.067 35.0199 82.7571 35.0195 82.4339V46.8324C35.0199 46.5092 35.1483 46.1993 35.3766 45.9708C35.6049 45.7422 35.9144 45.6137 36.2372 45.6133H88.3131C88.6359 45.6137 88.9454 45.7422 89.1737 45.9708C89.402 46.1993 89.5304 46.5092 89.5308 46.8324V82.4339C89.5304 82.7571 89.402 83.067 89.1737 83.2955C88.9454 83.5241 88.6359 83.6526 88.3131 83.653Z" fill="white"/>
<path d="M88.3131 83.653H36.2372C35.9144 83.6526 35.6049 83.5241 35.3766 83.2955C35.1483 83.067 35.0199 82.7571 35.0195 82.4339V46.8324C35.0199 46.5092 35.1483 46.1993 35.3766 45.9708C35.6049 45.7422 35.9144 45.6137 36.2372 45.6133H88.3131C88.6359 45.6137 88.9454 45.7422 89.1737 45.9708C89.402 46.1993 89.5304 46.5092 89.5308 46.8324V82.4339C89.5304 82.7571 89.402 83.067 89.1737 83.2955C88.9454 83.5241 88.6359 83.6526 88.3131 83.653ZM36.2372 45.8842C35.9861 45.8845 35.7454 45.9845 35.5678 46.1622C35.3903 46.34 35.2904 46.581 35.2901 46.8324V82.4339C35.2904 82.6853 35.3903 82.9263 35.5678 83.1041C35.7454 83.2818 35.9861 83.3818 36.2372 83.3821H88.3131C88.5642 83.3818 88.8049 83.2818 88.9825 83.1041C89.16 82.9263 89.2599 82.6853 89.2602 82.4339V46.8324C89.2599 46.581 89.16 46.34 88.9825 46.1622C88.8049 45.9845 88.5642 45.8845 88.3131 45.8842H36.2372Z" fill="#3F3D56"/>
<path d="M68.3024 83.4345H56.2461V63.4517C56.2466 62.9777 56.4349 62.5234 56.7697 62.1882C57.1044 61.8531 57.5582 61.6646 58.0316 61.6641H66.5169C66.9903 61.6646 67.4441 61.8531 67.7788 62.1882C68.1136 62.5234 68.3019 62.9777 68.3024 63.4517V83.4345Z" fill="#E6E6E6"/>
<path d="M85.934 35.5633H78.3516V21.8497C78.352 21.4649 78.4934 21.0961 78.7448 20.824C78.9962 20.5519 79.337 20.3989 79.6926 20.3984H84.593C84.9485 20.3989 85.2894 20.5519 85.5408 20.824C85.7922 21.0961 85.9336 21.4649 85.934 21.8497V35.5633Z" fill="white"/>
<path d="M85.471 38.0203H78.5859V26.5004C78.5863 26.1772 78.7147 25.8673 78.943 25.6387C79.1713 25.4102 79.4808 25.2816 79.8036 25.2812H84.2533C84.5762 25.2816 84.8857 25.4102 85.114 25.6387C85.3423 25.8673 85.4707 26.1772 85.471 26.5004V38.0203ZM78.8565 37.7494H85.2004V26.5004C85.2002 26.249 85.1003 26.008 84.9227 25.8302C84.7452 25.6524 84.5044 25.5524 84.2533 25.5522H79.8036C79.5525 25.5524 79.3118 25.6524 79.1342 25.8302C78.9567 26.008 78.8568 26.249 78.8565 26.5004V37.7494Z" fill="#3F3D56"/>
<path d="M46.1286 41.8806C53.457 41.8806 59.3978 34.5253 59.3978 25.452C59.3978 16.3788 53.457 9.02344 46.1286 9.02344C38.8002 9.02344 32.8594 16.3788 32.8594 25.452C32.8594 34.5253 38.8002 41.8806 46.1286 41.8806Z" fill="#F2F2F2"/>
<path d="M51.1537 67.4777H40.9697C40.5635 67.4772 40.174 67.3154 39.8868 67.0279C39.5995 66.7403 39.4379 66.3503 39.4375 65.9436V57.5379C39.438 57.1312 39.5995 56.7413 39.8868 56.4537C40.174 56.1661 40.5635 56.0044 40.9697 56.0039H51.1537C51.56 56.0044 51.9494 56.1661 52.2366 56.4537C52.5239 56.7413 52.6854 57.1312 52.6859 57.5379V65.9436C52.6855 66.3503 52.5239 66.7403 52.2367 67.0278C51.9494 67.3154 51.56 67.4772 51.1537 67.4777Z" fill="#E6E6E6"/>
<path d="M83.81 67.4777H73.6259C73.2197 67.4772 72.8303 67.3154 72.543 67.0278C72.2558 66.7403 72.0942 66.3503 72.0938 65.9436V57.5379C72.0942 57.1312 72.2558 56.7413 72.543 56.4537C72.8303 56.1661 73.2197 56.0044 73.6259 56.0039H83.81C84.2162 56.0044 84.6057 56.1661 84.8929 56.4537C85.1801 56.7413 85.3417 57.1312 85.3422 57.5379V65.9436C85.3417 66.3503 85.1802 66.7403 84.8929 67.0278C84.6057 67.3154 84.2162 67.4772 83.81 67.4777Z" fill="#E6E6E6"/>
<path d="M31.5938 45.364V38.854C31.5937 38.3539 31.7042 37.8627 31.9139 37.4302C32.1236 36.9976 32.4251 36.6391 32.7878 36.391L63.0086 15.7177C63.3837 15.461 63.8103 15.332 64.2422 15.3446C64.6742 15.3571 65.0951 15.5108 65.4593 15.7889L92.4212 36.3714C92.757 36.6278 93.0334 36.9813 93.2249 37.3994C93.4164 37.8174 93.5168 38.2865 93.5168 38.7632V45.364C93.5168 46.1164 93.2671 46.838 92.8226 47.37C92.3781 47.902 91.7752 48.2009 91.1466 48.2009H33.964C33.3354 48.2009 32.7325 47.902 32.288 47.37C31.8435 46.838 31.5938 46.1164 31.5938 45.364Z" fill="#E7B280"/>
<path opacity="0.2" d="M91.032 46.2972H33.5131C32.8808 46.2972 32.2743 46.0457 31.8272 45.598C31.3801 45.1504 31.1289 44.5432 31.1289 43.9102V46.0775C31.1289 46.7106 31.3801 47.3177 31.8272 47.7654C32.2743 48.213 32.8808 48.4645 33.5131 48.4645H91.032C91.6644 48.4645 92.2708 48.213 92.7179 47.7654C93.165 47.3177 93.4162 46.7106 93.4162 46.0775V43.9102C93.4162 44.5432 93.165 45.1504 92.7179 45.598C92.2708 46.0457 91.6644 46.2972 91.032 46.2972Z" fill="black"/>
<path d="M95.7031 65.0353C95.7031 60.8348 99.1043 50.8672 103.3 50.8672C107.495 50.8672 110.897 60.8348 110.897 65.0353C110.897 67.0524 110.096 68.9869 108.672 70.4133C107.247 71.8396 105.315 72.6409 103.3 72.6409C101.285 72.6409 99.3528 71.8396 97.9282 70.4133C96.5035 68.9869 95.7031 67.0524 95.7031 65.0353Z" fill="#F2F2F2"/>
<path d="M103.295 83.491C103.26 83.491 103.225 83.4767 103.2 83.4513C103.174 83.4259 103.16 83.3915 103.16 83.3555V56.0456C103.16 56.0097 103.174 55.9752 103.2 55.9498C103.225 55.9244 103.26 55.9102 103.295 55.9102C103.331 55.9102 103.366 55.9244 103.391 55.9498C103.416 55.9752 103.431 56.0097 103.431 56.0456V83.3555C103.431 83.3915 103.416 83.4259 103.391 83.4513C103.366 83.4767 103.331 83.491 103.295 83.491Z" fill="#3F3D56"/>
<path d="M103.295 68.1524C103.269 68.1524 103.243 68.1446 103.221 68.13C103.199 68.1154 103.182 68.0946 103.171 68.0702C103.161 68.0458 103.158 68.0189 103.162 67.9928C103.167 67.9668 103.179 67.9426 103.198 67.9234L107.059 63.8662C107.072 63.8533 107.086 63.843 107.102 63.8358C107.119 63.8286 107.136 63.8247 107.154 63.8243C107.172 63.8238 107.189 63.8269 107.206 63.8333C107.223 63.8397 107.238 63.8493 107.251 63.8616C107.263 63.8739 107.274 63.8886 107.281 63.9049C107.288 63.9211 107.292 63.9386 107.292 63.9564C107.293 63.9742 107.29 63.9919 107.283 64.0085C107.277 64.0251 107.267 64.0403 107.255 64.0531L103.393 68.1104C103.381 68.1236 103.366 68.1342 103.349 68.1414C103.332 68.1487 103.314 68.1524 103.295 68.1524Z" fill="#3F3D56"/>
<path d="M103.305 61.3143C103.271 61.3143 103.238 61.3016 103.214 61.2788L99.8763 58.2239C99.8631 58.2119 99.8525 58.1975 99.8449 58.1813C99.8373 58.1652 99.833 58.1478 99.8322 58.13C99.8314 58.1122 99.8341 58.0944 99.8401 58.0776C99.8462 58.0609 99.8555 58.0455 99.8675 58.0323C99.8795 58.0192 99.894 58.0085 99.9101 58.001C99.9262 57.9934 99.9437 57.9892 99.9615 57.9884C99.9793 57.9876 99.997 57.9904 100.014 57.9965C100.03 58.0026 100.046 58.012 100.059 58.024L103.396 61.0789C103.416 61.0973 103.43 61.1214 103.437 61.148C103.443 61.1746 103.441 61.2024 103.431 61.2279C103.421 61.2533 103.404 61.2752 103.381 61.2906C103.359 61.306 103.332 61.3143 103.305 61.3143Z" fill="#3F3D56"/>
<path d="M2.98047 56.6777C2.98047 50.4986 7.98373 35.8359 14.1556 35.8359C20.3274 35.8359 25.3307 50.4986 25.3307 56.6777C25.3307 59.6451 24.1533 62.4908 22.0576 64.589C19.9618 66.6872 17.1194 67.866 14.1556 67.866C11.1917 67.866 8.34932 66.6872 6.25358 64.589C4.15784 62.4908 2.98047 59.6451 2.98047 56.6777Z" fill="#E7B280"/>
<path d="M14.1548 83.7614C14.1189 83.7614 14.0845 83.7471 14.0592 83.7217C14.0338 83.6963 14.0195 83.6618 14.0195 83.6259V43.4519C14.0195 43.4159 14.0338 43.3815 14.0592 43.3561C14.0845 43.3307 14.1189 43.3164 14.1548 43.3164C14.1907 43.3164 14.2251 43.3307 14.2505 43.3561C14.2759 43.3815 14.2901 43.4159 14.2901 43.4519V83.6259C14.2901 83.6618 14.2759 83.6963 14.2505 83.7217C14.2251 83.7471 14.1907 83.7614 14.1548 83.7614Z" fill="#3F3D56"/>
<path d="M14.1548 61.2002C14.1283 61.2002 14.1024 61.1924 14.0803 61.1778C14.0582 61.1632 14.0409 61.1424 14.0305 61.1181C14.02 61.0937 14.017 61.0668 14.0217 61.0407C14.0264 61.0146 14.0386 60.9905 14.0569 60.9713L19.7377 55.003C19.7624 54.9769 19.7965 54.9618 19.8324 54.961C19.8682 54.9601 19.903 54.9736 19.929 54.9983C19.9549 55.0231 19.97 55.0572 19.9709 55.0931C19.9718 55.1291 19.9583 55.1639 19.9336 55.1899L14.2528 61.1582C14.2402 61.1715 14.225 61.182 14.2081 61.1893C14.1913 61.1965 14.1731 61.2002 14.1548 61.2002Z" fill="#3F3D56"/>
<path d="M14.1579 51.1437C14.1241 51.1437 14.0915 51.1311 14.0666 51.1082L9.15728 46.6143C9.1308 46.5901 9.11502 46.5563 9.11342 46.5204C9.11181 46.4845 9.12451 46.4495 9.14873 46.423C9.17294 46.3964 9.20669 46.3806 9.24253 46.379C9.27838 46.3774 9.3134 46.3902 9.33988 46.4144L14.2492 50.9083C14.2693 50.9267 14.2834 50.9508 14.2896 50.9774C14.2959 51.004 14.2939 51.0318 14.284 51.0573C14.2742 51.0827 14.2568 51.1046 14.2343 51.12C14.2118 51.1354 14.1852 51.1437 14.1579 51.1437Z" fill="#3F3D56"/>
<path d="M97.9975 83.4788C98.0103 83.4887 98.0238 83.4976 98.0367 83.5073H109.038C109.254 82.6329 109.33 81.7575 109.008 80.9973C108.549 79.9141 107.191 79.238 106.112 79.7032C105.856 79.8163 105.633 79.9928 105.464 80.216C105.042 79.46 104.286 78.89 103.412 78.8906C102.318 78.8914 101.408 79.7873 101.111 80.8222C100.633 80.0142 99.689 79.4496 98.7659 79.6925C97.2221 80.0987 96.7344 82.5015 97.9975 83.4788Z" fill="#E6E6E6"/>
<path d="M3.48889 83.7192C3.51472 83.7392 3.54201 83.7572 3.56817 83.7768H25.7766C26.2117 82.0116 26.3654 80.2445 25.7154 78.7099C24.7892 76.5232 22.0484 75.1582 19.8693 76.0973C19.353 76.3258 18.9033 76.6821 18.5624 77.1325C17.7109 75.6064 16.1833 74.4558 14.4201 74.457C12.2111 74.4586 10.3745 76.2672 9.7751 78.3563C8.80997 76.7253 6.90355 75.5854 5.04015 76.0757C1.92357 76.8959 0.939148 81.7463 3.48889 83.7192Z" fill="#E6E6E6"/>
<path d="M114.999 83.3798L0 83.5977L0.000512003 83.8686L115 83.6507L114.999 83.3798Z" fill="#3F3D56"/>
<path d="M38.8006 77.8672C38.8281 77.7601 38.8318 77.6483 38.8114 77.5397C38.791 77.431 38.7471 77.3282 38.6827 77.2384C38.6184 77.1485 38.5351 77.0739 38.4388 77.0198C38.3425 76.9657 38.2356 76.9334 38.1255 76.9251L33.8288 71.5469L32.7656 72.539L37.3046 77.6765C37.303 77.8626 37.3697 78.0428 37.4919 78.183C37.6142 78.3232 37.7836 78.4136 37.968 78.4371C38.1524 78.4606 38.339 78.4156 38.4925 78.3105C38.6459 78.2055 38.7556 78.0477 38.8006 77.8672Z" fill="#FFB8B8"/>
<path d="M34.6588 72.4021L33.3009 73.4432C33.2623 73.4728 33.2177 73.4938 33.1703 73.5046C33.1228 73.5154 33.0736 73.5159 33.026 73.5059C32.9783 73.496 32.9334 73.4759 32.8942 73.447C32.855 73.4181 32.8225 73.3811 32.7989 73.3385L31.9717 71.8457C31.8215 71.6469 31.7562 71.3966 31.79 71.1497C31.8238 70.9027 31.954 70.6793 32.1521 70.5283C32.3502 70.3773 32.6 70.3112 32.8468 70.3443C33.0935 70.3774 33.3171 70.5072 33.4684 70.705L34.6887 71.8895C34.7236 71.9235 34.7509 71.9645 34.7685 72.0099C34.7862 72.0553 34.7938 72.104 34.791 72.1527C34.7881 72.2013 34.7749 72.2487 34.7521 72.2918C34.7293 72.3348 34.6975 72.3724 34.6588 72.4021Z" fill="#3F3D56"/>
<path d="M32.383 69.1568C33.3367 69.1568 34.1097 68.3828 34.1097 67.428C34.1097 66.4732 33.3367 65.6992 32.383 65.6992C31.4293 65.6992 30.6562 66.4732 30.6562 67.428C30.6562 68.3828 31.4293 69.1568 32.383 69.1568Z" fill="#FFB8B8"/>
<path d="M36.0625 89.8495H36.9245L36.8424 88.2344H35.5703L36.0625 89.8495Z" fill="#FFB8B8"/>
<path d="M35.8438 89.5743L37.5412 89.5742C37.6832 89.5742 37.824 89.6022 37.9552 89.6566C38.0864 89.7111 38.2057 89.7908 38.3061 89.8914C38.4066 89.992 38.4863 90.1114 38.5406 90.2428C38.595 90.3742 38.623 90.515 38.623 90.6572V90.6924L35.8438 90.6925L35.8438 89.5743Z" fill="#2F2E41"/>
<path d="M26.875 88.6329L27.6083 89.0864L28.3863 87.6691L27.499 87.1133L26.875 88.6329Z" fill="#FFB8B8"/>
<path d="M26.8409 88.2734L28.285 89.1665C28.4058 89.2413 28.5109 89.3392 28.594 89.4545C28.677 89.5699 28.7366 89.7005 28.7693 89.8389C28.8019 89.9773 28.8071 90.1208 28.7843 90.2612C28.7616 90.4016 28.7115 90.5361 28.6368 90.6571L28.6183 90.6871L26.2539 89.2248L26.8409 88.2734Z" fill="#2F2E41"/>
<path d="M36.0041 89.377C35.94 89.377 35.8774 89.3574 35.8247 89.3209C35.772 89.2845 35.7316 89.2328 35.7089 89.1728L32.5912 81.7099C32.5845 81.6917 32.5729 81.6756 32.5577 81.6636C32.5425 81.6515 32.5242 81.6439 32.505 81.6416C32.4857 81.6392 32.4662 81.6423 32.4485 81.6503C32.4308 81.6584 32.4157 81.6711 32.4049 81.6872L28.1217 88.4424C28.0798 88.5053 28.0167 88.551 27.944 88.5713C27.8712 88.5916 27.7936 88.585 27.7253 88.5528L27.1392 88.279C27.0642 88.2436 27.0059 88.1801 26.977 88.1022C26.948 88.0244 26.9507 87.9383 26.9843 87.8623L30.4934 80.0311C30.4168 79.8445 29.6694 77.9282 30.8177 76.9815L30.8258 76.9765L33.9395 75.5859L34.018 77.9773L37.1215 88.7582C37.1332 88.7987 37.1367 88.8412 37.1317 88.8832C37.1268 88.9251 37.1135 88.9656 37.0927 89.0023C37.0719 89.039 37.0439 89.0712 37.0105 89.097C36.9771 89.1227 36.9388 89.1415 36.898 89.1522L36.0851 89.3664C36.0587 89.3734 36.0314 89.377 36.0041 89.377Z" fill="#2F2E41"/>
<path d="M33.9851 72.0947C33.8666 71.6183 33.6985 71.1381 33.4733 70.9164C33.3905 70.8356 33.3126 70.7498 33.2402 70.6595C33.0887 70.4684 32.8981 70.312 32.6813 70.2009C32.7606 70.1567 32.8071 70.1039 32.8071 70.0472C32.8071 69.8917 32.4609 69.7656 32.0338 69.7656C31.6067 69.7656 31.2604 69.8917 31.2604 70.0472C31.2615 70.0652 31.2661 70.0829 31.274 70.0992C31.2819 70.1155 31.2929 70.13 31.3064 70.142C31.0275 70.2558 30.7851 70.4441 30.6057 70.6863C30.4263 70.9285 30.3168 71.2154 30.289 71.5156C30.1891 72.5866 30.1599 73.9556 30.51 74.8216C30.8036 75.5377 30.8269 76.3362 30.5757 77.0683C30.5586 77.1192 30.5565 77.174 30.5697 77.2262C30.5828 77.2783 30.6105 77.3256 30.6497 77.3624C30.6888 77.3992 30.7377 77.424 30.7904 77.4339C30.8432 77.4437 30.8977 77.4382 30.9475 77.418L34.0371 76.1715C34.0891 76.1505 34.1337 76.1145 34.1651 76.0679C34.1965 76.0214 34.2132 75.9665 34.2132 75.9104V74.0172C34.2157 73.3694 34.1391 72.7238 33.9851 72.0947Z" fill="#3F3D56"/>
<path d="M28.0687 79.8899C28.1763 79.8649 28.277 79.8165 28.3639 79.7483C28.4508 79.6801 28.5217 79.5937 28.5716 79.495C28.6215 79.3964 28.6492 79.2881 28.6527 79.1776C28.6563 79.0671 28.6356 78.9572 28.5921 78.8556L31.0095 72.4731L29.7836 72.1562L27.5476 78.4729C27.382 78.5574 27.253 78.6997 27.1852 78.873C27.1173 79.0463 27.1153 79.2385 27.1796 79.4131C27.2438 79.5878 27.3698 79.7328 27.5337 79.8206C27.6975 79.9085 27.8879 79.9331 28.0687 79.8899Z" fill="#FFB8B8"/>
<path d="M31.0019 73.684L29.4529 72.958C29.4088 72.9374 29.3697 72.9074 29.3382 72.8703C29.3067 72.8331 29.2836 72.7896 29.2705 72.7427C29.2573 72.6958 29.2544 72.6466 29.2619 72.5985C29.2694 72.5504 29.2872 72.5044 29.3141 72.4638L30.2555 71.0404C30.3625 70.8155 30.5542 70.6423 30.7885 70.5586C31.0228 70.475 31.2807 70.4876 31.5057 70.5939C31.7307 70.7001 31.9045 70.8913 31.989 71.1255C32.0735 71.3598 32.0619 71.618 31.9567 71.8437L31.4699 73.4741C31.456 73.5208 31.4321 73.5639 31.4 73.6005C31.3679 73.6371 31.3283 73.6664 31.2839 73.6863C31.2395 73.7062 31.1913 73.7163 31.1427 73.7159C31.094 73.7155 31.046 73.7046 31.0019 73.684Z" fill="#3F3D56"/>
<path d="M33.966 67.0014C34.0439 67.0107 34.1228 66.9964 34.1925 66.9605C34.3199 66.877 34.3074 66.6873 34.2643 66.5411C34.1569 66.1907 33.963 65.8731 33.7007 65.6175C33.4383 65.3619 33.1159 65.1765 32.7631 65.0786C32.5173 65.0132 32.2062 65.0157 32.0656 65.2279C31.7122 64.9922 31.2861 64.8911 30.8646 64.943C30.4432 64.9948 30.0542 65.1961 29.7683 65.5104C29.4889 65.8387 29.3026 66.236 29.2289 66.6609C29.0814 67.3846 28.4495 68.8776 28.7995 69.5278C29.0324 69.9605 30.1044 69.6234 30.5578 69.8118C30.7837 69.9102 31.0302 69.9513 31.2757 69.9314C31.5212 69.9116 31.758 69.8314 31.9651 69.6981C32.1679 69.558 32.3203 69.3564 32.3998 69.123C32.4793 68.8896 32.4818 68.6368 32.4068 68.4019C32.3274 68.2292 32.2359 68.0624 32.1329 67.9028C32.0295 67.7412 31.9873 67.5478 32.014 67.3578C32.0775 67.0687 33.4404 66.9906 33.966 67.0014Z" fill="#2F2E41"/>
</g>
<defs>
<clipPath id="clip0_1514_4845">
<rect width="115" height="97.3077" fill="white" transform="translate(0 -6.62109)"/>
</clipPath>
</defs>
</svg>
