<svg width="59" height="46" viewBox="0 0 59 46" fill="none" xmlns="http://www.w3.org/2000/svg">
<g clip-path="url(#clip0_1507_6941)">
<path d="M8.5298 0.65625H50.9921C53.1156 0.65625 55.152 1.49978 56.6535 3.00126C58.155 4.50274 58.9985 6.53919 58.9985 8.66261V15.718H0.523438V8.66261C0.523438 6.53919 1.36696 4.50274 2.86845 3.00126C4.36993 1.49978 6.40638 0.65625 8.5298 0.65625Z" fill="#ED1C24"/>
<path d="M58.9985 15.5703H0.523438V30.6321H58.9985V15.5703Z" fill="white"/>
<path d="M0.523438 30.4844H58.9985V37.5102C58.9985 38.5655 58.7907 39.6105 58.3868 40.5854C57.983 41.5604 57.3911 42.4463 56.6449 43.1925C55.8987 43.9387 55.0128 44.5306 54.0378 44.9344C53.0629 45.3383 52.0179 45.5461 50.9626 45.5461H8.73062C6.55445 45.5461 4.46737 44.6819 2.92831 43.1434C1.38925 41.6048 0.524221 39.5181 0.523438 37.3419L0.523438 30.4844Z" fill="#ED1C24"/>
<path d="M30.4518 18.1123C30.3867 18.0197 30.3002 17.9441 30.1998 17.8919C30.0993 17.8397 29.9877 17.8125 29.8745 17.8125C29.7612 17.8125 29.6497 17.8397 29.5492 17.8919C29.4487 17.9441 29.3622 18.0197 29.2971 18.1123C28.3284 19.4571 27.3607 20.7998 26.394 22.1406C25.7561 22.8435 25.8683 23.7295 26.2641 23.9982C26.5801 24.2138 27.1707 24.1016 27.6344 23.6822C27.5812 23.7058 26.583 24.1459 26.4826 25.1087C26.4341 25.4604 26.5265 25.817 26.7396 26.101C26.9052 26.2716 27.1107 26.3983 27.3376 26.4694C27.5645 26.5406 27.8056 26.554 28.039 26.5085C28.139 26.4951 28.2406 26.5031 28.3372 26.5321C28.4338 26.5611 28.5231 26.6103 28.5991 26.6766C28.6752 26.7428 28.7362 26.8245 28.7781 26.9163C28.8201 27.008 28.8419 27.1076 28.8423 27.2084V27.6898C28.8423 27.8765 28.9163 28.0556 29.048 28.1879C29.1797 28.3202 29.3585 28.3949 29.5452 28.3957H30.0679C30.162 28.3965 30.2553 28.3785 30.3423 28.3429C30.4294 28.3072 30.5085 28.2546 30.575 28.1881C30.6416 28.1216 30.6942 28.0425 30.7298 27.9554C30.7654 27.8683 30.7834 27.775 30.7826 27.681V27.1553C30.7809 27.0542 30.801 26.954 30.8415 26.8615C30.882 26.7689 30.9421 26.6862 31.0175 26.6189C31.0929 26.5516 31.1819 26.5014 31.2784 26.4717C31.375 26.4419 31.4769 26.4333 31.577 26.4465C31.8559 26.4907 32.1413 26.4685 32.4099 26.3815C32.5221 26.3431 33.3756 26.0626 33.5114 25.3183C33.6355 24.6391 33.0655 24.1045 32.9208 23.9805C32.6258 23.7111 32.2562 23.5371 31.8606 23.4814C31.992 23.6836 32.1978 23.8258 32.4335 23.8771C32.6862 23.8922 32.9361 23.8183 33.14 23.6683C33.3439 23.5184 33.4889 23.3018 33.5498 23.0561C33.6562 22.5925 33.3254 22.1554 33.1836 21.9664C32.5693 21.1335 31.645 19.8193 30.4518 18.1123Z" fill="#40B65B"/>
</g>
<defs>
<clipPath id="clip0_1507_6941">
<rect x="0.523438" y="0.652344" width="58.4751" height="44.89" rx="10" fill="white"/>
</clipPath>
</defs>
</svg>
