<svg width="145" height="38" viewBox="0 0 145 38" fill="none" xmlns="http://www.w3.org/2000/svg">
<path d="M28.207 4.55219V8.58095H29.5374L30.131 7.98734C30.7441 8.36269 31.4642 8.58095 32.2358 8.58095C34.4587 8.58095 36.2632 6.77788 36.2632 4.55219C36.2632 2.32651 34.4587 0.523438 32.2344 0.523438C30.0101 0.523438 28.207 2.32651 28.207 4.55219Z" fill="#F26B6D"/>
<path fill-rule="evenodd" clip-rule="evenodd" d="M0 22.3053C0 13.7721 6.91352 6.84766 15.4467 6.84766C23.9799 6.84766 30.9043 13.7721 30.9043 22.3053V37.7629H25.7953L23.5234 35.491C21.1754 36.9258 18.4035 37.7629 15.4467 37.7629C6.92439 37.7629 0 30.8385 0 22.3053ZM16.5555 31.3385H17.3816V16.1309C17.3816 15.8271 17.1388 15.301 16.7509 14.8724C16.2348 14.1748 15.406 13.7225 14.4716 13.7225H12.9053V28.488C12.9053 30.0528 14.1739 31.3214 15.7387 31.3214H16.2179C16.3289 31.3327 16.4416 31.3385 16.5555 31.3385Z" fill="#8262B0"/>
<path d="M54.4663 20.0105C53.849 19.3932 53.122 18.8994 52.2853 18.5428C51.4486 18.1861 50.5569 18.0078 49.6105 18.0078C48.664 18.0078 47.7861 18.1861 46.9494 18.5428C46.1127 18.8994 45.3856 19.3932 44.7684 20.0105C44.1374 20.6415 43.6436 21.3685 43.287 22.1915C42.9166 23.0282 42.7383 23.9061 42.7383 24.8663C42.7383 25.8265 42.9166 26.6907 43.287 27.5274C43.6573 28.3641 44.1511 29.0911 44.7684 29.7221C45.3856 30.3531 46.1127 30.8332 46.9494 31.2035C47.7861 31.5602 48.664 31.7385 49.6105 31.7385C50.31 31.7385 50.9822 31.615 51.6131 31.3819C52.2578 31.1487 52.8477 30.8195 53.3964 30.408C53.4787 30.7509 53.657 31.0252 53.9176 31.2447C54.1782 31.4642 54.4937 31.5739 54.8641 31.5739C55.0835 31.5739 55.2893 31.5327 55.4951 31.4504C55.6871 31.3681 55.8654 31.2447 56.0026 31.1075C56.1398 30.9703 56.2632 30.792 56.3455 30.6C56.4278 30.408 56.469 30.2022 56.469 29.9827V24.88C56.469 23.9335 56.2906 23.0419 55.934 22.2052C55.5774 21.3822 55.0973 20.6415 54.4663 20.0242M53.0534 26.3066C52.8614 26.7592 52.6008 27.157 52.2578 27.5C51.9286 27.8429 51.5309 28.1035 51.0645 28.3093C50.6118 28.5013 50.118 28.611 49.5968 28.611C49.0755 28.611 48.5954 28.515 48.1428 28.3093C47.6901 28.1172 47.2923 27.8429 46.9494 27.5C46.6065 27.157 46.3321 26.7592 46.1401 26.3066C45.948 25.8539 45.8383 25.3738 45.8383 24.8526C45.8383 24.3313 45.9343 23.8512 46.1401 23.3849C46.3321 22.9322 46.6065 22.5344 46.9494 22.1915C47.2923 21.8486 47.6901 21.5879 48.1428 21.3959C48.5954 21.2039 49.0755 21.0941 49.583 21.0941C50.0906 21.0941 50.5844 21.1901 51.0508 21.3959C51.5034 21.5879 51.9012 21.8623 52.2441 22.1915C52.5733 22.5207 52.8477 22.9185 53.0397 23.3849C53.2318 23.8375 53.3278 24.3313 53.3278 24.8526C53.3278 25.3738 53.2318 25.8402 53.0397 26.3066" fill="#8262B0"/>
<path d="M66.3323 18.1719H66.3049C65.331 18.1719 64.3982 18.3639 63.5203 18.748C62.6424 19.1321 61.888 19.6396 61.2296 20.298C60.5712 20.9564 60.0637 21.7109 59.6796 22.5887C59.2955 23.4666 59.1172 24.3994 59.1172 25.387V30.0371C59.1172 30.2428 59.1583 30.4486 59.2406 30.6406C59.3229 30.8326 59.4464 30.9972 59.5836 31.1344C59.7345 31.2716 59.8991 31.3813 60.0911 31.4636C60.2831 31.5459 60.5026 31.5871 60.7221 31.5871C60.9416 31.5871 61.1336 31.5459 61.3119 31.4636C61.4902 31.3813 61.6548 31.2716 61.792 31.1344C61.9292 30.9972 62.0389 30.8326 62.1212 30.6406C62.2035 30.4486 62.2309 30.2428 62.2309 30.0371V25.3458C62.2309 24.7835 62.3407 24.2622 62.5601 23.7821C62.7796 23.2883 63.0677 22.8631 63.438 22.5064C63.8084 22.1361 64.2336 21.848 64.7274 21.6423C65.2212 21.4365 65.7425 21.3268 66.2912 21.3268H66.3186C66.5381 21.3268 66.7438 21.2856 66.9496 21.2033C67.1416 21.121 67.3199 21.0113 67.4708 20.8741C67.6217 20.7369 67.7315 20.5723 67.8275 20.3803C67.9098 20.1883 67.9509 19.9825 67.9509 19.763C67.9509 19.3104 67.8138 18.94 67.5257 18.652C67.2376 18.3639 66.8398 18.213 66.3186 18.213" fill="#8262B0"/>
<path d="M80.1889 20.0105C79.5717 19.3932 78.8447 18.8994 78.0079 18.5428C77.1712 18.1861 76.2796 18.0078 75.3331 18.0078C74.3867 18.0078 73.5088 18.1861 72.672 18.5428C71.8353 18.8994 71.1083 19.3932 70.491 20.0105C69.8601 20.6415 69.3662 21.3685 69.0096 22.1915C68.6392 23.0282 68.4609 23.9061 68.4609 24.8663C68.4609 25.8265 68.6392 26.6907 69.0096 27.5274C69.38 28.3641 69.8738 29.0911 70.491 29.7221C71.1083 30.3531 71.8353 30.8332 72.672 31.2035C73.5088 31.5602 74.3867 31.7385 75.3331 31.7385C76.0327 31.7385 76.7048 31.615 77.3358 31.3819C77.9805 31.1487 78.5703 30.8195 79.119 30.408C79.2013 30.7509 79.3796 31.0252 79.6403 31.2447C79.9009 31.4642 80.2164 31.5739 80.5867 31.5739C80.8062 31.5739 81.012 31.5327 81.2177 31.4504C81.4097 31.3681 81.5881 31.2447 81.7252 31.1075C81.8624 30.9703 81.9859 30.792 82.0682 30.6C82.1505 30.408 82.1916 30.2022 82.1916 29.9827V24.88C82.1916 23.9335 82.0133 23.0419 81.6567 22.2052C81.3 21.3822 80.8199 20.6415 80.1889 20.0242M78.7761 26.3066C78.5841 26.7592 78.3234 27.157 77.9805 27.5C77.6513 27.8429 77.2535 28.1035 76.7871 28.3093C76.3345 28.5013 75.8407 28.611 75.3194 28.611C74.7982 28.611 74.3181 28.515 73.8654 28.3093C73.4128 28.1172 73.015 27.8429 72.672 27.5C72.3291 27.157 72.0548 26.7592 71.8627 26.3066C71.6707 25.8539 71.561 25.3738 71.561 24.8526C71.561 24.3313 71.657 23.8512 71.8627 23.3849C72.0548 22.9322 72.3291 22.5344 72.672 22.1915C73.015 21.8486 73.4128 21.5879 73.8654 21.3959C74.3181 21.2039 74.7982 21.0941 75.3194 21.0941C75.8407 21.0941 76.3208 21.1901 76.7871 21.3959C77.2398 21.5879 77.6376 21.8623 77.9805 22.1915C78.3097 22.5207 78.5841 22.9185 78.7761 23.3849C78.9681 23.8375 79.0641 24.3313 79.0641 24.8526C79.0641 25.3738 78.9681 25.8402 78.7761 26.3066Z" fill="#8262B0"/>
<path d="M90.9412 28.9254C90.8041 28.7745 90.6395 28.6648 90.4474 28.5688C90.2554 28.4865 90.0496 28.4316 89.8302 28.4316C89.3501 28.4316 88.9523 28.3081 88.6505 28.0612C88.335 27.8143 88.1841 27.4302 88.1841 26.9364V14.5637C88.1841 14.3443 88.143 14.1385 88.047 13.9465C87.9647 13.7544 87.8412 13.5898 87.6903 13.4527C87.5394 13.3155 87.3749 13.2058 87.1828 13.1235C86.9908 13.0412 86.785 13 86.5656 13C86.3461 13 86.154 13.0412 85.9757 13.1235C85.7974 13.2058 85.6328 13.3155 85.4956 13.4527C85.3584 13.5898 85.2487 13.7544 85.1664 13.9465C85.0841 14.1385 85.043 14.3443 85.043 14.5637V27.0325C85.0567 27.7046 85.1938 28.3219 85.4408 28.8705C85.6877 29.4329 86.0306 29.8993 86.4695 30.2971C86.9085 30.6949 87.4023 30.9967 87.9784 31.2161C88.5545 31.4356 89.1581 31.5453 89.8165 31.5453C90.2691 31.5453 90.6395 31.4082 90.9275 31.1201C91.2156 30.8321 91.3665 30.4617 91.3665 30.0228C91.3665 29.817 91.3253 29.6112 91.2568 29.4192C91.1745 29.2272 91.0784 29.0626 90.9412 28.9117" fill="#8262B0"/>
<path d="M104.259 19.9694C103.628 19.3522 102.901 18.8721 102.065 18.5154C101.228 18.1588 100.35 17.9805 99.4035 17.9805C98.4571 17.9805 97.5655 18.1588 96.7287 18.5154C95.892 18.8721 95.165 19.3659 94.534 19.9831C93.9168 20.6004 93.4092 21.3274 93.0526 22.1641C92.6822 23.0009 92.5039 23.8925 92.5039 24.839C92.5039 25.7854 92.6822 26.677 93.0526 27.5138C93.4092 28.3505 93.9168 29.0775 94.534 29.6948C95.1513 30.312 95.892 30.8058 96.7287 31.1762C97.5655 31.5328 98.4571 31.7112 99.4035 31.7112C99.9522 31.7112 100.446 31.67 100.885 31.5877C101.324 31.5054 101.722 31.3957 102.065 31.2585C102.421 31.1213 102.723 30.9704 102.997 30.7921C103.272 30.6138 103.505 30.4355 103.711 30.2434C103.889 30.1063 104.026 29.9417 104.122 29.7633C104.218 29.585 104.273 29.4067 104.301 29.2284C104.328 29.0501 104.314 28.8717 104.273 28.6934C104.232 28.5151 104.163 28.3505 104.067 28.1996C103.93 27.9801 103.766 27.8018 103.546 27.6646C103.34 27.5275 103.093 27.4589 102.819 27.4589C102.654 27.4589 102.49 27.4863 102.298 27.5549C102.119 27.6098 101.927 27.7195 101.735 27.843C101.173 28.3642 100.391 28.6248 99.4035 28.6248C99.0057 28.6248 98.6354 28.57 98.2788 28.4602C97.9221 28.3505 97.5929 28.1859 97.3048 27.9801C97.0031 27.7744 96.7425 27.5275 96.523 27.2257C96.2898 26.9376 96.1252 26.6084 96.0017 26.2518H104.781C105.247 26.2518 105.617 26.1146 105.892 25.8403C106.18 25.566 106.317 25.2093 106.317 24.7704C106.317 23.8239 106.111 22.946 105.755 22.123C105.384 21.3 104.89 20.5867 104.259 19.9694ZM95.892 23.673C96.0017 23.2889 96.1663 22.946 96.3858 22.6305C96.6053 22.315 96.8796 22.0544 97.1814 21.8212C97.4969 21.6017 97.8398 21.4234 98.2376 21.3C98.6217 21.1765 99.0469 21.1217 99.4859 21.1217C99.9248 21.1217 100.35 21.1765 100.734 21.3C101.132 21.4097 101.489 21.588 101.804 21.8075C102.119 22.027 102.394 22.3013 102.613 22.6168C102.833 22.9323 103.011 23.2889 103.107 23.6867H95.892V23.673Z" fill="#8262B0"/>
<path d="M110.964 23.4397C111.17 22.9871 111.431 22.5893 111.774 22.2464C112.103 21.9034 112.501 21.6291 112.953 21.4233C113.406 21.2176 113.872 21.1216 114.366 21.1216C114.805 21.1216 115.217 21.1901 115.601 21.3273C115.999 21.4645 116.396 21.684 116.794 21.9857C117 22.1503 117.219 22.3012 117.453 22.4384C117.686 22.5756 117.946 22.6441 118.221 22.6441C118.385 22.6441 118.55 22.6167 118.728 22.5481C118.907 22.4795 119.085 22.3698 119.277 22.2052C119.455 22.0543 119.579 21.876 119.661 21.684C119.743 21.4919 119.784 21.2862 119.784 21.0667C119.784 20.8472 119.73 20.6278 119.634 20.422C119.537 20.2025 119.4 20.0105 119.208 19.8185C118.618 19.2149 117.905 18.7622 117.082 18.4605C116.259 18.1587 115.395 18.0078 114.503 18.0078C113.543 18.0078 112.638 18.1861 111.801 18.5428C110.951 18.8994 110.224 19.3932 109.579 20.0105C108.948 20.6278 108.44 21.3548 108.084 22.2052C107.713 23.0419 107.535 23.9473 107.535 24.9074H107.549C107.549 24.9074 107.549 24.9212 107.535 24.9349C107.535 25.8951 107.713 26.7867 108.084 27.6234C108.454 28.4601 108.948 29.1734 109.579 29.7907C110.21 30.4079 110.951 30.888 111.801 31.2447C112.652 31.5876 113.543 31.7659 114.503 31.7659C115.409 31.7659 116.273 31.6013 117.082 31.2858C117.905 30.9703 118.605 30.504 119.208 29.9004C119.387 29.7084 119.524 29.5026 119.62 29.2969C119.716 29.0911 119.757 28.8716 119.757 28.6522C119.757 28.4327 119.73 28.227 119.647 28.0349C119.565 27.8429 119.441 27.6646 119.277 27.5274C119.085 27.3628 118.893 27.2393 118.714 27.1707C118.536 27.1022 118.358 27.061 118.193 27.061C117.919 27.061 117.658 27.1296 117.425 27.2668C117.192 27.4039 116.972 27.5548 116.78 27.7194C116.383 28.0623 115.971 28.2818 115.573 28.419C115.176 28.5424 114.723 28.611 114.202 28.611C113.708 28.611 113.241 28.4876 112.802 28.2681C112.364 28.0486 111.993 27.7606 111.664 27.4177C111.348 27.0747 111.088 26.6769 110.896 26.2243C110.704 25.7853 110.621 25.3327 110.621 24.88H110.635C110.635 24.3725 110.731 23.9061 110.937 23.4534" fill="#8262B0"/>
<path d="M133.325 27.6364C133.036 27.3758 132.707 27.2523 132.364 27.2523C132.145 27.2523 131.925 27.3072 131.733 27.4032C131.528 27.4992 131.349 27.6364 131.185 27.7873C130.842 28.0891 130.485 28.2948 130.087 28.432C129.69 28.5691 129.264 28.624 128.812 28.624C128.29 28.624 127.81 28.528 127.344 28.336C126.891 28.1439 126.493 27.8833 126.151 27.5541C125.821 27.2249 125.547 26.8408 125.355 26.3881C125.163 25.9355 125.067 25.4691 125.067 24.9616V21.3129H130.074C130.293 21.3129 130.499 21.2717 130.691 21.1894C130.883 21.1071 131.047 20.9974 131.198 20.8602C131.336 20.723 131.459 20.5584 131.541 20.3664C131.624 20.1744 131.665 19.9823 131.665 19.7629C131.665 19.5434 131.624 19.3376 131.541 19.1456C131.459 18.9536 131.349 18.7889 131.198 18.6381C131.047 18.5009 130.883 18.3774 130.691 18.2951C130.499 18.2128 130.293 18.1717 130.074 18.1717H125.067V15.6615C125.067 15.442 125.026 15.2363 124.943 15.0442C124.861 14.8522 124.751 14.6876 124.614 14.5367C124.477 14.3995 124.312 14.2761 124.12 14.1938C123.928 14.1115 123.736 14.0703 123.531 14.0703C123.325 14.0703 123.119 14.1115 122.927 14.1938C122.735 14.2761 122.57 14.3858 122.42 14.5367C122.282 14.6739 122.159 14.8522 122.077 15.0442C121.994 15.2363 121.953 15.442 121.953 15.6615V24.9067C121.953 25.8532 122.131 26.7448 122.488 27.5815C122.845 28.4045 123.339 29.1315 123.97 29.7488C124.587 30.3661 125.314 30.8462 126.151 31.2028C126.987 31.5594 127.879 31.7378 128.825 31.7378C129.69 31.7378 130.499 31.6006 131.24 31.3125C131.994 31.0245 132.652 30.613 133.228 30.0506C133.407 29.886 133.53 29.6939 133.626 29.4882C133.722 29.2824 133.777 29.063 133.791 28.8298C133.805 28.6103 133.777 28.3908 133.709 28.1714C133.64 27.9656 133.517 27.7736 133.338 27.6227" fill="#8262B0"/>
<path d="M144.447 25.9774C144.213 25.5247 143.912 25.1406 143.514 24.8114C143.13 24.4822 142.677 24.1942 142.156 23.9747C141.635 23.7415 141.1 23.5495 140.537 23.3711C140.194 23.2614 139.879 23.1654 139.577 23.0831C139.289 23.0008 139.042 22.9048 138.823 22.8088C138.617 22.7127 138.452 22.603 138.329 22.4795C138.205 22.3561 138.151 22.2052 138.151 22.0269C138.151 21.684 138.315 21.4233 138.631 21.2587C138.946 21.0941 139.426 21.0118 140.043 21.0118C140.29 21.0118 140.524 21.0255 140.716 21.0667C140.908 21.0941 141.1 21.149 141.278 21.2176C141.456 21.2862 141.635 21.3685 141.799 21.4645C141.964 21.5605 142.156 21.6702 142.348 21.7937C142.526 21.876 142.705 21.9034 142.855 21.9034C143.061 21.9034 143.253 21.8623 143.418 21.78C143.596 21.6977 143.747 21.5742 143.884 21.4233C144.063 21.2313 144.172 20.9844 144.213 20.6826C144.255 20.3808 144.213 20.0791 144.063 19.7636C143.898 19.4481 143.665 19.1738 143.363 18.9543C143.061 18.7348 142.705 18.5428 142.32 18.4056C141.936 18.2684 141.525 18.1724 141.086 18.1038C140.647 18.049 140.236 18.0078 139.838 18.0078C139.138 18.0078 138.493 18.1038 137.904 18.2822C137.314 18.4742 136.806 18.7348 136.381 19.0915C135.956 19.4344 135.627 19.8596 135.38 20.3534C135.133 20.8472 135.023 21.3959 135.023 21.9994C135.023 22.603 135.133 23.0831 135.38 23.5083C135.613 23.9198 135.915 24.2902 136.285 24.592C136.655 24.8937 137.053 25.1544 137.492 25.3601C137.931 25.5659 138.356 25.7579 138.768 25.9362C139.001 26.0185 139.275 26.1008 139.605 26.2243C139.934 26.334 140.249 26.4575 140.551 26.6084C140.853 26.7455 141.113 26.9101 141.319 27.0747C141.525 27.2393 141.635 27.4314 141.635 27.6234C141.635 27.8017 141.58 27.9526 141.497 28.0898C141.401 28.227 141.278 28.3367 141.113 28.4327C140.949 28.5287 140.757 28.5973 140.551 28.6522C140.345 28.707 140.112 28.7345 139.879 28.7345C139.605 28.7345 139.358 28.707 139.111 28.6522C138.864 28.5973 138.631 28.515 138.425 28.419C138.219 28.323 138.027 28.1995 137.849 28.0761C137.67 27.9389 137.533 27.8017 137.41 27.6646C137.163 27.4451 136.916 27.2805 136.655 27.1845C136.408 27.0884 136.162 27.0336 135.942 27.0336C135.681 27.0336 135.448 27.0884 135.229 27.2119C135.009 27.3216 134.845 27.4862 134.721 27.692C134.598 27.8977 134.543 28.1447 134.543 28.4053C134.543 28.6659 134.625 28.9677 134.804 29.2969C135.05 29.7633 135.366 30.1473 135.75 30.4628C136.148 30.7783 136.573 31.0252 137.039 31.231C137.506 31.423 137.986 31.5602 138.48 31.6425C138.974 31.7248 139.44 31.7659 139.879 31.7659C140.592 31.7659 141.251 31.6562 141.84 31.4367C142.43 31.2173 142.951 30.9292 143.377 30.5451C143.816 30.1748 144.145 29.7358 144.392 29.2283C144.639 28.7208 144.762 28.1858 144.762 27.6097C144.762 26.9924 144.652 26.4575 144.419 26.0048" fill="#8262B0"/>
</svg>
