<svg width="381" height="410" viewBox="0 0 381 410" fill="none" xmlns="http://www.w3.org/2000/svg">
<rect x="318.115" y="189.25" width="43.5" height="31.5" rx="1.75" fill="white" stroke="#F5F5F5" stroke-width="0.5"/>
<mask id="mask0_5182_2473" style="mask-type:luminance" maskUnits="userSpaceOnUse" x="317" y="189" width="45" height="33">
<rect x="318.115" y="189.25" width="43.5" height="31.5" rx="1.75" fill="white" stroke="white" stroke-width="0.5"/>
</mask>
<g mask="url(#mask0_5182_2473)">
<path fill-rule="evenodd" clip-rule="evenodd" d="M330.438 199.667H361.866V189H330.438V199.667Z" fill="#12833B"/>
<path fill-rule="evenodd" clip-rule="evenodd" d="M330.438 221H361.866V210.333H330.438V221Z" fill="#262626"/>
<path fill-rule="evenodd" clip-rule="evenodd" d="M317.865 221H330.437V189H317.865V221Z" fill="#FF323E"/>
</g>
<rect x="19.1152" y="189.25" width="44.5" height="31.5" rx="1.75" fill="white" stroke="#F5F5F5" stroke-width="0.5"/>
<mask id="mask1_5182_2473" style="mask-type:luminance" maskUnits="userSpaceOnUse" x="18" y="189" width="46" height="33">
<rect x="19.1152" y="189.25" width="44.5" height="31.5" rx="1.75" fill="white" stroke="white" stroke-width="0.5"/>
</mask>
<g mask="url(#mask1_5182_2473)">
<path fill-rule="evenodd" clip-rule="evenodd" d="M18.8652 221H63.8652V210.333H18.8652V221Z" fill="#199E56"/>
<path fill-rule="evenodd" clip-rule="evenodd" d="M18.8652 199.667H63.8652V189H18.8652V199.667Z" fill="#262626"/>
<path fill-rule="evenodd" clip-rule="evenodd" d="M18.8652 189L40.2938 205L18.8652 221V189Z" fill="#E6223A"/>
<path fill-rule="evenodd" clip-rule="evenodd" d="M26.3647 206.6L24.97 207.883L25.1082 205.998L23.231 205.712L24.7978 204.644L23.8516 203.005L25.6674 203.559L26.3647 201.8L27.062 203.559L28.8777 203.005L27.9315 204.644L29.4984 205.712L27.6212 205.998L27.7593 207.883L26.3647 206.6Z" fill="white"/>
</g>
<rect x="119.115" y="342.25" width="44.5" height="31.5" rx="1.75" fill="white" stroke="#F5F5F5" stroke-width="0.5"/>
<mask id="mask2_5182_2473" style="mask-type:luminance" maskUnits="userSpaceOnUse" x="118" y="342" width="46" height="33">
<rect x="119.115" y="342.25" width="44.5" height="31.5" rx="1.75" fill="white" stroke="white" stroke-width="0.5"/>
</mask>
<g mask="url(#mask2_5182_2473)">
<path fill-rule="evenodd" clip-rule="evenodd" d="M118.865 374H142.437V342H118.865V374Z" fill="#048345"/>
<path fill-rule="evenodd" clip-rule="evenodd" d="M146.723 359.664L144.204 361.452L145.134 358.514L142.647 356.682L145.741 356.654L146.723 353.733L147.706 356.654L150.799 356.682L148.313 358.514L149.242 361.452L146.723 359.664Z" fill="#E81B42"/>
<path d="M140.965 348.4C143.406 348.4 145.625 349.385 147.277 350.991C146.138 350.451 144.851 350.145 143.486 350.145C138.846 350.145 135.084 353.662 135.084 358C135.084 362.338 138.846 365.854 143.486 365.854C144.851 365.854 146.139 365.548 147.278 365.008C145.626 366.614 143.407 367.6 140.965 367.6C135.86 367.6 131.723 363.302 131.723 358C131.723 352.698 135.861 348.4 140.965 348.4Z" fill="#E81B42"/>
</g>
<rect x="218.115" y="342.25" width="44.5" height="31.5" rx="1.75" fill="white" stroke="#F5F5F5" stroke-width="0.5"/>
<mask id="mask3_5182_2473" style="mask-type:luminance" maskUnits="userSpaceOnUse" x="217" y="342" width="46" height="33">
<rect x="218.115" y="342.25" width="44.5" height="31.5" rx="1.75" fill="white" stroke="white" stroke-width="0.5"/>
</mask>
<g mask="url(#mask3_5182_2473)">
<path fill-rule="evenodd" clip-rule="evenodd" d="M217.865 374H262.865V363.333H217.865V374Z" fill="#D72238"/>
<path fill-rule="evenodd" clip-rule="evenodd" d="M217.865 352.667H262.865V342H217.865V352.667Z" fill="#169A53"/>
<path fill-rule="evenodd" clip-rule="evenodd" d="M217.865 342L232.865 352.667V363.333L217.865 374V342Z" fill="#262626"/>
</g>
<rect x="218.115" y="36.2501" width="44.5" height="31.5" rx="1.75" fill="white" stroke="#F5F5F5" stroke-width="0.5"/>
<mask id="mask4_5182_2473" style="mask-type:luminance" maskUnits="userSpaceOnUse" x="217" y="36" width="46" height="33">
<rect x="218.115" y="36.2501" width="44.5" height="31.5" rx="1.75" fill="white" stroke="white" stroke-width="0.5"/>
</mask>
<g mask="url(#mask4_5182_2473)">
<path fill-rule="evenodd" clip-rule="evenodd" d="M217.865 46.6668H262.865V36.0001H217.865V46.6668Z" fill="#DF1E35"/>
<path fill-rule="evenodd" clip-rule="evenodd" d="M217.865 68.0001H262.865V57.3334H217.865V68.0001Z" fill="#262626"/>
<path fill-rule="evenodd" clip-rule="evenodd" d="M247.865 49.3384C247.865 49.0908 248.126 48.9297 248.347 49.04L249.823 49.7748C249.937 49.8311 250.008 49.9467 250.008 50.0732V54.8668C250.008 55.0509 249.859 55.2001 249.675 55.2001H248.199C248.014 55.2001 247.865 55.0509 247.865 54.8668V49.3384Z" fill="#0F7A40"/>
<path fill-rule="evenodd" clip-rule="evenodd" d="M235.008 49.3384C235.008 49.0908 235.268 48.9297 235.49 49.04L236.966 49.7748C237.079 49.8311 237.151 49.9467 237.151 50.0732V54.8668C237.151 55.0509 237.001 55.2001 236.817 55.2001H235.341C235.157 55.2001 235.008 55.0509 235.008 54.8668V49.3384Z" fill="#0F7A40"/>
<path fill-rule="evenodd" clip-rule="evenodd" d="M243.58 50.0732C243.58 49.9467 243.652 49.8311 243.765 49.7748L245.241 49.04C245.463 48.9297 245.723 49.0908 245.723 49.3384V54.8668C245.723 55.0509 245.574 55.2001 245.39 55.2001H243.913C243.729 55.2001 243.58 55.0509 243.58 54.8668V50.0732Z" fill="#0F7A40"/>
<path fill-rule="evenodd" clip-rule="evenodd" d="M239.293 52.2065C239.293 52.0801 239.365 51.9645 239.478 51.9081L240.954 51.1733C241.176 51.063 241.436 51.2242 241.436 51.4717V53.1623H244.65V55.2001H241.436H239.626C239.442 55.2001 239.293 55.0509 239.293 54.8668V52.2065Z" fill="#0F7A40"/>
<path fill-rule="evenodd" clip-rule="evenodd" d="M230.723 52.2065C230.723 52.0801 230.794 51.9645 230.907 51.9081L232.384 51.1733C232.605 51.063 232.866 51.2242 232.866 51.4717V53.1623H236.08V55.2001H232.866H231.056C230.872 55.2001 230.723 55.0509 230.723 54.8668V52.2065Z" fill="#0F7A40"/>
</g>
<rect x="118.865" y="36.0001" width="45" height="32" rx="2" fill="white"/>
<mask id="mask5_5182_2473" style="mask-type:luminance" maskUnits="userSpaceOnUse" x="118" y="36" width="46" height="33">
<rect x="118.865" y="36.0001" width="45" height="32" rx="2" fill="white"/>
</mask>
<g mask="url(#mask5_5182_2473)">
<rect x="118.865" y="36.0001" width="45" height="32" fill="#128C4B"/>
<path fill-rule="evenodd" clip-rule="evenodd" d="M129.58 55.2001H146.723V53.0767C146.723 52.5816 147.243 52.2593 147.687 52.4799L148.866 53.0668V55.2001H152.485C152.853 55.2001 153.152 55.4986 153.152 55.8668V58.1335C153.152 58.8698 152.555 59.4668 151.818 59.4668H147.39C147.021 59.4668 146.723 59.1683 146.723 58.8001V57.3335H131.998C131.822 57.3335 131.653 57.2636 131.528 57.1393L129.58 55.2001Z" fill="white"/>
<path fill-rule="evenodd" clip-rule="evenodd" d="M129.58 48.9386C129.58 48.85 129.615 48.7649 129.678 48.7024L130.414 47.9697C130.545 47.8394 130.545 47.6275 130.414 47.4972L129.678 46.7645C129.615 46.7019 129.58 46.6169 129.58 46.5283V44.8668C129.58 44.6827 129.729 44.5334 129.913 44.5334H131.39C131.574 44.5334 131.723 44.6827 131.723 44.8668V45.2604C131.723 45.6118 132.196 45.724 132.354 45.41L132.702 44.7172C132.759 44.6045 132.874 44.5334 133 44.5334H135.675C135.859 44.5334 136.009 44.6827 136.009 44.8668V45.2668C136.009 45.4509 135.859 45.6001 135.675 45.6001H134.199C134.015 45.6001 133.866 45.7494 133.866 45.9334V46.3334C133.866 46.5175 134.015 46.6668 134.199 46.6668H135.675C135.859 46.6668 136.009 46.816 136.009 47.0001V50.6001C136.009 50.7842 135.859 50.9334 135.675 50.9334H134.199C134.015 50.9334 133.866 50.7842 133.866 50.6001V49.1334C133.866 48.9494 134.015 48.8001 134.199 48.8001H134.604C134.788 48.8001 134.937 48.6509 134.937 48.4668V48.0668C134.937 47.8827 134.788 47.7334 134.604 47.7334H133.128C132.944 47.7334 132.794 47.8827 132.794 48.0668V50.6001C132.794 50.7842 132.645 50.9334 132.461 50.9334H132.056C131.872 50.9334 131.723 50.7842 131.723 50.6001V49.1334C131.723 48.9494 131.574 48.8001 131.39 48.8001H130.985C130.801 48.8001 130.652 48.9494 130.652 49.1334V50.6001C130.652 50.7842 130.502 50.9334 130.318 50.9334H129.913C129.729 50.9334 129.58 50.7842 129.58 50.6001V48.9386Z" fill="white"/>
<path fill-rule="evenodd" clip-rule="evenodd" d="M146.723 48.9386C146.723 48.85 146.758 48.7649 146.821 48.7024L147.557 47.9697C147.688 47.8394 147.688 47.6275 147.557 47.4972L146.821 46.7645C146.758 46.7019 146.723 46.6169 146.723 46.5283V44.8668C146.723 44.6827 146.872 44.5334 147.056 44.5334H148.532C148.716 44.5334 148.866 44.6827 148.866 44.8668V45.2604C148.866 45.6118 149.339 45.724 149.497 45.41L149.845 44.7172C149.901 44.6045 150.016 44.5334 150.143 44.5334H152.818C153.002 44.5334 153.151 44.6827 153.151 44.8668V45.2668C153.151 45.4509 153.002 45.6001 152.818 45.6001H151.342C151.158 45.6001 151.008 45.7494 151.008 45.9334V46.3334C151.008 46.5175 151.158 46.6668 151.342 46.6668H152.818C153.002 46.6668 153.151 46.816 153.151 47.0001V50.6001C153.151 50.7842 153.002 50.9334 152.818 50.9334H151.342C151.158 50.9334 151.008 50.7842 151.008 50.6001V49.1334C151.008 48.9494 151.158 48.8001 151.342 48.8001H151.746C151.931 48.8001 152.08 48.6509 152.08 48.4668V48.0668C152.08 47.8827 151.931 47.7334 151.746 47.7334H150.27C150.086 47.7334 149.937 47.8827 149.937 48.0668V50.6001C149.937 50.7842 149.788 50.9334 149.604 50.9334H149.199C149.015 50.9334 148.866 50.7842 148.866 50.6001V49.1334C148.866 48.9494 148.716 48.8001 148.532 48.8001H148.127C147.943 48.8001 147.794 48.9494 147.794 49.1334V50.6001C147.794 50.7842 147.645 50.9334 147.461 50.9334H147.056C146.872 50.9334 146.723 50.7842 146.723 50.6001V48.9386Z" fill="white"/>
<path fill-rule="evenodd" clip-rule="evenodd" d="M144.579 46.1285C144.579 46.4258 144.412 46.8334 144.192 47.0519L143.894 47.3484C143.681 47.561 143.675 47.9001 143.894 48.1185L144.192 48.415C144.406 48.6277 144.579 49.0284 144.579 49.3384V50.3951C144.579 50.6924 144.35 50.9334 144.038 50.9334H142.977C142.678 50.9334 142.436 50.7051 142.436 50.3951V49.3384C142.436 49.0411 142.337 48.997 142.188 49.2949L141.613 50.4387C141.476 50.7119 141.112 50.9334 140.834 50.9334H138.681C138.388 50.9334 138.15 50.6861 138.15 50.4001C138.15 50.1056 138.38 49.8668 138.691 49.8668H139.753C140.051 49.8668 140.293 49.6194 140.293 49.3334C140.293 49.0389 140.064 48.8001 139.753 48.8001H138.691C138.392 48.8001 138.15 48.5707 138.15 48.2769V45.0566C138.15 44.7677 138.38 44.5334 138.691 44.5334H139.753C140.051 44.5334 140.293 44.7618 140.293 45.0718V46.1285C140.293 46.4258 140.045 46.6668 139.758 46.6668C139.462 46.6668 139.222 46.9142 139.222 47.2001C139.222 47.4947 139.451 47.7334 139.763 47.7334H140.824C141.123 47.7334 141.365 47.4823 141.365 47.205V45.0619C141.365 44.77 141.613 44.5334 141.9 44.5334C142.196 44.5334 142.436 44.7618 142.436 45.0718V46.1285C142.436 46.4258 142.685 46.6668 142.972 46.6668C143.268 46.6668 143.508 46.4385 143.508 46.1285V45.0718C143.508 44.7745 143.756 44.5334 144.043 44.5334C144.339 44.5334 144.579 44.7618 144.579 45.0718V46.1285Z" fill="white"/>
</g>
<rect x="318.119" y="94.2501" width="43.5" height="31.5" rx="1.75" fill="white" stroke="#F5F5F5" stroke-width="0.5"/>
<mask id="mask6_5182_2473" style="mask-type:luminance" maskUnits="userSpaceOnUse" x="317" y="94" width="45" height="33">
<rect x="318.119" y="94.2501" width="43.5" height="31.5" rx="1.75" fill="white" stroke="white" stroke-width="0.5"/>
</mask>
<g mask="url(#mask6_5182_2473)">
<path fill-rule="evenodd" clip-rule="evenodd" d="M317.869 102.533H361.869V94.0001H317.869V102.533Z" fill="#F03340"/>
<path fill-rule="evenodd" clip-rule="evenodd" d="M317.869 126H361.869V117.467H317.869V126Z" fill="#F03340"/>
<path fill-rule="evenodd" clip-rule="evenodd" d="M338.363 113.667C338.618 113.408 338.618 112.992 338.363 112.733L338.043 112.407C337.877 112.238 337.633 112.169 337.403 112.228L336.747 112.395C336.044 112.574 335.602 111.659 336.178 111.219L336.738 110.792C337.073 110.536 336.892 110 336.47 110C336.006 110 335.857 109.376 336.27 109.166L337.184 108.701C337.597 108.49 337.447 107.867 336.984 107.867C336.562 107.867 336.381 107.331 336.716 107.075L339.465 104.976C339.704 104.793 340.035 104.793 340.274 104.976L343.024 107.075C343.359 107.331 343.178 107.867 342.756 107.867C342.292 107.867 342.143 108.49 342.556 108.701L343.469 109.166C343.883 109.376 343.733 110 343.269 110C342.847 110 342.666 110.536 343.002 110.792L343.561 111.219C344.138 111.659 343.695 112.574 342.992 112.395L342.336 112.228C342.106 112.169 341.863 112.238 341.696 112.407L341.376 112.733C341.121 112.992 341.121 113.408 341.376 113.667L341.899 114.2C342.313 114.621 342.014 115.333 341.423 115.333H338.316C337.725 115.333 337.426 114.621 337.84 114.2L338.363 113.667Z" fill="#1FC065"/>
</g>
<rect x="18.8691" y="94.0001" width="45" height="32" rx="2" fill="white"/>
<mask id="mask7_5182_2473" style="mask-type:luminance" maskUnits="userSpaceOnUse" x="18" y="94" width="46" height="33">
<rect x="18.8691" y="94.0001" width="45" height="32" rx="2" fill="white"/>
</mask>
<g mask="url(#mask7_5182_2473)">
<rect x="18.8691" y="94.0001" width="45" height="32" fill="#E33B44"/>
<path d="M42.9482 107.183L43.0996 107.634L43.5742 107.637L48.5361 107.681L44.5508 110.621L44.167 110.903L44.3105 111.358L45.8018 116.073L41.7549 113.201L41.3691 112.927L40.9834 113.201L36.9365 116.072L38.4287 111.358L38.5723 110.903L38.1885 110.621L34.2012 107.681L39.165 107.637L39.6396 107.634L39.791 107.183L41.3691 102.491L42.9482 107.183Z" stroke="#0A6135" stroke-width="1.33333"/>
</g>
<rect x="19.1191" y="284.25" width="44.5" height="31.5" rx="1.75" fill="white" stroke="#F5F5F5" stroke-width="0.5"/>
<mask id="mask8_5182_2473" style="mask-type:luminance" maskUnits="userSpaceOnUse" x="18" y="284" width="46" height="33">
<rect x="19.1191" y="284.25" width="44.5" height="31.5" rx="1.75" fill="white" stroke="white" stroke-width="0.5"/>
</mask>
<g mask="url(#mask8_5182_2473)">
<path fill-rule="evenodd" clip-rule="evenodd" d="M18.8691 316H63.8691V305.333H18.8691V316Z" fill="#262626"/>
<path fill-rule="evenodd" clip-rule="evenodd" d="M18.8691 294.667H63.8691V284H18.8691V294.667Z" fill="#EA1F44"/>
<path fill-rule="evenodd" clip-rule="evenodd" d="M18.8691 284L40.2977 300L18.8691 316V284Z" fill="#12933B"/>
</g>
<rect x="318.119" y="284.25" width="44.5" height="31.5" rx="1.75" fill="white" stroke="#F5F5F5" stroke-width="0.5"/>
<mask id="mask9_5182_2473" style="mask-type:luminance" maskUnits="userSpaceOnUse" x="317" y="284" width="46" height="33">
<rect x="318.119" y="284.25" width="44.5" height="31.5" rx="1.75" fill="white" stroke="white" stroke-width="0.5"/>
</mask>
<g mask="url(#mask9_5182_2473)">
<path fill-rule="evenodd" clip-rule="evenodd" d="M317.869 316H362.869V305.333H317.869V316Z" fill="#262626"/>
<path fill-rule="evenodd" clip-rule="evenodd" d="M317.869 294.667H362.869V284H317.869V294.667Z" fill="#128A49"/>
<path fill-rule="evenodd" clip-rule="evenodd" d="M340.858 301.749L338.339 303.452L339.187 300.541L336.782 298.682L339.825 298.585L340.858 295.733L341.891 298.585L344.934 298.682L342.529 300.541L343.377 303.452L340.858 301.749Z" fill="#E32139"/>
<path fill-rule="evenodd" clip-rule="evenodd" d="M328.286 301.749L325.767 303.452L326.615 300.541L324.21 298.682L327.253 298.585L328.286 295.733L329.319 298.585L332.362 298.682L329.957 300.541L330.805 303.452L328.286 301.749Z" fill="#E32139"/>
<path fill-rule="evenodd" clip-rule="evenodd" d="M353.43 301.749L350.911 303.452L351.759 300.541L349.354 298.682L352.397 298.585L353.43 295.733L354.463 298.585L357.506 298.682L355.101 300.541L355.949 303.452L353.43 301.749Z" fill="#E32139"/>
</g>
<g clip-path="url(#clip0_5182_2473)">
<path d="M130.865 218.211V278H150.522L159.293 269.187C168.328 274.767 178.994 278 190.365 278C223.2 278 249.865 251.25 249.865 218.211C249.865 185.172 223.2 158.422 190.365 158.422C157.53 158.422 130.865 185.172 130.865 218.211Z" fill="#F26B6D"/>
<path d="M201.427 205.987C201.427 217.059 192.48 226.006 181.462 226.006C170.443 226.006 161.496 217.059 161.496 205.987C161.496 194.915 170.443 185.969 181.462 185.969C192.48 185.969 201.427 194.915 201.427 205.987Z" fill="#F3F1EC"/>
<path d="M194.816 205.987C194.816 213.339 188.866 219.318 181.506 219.318C174.145 219.318 168.195 213.339 168.195 205.987C168.195 198.635 174.145 192.656 181.506 192.656C188.866 192.656 194.816 198.635 194.816 205.987Z" fill="#4E4241"/>
<path d="M241.359 205.987C241.359 217.059 232.412 226.006 221.393 226.006C210.375 226.006 201.428 217.059 201.428 205.987C201.428 194.915 210.375 185.969 221.393 185.969C232.412 185.969 241.359 194.915 241.359 205.987Z" fill="#F3F1EC"/>
<path d="M234.705 205.987C234.705 213.339 228.755 219.318 221.394 219.318C214.034 219.318 208.084 213.339 208.084 205.987C208.084 198.635 214.034 192.656 221.394 192.656C228.755 192.656 234.705 198.635 234.705 205.987Z" fill="#4E4241"/>
<path d="M173.043 205.146C175.721 205.146 177.892 202.965 177.892 200.274C177.892 197.583 175.721 195.402 173.043 195.402C170.366 195.402 168.195 197.583 168.195 200.274C168.195 202.965 170.366 205.146 173.043 205.146Z" fill="#F3F1EC"/>
<path d="M212.975 205.146C215.653 205.146 217.823 202.965 217.823 200.274C217.823 197.583 215.653 195.402 212.975 195.402C210.298 195.402 208.127 197.583 208.127 200.274C208.127 202.965 210.298 205.146 212.975 205.146Z" fill="#F3F1EC"/>
<path d="M236.908 181.009C205.13 177.953 174.675 177.864 143.779 181.009L144.044 175.34L144.22 172.107L145.322 150.317C145.763 144.737 149.553 140.042 154.886 138.448C179.612 131.051 202.222 131.317 225.008 138.403C230.209 139.998 233.955 144.648 234.396 150.14L236.203 172.151L236.467 175.384L236.908 181.009Z" fill="#C71E21"/>
<g style="mix-blend-mode:screen">
<path d="M213.365 142C219.365 142 230.865 144 230.865 156.5" stroke="#C7282A" stroke-width="3" stroke-linecap="round"/>
</g>
<path d="M236.466 175.384C204.292 172.594 173.529 172.417 144.043 175.384L144.219 172.151C174.586 168.962 204.821 169.051 236.202 172.195L236.466 175.428V175.384Z" fill="#7F0608"/>
<path d="M149.729 141.282C148.319 141.282 146.952 142.699 145.674 144.781C142.281 152.93 140.562 164.755 139.372 177.82C135.581 182.116 135.493 198.192 136.419 217.458H145.366C145.145 201.071 144.749 185.57 141.796 179.99C141.796 166.703 144.308 153.816 149.729 141.326V141.282Z" fill="#493B3A"/>
<g clip-path="url(#clip1_5182_2473)">
<path opacity="0.1" fill-rule="evenodd" clip-rule="evenodd" d="M169.431 235.132C170.144 239.776 173.19 241.914 176.125 242.585C183.359 244.241 184.296 237.425 189.929 235.21C193.801 233.689 198.274 235.392 199.929 239.245C201.982 235.591 206.615 234.375 210.302 236.301C215.666 239.104 215.871 245.982 223.239 245.108C226.229 244.754 229.486 242.953 230.691 238.412C231.055 242.86 228.595 248.064 224.086 250.802C218.383 254.263 207.546 254.516 201.556 248.871C200.703 248.068 200.021 247.114 199.566 246.071C199 247.059 198.22 247.935 197.289 248.642C190.73 253.615 179.982 252.207 174.681 248.156C170.484 244.953 168.594 239.518 169.431 235.132Z" fill="#4E4241"/>
<path fill-rule="evenodd" clip-rule="evenodd" d="M167.927 232.742C168.64 237.385 171.687 239.524 174.621 240.195C181.855 241.851 182.792 235.035 188.425 232.82C192.851 231.082 198.064 233.556 198.95 238.635C199.481 241.685 198.108 244.486 195.782 246.252C189.224 251.225 178.475 249.817 173.175 245.766C168.98 242.562 167.09 237.125 167.927 232.742Z" fill="#2B2A2A"/>
<path fill-rule="evenodd" clip-rule="evenodd" d="M180.978 240.174C184.861 238.488 185.439 232.948 191.671 233.083C186.357 234.428 185.542 239.621 180.978 240.174Z" fill="#5E5E5E"/>
<path fill-rule="evenodd" clip-rule="evenodd" d="M198.785 241.957C198.302 243.663 197.225 245.156 195.78 246.251C189.222 251.224 178.473 249.816 173.173 245.765C171.291 244.33 169.875 242.444 168.96 240.405C171.633 246.26 189.603 252.754 198.785 241.96L198.785 241.957Z" fill="#1A1A1A"/>
<path fill-rule="evenodd" clip-rule="evenodd" d="M229.185 236.021C227.981 240.562 224.723 242.363 221.734 242.717C214.365 243.591 214.16 236.714 208.796 233.91C204.581 231.709 199.134 233.612 197.711 238.568C196.857 241.544 197.923 244.475 200.048 246.48C206.037 252.124 216.875 251.872 222.577 248.411C227.087 245.673 229.547 240.471 229.182 236.021L229.185 236.021Z" fill="#2B2A2A"/>
<path fill-rule="evenodd" clip-rule="evenodd" d="M197.52 241.889C197.818 243.637 198.729 245.237 200.049 246.48C206.038 252.125 216.876 251.872 222.578 248.411C224.603 247.184 226.212 245.461 227.339 243.531C224.057 249.067 205.496 253.605 197.519 241.892L197.52 241.889Z" fill="#1A1A1A"/>
<path fill-rule="evenodd" clip-rule="evenodd" d="M199.589 238.474C200.081 234.267 203.964 233.579 206.554 234.376C204.679 234.537 201.69 235.207 199.589 238.474Z" fill="#5E5E5E"/>
</g>
</g>
<defs>
<clipPath id="clip0_5182_2473">
<rect width="119" height="145" fill="white" transform="translate(130.865 133)"/>
</clipPath>
<clipPath id="clip1_5182_2473">
<rect width="63.2294" height="19.8068" fill="white" transform="translate(167.924 231) rotate(3.06478)"/>
</clipPath>
</defs>
</svg>
