<svg width="84" height="85" viewBox="0 0 84 85" fill="none" xmlns="http://www.w3.org/2000/svg">
<g clip-path="url(#clip0_5182_2440)">
<path d="M0.367188 42.4645V84.0595H14.1089L20.2404 77.9281C26.5566 81.8103 34.0129 84.0595 41.9622 84.0595C64.9165 84.0595 83.5572 65.4496 83.5572 42.4645C83.5572 19.4794 64.9165 0.869507 41.9622 0.869507C19.0079 0.869507 0.367188 19.4794 0.367188 42.4645Z" fill="#F26B6D"/>
<path d="M49.6961 33.9299C49.6961 41.6326 43.4415 47.8565 35.7387 47.8565C28.0359 47.8565 21.7812 41.6326 21.7812 33.9299C21.7812 26.2271 28.0359 20.0032 35.7387 20.0032C43.4415 20.0032 49.6961 26.2271 49.6961 33.9299Z" fill="#F3F1EC"/>
<path d="M45.0748 33.9298C45.0748 39.0445 40.9153 43.204 35.7698 43.204C30.6243 43.204 26.4648 39.0445 26.4648 33.9298C26.4648 28.8152 30.6243 24.6557 35.7698 24.6557C40.9153 24.6557 45.0748 28.8152 45.0748 33.9298Z" fill="#4E4241"/>
<path d="M77.6102 33.9299C77.6102 41.6326 71.3555 47.8565 63.6527 47.8565C55.95 47.8565 49.6953 41.6326 49.6953 33.9299C49.6953 26.2271 55.95 20.0032 63.6527 20.0032C71.3555 20.0032 77.6102 26.2271 77.6102 33.9299Z" fill="#F3F1EC"/>
<path d="M72.9576 33.9298C72.9576 39.0445 68.7981 43.204 63.6526 43.204C58.5072 43.204 54.3477 39.0445 54.3477 33.9298C54.3477 28.8152 58.5072 24.6557 63.6526 24.6557C68.7981 24.6557 72.9576 28.8152 72.9576 33.9298Z" fill="#4E4241"/>
<path d="M22.9214 46.0694C24.3079 46.0694 25.4479 47.1786 25.4479 48.5651V48.6575C25.4479 49.8284 25.4479 51.0608 25.3246 52.17C25.2322 52.8787 25.0782 53.6181 24.77 54.3576C29.176 58.7328 37.3718 61.0744 44.1502 56.5144C45.2902 55.7441 46.8616 56.0522 47.6319 57.1922C48.4022 58.3322 48.0941 59.9036 46.954 60.6739C37.6491 66.9285 26.8036 63.5085 21.1651 57.8701C21.1651 57.8701 21.1343 57.8392 21.1035 57.8084C19.5013 58.4247 17.5602 58.6095 15.4035 58.6095C14.017 58.6095 12.877 57.5003 12.877 56.1138C12.877 54.7273 14.017 53.6181 15.4035 53.6181C19.1624 53.6181 19.8403 52.9403 19.9943 52.7554C20.0868 52.6322 20.2408 52.324 20.3332 51.5846C20.4257 50.8451 20.4257 49.9208 20.4257 48.5959C20.4257 47.2094 21.5657 46.1002 22.9522 46.1002L22.9214 46.0694Z" fill="#4E4241"/>
<path d="M29.1454 31.9271C30.6258 31.9271 31.826 30.727 31.826 29.2465C31.826 27.7661 30.6258 26.566 29.1454 26.566C27.665 26.566 26.4648 27.7661 26.4648 29.2465C26.4648 30.727 27.665 31.9271 29.1454 31.9271Z" fill="#F3F1EC"/>
<path d="M57.0282 31.9271C58.5087 31.9271 59.7088 30.727 59.7088 29.2465C59.7088 27.7661 58.5087 26.566 57.0282 26.566C55.5478 26.566 54.3477 27.7661 54.3477 29.2465C54.3477 30.727 55.5478 31.9271 57.0282 31.9271Z" fill="#F3F1EC"/>
<path d="M27.8365 43.3806C28.594 43.3806 29.2081 42.7665 29.2081 42.0089C29.2081 41.2514 28.594 40.6373 27.8365 40.6373C27.079 40.6373 26.4648 41.2514 26.4648 42.0089C26.4648 42.7665 27.079 43.3806 27.8365 43.3806Z" fill="#F3F1EC"/>
<path d="M29.3599 43.9434C30.1175 43.9434 30.7316 43.3293 30.7316 42.5717C30.7316 41.8142 30.1175 41.2001 29.3599 41.2001C28.6024 41.2001 27.9883 41.8142 27.9883 42.5717C27.9883 43.3293 28.6024 43.9434 29.3599 43.9434Z" fill="#F3F1EC"/>
<path d="M55.7143 43.3827C56.4691 43.3827 57.081 42.7708 57.081 42.016C57.081 41.2612 56.4691 40.6494 55.7143 40.6494C54.9595 40.6494 54.3477 41.2612 54.3477 42.016C54.3477 42.7708 54.9595 43.3827 55.7143 43.3827Z" fill="#F3F1EC"/>
<path d="M57.2319 43.9434C57.9867 43.9434 58.5986 43.3315 58.5986 42.5767C58.5986 41.8219 57.9867 41.21 57.2319 41.21C56.4771 41.21 55.8652 41.8219 55.8652 42.5767C55.8652 43.3315 56.4771 43.9434 57.2319 43.9434Z" fill="#F3F1EC"/>
</g>
<defs>
<clipPath id="clip0_5182_2440">
<rect width="83.19" height="83.19" fill="white" transform="translate(0.367188 0.869507)"/>
</clipPath>
</defs>
</svg>
