<svg width="21" height="21" viewBox="0 0 21 21" fill="none" xmlns="http://www.w3.org/2000/svg">
<path d="M7.45768 16.5833H7.04102C3.70768 16.5833 2.04102 15.75 2.04102 11.5833V7.41666C2.04102 4.08332 3.70768 2.41666 7.04102 2.41666H13.7077C17.041 2.41666 18.7077 4.08332 18.7077 7.41666V11.5833C18.7077 14.9167 17.041 16.5833 13.7077 16.5833H13.291C13.0327 16.5833 12.7827 16.7083 12.6243 16.9167L11.3743 18.5833C10.8243 19.3167 9.92435 19.3167 9.37435 18.5833L8.12435 16.9167C7.99102 16.7333 7.68268 16.5833 7.45768 16.5833Z" stroke="#8262B0" stroke-width="1.5" stroke-miterlimit="10" stroke-linecap="round" stroke-linejoin="round"/>
<path d="M6.20898 7.41666H14.5423" stroke="#8262B0" stroke-width="1.5" stroke-linecap="round" stroke-linejoin="round"/>
<path d="M6.20898 11.5833H11.209" stroke="#8262B0" stroke-width="1.5" stroke-linecap="round" stroke-linejoin="round"/>
</svg>
