<svg width="94" height="127" viewBox="0 0 94 127" fill="none" xmlns="http://www.w3.org/2000/svg">
<path d="M47 0.900024C35.2298 0.900024 25.5376 10.1907 25.5376 21.7298C25.5376 27.4993 27.7602 34.815 31.3664 41.1137C33.3613 44.5982 35.8498 47.9029 38.8217 50.1505C29.5917 51.7693 21.536 55.9939 15.7327 61.3561C15.4539 61.6142 15.2286 61.9247 15.0697 62.2699C14.9108 62.6151 14.8215 62.9882 14.8068 63.3679C14.7921 63.7476 14.8523 64.1265 14.9841 64.4829C15.1158 64.8393 15.3165 65.1663 15.5746 65.4452C16.0959 66.0084 16.8196 66.3415 17.5864 66.3712C17.9661 66.3859 18.345 66.3256 18.7014 66.1939C19.0579 66.0621 19.3849 65.8615 19.6637 65.6034C26.0279 59.723 35.9261 55.2111 47 55.2111C58.0738 55.2111 67.9721 59.723 74.3362 65.6034C74.6151 65.8615 74.9421 66.0621 75.2985 66.1939C75.655 66.3256 76.0339 66.3859 76.4136 66.3712C76.7933 66.3565 77.1664 66.2672 77.5116 66.1083C77.8568 65.9494 78.1673 65.7241 78.4254 65.4452C78.6835 65.1663 78.8842 64.8393 79.0159 64.4829C79.1476 64.1265 79.2079 63.7476 79.1932 63.3679C79.1785 62.9882 79.0892 62.6151 78.9303 62.2699C78.7714 61.9247 78.5461 61.6142 78.2672 61.3561C72.464 55.9939 64.4083 51.7693 55.1783 50.1505C58.1502 47.9029 60.6386 44.5982 62.6336 41.1137C66.2397 34.815 68.4623 27.4993 68.4623 21.7298C68.4623 10.1907 58.7701 0.900024 47 0.900024ZM47 6.68356C55.7465 6.68356 62.6788 13.4219 62.6788 21.7298C62.6788 25.8838 60.7347 32.8237 57.6182 38.2671C54.5017 43.7105 50.3887 47.3039 47 47.3039C43.6113 47.3039 39.4983 43.7105 36.3818 38.2671C33.2653 32.8237 31.3212 25.8838 31.3212 21.7298C31.3212 13.4219 38.2535 6.68356 47 6.68356ZM3.48791 69.6247C2.74473 69.6597 2.0436 69.9797 1.53028 70.5182C1.01696 71.0568 0.730948 71.7725 0.731694 72.5165V111.601C0.730324 112.337 1.01008 113.047 1.51388 113.584C2.01768 114.121 2.70756 114.446 3.44273 114.492C8.63527 114.787 14.497 115.642 20.703 117.294C30.1067 119.797 38.7811 123.569 45.5089 127.686C45.9591 127.957 46.4746 128.1 47 128.1C47.5254 128.1 48.0409 127.957 48.4911 127.686C55.2189 123.569 63.8933 119.797 73.297 117.294C79.503 115.642 85.3647 114.787 90.5573 114.492C91.2924 114.446 91.9823 114.121 92.4861 113.584C92.9899 113.047 93.2697 112.337 93.2683 111.601V72.5165C93.269 72.121 93.1887 71.7297 93.0322 71.3665C92.8756 71.0034 92.6463 70.6762 92.3584 70.4051C92.0704 70.1341 91.7299 69.925 91.3579 69.7908C90.986 69.6566 90.5905 69.6 90.1958 69.6247C84.6059 69.9427 78.396 70.8978 71.8059 72.652C62.4766 75.1356 54.0286 78.7964 47 82.9088C39.9714 78.7964 31.5234 75.1356 22.194 72.652C15.604 70.8978 9.3941 69.9427 3.8042 69.6247C3.69885 69.6189 3.59326 69.6189 3.48791 69.6247ZM6.51523 75.7245C10.9344 76.1449 15.6492 76.8643 20.703 78.2097C29.4751 80.5448 37.5933 83.9957 44.1082 87.7886V113.001C44.1028 113.384 44.1736 113.765 44.3165 114.12C44.4594 114.476 44.6715 114.8 44.9406 115.073C45.2097 115.346 45.5303 115.562 45.8838 115.71C46.2374 115.858 46.6168 115.934 47 115.934C47.3832 115.934 47.7626 115.858 48.1162 115.71C48.4697 115.562 48.7903 115.346 49.0594 115.073C49.3285 114.8 49.5406 114.476 49.6835 114.12C49.8264 113.765 49.8972 113.384 49.8918 113.001V87.7886C56.4067 83.9957 64.5248 80.5448 73.297 78.2097C78.3508 76.8643 83.0656 76.1449 87.4848 75.7245V108.98C82.5933 109.413 77.383 110.251 71.8059 111.736C62.4767 114.22 54.0287 117.88 47 121.993C39.9713 117.88 31.5233 114.22 22.194 111.736C16.617 110.251 11.4067 109.413 6.51523 108.98V75.7245Z" fill="white"/>
</svg>
