<svg width="141" height="109" viewBox="0 0 141 109" fill="none" xmlns="http://www.w3.org/2000/svg">
<path d="M30.8829 25.7857C32.099 25.7857 33.0841 24.7448 33.0841 23.4597V21.1338C33.0841 19.8488 32.099 18.8079 30.8829 18.8079C29.6668 18.8079 28.6818 19.8488 28.6818 21.1338V23.4597C28.6818 24.7448 29.6668 25.7857 30.8829 25.7857Z" fill="white"/>
<path d="M22.0785 25.7857C23.2946 25.7857 24.2796 24.7448 24.2796 23.4597V21.1338C24.2796 19.8488 23.2946 18.8079 22.0785 18.8079C20.8623 18.8079 19.8773 19.8488 19.8773 21.1338V23.4597C19.8773 24.7448 20.8623 25.7857 22.0785 25.7857Z" fill="white"/>
<path d="M39.6875 25.7857C40.9036 25.7857 41.8886 24.7448 41.8886 23.4597V21.1338C41.8886 19.8488 40.9036 18.8079 39.6875 18.8079C38.4713 18.8079 37.4863 19.8488 37.4863 21.1338V23.4597C37.4863 24.7448 38.4713 25.7857 39.6875 25.7857Z" fill="white"/>
<path d="M110.124 25.7857C111.34 25.7857 112.325 24.7448 112.325 23.4597V21.1338C112.325 19.8488 111.34 18.8079 110.124 18.8079C108.908 18.8079 107.923 19.8488 107.923 21.1338V23.4597C107.923 24.7448 108.908 25.7857 110.124 25.7857Z" fill="white"/>
<path d="M101.32 25.7857C102.536 25.7857 103.521 24.7448 103.521 23.4597V21.1338C103.521 19.8488 102.536 18.8079 101.32 18.8079C100.104 18.8079 99.1189 19.8488 99.1189 21.1338V23.4597C99.1189 24.7448 100.104 25.7857 101.32 25.7857Z" fill="white"/>
<path d="M118.929 25.7857C120.145 25.7857 121.13 24.7448 121.13 23.4597V21.1338C121.13 19.8488 120.145 18.8079 118.929 18.8079C117.713 18.8079 116.728 19.8488 116.728 21.1338V23.4597C116.728 24.7448 117.713 25.7857 118.929 25.7857Z" fill="white"/>
<path d="M70.5036 39.7411C71.7198 39.7411 72.7048 38.7003 72.7048 37.4152V35.0893C72.7048 33.8042 71.7198 32.7634 70.5036 32.7634C69.2875 32.7634 68.3025 33.8042 68.3025 35.0893V37.4152C68.3025 38.7003 69.2875 39.7411 70.5036 39.7411Z" fill="white"/>
<path d="M61.6992 39.7411C62.9153 39.7411 63.9003 38.7003 63.9003 37.4152V35.0893C63.9003 33.8042 62.9153 32.7634 61.6992 32.7634C60.4831 32.7634 59.498 33.8042 59.498 35.0893V37.4152C59.498 38.7003 60.4831 39.7411 61.6992 39.7411Z" fill="white"/>
<path d="M79.3083 39.7411C80.5245 39.7411 81.5095 38.7003 81.5095 37.4152V35.0893C81.5095 33.8042 80.5245 32.7634 79.3083 32.7634C78.0922 32.7634 77.1072 33.8042 77.1072 35.0893V37.4152C77.1072 38.7003 78.0922 39.7411 79.3083 39.7411Z" fill="white"/>
<path d="M15.4753 37.4146H25.5676L29.3261 41.3862C29.7553 41.8397 30.3166 42.0665 30.8835 42.0665C31.4448 42.0665 32.0061 41.8397 32.4408 41.3862L36.1993 37.4146H46.2917V42.0664C46.2917 47.1951 50.2428 51.3701 55.0963 51.3701H65.1886L68.9471 55.3416C69.3764 55.7952 69.9376 56.022 70.5045 56.022C71.0658 56.022 71.6271 55.7952 72.0618 55.3416L75.8204 51.3701H85.9127C90.7662 51.3701 94.7173 47.1951 94.7173 42.0664V37.4146H104.81L108.568 41.3862C108.997 41.8397 109.559 42.0665 110.125 42.0665C110.692 42.0665 111.248 41.8397 111.683 41.3862L115.441 37.4146H125.534C130.387 37.4146 134.338 33.2396 134.338 28.111V9.50366C134.338 4.37505 130.387 0.200012 125.534 0.200012H94.7176C89.864 0.200012 85.913 4.37505 85.913 9.50366V14.1555H55.0968V9.50366C55.0968 4.37505 51.1458 0.200012 46.2922 0.200012H15.4761C10.6226 0.200012 6.67151 4.37505 6.67151 9.50366V28.111C6.67151 33.2396 10.6217 37.4146 15.4753 37.4146ZM90.3144 9.50366C90.3144 6.93928 92.2899 4.85184 94.7167 4.85184H125.533C127.96 4.85184 129.935 6.93928 129.935 9.50366V28.111C129.935 30.6754 127.96 32.7628 125.533 32.7628H114.527C113.944 32.7628 113.382 33.007 112.97 33.4431L110.125 36.4493L107.28 33.4431C106.867 33.007 106.306 32.7628 105.722 32.7628H94.7167V23.4591C94.7167 20.0226 92.9448 17.0164 90.3144 15.4056V9.50366ZM85.9121 18.8073C88.339 18.8073 90.3144 20.8948 90.3144 23.4591V42.0664C90.3144 44.6308 88.339 46.7183 85.9121 46.7183H74.9064C74.3231 46.7183 73.7618 46.9625 73.349 47.3986L70.5041 50.4048L67.6591 47.3986C67.2464 46.9625 66.6851 46.7183 66.1018 46.7183H55.096C52.6692 46.7183 50.6937 44.6308 50.6937 42.0664V23.4591C50.6937 20.8948 52.6692 18.8073 55.096 18.8073H85.9121ZM11.073 9.50366C11.073 6.93928 13.0484 4.85184 15.4753 4.85184H46.2914C48.7182 4.85184 50.6937 6.93928 50.6937 9.50366V15.4056C48.0633 17.0163 46.2914 20.0226 46.2914 23.4591V32.7628H35.2856C34.7023 32.7628 34.141 33.007 33.7283 33.4431L30.8833 36.4493L28.0384 33.4431C27.6257 33.007 27.0644 32.7628 26.481 32.7628H15.4753C13.0484 32.7628 11.073 30.6754 11.073 28.111V9.50366Z" fill="white"/>
<path d="M121.362 76.1771C125.219 73.2115 127.734 68.4144 127.734 63.0007C127.734 54.0228 120.822 46.7186 112.325 46.7186C103.828 46.7186 96.9165 54.0219 96.9165 63.0007C96.9165 68.4084 99.4257 73.2057 103.278 76.1654C100.334 77.2005 97.5548 78.7472 95.0234 80.7824C90.9843 84.0271 87.8146 88.4056 85.8831 93.3308C83.9241 92.005 81.7945 90.9234 79.5438 90.1327C83.4013 87.1671 85.9161 82.37 85.9161 76.9563C85.9161 67.9784 79.0045 60.6742 70.5073 60.6742C62.0101 60.6742 55.0985 67.9775 55.0985 76.9563C55.0985 82.3699 57.6134 87.1729 61.4708 90.1327C59.2256 90.9235 57.096 92.005 55.1315 93.3308C53.1945 88.4114 50.0248 84.0271 45.9912 80.7824C43.4598 78.7472 40.681 77.2006 37.7368 76.1654C41.5889 73.1999 44.0981 68.4086 44.0981 63.0007C44.0981 54.0228 37.1866 46.7186 28.6894 46.7186C20.1922 46.7186 13.2806 54.0219 13.2806 63.0007C13.2806 68.4142 15.7955 73.2173 19.6529 76.1771C8.27846 80.1834 0.0629883 91.5273 0.0629883 104.867C0.0629883 108.716 3.02359 111.844 6.66644 111.844H42.6554C42.1492 114.089 41.885 116.42 41.885 118.822C41.885 122.671 44.8456 125.8 48.4885 125.8H92.5115C96.1544 125.8 99.115 122.671 99.115 118.822C99.115 116.42 98.8508 114.089 98.3446 111.844H134.334C137.976 111.844 140.937 108.716 140.937 104.867C140.937 91.5275 132.721 80.1828 121.358 76.1771H121.362ZM101.32 63.0007C101.32 56.587 106.256 51.3711 112.325 51.3711C118.395 51.3711 123.331 56.587 123.331 63.0007C123.331 69.4144 118.395 74.6303 112.325 74.6303C106.256 74.6303 101.32 69.4144 101.32 63.0007ZM59.497 76.9562C59.497 70.5425 64.4331 65.3266 70.5028 65.3266C76.5725 65.3266 81.5086 70.5425 81.5086 76.9562C81.5086 83.3699 76.5725 88.5857 70.5028 88.5857C64.4331 88.5857 59.497 83.3699 59.497 76.9562ZM17.6745 63.0007C17.6745 56.587 22.6105 51.3711 28.6802 51.3711C34.7499 51.3711 39.686 56.587 39.686 63.0007C39.686 69.4144 34.7499 74.6303 28.6802 74.6303C22.6105 74.6303 17.6745 69.4144 17.6745 63.0007ZM6.6687 107.194C5.45806 107.194 4.46755 106.147 4.46755 104.868C4.46755 90.7612 15.3302 79.2821 28.6809 79.2821C38.8943 79.2821 48.0736 86.19 51.4855 96.2549C48.3049 99.2495 45.7626 102.977 44.0952 107.193L6.6687 107.194ZM92.5143 121.149H48.4913C47.2806 121.149 46.2901 120.103 46.2901 118.823C46.2901 104.717 57.1528 93.2376 70.5035 93.2376C83.8542 93.2376 94.7169 104.716 94.7169 118.823C94.7169 120.103 93.7264 121.149 92.5157 121.149H92.5143ZM134.337 107.194H96.918C95.2506 102.984 92.7028 99.2509 89.5276 96.2561C92.9395 86.1966 102.118 79.2833 112.332 79.2833C125.682 79.2833 136.546 90.7616 136.546 104.869C136.546 106.148 135.555 107.195 134.344 107.195L134.337 107.194Z" fill="white"/>
</svg>
