<svg width="212" height="107" viewBox="0 0 212 107" fill="none" xmlns="http://www.w3.org/2000/svg">
<path d="M105.999 55.6049C77.9372 55.6049 55.1039 78.436 55.1039 106.501C55.1039 134.565 77.9349 157.396 105.999 157.396C134.064 157.396 156.895 134.565 156.895 106.501C156.895 78.436 134.064 55.6049 105.999 55.6049ZM150.845 103.231C150.557 103.1 150.261 102.978 149.973 102.856C145.562 100.921 140.994 98.9157 136.565 98.9157C131.055 98.9157 127.359 101.557 124.665 103.484C122.721 104.879 121.492 105.733 120.411 105.541C119.251 105.341 117.072 103.937 113.245 98.4014C111.867 96.405 112.547 95.0276 114.832 91.6101C117.325 87.8788 121.108 82.2385 114.509 75.6478C110.377 71.5155 112.6 66.4679 115.677 62.5797C134.822 66.7903 149.387 83.2057 150.845 103.231ZM78.6268 70.8613C80.3442 73.4941 82.6284 74.5665 84.4417 75.4034C86.7955 76.4757 88.3386 77.1906 89.4109 81.0177C90.2391 84.0078 89.0797 85.4638 86.5777 88.2187C84.991 89.971 83.1865 91.95 82.2972 94.6873C81.3033 97.7386 82.5064 100.188 83.3084 101.81C83.5525 102.307 83.9623 103.135 83.9448 103.379C83.9448 103.379 83.9012 103.518 83.6484 103.789C82.6459 104.87 80.0827 106.047 77.8335 107.075C73.1696 109.211 68.3572 111.417 68.0347 115.95C67.9911 116.622 67.9475 117.241 67.9127 117.799C67.7993 119.621 67.7122 121.068 67.3896 121.46C66.9973 121.931 65.6024 122.55 64.1988 123.099C62.1501 117.955 60.9906 112.367 60.9906 106.509C60.9994 91.9849 67.9301 79.0921 78.6268 70.8613ZM82.6545 144.903C83.317 144.58 84.3109 144.092 85.6622 143.107C87.6673 141.642 88.1556 139.018 88.6262 136.481C88.8006 135.548 88.975 134.581 89.2103 133.857C89.3673 133.369 89.7073 133.133 89.9688 133.02C90.3349 132.863 90.736 132.863 91.2154 133.081C92.2877 133.517 93.1247 134.912 93.9266 136.254C95.1297 138.251 96.9431 141.267 100.509 140.762C103.569 140.334 106.201 139.131 108.52 138.076C113.167 135.967 115.974 134.685 120.725 138.756C121.641 139.541 124.003 142.845 126.13 146.69C120.063 149.732 113.254 151.493 106.01 151.493C97.4488 151.502 89.4721 149.061 82.6545 144.903ZM131.222 143.761C128.938 139.637 126.21 135.723 124.544 134.293C116.943 127.781 110.918 130.527 106.08 132.724C104.049 133.648 102.131 134.52 100.056 134.877C99.7422 134.511 99.2889 133.761 98.975 133.229C97.8591 131.364 96.3248 128.818 93.5873 127.702C91.713 126.822 89.5422 126.796 87.6242 127.624C85.715 128.452 84.2505 130.065 83.6052 132.052C83.2565 133.134 83.0473 134.293 82.8381 135.409C82.6637 136.359 82.376 137.928 82.0796 138.425C81.1991 139.053 80.5976 139.349 80.0658 139.611C79.0284 140.117 78.2699 140.605 77.6336 141.389C73.2223 137.798 69.526 133.395 66.7276 128.408C72.5251 126.046 73.4142 124.39 73.7892 118.147C73.824 117.607 73.8589 117.014 73.9025 116.36C73.981 115.305 78.3922 113.283 80.2753 112.42C83.3005 111.034 86.1511 109.726 87.9558 107.791C91.1291 104.373 89.4639 101.008 88.5747 99.2035C87.9034 97.8348 87.6506 97.2159 87.8773 96.5098C88.3829 94.9667 89.6121 93.6067 90.9199 92.1683C93.3958 89.4308 96.8044 85.691 95.0609 79.4403C93.265 72.9717 89.5688 71.2805 86.8748 70.0425C85.323 69.3276 84.2594 68.822 83.4836 67.5753C90.118 63.7306 97.7808 61.4901 105.984 61.4901C107.048 61.4901 108.094 61.5773 109.14 61.647C104.999 68.3685 105.357 74.8109 110.343 79.7976C113.36 82.8141 112.593 84.3484 109.934 88.3237C107.693 91.6713 104.616 96.2656 108.399 101.732C112.627 107.852 115.914 110.72 119.401 111.33C119.855 111.409 120.299 111.443 120.735 111.443C123.647 111.443 125.992 109.761 128.102 108.253C130.595 106.466 132.949 104.783 136.576 104.783C139.766 104.783 143.576 106.457 147.612 108.227C148.676 108.689 149.757 109.159 150.855 109.613C149.862 123.814 142.338 136.211 131.222 143.761Z" fill="white"/>
<path d="M85.2085 51.0113H126.793C128.423 51.0113 129.74 49.6949 129.74 48.0647V34.5258C129.74 26.2788 124.387 20.6993 115.486 19.1998C116.916 17.247 117.787 14.867 117.787 12.2777C117.787 5.78283 112.504 0.5 106.01 0.5C99.5151 0.5 94.232 5.78305 94.232 12.2777C94.232 14.8757 95.1038 17.2557 96.5247 19.1998C87.6237 20.6993 82.271 26.2788 82.271 34.5258V48.0647C82.2623 49.6949 83.5783 51.0113 85.2085 51.0113ZM106.001 6.39367C109.252 6.39367 111.894 9.0352 111.894 12.2869C111.894 15.5386 109.252 18.1801 106.001 18.1801C102.758 18.1801 100.107 15.5386 100.107 12.2869C100.107 9.0352 102.758 6.39367 106.001 6.39367ZM88.1551 34.5341C88.1551 25.9556 96.5591 24.6741 101.572 24.6741H110.429C115.442 24.6741 123.846 25.9557 123.846 34.5341V45.1263H118.546V35.5891C118.546 33.9588 117.229 32.6425 115.599 32.6425C113.977 32.6425 112.661 33.9588 112.661 35.5891L112.67 45.1263H99.3488V35.5891C99.3488 33.9588 98.0324 32.6425 96.4022 32.6425C94.7807 32.6425 93.4556 33.9588 93.4556 35.5891V45.1263H88.1551L88.1551 34.5341Z" fill="white"/>
<path d="M34.0338 130.239H47.5727C49.2029 130.239 50.5193 128.923 50.5193 127.293L50.5106 85.7079C50.5106 84.0777 49.1942 82.7613 47.564 82.7613H34.0251C25.778 82.7613 20.1986 88.114 18.6991 97.015C16.755 95.5852 14.375 94.7223 11.777 94.7223C5.2821 94.7223 -0.000732422 100.005 -0.000732422 106.5C-0.000732422 112.995 5.28232 118.278 11.777 118.278C14.3663 118.278 16.755 117.406 18.6991 115.985C20.2073 124.886 25.7868 130.239 34.0338 130.239ZM24.1739 102.072C24.1739 97.0592 25.4554 88.6465 34.0251 88.6465H44.6174V93.9469H35.0888C33.4585 93.9469 32.1509 95.2633 32.1509 96.8936C32.1509 98.5238 33.4673 99.8402 35.0888 99.8402H44.6174V113.161H35.0888C33.4585 113.161 32.1509 114.478 32.1509 116.108C32.1509 117.738 33.4673 119.054 35.0888 119.054H44.6174V124.355H34.0251C25.4466 124.355 24.1739 115.951 24.1739 110.938V102.072ZM11.7857 112.394C8.53403 112.394 5.8925 109.752 5.8925 106.501C5.8925 103.249 8.53403 100.607 11.7857 100.607C15.0374 100.607 17.6789 103.249 17.6789 106.501C17.6789 109.752 15.0287 112.394 11.7857 112.394Z" fill="white"/>
<path d="M200.223 94.7233C197.625 94.7233 195.245 95.595 193.292 97.0247C191.792 88.1237 186.213 82.771 177.966 82.771H164.427C162.797 82.771 161.48 84.0874 161.48 85.7176V127.302C161.48 128.933 162.797 130.249 164.427 130.249H177.966C186.213 130.249 191.792 124.896 193.292 115.995C195.236 117.425 197.625 118.297 200.223 118.297C206.718 118.297 212 113.014 212 106.519C212 100.007 206.717 94.7233 200.223 94.7233ZM187.826 110.93C187.826 115.943 186.544 124.346 177.975 124.346H167.382V119.046H176.911C178.541 119.046 179.858 117.73 179.858 116.099C179.858 114.469 178.541 113.153 176.911 113.153H167.382V99.8318H176.911C178.541 99.8318 179.858 98.5154 179.858 96.8852C179.858 95.2549 178.541 93.9386 176.911 93.9386H167.382V88.6381H177.975C186.553 88.6381 187.826 97.0508 187.826 102.055V110.93ZM200.223 112.394C196.971 112.394 194.33 109.753 194.33 106.501C194.33 103.249 196.971 100.608 200.223 100.608C203.466 100.608 206.116 103.249 206.116 106.501C206.116 109.753 203.466 112.394 200.223 112.394Z" fill="white"/>
<path d="M130.531 52.5621L138.43 60.4605C138.43 60.4692 138.438 60.4692 138.438 60.478C138.447 60.4867 138.447 60.4867 138.456 60.4867L152.021 74.0516C152.021 74.0516 152.021 74.0603 152.029 74.0603H152.038L159.945 81.9675C160.521 82.5429 161.271 82.8306 162.029 82.8306C162.779 82.8306 163.537 82.5429 164.113 81.9675L173.685 72.3952C177.364 68.7251 178.854 64.2615 178.018 59.4929C177.547 56.8252 176.318 54.1139 174.443 51.4813C176.902 51.0977 179.168 49.9992 180.964 48.2032C185.559 43.6089 185.559 36.1378 180.964 31.5435C178.741 29.3204 175.786 28.0999 172.639 28.0999C169.491 28.0999 166.536 29.3291 164.313 31.5522C162.526 33.3393 161.419 35.606 161.044 38.0645C157.565 35.5799 153.982 34.2723 150.486 34.2723C146.694 34.2723 143.111 35.8502 140.13 38.8318L130.557 48.4041C130.008 48.9533 129.694 49.703 129.694 50.4876C129.668 51.2548 129.982 52.0128 130.531 52.5621ZM168.454 35.7104C169.569 34.5945 171.043 33.9842 172.621 33.9842C174.19 33.9842 175.672 34.5945 176.788 35.7104C179.081 38.0118 179.081 41.7431 176.788 44.0447C174.565 46.2678 170.685 46.2678 168.454 44.0447C167.346 42.9288 166.727 41.4554 166.727 39.8775C166.736 38.2996 167.346 36.8263 168.454 35.7104ZM144.27 42.9898C146.179 41.0805 148.202 40.1565 150.46 40.1565C153.624 40.1565 157.277 42.057 160.729 45.5092L166.997 51.7774C170.546 55.3254 175.576 62.1689 169.517 68.2367L162.028 75.7254L158.28 71.9767L165.018 65.2379C166.169 64.0871 166.169 62.2214 165.018 61.0794C163.868 59.9286 162.002 59.9286 160.86 61.0794L154.121 67.8182L144.697 58.3941L151.436 51.6553C152.587 50.5045 152.587 48.6388 151.436 47.4881C150.285 46.3374 148.419 46.3374 147.269 47.4881L140.53 54.227L136.781 50.4782L144.27 42.9898Z" fill="white"/>
<path d="M37.5642 51.482C35.6899 54.1148 34.4607 56.8259 33.9898 59.4936C33.1442 64.2622 34.6437 68.7258 38.3226 72.3959L47.8949 81.9682C48.4441 82.5174 49.1938 82.8313 49.9784 82.8313C50.7631 82.8313 51.5128 82.5174 52.062 81.9682L59.9692 74.061H59.9779V74.0523L73.5516 60.4787C73.5516 60.4787 73.5603 60.4787 73.5603 60.47C73.5603 60.47 73.5603 60.4612 73.569 60.4612L81.4675 52.5541C82.0167 52.0048 82.3305 51.2551 82.3305 50.4705C82.3305 49.6859 82.0167 48.9362 81.4675 48.3869L71.8952 38.8146C68.9137 35.8332 65.3306 34.2551 61.5384 34.2551C58.0425 34.2551 54.4507 35.5628 50.981 38.0474C50.5974 35.5975 49.4989 33.3222 47.7119 31.535C45.4888 29.312 42.5335 28.0827 39.3862 28.0827C36.239 28.0827 33.2837 29.3119 31.0606 31.535C28.8375 33.7581 27.6083 36.7134 27.6083 39.8607C27.6083 43.0079 28.8375 45.9632 31.0606 48.1863C32.8391 49.9996 35.1057 51.107 37.5642 51.482ZM61.5379 40.1575C63.7958 40.1575 65.8272 41.0816 67.7275 42.9907L75.2163 50.4794L71.4675 54.2282L64.7287 47.4893C63.578 46.3386 61.7122 46.3386 60.5615 47.4893C59.4108 48.6401 59.4108 50.5058 60.5615 51.6565L67.3004 58.3953L57.885 67.8107L51.1461 61.0719C49.9954 59.9211 48.1297 59.9211 46.979 61.0719C45.8282 62.2226 45.8282 64.0884 46.979 65.2391L53.7178 71.9779L49.9691 75.7266L42.4804 68.2379C36.4216 62.1701 41.4604 55.3266 44.9998 51.7786L51.268 45.5104C54.7203 42.0581 58.3646 40.1575 61.5379 40.1575ZM35.2097 35.7113C36.3256 34.5955 37.799 33.9852 39.3769 33.9852C40.9461 33.9852 42.4282 34.5955 43.544 35.7113C44.6599 36.8185 45.2702 38.3007 45.2702 39.8785C45.2702 41.4477 44.6599 42.9298 43.544 44.0457C41.321 46.2687 37.4415 46.2687 35.2184 44.0457C34.1112 42.9298 33.4923 41.4564 33.4923 39.8785C33.4835 38.3006 34.0938 36.8272 35.2097 35.7113Z" fill="white"/>
</svg>
