<svg width="114" height="116" viewBox="0 0 114 116" fill="none" xmlns="http://www.w3.org/2000/svg">
<path d="M18.2705 20.5319H29.7457C30.2936 20.5319 30.8189 20.3143 31.2063 19.9269C31.5937 19.5396 31.8113 19.0142 31.8113 18.4664C31.8113 17.9186 31.5937 17.3932 31.2063 17.0058C30.8189 16.6185 30.2936 16.4008 29.7457 16.4008H18.2705C17.7226 16.4008 17.1973 16.6185 16.8099 17.0058C16.4225 17.3932 16.2049 17.9186 16.2049 18.4664C16.2049 19.0142 16.4225 19.5396 16.8099 19.9269C17.1973 20.3143 17.7226 20.5319 18.2705 20.5319Z" fill="white" stroke="white" stroke-width="0.306"/>
<path d="M29.7457 31.7009H18.2705C17.7226 31.7009 17.1973 31.9185 16.8099 32.3059C16.4225 32.6932 16.2049 33.2186 16.2049 33.7664C16.2049 34.3142 16.4225 34.8396 16.8099 35.227C17.1973 35.6144 17.7226 35.832 18.2705 35.832H29.7457C30.2936 35.832 30.8189 35.6144 31.2063 35.227C31.5937 34.8396 31.8113 34.3142 31.8113 33.7664C31.8113 33.2186 31.5937 32.6932 31.2063 32.3059C30.8189 31.9185 30.2936 31.7009 29.7457 31.7009Z" fill="white" stroke="white" stroke-width="0.306"/>
<path d="M31.8116 26.1164C31.8116 25.5686 31.594 25.0432 31.2066 24.6559C30.8192 24.2685 30.2939 24.0509 29.7461 24.0509H2.97041C2.42259 24.0509 1.89721 24.2685 1.50985 24.6558C1.12248 25.0432 0.904861 25.5686 0.904861 26.1164C0.904861 26.6642 1.12248 27.1896 1.50985 27.577C1.89721 27.9643 2.42259 28.182 2.97041 28.182H29.7461C30.2939 28.1819 30.8192 27.9643 31.2066 27.5769C31.594 27.1896 31.8116 26.6642 31.8116 26.1164Z" fill="white" stroke="white" stroke-width="0.306"/>
<path d="M112.408 12.1457L112.408 12.1458C112.816 12.5113 113.062 13.024 113.092 13.5709C113.122 14.1179 112.933 14.6544 112.568 15.0625L112.454 14.9604L112.568 15.0625L75.6417 56.2887L75.6389 56.2919C75.1824 56.7742 74.6331 57.1592 74.0239 57.4235C73.4148 57.6879 72.7584 57.8262 72.0943 57.8301L72.0931 57.8301C70.9732 57.8282 69.8893 57.4342 69.0296 56.7165L112.408 12.1457ZM112.408 12.1457C111.999 11.7804 111.463 11.5921 110.916 11.6224C110.369 11.6527 109.856 11.8989 109.491 12.3071L72.6175 53.4759C72.617 53.4764 72.6166 53.4769 72.6161 53.4774C72.4937 53.6055 72.3273 53.6826 72.1503 53.6929C71.9726 53.7033 71.7977 53.6457 71.6609 53.5318L71.6604 53.5314L42.6165 29.5447C42.6165 29.5446 42.6164 29.5446 42.6163 29.5445C42.4677 29.4204 42.3685 29.2471 42.3368 29.0562C42.3054 28.8668 42.3424 28.6725 42.4411 28.5079L60.2941 3.40669L60.2943 3.40643C60.6105 2.95994 60.7367 2.40625 60.6451 1.86686C60.5535 1.32747 60.2516 0.846445 59.8058 0.529354C59.3599 0.212264 58.8065 0.0850093 58.2669 0.175517C57.7273 0.266025 57.2457 0.566901 56.9277 1.01212L56.9275 1.01237L39.0427 26.1593L39.0427 26.1593L39.0408 26.1621C38.3515 27.1776 38.0663 28.4139 38.241 29.6287C38.4099 30.8033 38.997 31.876 39.8922 32.6508L30.3397 43.2595C28.8586 43.8885 24.2574 46.0027 19.4299 49.8448C14.574 53.7094 9.4801 59.3295 7.11133 66.9533L112.408 12.1457ZM68.6252 56.3825L69.0289 56.7159L68.6252 56.3825ZM68.6252 56.3825L62.0187 64.3864L70.3763 90.6968C72.2861 93.9772 75.482 96.5241 78.7572 98.4723C82.0353 100.422 85.3785 101.764 87.5624 102.64C89.4437 103.373 91.0609 104.655 92.2036 106.319C93.3464 107.984 93.9617 109.954 93.9694 111.973V111.974V112.809V112.81C93.9511 115.487 92.8715 118.048 90.9674 119.931C89.0632 121.814 86.4901 122.865 83.8123 122.853H57.4344H57.4341V122.7L68.6252 56.3825ZM86.0273 106.476L86.0252 106.475L86.0217 106.474C83.6173 105.509 79.9047 104.018 76.2345 101.777C72.5633 99.5358 68.9226 96.536 66.6746 92.546L66.6707 92.5391L66.6676 92.5319L66.5112 92.1723L66.508 92.1651L66.5056 92.1576L65.6119 89.344C64.9214 89.4566 64.2115 89.3261 63.6046 88.9723C62.9577 88.5951 62.4739 87.991 62.2472 87.2773C62.0205 86.5636 62.0671 85.7911 62.3778 85.1097C62.6692 84.4706 63.1737 83.9543 63.8026 83.6478L62.579 79.7959C61.9051 79.8847 61.2195 79.742 60.6356 79.389C60.0132 79.0128 59.5487 78.4232 59.3285 77.73C59.1083 77.0369 59.1475 76.2874 59.4387 75.6209C59.7119 74.9957 60.1895 74.4835 60.7911 74.1671L57.8087 64.7778L34.3758 44.95L32.7931 46.7076L32.7691 46.7344L32.7356 46.7476L32.3144 46.9138L32.3137 46.9141C32.2366 46.9441 27.9848 48.6525 23.2067 52.2032C18.4274 55.7547 13.1364 61.1383 10.9547 68.515L10.9546 68.5151L10.8491 68.8709L10.8407 68.8993L10.8222 68.9225L9.17652 70.9954C9.17645 70.9955 9.17638 70.9956 9.17632 70.9957C8.24827 72.17 7.80484 73.6549 7.93701 75.1458C8.06918 76.6368 8.76702 78.0207 9.88731 79.0134L9.88744 79.0135L52.4885 116.851L86.0273 106.476ZM86.0273 106.476C87.1411 106.904 88.1003 107.658 88.78 108.638C89.4595 109.619 89.8283 110.781 89.8383 111.974C89.8383 111.974 89.8384 111.975 89.8384 111.975V112.807C89.8384 112.807 89.8383 112.807 89.8383 112.808C89.8218 114.39 89.1783 115.901 88.0492 117.01C86.9198 118.119 85.3968 118.734 83.8141 118.722H83.8129M86.0273 106.476L83.8129 118.722M57.4341 118.875H83.8129H57.4341ZM57.4341 118.875C55.5748 118.878 53.7788 118.199 52.3871 116.966L57.4341 118.875ZM83.8129 118.722H57.4341H57.4338M83.8129 118.722H57.4338M57.4338 118.722C55.612 118.725 53.8523 118.06 52.4887 116.852L57.4338 118.722ZM59.5732 60.86L37.1411 41.879L43.0791 35.2846L65.4399 53.7518L59.5732 60.86Z" fill="white" stroke="white" stroke-width="0.306"/>
<path d="M33.5715 59.4327H33.5713C32.028 59.4327 30.5193 59.8903 29.2361 60.7478C27.9529 61.6052 26.9527 62.8239 26.3621 64.2497C25.7715 65.6756 25.617 67.2445 25.9181 68.7582C26.2192 70.2719 26.9624 71.6623 28.0536 72.7536C29.1449 73.8449 30.5353 74.588 32.049 74.8891C33.5627 75.1902 35.1316 75.0357 36.5575 74.4451C37.9833 73.8545 39.202 72.8543 40.0594 71.5711C40.9169 70.2879 41.3745 68.7792 41.3745 67.2359V67.2357C41.3722 65.1669 40.5493 63.1836 39.0865 61.7208C37.6236 60.2579 35.6403 59.4351 33.5715 59.4327ZM33.5712 70.908C32.845 70.9079 32.1351 70.6926 31.5312 70.2891C30.9274 69.8856 30.4567 69.3121 30.1788 68.6411C29.9008 67.9701 29.8281 67.2318 29.9698 66.5195C30.1115 65.8072 30.4612 65.1529 30.9748 64.6393C31.4883 64.1258 32.1426 63.776 32.8549 63.6343C33.5673 63.4927 34.3056 63.5654 34.9766 63.8433C35.6476 64.1212 36.2211 64.5919 36.6246 65.1958C37.028 65.7996 37.2434 66.5095 37.2434 67.2357C37.2424 68.2093 36.8552 69.1428 36.1667 69.8312C35.4782 70.5197 34.5448 70.9069 33.5712 70.908Z" fill="white" stroke="white" stroke-width="0.306"/>
<path d="M81.0407 26.5044L81.0406 26.5046L69.5653 39.8924C69.5653 39.8924 69.5653 39.8924 69.5653 39.8925C69.3713 40.1189 69.1306 40.3007 68.8597 40.4251C68.5887 40.5496 68.294 40.6139 67.9959 40.6136M81.0407 26.5044L67.996 40.4606M81.0407 26.5044C81.3962 26.0883 81.572 25.5482 81.5296 25.0026C81.4872 24.457 81.23 23.9505 80.8145 23.5944C80.3991 23.2382 79.8592 23.0615 79.3136 23.1029C78.7679 23.1444 78.261 23.4007 77.9041 23.8156L77.9039 23.8158L66.4287 37.2036L81.0407 26.5044ZM67.9959 40.6136L67.996 40.4606M67.9959 40.6136C67.9959 40.6136 67.9959 40.6136 67.996 40.6136L67.996 40.4606M67.9959 40.6136C67.6009 40.6134 67.2143 40.5 66.8818 40.2868C66.5493 40.0736 66.2849 39.7696 66.12 39.4107C65.955 39.0518 65.8964 38.6531 65.9511 38.2619C66.0058 37.8708 66.1716 37.5035 66.4286 37.2036L66.5448 37.3032C66.3068 37.5809 66.1533 37.9209 66.1027 38.2831C66.052 38.6453 66.1063 39.0145 66.259 39.3468C66.4117 39.6791 66.6566 39.9606 66.9644 40.158C67.2723 40.3554 67.6303 40.4605 67.996 40.4606" fill="white" stroke="white" stroke-width="0.306"/>
<path d="M89.8698 50.9798L89.8698 50.9798L89.8691 50.9789L89.5451 50.5951L89.5451 50.5951L89.5445 50.5944C89.1888 50.1778 88.6821 49.9196 88.1359 49.8766C87.5898 49.8335 87.0489 50.0092 86.6323 50.365C86.2157 50.7208 85.9575 51.2274 85.9144 51.7736C85.8714 52.3196 86.047 52.8603 86.4025 53.2769C86.4026 53.277 86.4027 53.2771 86.4028 53.2772L86.6939 53.6222C86.694 53.6223 86.6941 53.6225 86.6942 53.6226C86.8677 53.8309 87.0805 54.0031 87.3204 54.1293C87.5605 54.2555 87.8232 54.3332 88.0933 54.3579C88.3635 54.3826 88.6359 54.3539 88.8949 54.2734C89.154 54.1928 89.3946 54.062 89.6031 53.8885C89.8116 53.715 89.9839 53.5022 90.1102 53.2622C90.2365 53.0221 90.3142 52.7595 90.339 52.4894C90.3637 52.2193 90.3351 51.9469 90.2546 51.6879C90.1741 51.4289 90.0433 51.1882 89.8698 50.9798Z" fill="white" stroke="white" stroke-width="0.306"/>
<path d="M94.0847 79.093L94.0845 79.0929C93.5742 78.8946 93.0061 78.9067 92.5047 79.1266C92.0033 79.3464 91.6095 79.7561 91.4096 80.2658L91.4094 80.2661C91.2986 80.5511 91.1824 80.8345 91.0609 81.1164C90.9532 81.3658 90.8958 81.6339 90.8919 81.9055C90.888 82.1771 90.9377 82.4468 91.0381 82.6992C91.1386 82.9515 91.2878 83.1816 91.4773 83.3762C91.6668 83.5708 91.8928 83.7262 92.1424 83.8333C92.392 83.9405 92.6603 83.9974 92.9319 84.0007C93.2035 84.004 93.4731 83.9538 93.7252 83.8528C93.9774 83.7518 94.2072 83.6021 94.4014 83.4122C94.5955 83.2224 94.7504 82.9962 94.857 82.7465C94.9963 82.4219 95.13 82.096 95.2581 81.7688L95.2582 81.7687C95.4573 81.2582 95.4455 80.6896 95.2254 80.1879C95.0054 79.6861 94.5951 79.2923 94.0847 79.093Z" fill="white" stroke="white" stroke-width="0.306"/>
<path d="M95.3264 71.2934L95.3264 71.2934L95.3254 71.2933C94.7808 71.2478 94.2401 71.4188 93.8207 71.7693C93.4013 72.1197 93.1369 72.6213 93.0849 73.1654L93.0849 73.1654L93.0848 73.1665C93.0579 73.4709 93.0254 73.7743 92.9873 74.0769C92.953 74.3462 92.9722 74.6197 93.0437 74.8816C93.1152 75.1436 93.2376 75.389 93.404 75.6036C93.5705 75.8182 93.7776 75.9979 94.0135 76.1323C94.2495 76.2668 94.5096 76.3534 94.7791 76.3873C95.0486 76.4211 95.3221 76.4014 95.5839 76.3294C95.8458 76.2574 96.0909 76.1344 96.3052 75.9676C96.5194 75.8008 96.6987 75.5933 96.8327 75.3571C96.9667 75.121 97.0528 74.8608 97.0861 74.5914C97.1303 74.2403 97.1681 73.8883 97.1997 73.5353L97.1997 73.5353C97.2485 72.9896 97.0785 72.4469 96.7272 72.0265C96.3759 71.6061 95.872 71.3424 95.3264 71.2934Z" fill="white" stroke="white" stroke-width="0.306"/>
<path d="M88.3767 90.6925C88.1153 90.6201 87.8708 90.4969 87.657 90.3299C87.4432 90.1631 87.2642 89.9558 87.1305 89.7198C86.9968 89.4838 86.9109 89.2238 86.8777 88.9546C86.8445 88.6854 86.8646 88.4123 86.937 88.1509C87.0094 87.8895 87.1325 87.645 87.2994 87.4312L88.3767 90.6925ZM88.3767 90.6925C88.6381 90.765 88.9113 90.7852 89.1805 90.7521C89.4498 90.7189 89.7098 90.633 89.9459 90.4993C90.1818 90.3656 90.3892 90.1868 90.556 89.9729M88.3767 90.6925L90.556 89.9729M90.556 89.9729C90.7718 89.6971 90.9831 89.4178 91.1898 89.135C91.5134 88.693 91.6482 88.1406 91.5645 87.5992C91.4808 87.0578 91.1855 86.5718 90.7435 86.2481C90.3015 85.9244 89.749 85.7896 89.2075 85.8733C88.6661 85.957 88.1801 86.2524 87.8565 86.6944C87.6748 86.9425 87.4892 87.188 87.2995 87.4312L90.556 89.9729Z" fill="white" stroke="white" stroke-width="0.306"/>
<path d="M92.6891 65.8914L92.6892 65.8914C92.7486 66.1905 92.8032 66.4914 92.8531 66.7942L92.8531 66.7943C92.9328 67.2769 93.1812 67.7155 93.5539 68.0322C93.9267 68.3489 94.3997 68.5232 94.8888 68.5239L94.8892 68.5239C95.0022 68.5238 95.1151 68.5147 95.2267 68.4967L95.2273 68.4966C95.7678 68.4074 96.2507 68.1072 96.57 67.662C96.8892 67.2168 97.0186 66.6631 96.9297 66.1225L96.9297 66.1224C96.872 65.7734 96.8086 65.4262 96.7396 65.0808L96.7396 65.0804C96.6311 64.5442 96.3144 64.0729 95.8588 63.77C95.4033 63.467 94.8461 63.3572 94.3097 63.4646C93.7732 63.572 93.3013 63.8878 92.9975 64.3428C92.6937 64.7978 92.5828 65.3547 92.6891 65.8914Z" fill="white" stroke="white" stroke-width="0.306"/>
<path d="M93.9378 57.1092L93.9378 57.1092C93.8137 56.868 93.6433 56.6536 93.4364 56.4783C93.2294 56.3029 92.9899 56.1701 92.7316 56.0873C92.4733 56.0045 92.2013 55.9734 91.9309 55.9958C91.6606 56.0181 91.3974 56.0935 91.1562 56.2176C90.915 56.3417 90.7006 56.5121 90.5253 56.7191C90.3499 56.926 90.2171 57.1655 90.1343 57.4238C90.0515 57.6821 90.0204 57.9541 90.0427 58.2245C90.0651 58.4947 90.1405 58.758 90.2645 58.9991C90.4043 59.2713 90.5396 59.5456 90.6704 59.8221L90.6706 59.8224C90.9055 60.316 91.3264 60.6963 91.8413 60.8801C92.3561 61.0638 92.9227 61.036 93.4171 60.8027C93.9114 60.5695 94.2931 60.1497 94.4786 59.6355C94.664 59.1213 94.638 58.5545 94.4063 58.0594L94.4061 58.059C94.2555 57.7399 94.0994 57.4233 93.9378 57.1092Z" fill="white" stroke="white" stroke-width="0.306"/>
<path d="M85.1042 95.5927L85.1044 95.5925L85.4841 95.2712L85.4846 95.2708C85.6911 95.0944 85.8608 94.879 85.9839 94.637C86.1071 94.3949 86.1813 94.131 86.2024 93.8602C86.2234 93.5895 86.1909 93.3173 86.1066 93.0591C86.0223 92.8009 85.8879 92.5619 85.7112 92.3557C85.5345 92.1496 85.3188 91.9803 85.0765 91.8575C84.8343 91.7348 84.5702 91.661 84.2994 91.6404C84.0287 91.6198 83.7565 91.6529 83.4985 91.7376C83.2406 91.8222 83.0019 91.9569 82.7961 92.1338L82.4472 92.4301C82.2392 92.6044 82.0676 92.8179 81.9421 93.0584C81.8166 93.2991 81.7397 93.5623 81.716 93.8327C81.6923 94.1032 81.7221 94.3757 81.8037 94.6346C81.8854 94.8935 82.0173 95.1338 82.1919 95.3417C82.3665 95.5496 82.5804 95.721 82.8213 95.8461C83.0623 95.9713 83.3255 96.0477 83.596 96.071C83.8665 96.0943 84.1389 96.0641 84.3977 95.982C84.6565 95.8999 84.8966 95.7676 85.1042 95.5927Z" fill="white" stroke="white" stroke-width="0.306"/>
</svg>
