<svg width="150" height="113" viewBox="0 0 150 113" fill="none" xmlns="http://www.w3.org/2000/svg">
<mask id="path-1-outside-1_1742_5795" maskUnits="userSpaceOnUse" x="-0.0209961" y="0.5" width="150" height="150" fill="black">
<rect fill="white" x="-0.0209961" y="0.5" width="150" height="150"/>
<path fill-rule="evenodd" clip-rule="evenodd" d="M45.9291 117.471V77.5248C45.9291 76.6901 46.6053 76.0139 47.44 76.0139H102.557C103.391 76.0139 104.068 76.6901 104.068 77.5248V117.477C104.068 118.312 103.391 118.988 102.557 118.988L71.4674 118.982L58.8199 131.264C58.2228 131.843 57.2724 131.831 56.6936 131.234C56.389 130.923 56.2489 130.509 56.2672 130.107L56.8703 118.982H47.4395C46.6048 118.982 45.9291 118.306 45.9291 117.471ZM65.0765 86.8154C63.9129 86.8154 62.8528 87.2906 62.0912 88.0521C61.3297 88.8137 60.8545 89.8738 60.8545 91.0374C60.8545 92.201 61.3297 93.2611 62.0912 94.0226C62.8528 94.7842 63.9129 95.2594 65.0765 95.2594C66.2401 95.2594 67.3002 94.7842 68.0617 94.0226C68.8233 93.255 69.2985 92.201 69.2985 91.0374C69.2985 89.8738 68.8233 88.8137 68.0617 88.0521C67.3002 87.2906 66.2462 86.8154 65.0765 86.8154ZM65.9294 90.1906C65.7101 89.9712 65.4116 89.8372 65.0765 89.8372C64.7414 89.8372 64.4429 89.9712 64.2236 90.1906C64.0042 90.4099 63.8702 90.7084 63.8702 91.0435C63.8702 91.3786 64.0042 91.6771 64.2236 91.8964C64.4429 92.1157 64.7414 92.2497 65.0765 92.2497C65.4116 92.2497 65.7101 92.1157 65.9294 91.8964C66.1487 91.6771 66.2828 91.3786 66.2828 91.0435C66.2828 90.7084 66.1487 90.4038 65.9294 90.1906ZM24.8617 49.6889V49.695L29.443 63.8839L44.3629 63.8535C45.1915 63.8535 45.8677 64.5297 45.8677 65.3583C45.8677 65.8578 45.624 66.3026 45.2463 66.5767V66.5828L33.1593 75.3313L37.7955 89.5141C38.0514 90.3061 37.6189 91.159 36.8269 91.415C36.309 91.5795 35.7668 91.4576 35.383 91.1286L23.4178 82.3984L11.3612 91.1895C10.6911 91.6768 9.75294 91.5306 9.25932 90.8605C8.9669 90.4523 8.89988 89.9527 9.04609 89.508H9.05218L13.6884 75.3252L1.60144 66.5767C0.925208 66.0893 0.778995 65.145 1.26637 64.4687C1.58318 64.0301 2.09492 63.8107 2.59448 63.8473L17.4047 63.8778L21.9861 49.6828C22.242 48.8908 23.0888 48.4582 23.8807 48.708C24.3681 48.8725 24.7154 49.2442 24.8617 49.6889ZM26.9147 65.8512L23.4299 55.0497L19.9451 65.8512C19.7502 66.4544 19.1836 66.8991 18.5134 66.8991L7.16367 66.8747L16.3629 73.5274C16.8746 73.899 17.1183 74.5753 16.9112 75.2149L13.3777 86.0104L22.5222 79.3395C23.034 78.9496 23.7711 78.9191 24.3194 79.3212L33.4943 86.0105L29.979 75.2699C29.7536 74.6546 29.9486 73.9357 30.5091 73.5275L39.7083 66.8749L28.4254 66.8992C27.7553 66.9297 27.128 66.5153 26.9147 65.8512ZM127.996 49.6889C127.85 49.2442 127.503 48.8726 127.022 48.7142C126.23 48.4583 125.383 48.897 125.127 49.6889L120.546 63.8839L105.735 63.8535C105.23 63.8169 104.724 64.0362 104.407 64.4749C103.92 65.1511 104.066 66.0894 104.742 66.5829L116.829 75.3314L112.193 89.5142H112.199C112.053 89.9589 112.12 90.4585 112.412 90.8667C112.9 91.5368 113.838 91.683 114.514 91.1956L126.571 82.4046L138.536 91.1348C138.92 91.4638 139.462 91.5856 139.98 91.4211C140.772 91.1653 141.205 90.3123 140.949 89.5203L136.312 75.3375L148.399 66.589V66.5829C148.777 66.3087 149.021 65.864 149.021 65.3644C149.021 64.5359 148.345 63.8596 147.516 63.8596L132.596 63.8901L128.015 49.7012V49.6951L127.996 49.6889ZM130.049 65.8512C130.263 66.5153 130.89 66.9235 131.554 66.893L142.837 66.8686L133.638 73.5213C133.077 73.9295 132.882 74.6423 133.108 75.2637L136.623 86.0043L127.448 79.315C126.9 78.9129 126.169 78.9434 125.651 79.3333L116.507 86.0042L120.034 75.2087C120.241 74.569 119.997 73.8928 119.486 73.5212L110.286 66.8685L121.636 66.8929C122.306 66.8929 122.873 66.4542 123.068 65.845L126.553 55.0434L130.049 65.8512ZM23.0522 98.8293L43.4363 148.567C43.7531 149.335 44.6304 149.7 45.4041 149.389C46.1717 149.073 46.5373 148.195 46.2266 147.428L25.8362 97.6838C25.5194 96.9162 24.6421 96.5506 23.8745 96.8613C23.1069 97.1781 22.7415 98.0556 23.0522 98.8293ZM106.552 148.561L126.937 98.823C127.253 98.0554 126.888 97.172 126.114 96.8553C125.346 96.5385 124.463 96.904 124.152 97.6777L103.768 147.415C103.451 148.183 103.817 149.066 104.591 149.377C105.358 149.694 106.242 149.328 106.552 148.561ZM90.1826 1.5C93.1861 1.5 95.9094 2.71845 97.8832 4.69237C99.851 6.66014 101.07 9.38338 101.07 12.393C101.07 15.3965 99.8511 18.1197 97.8832 20.0936C95.9155 22.0613 93.1922 23.2799 90.1826 23.2799C87.1731 23.2799 84.4559 22.0614 82.482 20.0936C80.5143 18.1258 79.2897 15.4026 79.2897 12.393C79.2897 9.38338 80.5081 6.66622 82.482 4.69237C84.4559 2.71853 87.1791 1.5 90.1826 1.5ZM95.7449 6.82468C94.3254 5.3991 92.3575 4.51567 90.1826 4.51567C88.0078 4.51567 86.0461 5.39905 84.6204 6.8186C83.2009 8.24418 82.3175 10.212 82.3175 12.3808C82.3175 14.5557 83.2009 16.5174 84.6204 17.943C86.046 19.3686 88.0138 20.2459 90.1826 20.2459C92.3575 20.2459 94.3192 19.3687 95.7449 17.943C97.1704 16.5235 98.0478 14.5557 98.0478 12.3808C98.0539 10.212 97.1705 8.24424 95.7449 6.82468ZM43.766 13.8064L63.0975 21.4645C63.8712 21.7691 64.255 22.6464 63.9504 23.4261L56.2924 42.7576C55.9878 43.5313 55.1105 43.9151 54.3307 43.6105L34.9993 35.9525C34.2256 35.6479 33.8417 34.7706 34.1463 33.9908L41.8044 14.6594C42.109 13.8796 42.9863 13.5018 43.766 13.8064ZM60.5802 23.7186L44.0577 17.1755L37.5146 33.6981L54.0372 40.2411L60.5802 23.7186ZM103.677 37.9014L108.953 53.0711C109.227 53.857 108.813 54.7161 108.027 54.9902L92.8632 60.2661C92.0773 60.5402 91.2183 60.126 90.9441 59.3401L85.6683 44.1703C85.3941 43.3844 85.8084 42.5254 86.5943 42.2512L101.758 36.9754C102.544 36.7012 103.403 37.1155 103.677 37.9014ZM105.614 52.6385L93.2899 56.9274L89.0009 44.6029L101.325 40.314L105.614 52.6385ZM130.927 129.98C130.567 130.729 129.666 131.046 128.916 130.68C128.167 130.321 127.85 129.419 128.216 128.67L139.237 105.842C139.596 105.092 140.498 104.776 141.247 105.141C141.997 105.501 142.313 106.402 141.948 107.152L130.927 129.98ZM8.04028 107.152C7.68084 106.402 7.99154 105.501 8.74089 105.141C9.49024 104.782 10.3919 105.092 10.7514 105.842L21.7722 128.67C22.1317 129.419 21.821 130.321 21.0716 130.68C20.3223 131.04 19.4206 130.729 19.0611 129.98L8.04028 107.152ZM84.8154 103.923C84.6022 104.782 83.4142 105.952 81.5499 106.908C79.911 107.749 77.8032 108.352 75.415 108.352C72.9598 108.352 70.6204 107.712 68.7562 106.823C66.7457 105.86 65.375 104.727 65.18 103.917C64.9851 103.106 64.1687 102.613 63.3645 102.808C62.5542 103.003 62.0607 103.819 62.2557 104.623C62.6578 106.262 64.65 108.206 67.4584 109.546C69.6821 110.606 72.4722 111.368 75.4149 111.368C78.3149 111.368 80.904 110.624 82.9327 109.583C85.5767 108.224 87.3435 106.256 87.7394 104.623C87.9344 103.813 87.4409 103.003 86.6307 102.808C85.8204 102.619 85.0103 103.113 84.8154 103.923ZM84.919 86.8154C83.7553 86.8154 82.6953 87.2906 81.9337 88.0521C81.1721 88.8137 80.697 89.8738 80.697 91.0374C80.697 92.201 81.1722 93.2611 81.9337 94.0226C82.7013 94.7842 83.7553 95.2594 84.919 95.2594C86.0826 95.2594 87.1427 94.7842 87.9042 94.0226C88.6657 93.255 89.1409 92.201 89.1409 91.0374C89.1409 89.8738 88.6657 88.8137 87.9042 88.0521C87.1366 87.2906 86.0826 86.8154 84.919 86.8154ZM85.7719 90.1906C85.5526 89.9712 85.254 89.8372 84.919 89.8372C84.5839 89.8372 84.2854 89.9712 84.066 90.1906C83.8467 90.4099 83.7127 90.7084 83.7127 91.0435C83.7127 91.3786 83.8467 91.6771 84.066 91.8964C84.2854 92.1157 84.5839 92.2497 84.919 92.2497C85.254 92.2497 85.5526 92.1157 85.7719 91.8964C85.9912 91.6771 86.1252 91.3786 86.1252 91.0435C86.1252 90.7084 85.9851 90.4038 85.7719 90.1906ZM48.951 79.0296V115.961H58.461V115.967H58.5402C59.3688 116.01 60.0084 116.717 59.9658 117.551L59.4845 126.422L69.7316 116.467C70.0058 116.156 70.414 115.961 70.8587 115.961H101.04L101.046 79.0296L48.951 79.0296Z"/>
</mask>
<path fill-rule="evenodd" clip-rule="evenodd" d="M45.9291 117.471V77.5248C45.9291 76.6901 46.6053 76.0139 47.44 76.0139H102.557C103.391 76.0139 104.068 76.6901 104.068 77.5248V117.477C104.068 118.312 103.391 118.988 102.557 118.988L71.4674 118.982L58.8199 131.264C58.2228 131.843 57.2724 131.831 56.6936 131.234C56.389 130.923 56.2489 130.509 56.2672 130.107L56.8703 118.982H47.4395C46.6048 118.982 45.9291 118.306 45.9291 117.471ZM65.0765 86.8154C63.9129 86.8154 62.8528 87.2906 62.0912 88.0521C61.3297 88.8137 60.8545 89.8738 60.8545 91.0374C60.8545 92.201 61.3297 93.2611 62.0912 94.0226C62.8528 94.7842 63.9129 95.2594 65.0765 95.2594C66.2401 95.2594 67.3002 94.7842 68.0617 94.0226C68.8233 93.255 69.2985 92.201 69.2985 91.0374C69.2985 89.8738 68.8233 88.8137 68.0617 88.0521C67.3002 87.2906 66.2462 86.8154 65.0765 86.8154ZM65.9294 90.1906C65.7101 89.9712 65.4116 89.8372 65.0765 89.8372C64.7414 89.8372 64.4429 89.9712 64.2236 90.1906C64.0042 90.4099 63.8702 90.7084 63.8702 91.0435C63.8702 91.3786 64.0042 91.6771 64.2236 91.8964C64.4429 92.1157 64.7414 92.2497 65.0765 92.2497C65.4116 92.2497 65.7101 92.1157 65.9294 91.8964C66.1487 91.6771 66.2828 91.3786 66.2828 91.0435C66.2828 90.7084 66.1487 90.4038 65.9294 90.1906ZM24.8617 49.6889V49.695L29.443 63.8839L44.3629 63.8535C45.1915 63.8535 45.8677 64.5297 45.8677 65.3583C45.8677 65.8578 45.624 66.3026 45.2463 66.5767V66.5828L33.1593 75.3313L37.7955 89.5141C38.0514 90.3061 37.6189 91.159 36.8269 91.415C36.309 91.5795 35.7668 91.4576 35.383 91.1286L23.4178 82.3984L11.3612 91.1895C10.6911 91.6768 9.75294 91.5306 9.25932 90.8605C8.9669 90.4523 8.89988 89.9527 9.04609 89.508H9.05218L13.6884 75.3252L1.60144 66.5767C0.925208 66.0893 0.778995 65.145 1.26637 64.4687C1.58318 64.0301 2.09492 63.8107 2.59448 63.8473L17.4047 63.8778L21.9861 49.6828C22.242 48.8908 23.0888 48.4582 23.8807 48.708C24.3681 48.8725 24.7154 49.2442 24.8617 49.6889ZM26.9147 65.8512L23.4299 55.0497L19.9451 65.8512C19.7502 66.4544 19.1836 66.8991 18.5134 66.8991L7.16367 66.8747L16.3629 73.5274C16.8746 73.899 17.1183 74.5753 16.9112 75.2149L13.3777 86.0104L22.5222 79.3395C23.034 78.9496 23.7711 78.9191 24.3194 79.3212L33.4943 86.0105L29.979 75.2699C29.7536 74.6546 29.9486 73.9357 30.5091 73.5275L39.7083 66.8749L28.4254 66.8992C27.7553 66.9297 27.128 66.5153 26.9147 65.8512ZM127.996 49.6889C127.85 49.2442 127.503 48.8726 127.022 48.7142C126.23 48.4583 125.383 48.897 125.127 49.6889L120.546 63.8839L105.735 63.8535C105.23 63.8169 104.724 64.0362 104.407 64.4749C103.92 65.1511 104.066 66.0894 104.742 66.5829L116.829 75.3314L112.193 89.5142H112.199C112.053 89.9589 112.12 90.4585 112.412 90.8667C112.9 91.5368 113.838 91.683 114.514 91.1956L126.571 82.4046L138.536 91.1348C138.92 91.4638 139.462 91.5856 139.98 91.4211C140.772 91.1653 141.205 90.3123 140.949 89.5203L136.312 75.3375L148.399 66.589V66.5829C148.777 66.3087 149.021 65.864 149.021 65.3644C149.021 64.5359 148.345 63.8596 147.516 63.8596L132.596 63.8901L128.015 49.7012V49.6951L127.996 49.6889ZM130.049 65.8512C130.263 66.5153 130.89 66.9235 131.554 66.893L142.837 66.8686L133.638 73.5213C133.077 73.9295 132.882 74.6423 133.108 75.2637L136.623 86.0043L127.448 79.315C126.9 78.9129 126.169 78.9434 125.651 79.3333L116.507 86.0042L120.034 75.2087C120.241 74.569 119.997 73.8928 119.486 73.5212L110.286 66.8685L121.636 66.8929C122.306 66.8929 122.873 66.4542 123.068 65.845L126.553 55.0434L130.049 65.8512ZM23.0522 98.8293L43.4363 148.567C43.7531 149.335 44.6304 149.7 45.4041 149.389C46.1717 149.073 46.5373 148.195 46.2266 147.428L25.8362 97.6838C25.5194 96.9162 24.6421 96.5506 23.8745 96.8613C23.1069 97.1781 22.7415 98.0556 23.0522 98.8293ZM106.552 148.561L126.937 98.823C127.253 98.0554 126.888 97.172 126.114 96.8553C125.346 96.5385 124.463 96.904 124.152 97.6777L103.768 147.415C103.451 148.183 103.817 149.066 104.591 149.377C105.358 149.694 106.242 149.328 106.552 148.561ZM90.1826 1.5C93.1861 1.5 95.9094 2.71845 97.8832 4.69237C99.851 6.66014 101.07 9.38338 101.07 12.393C101.07 15.3965 99.8511 18.1197 97.8832 20.0936C95.9155 22.0613 93.1922 23.2799 90.1826 23.2799C87.1731 23.2799 84.4559 22.0614 82.482 20.0936C80.5143 18.1258 79.2897 15.4026 79.2897 12.393C79.2897 9.38338 80.5081 6.66622 82.482 4.69237C84.4559 2.71853 87.1791 1.5 90.1826 1.5ZM95.7449 6.82468C94.3254 5.3991 92.3575 4.51567 90.1826 4.51567C88.0078 4.51567 86.0461 5.39905 84.6204 6.8186C83.2009 8.24418 82.3175 10.212 82.3175 12.3808C82.3175 14.5557 83.2009 16.5174 84.6204 17.943C86.046 19.3686 88.0138 20.2459 90.1826 20.2459C92.3575 20.2459 94.3192 19.3687 95.7449 17.943C97.1704 16.5235 98.0478 14.5557 98.0478 12.3808C98.0539 10.212 97.1705 8.24424 95.7449 6.82468ZM43.766 13.8064L63.0975 21.4645C63.8712 21.7691 64.255 22.6464 63.9504 23.4261L56.2924 42.7576C55.9878 43.5313 55.1105 43.9151 54.3307 43.6105L34.9993 35.9525C34.2256 35.6479 33.8417 34.7706 34.1463 33.9908L41.8044 14.6594C42.109 13.8796 42.9863 13.5018 43.766 13.8064ZM60.5802 23.7186L44.0577 17.1755L37.5146 33.6981L54.0372 40.2411L60.5802 23.7186ZM103.677 37.9014L108.953 53.0711C109.227 53.857 108.813 54.7161 108.027 54.9902L92.8632 60.2661C92.0773 60.5402 91.2183 60.126 90.9441 59.3401L85.6683 44.1703C85.3941 43.3844 85.8084 42.5254 86.5943 42.2512L101.758 36.9754C102.544 36.7012 103.403 37.1155 103.677 37.9014ZM105.614 52.6385L93.2899 56.9274L89.0009 44.6029L101.325 40.314L105.614 52.6385ZM130.927 129.98C130.567 130.729 129.666 131.046 128.916 130.68C128.167 130.321 127.85 129.419 128.216 128.67L139.237 105.842C139.596 105.092 140.498 104.776 141.247 105.141C141.997 105.501 142.313 106.402 141.948 107.152L130.927 129.98ZM8.04028 107.152C7.68084 106.402 7.99154 105.501 8.74089 105.141C9.49024 104.782 10.3919 105.092 10.7514 105.842L21.7722 128.67C22.1317 129.419 21.821 130.321 21.0716 130.68C20.3223 131.04 19.4206 130.729 19.0611 129.98L8.04028 107.152ZM84.8154 103.923C84.6022 104.782 83.4142 105.952 81.5499 106.908C79.911 107.749 77.8032 108.352 75.415 108.352C72.9598 108.352 70.6204 107.712 68.7562 106.823C66.7457 105.86 65.375 104.727 65.18 103.917C64.9851 103.106 64.1687 102.613 63.3645 102.808C62.5542 103.003 62.0607 103.819 62.2557 104.623C62.6578 106.262 64.65 108.206 67.4584 109.546C69.6821 110.606 72.4722 111.368 75.4149 111.368C78.3149 111.368 80.904 110.624 82.9327 109.583C85.5767 108.224 87.3435 106.256 87.7394 104.623C87.9344 103.813 87.4409 103.003 86.6307 102.808C85.8204 102.619 85.0103 103.113 84.8154 103.923ZM84.919 86.8154C83.7553 86.8154 82.6953 87.2906 81.9337 88.0521C81.1721 88.8137 80.697 89.8738 80.697 91.0374C80.697 92.201 81.1722 93.2611 81.9337 94.0226C82.7013 94.7842 83.7553 95.2594 84.919 95.2594C86.0826 95.2594 87.1427 94.7842 87.9042 94.0226C88.6657 93.255 89.1409 92.201 89.1409 91.0374C89.1409 89.8738 88.6657 88.8137 87.9042 88.0521C87.1366 87.2906 86.0826 86.8154 84.919 86.8154ZM85.7719 90.1906C85.5526 89.9712 85.254 89.8372 84.919 89.8372C84.5839 89.8372 84.2854 89.9712 84.066 90.1906C83.8467 90.4099 83.7127 90.7084 83.7127 91.0435C83.7127 91.3786 83.8467 91.6771 84.066 91.8964C84.2854 92.1157 84.5839 92.2497 84.919 92.2497C85.254 92.2497 85.5526 92.1157 85.7719 91.8964C85.9912 91.6771 86.1252 91.3786 86.1252 91.0435C86.1252 90.7084 85.9851 90.4038 85.7719 90.1906ZM48.951 79.0296V115.961H58.461V115.967H58.5402C59.3688 116.01 60.0084 116.717 59.9658 117.551L59.4845 126.422L69.7316 116.467C70.0058 116.156 70.414 115.961 70.8587 115.961H101.04L101.046 79.0296L48.951 79.0296Z" fill="white"/>
<path fill-rule="evenodd" clip-rule="evenodd" d="M45.9291 117.471V77.5248C45.9291 76.6901 46.6053 76.0139 47.44 76.0139H102.557C103.391 76.0139 104.068 76.6901 104.068 77.5248V117.477C104.068 118.312 103.391 118.988 102.557 118.988L71.4674 118.982L58.8199 131.264C58.2228 131.843 57.2724 131.831 56.6936 131.234C56.389 130.923 56.2489 130.509 56.2672 130.107L56.8703 118.982H47.4395C46.6048 118.982 45.9291 118.306 45.9291 117.471ZM65.0765 86.8154C63.9129 86.8154 62.8528 87.2906 62.0912 88.0521C61.3297 88.8137 60.8545 89.8738 60.8545 91.0374C60.8545 92.201 61.3297 93.2611 62.0912 94.0226C62.8528 94.7842 63.9129 95.2594 65.0765 95.2594C66.2401 95.2594 67.3002 94.7842 68.0617 94.0226C68.8233 93.255 69.2985 92.201 69.2985 91.0374C69.2985 89.8738 68.8233 88.8137 68.0617 88.0521C67.3002 87.2906 66.2462 86.8154 65.0765 86.8154ZM65.9294 90.1906C65.7101 89.9712 65.4116 89.8372 65.0765 89.8372C64.7414 89.8372 64.4429 89.9712 64.2236 90.1906C64.0042 90.4099 63.8702 90.7084 63.8702 91.0435C63.8702 91.3786 64.0042 91.6771 64.2236 91.8964C64.4429 92.1157 64.7414 92.2497 65.0765 92.2497C65.4116 92.2497 65.7101 92.1157 65.9294 91.8964C66.1487 91.6771 66.2828 91.3786 66.2828 91.0435C66.2828 90.7084 66.1487 90.4038 65.9294 90.1906ZM24.8617 49.6889V49.695L29.443 63.8839L44.3629 63.8535C45.1915 63.8535 45.8677 64.5297 45.8677 65.3583C45.8677 65.8578 45.624 66.3026 45.2463 66.5767V66.5828L33.1593 75.3313L37.7955 89.5141C38.0514 90.3061 37.6189 91.159 36.8269 91.415C36.309 91.5795 35.7668 91.4576 35.383 91.1286L23.4178 82.3984L11.3612 91.1895C10.6911 91.6768 9.75294 91.5306 9.25932 90.8605C8.9669 90.4523 8.89988 89.9527 9.04609 89.508H9.05218L13.6884 75.3252L1.60144 66.5767C0.925208 66.0893 0.778995 65.145 1.26637 64.4687C1.58318 64.0301 2.09492 63.8107 2.59448 63.8473L17.4047 63.8778L21.9861 49.6828C22.242 48.8908 23.0888 48.4582 23.8807 48.708C24.3681 48.8725 24.7154 49.2442 24.8617 49.6889ZM26.9147 65.8512L23.4299 55.0497L19.9451 65.8512C19.7502 66.4544 19.1836 66.8991 18.5134 66.8991L7.16367 66.8747L16.3629 73.5274C16.8746 73.899 17.1183 74.5753 16.9112 75.2149L13.3777 86.0104L22.5222 79.3395C23.034 78.9496 23.7711 78.9191 24.3194 79.3212L33.4943 86.0105L29.979 75.2699C29.7536 74.6546 29.9486 73.9357 30.5091 73.5275L39.7083 66.8749L28.4254 66.8992C27.7553 66.9297 27.128 66.5153 26.9147 65.8512ZM127.996 49.6889C127.85 49.2442 127.503 48.8726 127.022 48.7142C126.23 48.4583 125.383 48.897 125.127 49.6889L120.546 63.8839L105.735 63.8535C105.23 63.8169 104.724 64.0362 104.407 64.4749C103.92 65.1511 104.066 66.0894 104.742 66.5829L116.829 75.3314L112.193 89.5142H112.199C112.053 89.9589 112.12 90.4585 112.412 90.8667C112.9 91.5368 113.838 91.683 114.514 91.1956L126.571 82.4046L138.536 91.1348C138.92 91.4638 139.462 91.5856 139.98 91.4211C140.772 91.1653 141.205 90.3123 140.949 89.5203L136.312 75.3375L148.399 66.589V66.5829C148.777 66.3087 149.021 65.864 149.021 65.3644C149.021 64.5359 148.345 63.8596 147.516 63.8596L132.596 63.8901L128.015 49.7012V49.6951L127.996 49.6889ZM130.049 65.8512C130.263 66.5153 130.89 66.9235 131.554 66.893L142.837 66.8686L133.638 73.5213C133.077 73.9295 132.882 74.6423 133.108 75.2637L136.623 86.0043L127.448 79.315C126.9 78.9129 126.169 78.9434 125.651 79.3333L116.507 86.0042L120.034 75.2087C120.241 74.569 119.997 73.8928 119.486 73.5212L110.286 66.8685L121.636 66.8929C122.306 66.8929 122.873 66.4542 123.068 65.845L126.553 55.0434L130.049 65.8512ZM23.0522 98.8293L43.4363 148.567C43.7531 149.335 44.6304 149.7 45.4041 149.389C46.1717 149.073 46.5373 148.195 46.2266 147.428L25.8362 97.6838C25.5194 96.9162 24.6421 96.5506 23.8745 96.8613C23.1069 97.1781 22.7415 98.0556 23.0522 98.8293ZM106.552 148.561L126.937 98.823C127.253 98.0554 126.888 97.172 126.114 96.8553C125.346 96.5385 124.463 96.904 124.152 97.6777L103.768 147.415C103.451 148.183 103.817 149.066 104.591 149.377C105.358 149.694 106.242 149.328 106.552 148.561ZM90.1826 1.5C93.1861 1.5 95.9094 2.71845 97.8832 4.69237C99.851 6.66014 101.07 9.38338 101.07 12.393C101.07 15.3965 99.8511 18.1197 97.8832 20.0936C95.9155 22.0613 93.1922 23.2799 90.1826 23.2799C87.1731 23.2799 84.4559 22.0614 82.482 20.0936C80.5143 18.1258 79.2897 15.4026 79.2897 12.393C79.2897 9.38338 80.5081 6.66622 82.482 4.69237C84.4559 2.71853 87.1791 1.5 90.1826 1.5ZM95.7449 6.82468C94.3254 5.3991 92.3575 4.51567 90.1826 4.51567C88.0078 4.51567 86.0461 5.39905 84.6204 6.8186C83.2009 8.24418 82.3175 10.212 82.3175 12.3808C82.3175 14.5557 83.2009 16.5174 84.6204 17.943C86.046 19.3686 88.0138 20.2459 90.1826 20.2459C92.3575 20.2459 94.3192 19.3687 95.7449 17.943C97.1704 16.5235 98.0478 14.5557 98.0478 12.3808C98.0539 10.212 97.1705 8.24424 95.7449 6.82468ZM43.766 13.8064L63.0975 21.4645C63.8712 21.7691 64.255 22.6464 63.9504 23.4261L56.2924 42.7576C55.9878 43.5313 55.1105 43.9151 54.3307 43.6105L34.9993 35.9525C34.2256 35.6479 33.8417 34.7706 34.1463 33.9908L41.8044 14.6594C42.109 13.8796 42.9863 13.5018 43.766 13.8064ZM60.5802 23.7186L44.0577 17.1755L37.5146 33.6981L54.0372 40.2411L60.5802 23.7186ZM103.677 37.9014L108.953 53.0711C109.227 53.857 108.813 54.7161 108.027 54.9902L92.8632 60.2661C92.0773 60.5402 91.2183 60.126 90.9441 59.3401L85.6683 44.1703C85.3941 43.3844 85.8084 42.5254 86.5943 42.2512L101.758 36.9754C102.544 36.7012 103.403 37.1155 103.677 37.9014ZM105.614 52.6385L93.2899 56.9274L89.0009 44.6029L101.325 40.314L105.614 52.6385ZM130.927 129.98C130.567 130.729 129.666 131.046 128.916 130.68C128.167 130.321 127.85 129.419 128.216 128.67L139.237 105.842C139.596 105.092 140.498 104.776 141.247 105.141C141.997 105.501 142.313 106.402 141.948 107.152L130.927 129.98ZM8.04028 107.152C7.68084 106.402 7.99154 105.501 8.74089 105.141C9.49024 104.782 10.3919 105.092 10.7514 105.842L21.7722 128.67C22.1317 129.419 21.821 130.321 21.0716 130.68C20.3223 131.04 19.4206 130.729 19.0611 129.98L8.04028 107.152ZM84.8154 103.923C84.6022 104.782 83.4142 105.952 81.5499 106.908C79.911 107.749 77.8032 108.352 75.415 108.352C72.9598 108.352 70.6204 107.712 68.7562 106.823C66.7457 105.86 65.375 104.727 65.18 103.917C64.9851 103.106 64.1687 102.613 63.3645 102.808C62.5542 103.003 62.0607 103.819 62.2557 104.623C62.6578 106.262 64.65 108.206 67.4584 109.546C69.6821 110.606 72.4722 111.368 75.4149 111.368C78.3149 111.368 80.904 110.624 82.9327 109.583C85.5767 108.224 87.3435 106.256 87.7394 104.623C87.9344 103.813 87.4409 103.003 86.6307 102.808C85.8204 102.619 85.0103 103.113 84.8154 103.923ZM84.919 86.8154C83.7553 86.8154 82.6953 87.2906 81.9337 88.0521C81.1721 88.8137 80.697 89.8738 80.697 91.0374C80.697 92.201 81.1722 93.2611 81.9337 94.0226C82.7013 94.7842 83.7553 95.2594 84.919 95.2594C86.0826 95.2594 87.1427 94.7842 87.9042 94.0226C88.6657 93.255 89.1409 92.201 89.1409 91.0374C89.1409 89.8738 88.6657 88.8137 87.9042 88.0521C87.1366 87.2906 86.0826 86.8154 84.919 86.8154ZM85.7719 90.1906C85.5526 89.9712 85.254 89.8372 84.919 89.8372C84.5839 89.8372 84.2854 89.9712 84.066 90.1906C83.8467 90.4099 83.7127 90.7084 83.7127 91.0435C83.7127 91.3786 83.8467 91.6771 84.066 91.8964C84.2854 92.1157 84.5839 92.2497 84.919 92.2497C85.254 92.2497 85.5526 92.1157 85.7719 91.8964C85.9912 91.6771 86.1252 91.3786 86.1252 91.0435C86.1252 90.7084 85.9851 90.4038 85.7719 90.1906ZM48.951 79.0296V115.961H58.461V115.967H58.5402C59.3688 116.01 60.0084 116.717 59.9658 117.551L59.4845 126.422L69.7316 116.467C70.0058 116.156 70.414 115.961 70.8587 115.961H101.04L101.046 79.0296L48.951 79.0296Z" stroke="white" stroke-width="1.48" mask="url(#path-1-outside-1_1742_5795)"/>
</svg>
