<svg width="1180" height="381" viewBox="0 0 1180 381" fill="none" xmlns="http://www.w3.org/2000/svg">
<g opacity="0.07">
<path d="M216.278 282.954C248.059 332.824 256.082 393.304 248.143 460.057C245.099 485.685 239.237 512.464 228.37 537.517C214.128 570.363 191.504 600.587 164.371 623.869C126.426 656.428 77.1758 672.499 37.0271 660.609C-10.6371 646.48 -35.8991 598.519 -55.3143 554.299C-61.2739 540.74 -65.8506 526.596 -69.8032 512.154C-75.7209 490.466 -80.2195 468.105 -85.8294 445.999C-87.9212 437.778 -90.8021 428.676 -98.5572 426.613C-105.26 424.819 -113.574 429.27 -119.217 435.619C-124.86 441.969 -128.369 449.897 -131.53 457.643C-141.166 481.264 -149.015 505.45 -160.953 528.298C-172.898 551.139 -189.729 573.13 -211.284 585.35C-219.42 589.971 -228.256 593.109 -236.529 592.806C-244.801 592.504 -252.424 588.4 -255.632 580.881C-260.412 569.667 -254.786 554.519 -248.793 541.4C-230.958 502.378 -208.925 464.722 -183.364 429.602C-167.661 408.016 -150.515 387.211 -137.72 363.935C-128.429 347.039 -117.445 319.014 -121.331 291.162C-122.763 280.906 -125.607 276.336 -124.663 264.03C-124.262 258.748 -122.531 239.568 -108.27 220.578C-103.858 214.707 -87.2058 192.933 -69.0806 193.59C-60.022 193.915 -52.9223 200.246 -49.6671 208.652C-46.4129 217.042 -46.602 227.25 -48.4649 237.245C-50.9252 250.417 -56.1498 263.418 -60.487 276.463C-95.3111 380.947 -70.1255 486.33 -4.75396 546.898C23.6041 573.175 69.9554 593.768 114.396 574.393C190.094 541.385 212.288 441.181 186.582 381.139C178.024 361.159 165.647 343.952 151.673 328.588C140.079 315.827 123.552 306.577 127.822 283.614C130.413 269.597 142.804 256.816 155.83 252.195C168.848 247.567 181.983 250.127 192.113 256.471C202.227 262.82 209.709 272.643 216.278 282.954Z" fill="#492C7C" stroke="black" stroke-width="0.139585" stroke-miterlimit="10"/>
<path d="M74.0453 401.756C78.442 421.691 66.8853 440.73 59.5291 450.442C54.7206 456.799 48.4878 462.791 41.5323 464.361C31.1612 466.702 23.6063 458.652 17.6707 451.149C12.0155 444 6.30992 436.72 3.06239 427.736C0.417362 420.409 -1.73099 409.757 3.86409 397.463C4.41456 396.242 10.912 382.467 24.5631 376.32C32.9268 372.552 39.6841 373.592 43.9258 374.309C47.0622 374.833 68.9033 378.514 74.0453 401.756Z" fill="#492C7C" stroke="black" stroke-width="0.139585" stroke-miterlimit="10"/>
<path d="M242.799 -156.743C198.191 -150.852 153.338 -124.327 139.544 -81.5886C131.787 -57.5319 132.559 -27.5106 111.994 -12.8117C97.0977 -2.17383 76.8894 -4.54065 59.1661 -10.415C57.5407 -10.95 55.944 -11.5146 54.3668 -12.0985C52.957 -12.6266 51.6047 -13.2143 50.2908 -13.8511C40.5904 -18.5472 32.8725 -25.795 21.332 -28.1667C9.10397 -30.6653 -3.90308 -29.563 -15.3331 -24.5205C-35.0822 -15.81 -48.9959 3.40288 -54.4573 24.2676C-63.2878 57.9848 -51.5622 82.6283 -27.9535 105.735C-10.444 122.873 12.0662 140.331 15.6065 166.244C18.2706 185.781 8.92413 204.597 2.39402 223.168C-6.72026 249.083 -12.4056 280.066 -8.45545 307.587C-4.7839 333.176 9.49349 358.674 26.8657 377.476C28.6207 379.251 30.4527 380.947 32.3617 382.574C60.75 406.797 105.702 414.9 137.406 392.023C149.535 383.273 158.007 370.447 168.795 360.092C198.703 331.4 243.008 324.428 284.46 321.741C325.902 319.055 369.277 318.817 405.961 299.479C464.256 268.735 489.563 197.729 492.893 131.895C496.557 59.4529 478.606 -15.7672 433.646 -72.9004C404.724 -109.658 363.8 -137.764 319.128 -150.587C294.37 -157.703 268.46 -160.136 242.799 -156.743ZM286.247 -52.4166C337.228 -36.1514 376.178 -3.40904 406.576 39.8914C418.249 56.5138 428.436 75.0261 433.933 94.6409C441.142 120.356 440.64 148.077 432.977 173.57C422.261 209.221 394.091 239.836 357.518 249.849C314.093 261.73 269.038 243.825 230.403 225.664C218.552 220.098 207.419 213.593 196.592 206.644C180.345 196.199 164.797 184.747 148.553 173.922C142.508 169.898 135.392 165.684 128.455 167.758C122.453 169.544 118.644 175.751 117.871 181.954C117.099 188.157 118.785 194.394 120.634 200.375C126.272 218.608 133.558 236.418 137.051 255.171C140.534 273.924 139.892 294.251 130.387 310.751C126.804 316.984 121.888 322.629 115.522 325.976C109.156 329.323 101.207 330.12 94.707 326.993C85.0169 322.326 80.986 310.869 78.3352 300.468C70.4561 269.529 66.4679 237.616 66.5055 205.714C66.5237 186.11 68.0479 166.357 64.9653 146.982C62.7301 132.917 55.7033 111.475 37.624 96.4784C30.9649 90.9566 26.3447 89.4368 20.3514 81.6755C17.7757 78.3466 8.6289 66.1395 8.97921 48.7023C9.0902 43.3103 9.71641 23.1886 23.6621 15.8514C30.63 12.1824 39.3997 12.9399 46.4175 16.5779C53.4255 20.2065 58.8425 26.3911 62.8889 33.1624C68.217 42.0876 71.38 52.0898 75.2321 61.7398C106.022 139.068 182.288 191.339 264.276 199.675C299.844 203.294 345.806 195.838 368.571 165.3C407.345 113.279 369.417 43.8962 317.451 18.958C300.156 10.6612 281.507 5.65066 262.665 2.42348C247.025 -0.262137 229.598 1.25495 220.295 -14.2958C214.604 -23.7829 216.933 -36.7092 224.182 -45.0284C231.421 -53.3474 242.662 -57.4186 253.711 -57.9456C264.75 -58.463 275.708 -55.7801 286.247 -52.4166ZM239.088 69.2762C253.241 79.3192 254.947 95.6323 254.722 104.577C254.58 110.429 253.172 116.67 248.813 120.576C242.314 126.4 232.266 124.81 223.73 122.856C215.598 120.994 207.356 119.076 200.029 115.089C194.056 111.837 186.644 106.385 184.142 96.6477C183.89 95.683 181.258 84.6755 188.143 75.1773C192.36 69.3565 197.991 67.0953 201.562 65.7148C204.198 64.6899 222.575 57.5736 239.088 69.2762Z" fill="#C8AED3" stroke="black" stroke-width="0.139585" stroke-miterlimit="10"/>
<path d="M657.816 645.825C637.581 701.073 594.175 744.37 535.887 779.111C513.511 792.451 488.473 804.308 461.722 811.22C426.651 820.287 388.496 821.234 353.106 814.425C303.614 804.903 260.319 776.494 245.01 738.02C226.845 692.337 249.583 643.322 272.944 601.141C280.103 588.202 288.584 575.979 297.69 564.059C311.375 546.171 326.476 528.973 340.686 511.069C345.968 504.405 351.465 496.59 348.322 489.301C345.613 482.995 336.915 479.264 328.349 478.772C319.783 478.28 311.274 480.413 303.125 482.704C278.28 489.694 254.087 498.419 228.437 503.148C202.787 507.866 174.797 508.269 151.701 499.014C142.976 495.526 135.005 490.585 130.133 483.973C125.262 477.362 123.832 468.926 127.861 461.826C133.874 451.24 149.466 446.328 163.662 442.944C205.891 432.884 249.623 426.922 293.509 425.255C320.477 424.225 347.713 424.794 374.236 420.469C393.49 417.332 422.691 408.69 442.562 388.603C449.878 381.205 451.775 376.196 462.2 369.388C466.671 366.462 483.079 356.053 507.081 355.493C514.503 355.323 542.208 354.914 552.887 369.396C558.226 376.632 557.552 386.027 552.842 393.707C548.145 401.376 539.865 407.485 530.72 412.163C518.666 418.324 505.04 422.233 491.927 426.858C386.846 463.838 318.142 547.983 310.116 635.88C306.631 674.012 318.815 722.637 361.78 745.285C434.967 783.858 528.818 739.691 560.943 682.928C571.63 664.035 577.74 643.876 581.388 623.606C584.426 606.78 581.608 588.273 602.609 577.517C615.421 570.94 633.3 572.733 645.048 580.02C656.796 587.296 662.868 599.068 664.056 610.824C665.231 622.571 662.001 634.403 657.816 645.825Z" fill="white" stroke="black" stroke-width="0.139585" stroke-miterlimit="10"/>
<path opacity="0.3" d="M825.474 462.583C804.702 420.693 763.198 385.399 715.842 386.056C689.206 386.413 659.437 397.141 637.874 381.814C620.823 369.685 617.172 346.19 617.916 325.395C618.25 316.205 621.463 308.015 622.739 299.137C623.168 296.08 623.372 292.946 623.145 289.652C623.11 288.969 623.037 288.268 622.955 287.57C621.376 274.723 615.919 262.296 607.068 252.733C591.758 236.214 567.902 228.918 545.214 230.482C508.55 233.005 487.813 252.724 472.594 283.613C461.299 306.531 451.365 334.472 426.634 346.553C407.984 355.676 386.048 352.729 365.291 352.483C336.33 352.141 303.452 356.842 277.254 369.876C263.887 376.518 251.615 386.294 241.112 397.628C232.463 406.94 225.019 417.302 219.152 427.836C200.334 464.486 205.796 516.194 241.518 541.356C254.319 550.38 269.973 554.435 283.921 561.603C322.597 581.47 344.37 622.728 360.898 662.581C377.426 702.434 392.138 745.002 423.729 774.637C473.941 821.746 553.398 823.024 620.343 804.412C694.009 783.944 763.232 741.288 805.355 678.098C839.795 626.435 853.787 560.391 839.42 501.071C836.217 487.831 831.596 474.922 825.474 462.583ZM313.924 439.134C315.236 428.489 324.814 421.062 333.833 415.274C360.664 398.063 389.671 384.228 419.962 374.209C438.575 368.047 457.814 363.264 475.212 354.238C487.842 347.689 505.934 334.278 514.351 312.435C517.449 304.39 517.405 299.537 522.844 291.416C525.175 287.929 533.818 275.421 550.481 270.257C555.635 268.662 574.935 262.913 586.385 273.803C592.11 279.244 594.212 287.785 593.017 295.576C591.828 303.354 587.7 310.432 582.575 316.397C575.818 324.255 567.342 330.402 559.422 337.09C495.933 390.613 470.857 479.293 489.323 559.542C497.332 594.356 519.195 635.52 555.505 647.447C617.355 667.759 671.007 609.983 677.958 552.924C680.268 533.934 679.024 514.7 676.025 495.844C673.542 480.191 666.496 464.17 678.262 450.461C685.436 442.083 698.455 440.214 708.683 444.454C718.908 448.686 726.389 458.045 730.443 468.339C734.486 478.627 735.465 489.847 735.664 500.885C736.628 554.278 718.082 601.473 686.763 643.9C674.742 660.19 660.449 675.67 643.6 687.056C621.512 701.987 595.039 710.248 568.377 711.03C531.091 712.121 492.97 695.101 471.7 663.632C446.452 626.264 448.95 577.966 453.758 535.665C455.227 522.69 457.82 510.1 460.933 497.659C465.619 478.986 471.486 460.656 476.535 441.865C478.41 434.874 480.12 426.809 475.919 420.895C472.293 415.775 465.176 414.126 459.04 415.35C452.904 416.573 447.526 420.136 442.444 423.771C426.953 434.856 412.393 447.368 395.717 456.585C379.039 465.793 359.539 471.592 340.82 467.794C333.751 466.367 326.811 463.492 321.586 458.52C316.361 453.548 313.047 446.273 313.924 439.134ZM604.987 494.594C600.008 511.159 585.074 517.916 576.512 520.523C570.911 522.233 564.534 522.866 559.425 519.971C551.806 515.654 550.083 505.64 549.191 496.943C548.342 488.657 547.511 480.249 548.937 472.056C550.102 465.376 552.892 456.64 561.329 451.202C562.164 450.659 571.765 444.698 582.995 448.223C589.877 450.381 593.835 454.999 596.294 457.944C598.115 460.117 610.781 475.272 604.987 494.594Z" fill="#492C7C" stroke="black" stroke-width="0.139585" stroke-miterlimit="10"/>
</g>
</svg>
