<svg width="659" height="286" viewBox="0 0 659 286" fill="none" xmlns="http://www.w3.org/2000/svg">
<g opacity="0.05">
<path d="M234.99 140.754C213.577 202.216 166.746 250.808 103.579 290.16C79.3302 305.271 52.16 318.782 23.0617 326.846C-15.0856 337.423 -56.693 339.062 -95.3778 332.073C-149.478 322.299 -197.044 291.526 -214.202 249.18C-234.562 198.899 -210.343 144.298 -185.364 97.2508C-177.71 82.8199 -168.604 69.1605 -158.814 55.826C-144.099 35.8163 -127.832 16.5484 -112.545 -3.48831C-106.864 -10.9448 -100.96 -19.6802 -104.476 -27.6986C-107.506 -34.6364 -117.039 -38.6307 -126.388 -39.0431C-135.737 -39.4552 -144.993 -36.9633 -153.856 -34.3011C-180.873 -26.1804 -207.159 -16.1497 -235.082 -10.5189C-263.005 -4.89975 -293.531 -4.02115 -318.835 -13.9075C-328.394 -17.6334 -337.148 -22.9787 -342.541 -30.221C-347.934 -37.4629 -349.594 -46.7777 -345.284 -54.6984C-338.851 -66.5074 -321.902 -72.1858 -306.457 -76.1507C-260.513 -87.9379 -212.881 -95.2127 -165.03 -97.7366C-135.626 -99.2934 -105.909 -99.0852 -77.0295 -104.282C-56.0647 -108.052 -24.3149 -118.069 -2.87961 -140.608C5.01272 -148.909 7.022 -154.483 18.3124 -162.179C23.1547 -165.486 40.9286 -177.261 67.1028 -178.252C75.1966 -178.555 105.413 -179.436 117.234 -163.572C123.145 -155.646 122.522 -145.238 117.476 -136.665C112.443 -128.104 103.484 -121.214 93.5646 -115.895C80.4897 -108.89 65.6726 -104.353 51.4242 -99.0307C-62.757 -56.477 -136.696 37.7167 -144.403 135.125C-147.749 177.383 -133.878 231.013 -86.742 255.415C-6.44831 296.976 95.3982 246.64 129.762 183.318C141.195 162.243 147.619 139.837 151.357 117.345C154.47 98.6752 151.175 78.2352 173.955 66.0063C187.851 58.5281 207.376 60.2361 220.277 68.1192C233.179 75.9908 239.942 88.9261 241.379 101.92C242.801 114.903 239.418 128.049 234.99 140.754Z" fill="#492C7C" stroke="black" stroke-width="0.139585" stroke-miterlimit="10"/>
<path d="M35.0456 101.841C20.8104 119.349 -3.55711 122.675 -16.986 123.13C-25.7715 123.434 -35.2152 122.274 -41.3287 117.446C-50.444 110.246 -48.6466 98.2634 -46.2153 88.0348C-43.8988 78.2892 -41.5037 68.4106 -35.9535 59.444C-31.4254 52.1347 -23.6811 42.9503 -9.22272 39.2145C-7.79058 38.8392 8.56529 34.8478 23.2142 42.207C32.1915 46.7141 35.9125 53.1764 38.1919 57.2778C39.8834 60.3058 51.632 81.4156 35.0456 101.841Z" fill="#492C7C" stroke="black" stroke-width="0.139585" stroke-miterlimit="10"/>
<path d="M635.364 -138.403C599.338 -172.73 545.307 -193 498.803 -175.325C472.632 -165.369 447.221 -143.948 420.255 -151.488C400.73 -156.956 388.762 -175.988 381.548 -195.305C380.883 -197.074 380.264 -198.839 379.675 -200.6C379.154 -202.179 378.724 -203.75 378.363 -205.321C375.695 -216.918 376.607 -228.572 370.653 -240.146C364.333 -252.4 354.36 -262.834 342.075 -269.187C320.851 -280.164 294.597 -278.858 272.776 -269.133C237.511 -253.423 224.344 -226.291 220.745 -189.993C218.076 -163.072 218.598 -131.624 198.657 -110.661C183.619 -94.8599 160.875 -89.896 140.295 -82.6772C111.577 -72.6055 80.8564 -56.0781 59.8095 -33.6499C40.2402 -12.7979 28.1039 17.1211 23.9007 45.0749C23.5835 47.813 23.388 50.5627 23.3062 53.3304C22.0574 94.5148 46.2274 138.812 87.9862 150.286C103.959 154.677 120.92 153.102 137.352 155.228C182.89 161.136 219.641 194.453 250.709 228.278C281.77 262.094 312.057 299.267 354.209 317.473C421.208 346.398 500.126 319.089 559.335 276.438C624.487 229.507 677.05 162.048 695.25 83.8451C706.962 33.5358 702.873 -21.1248 682.976 -68.4439C671.957 -94.6754 656.092 -118.661 635.364 -138.403ZM575.327 -28.8735C596.624 26.2569 595.336 82.4222 578.993 138.526C572.721 160.067 563.787 181.636 550.645 199.928C533.42 223.913 509.113 242.647 481.766 253.677C443.521 269.101 397.526 266.019 363.509 241.461C323.126 212.294 307.356 161.131 296.259 115.318C292.851 101.269 290.753 87.188 289.251 73.063C287.011 51.8571 286.126 30.5548 284.218 9.08796C283.504 1.10232 282.211 -7.93654 275.607 -12.4745C269.901 -16.4059 261.895 -15.3931 255.998 -11.7694C250.101 -8.14548 245.88 -2.38164 241.993 3.3442C230.144 20.8042 219.805 39.3895 206.019 55.3618C192.227 71.3254 174.213 84.8266 153.361 88.0527C145.489 89.278 137.201 88.9495 129.893 85.7835C122.585 82.6177 116.384 76.3261 114.579 68.5692C111.893 57.0012 119 45.6099 126.151 36.1373C147.427 7.96391 172.243 -17.5335 199.841 -39.5577C216.797 -53.0961 234.926 -65.4412 249.534 -81.4904C260.14 -93.1387 273.799 -114.012 274.223 -139.944C274.377 -149.493 272.487 -154.521 275.038 -165.046C276.129 -169.565 280.337 -185.879 295.65 -197.633C300.387 -201.265 318.212 -214.638 334.225 -207.707C342.228 -204.245 347.655 -196.173 349.378 -187.617C351.101 -179.075 349.513 -170.136 346.467 -161.972C342.448 -151.214 335.996 -141.576 330.328 -131.588C284.846 -51.6209 292.558 50.1689 342.212 126.508C363.751 159.627 402.067 194.036 444.249 192.518C516.099 189.928 549.763 109.309 535.279 47.3349C530.455 26.7104 521.853 7.19372 511.576 -11.2571C503.051 -26.5767 489.654 -40.529 496.643 -59.289C500.896 -70.7469 513.683 -77.6787 525.9 -77.1908C538.11 -76.7111 549.424 -69.8497 557.542 -60.7034C565.645 -51.5587 570.925 -40.271 575.327 -28.8735ZM437.446 14.6691C438.58 33.7956 425.665 46.5432 417.778 52.5338C412.622 56.4574 406.251 59.5601 399.852 58.5089C390.312 56.9409 384.718 47.1925 380.488 38.4939C376.457 30.2061 372.399 21.7854 370.763 12.7219C369.432 5.33198 369.004 -4.81815 375.685 -13.7041C376.343 -14.5881 384.032 -24.464 397.016 -25.1042C404.971 -25.4986 410.831 -22.2145 414.5 -20.0957C417.214 -18.535 436.108 -7.63634 437.446 14.6691Z" fill="#C8AED3" stroke="black" stroke-width="0.139585" stroke-miterlimit="10"/>
<path d="M221.495 764.747C159.878 785.707 92.7553 778.715 22.8579 753.16C-3.97787 743.353 -31.3509 730.259 -55.6186 712.292C-87.4371 688.74 -114.342 656.96 -132.649 622.172C-158.25 573.521 -163.281 517.092 -140.472 477.502C-113.381 430.505 -55.4425 415.978 -2.9898 406.701C13.0948 403.849 29.4648 402.617 45.9999 402.123C70.8272 401.402 96.0255 402.36 121.226 402.072C130.6 401.96 141.118 401.234 145.273 393.527C148.875 386.868 146.154 376.897 140.724 369.276C135.293 361.654 127.631 355.894 120.078 350.549C97.0462 334.256 72.9603 319.716 51.3336 301.178C29.716 282.632 10.2316 259.116 2.44575 233.089C-0.50237 223.262 -1.6789 213.073 0.708618 204.365C3.09593 195.657 9.41463 188.614 18.3098 187.135C31.5762 184.935 46.4847 194.796 59.1169 204.527C96.6889 233.477 131.744 266.536 163.19 302.692C182.518 324.906 200.647 348.452 222.521 368.012C238.398 382.213 265.837 401.068 296.794 404.085C308.195 405.194 313.824 403.347 326.84 407.506C332.427 409.287 352.648 416.045 369.541 436.062C374.762 442.254 394.058 465.524 388.833 484.605C386.226 494.143 377.64 500.059 367.777 501.36C357.933 502.664 346.988 499.845 336.69 495.302C323.121 489.311 310.424 480.427 297.458 472.475C193.634 408.689 73.8869 408.405 -7.62132 462.297C-42.983 485.674 -76.7076 529.619 -66.921 581.787C-50.2451 670.648 52.1187 719.922 123.175 708.023C146.821 704.058 168.433 695.328 188.459 684.427C205.089 675.388 219.168 660.209 242.829 670.632C257.276 676.98 267.949 693.418 269.679 708.438C271.418 723.451 265.388 736.744 256.033 745.875C246.676 754.988 234.234 760.415 221.495 764.747Z" fill="#D6D6D6" stroke="black" stroke-width="0.139585" stroke-miterlimit="10"/>
<path opacity="0.4" d="M721.013 608.375C742.813 561.531 744.534 501.402 711.127 461.093C692.346 438.411 662.429 420.204 660.723 391.045C659.381 367.982 677.155 348.594 695.644 334.858C703.819 328.791 713.125 325.895 721.683 320.855C724.623 319.11 727.473 317.119 730.163 314.646C730.729 314.144 731.284 313.596 731.83 313.043C741.839 302.802 748.795 289.513 750.922 275.282C754.581 250.682 744.343 225.102 727.258 206.653C699.652 176.838 668.228 172.621 630.977 180.877C603.337 187 572.298 197.766 544.706 184.831C523.888 175.084 511.223 154.165 497.041 136.126C477.252 110.961 450.388 85.9095 420.956 72.3695C405.946 65.456 388.986 61.651 371.905 60.4461C357.86 59.4396 343.742 60.1961 330.568 62.4287C285.843 71.5702 244.941 112.021 247.966 160.167C249.045 177.426 256.395 193.705 259.873 210.667C269.524 257.695 248.964 304.962 225.982 346.744C203 388.526 176.411 430.621 172.706 478.304C166.812 554.096 220.81 623.377 283.321 668.135C352.098 717.396 436.97 747.49 520.795 740.061C589.33 733.987 656.114 700.369 697.42 646.99C706.642 635.078 714.594 622.175 721.013 608.375ZM386.527 151.82C396.637 145.59 409.699 148.699 420.956 152.461C454.438 163.657 486.511 179.061 516.177 198.208C534.411 209.97 551.886 223.224 571.752 231.96C586.172 238.304 610.308 244.605 635.024 236.748C644.126 233.853 648.29 230.46 659.08 229.527C663.711 229.122 680.515 227.915 696.534 238.688C701.486 242.022 719.839 254.66 718.368 272.046C717.636 280.735 711.712 288.45 704.149 292.808C696.602 297.162 687.622 298.503 678.912 298.215C667.435 297.832 656.245 294.786 644.971 292.593C554.683 274.946 460.649 314.673 404.097 386.052C379.562 417.017 359.147 464.297 374.019 503.798C399.356 571.082 486.498 577.32 540.633 543.853C558.648 532.713 574.409 518.344 588.626 502.725C600.433 489.765 609.393 472.623 629.402 473.273C641.617 473.656 652.261 483.57 655.689 495.306C659.122 507.034 656.221 519.944 650.136 530.551C644.048 541.144 635.03 549.745 625.628 557.547C580.15 595.292 526.499 611.958 468.111 614.333C445.695 615.248 422.403 613.647 400.878 607.015C372.656 598.326 347.157 581.25 327.993 558.839C301.192 527.498 289.465 482.916 301.912 442.849C316.7 395.28 360.176 364.037 400.07 338.929C412.303 331.224 424.983 324.751 437.894 318.828C457.282 309.952 477.194 302.329 496.935 293.684C504.277 290.464 512.434 286.359 514.633 278.655C516.542 271.994 513.033 264.727 507.72 260.291C502.406 255.855 495.598 253.689 488.933 251.828C468.608 246.157 447.698 242.274 428.167 234.293C408.642 226.302 390.107 213.526 380.408 194.787C376.74 187.715 374.412 179.754 375.086 171.819C375.76 163.883 379.749 156.001 386.527 151.82ZM540.442 440.711C522.673 447.878 506.476 439.694 498.285 434.126C492.924 430.488 487.954 425.437 486.913 419.036C485.361 409.493 492.82 401.087 499.718 394.306C506.291 387.846 512.981 381.318 521.052 376.88C527.633 373.265 537.118 369.627 547.669 373.13C548.717 373.473 560.527 377.616 565.269 389.72C568.176 397.136 566.929 403.736 566.089 407.889C565.474 410.958 561.16 432.34 540.442 440.711Z" fill="#492C7C" stroke="black" stroke-width="0.139585" stroke-miterlimit="10"/>
</g>
</svg>
