<svg width="152" height="127" viewBox="0 0 152 127" fill="none" xmlns="http://www.w3.org/2000/svg">
<path d="M143.394 69.0776C142.169 68.4338 140.657 68.9025 140.019 70.1213L137.306 75.259C133.881 81.7531 126.762 85.9095 118.731 86.097C117.35 86.1282 116.256 87.2721 116.293 88.6534C116.325 90.016 117.437 91.0972 118.794 91.0972H118.856C128.7 90.866 137.463 85.6907 141.739 77.5966L144.451 72.4589C145.095 71.2338 144.626 69.7213 143.408 69.0837L143.394 69.0776Z" fill="white"/>
<path d="M92.542 107.549C91.1919 107.261 89.8606 108.124 89.5793 109.48C87.3667 119.924 77.035 127.5 65.0101 127.5C63.6288 127.5 62.51 128.619 62.51 130C62.51 131.381 63.6288 132.5 65.0101 132.5C79.3859 132.5 91.7746 123.256 94.4675 110.512C94.7551 109.162 93.8925 107.837 92.5362 107.549L92.542 107.549Z" fill="white"/>
<path d="M148.5 56.29H142.087C136.674 56.29 131.762 58.9776 129.568 63.134L126.249 69.428C124.93 71.9281 121.68 73.6033 118.148 73.6033C114.248 73.6033 110.686 75.0221 108.16 77.291C107.842 77.266 107.517 77.2972 107.192 77.4035C104.935 78.1347 102.279 77.9785 99.4664 77.8097C96.8974 77.6535 94.3098 77.6535 91.7348 77.8097C88.9222 77.9785 86.2595 78.1347 84.0032 77.4035C81.6468 76.6409 79.5905 74.9345 77.4091 73.1282C76.4404 72.3219 75.4716 71.5219 74.4716 70.7969C73.459 70.0656 72.3902 69.3781 71.3213 68.6968C68.9399 67.178 66.6899 65.7466 65.2523 63.7716C63.8272 61.8152 63.1522 59.2213 62.4396 56.4775C62.1209 55.2524 61.8021 54.0275 61.4146 52.8336C61.3646 52.6774 60.5021 50.3148 60.127 49.3709C59.0832 46.7396 58.0957 44.2582 58.0957 41.7269C58.0957 39.1955 59.0833 36.7079 60.127 34.0828C60.5895 32.9203 61.0396 31.7702 61.4146 30.6201C61.8021 29.4325 62.1209 28.2013 62.4396 26.9762C63.1522 24.2324 63.8272 21.6448 65.2523 19.6821C66.6898 17.707 68.9399 16.2757 71.3213 14.7569C72.3964 14.0694 73.4651 13.3881 74.4778 12.6506C75.4716 11.9256 76.4405 11.1255 77.4154 10.3193C79.5905 8.51921 81.653 6.81288 84.0032 6.05029C86.2533 5.319 88.9159 5.47525 91.7286 5.64401C94.3037 5.80027 96.8913 5.80027 99.4664 5.64401C102.279 5.48151 104.942 5.319 107.192 6.05029C109.548 6.81282 111.604 8.51921 113.78 10.3193C114.755 11.1256 115.723 11.9256 116.717 12.6506C117.723 13.3819 118.798 14.0694 119.867 14.7569C122.249 16.2758 124.499 17.7072 125.936 19.6821C127.361 21.6386 128.037 24.2324 128.755 26.9762C129.074 28.2013 129.393 29.4263 129.78 30.6139C130.155 31.7639 130.612 32.9202 131.068 34.0766C132.112 36.7079 133.093 39.1893 133.093 41.7206C133.093 44.252 132.112 46.7334 130.98 49.5709C130.474 50.8522 131.143 52.2023 132.424 52.7085C133.705 53.2148 135.199 52.4835 135.712 51.2022C136.831 48.3896 138.093 45.2081 138.093 41.7205C138.093 38.2328 136.831 35.0451 135.712 32.2325C135.293 31.1699 134.868 30.1199 134.531 29.0698C134.174 27.976 133.881 26.8447 133.587 25.7133C132.787 22.6381 131.955 19.4631 129.974 16.7378C127.98 14.0002 125.218 12.2376 122.549 10.5375C121.561 9.90625 120.58 9.28121 119.649 8.60623C118.736 7.94371 117.849 7.20616 116.961 6.46869C114.517 4.44363 111.992 2.35601 108.723 1.2934C105.573 0.268361 102.31 0.462115 99.1601 0.649628C96.785 0.793385 94.3974 0.793385 92.0161 0.649628C88.8659 0.468371 85.5971 0.268361 82.4531 1.2934C79.1904 2.35595 76.6591 4.44363 74.2215 6.46869C73.3277 7.20623 72.4464 7.94377 71.5339 8.60623C70.6088 9.28127 69.6213 9.90629 68.6337 10.5375C65.9648 12.2376 63.2023 14.0002 61.2084 16.7378C59.2271 19.4629 58.3958 22.6381 57.5958 25.7133C57.302 26.8446 57.0082 27.976 56.652 29.0698C56.3145 30.1198 55.8957 31.1699 55.4707 32.2325C54.3519 35.0451 53.0893 38.2328 53.0893 41.7267C53.0893 43.183 53.3393 44.5705 53.6768 45.9144L53.6018 45.8957C50.9767 45.2394 48.0828 45.8582 45.689 47.602C44.3701 48.5583 42.0701 49.4333 39.3575 50.1208C41.0139 47.7082 41.995 44.7894 41.995 41.6454C41.995 33.3762 35.2635 26.6447 26.9943 26.6447C18.7251 26.6447 11.9936 33.3762 11.9936 41.6454C11.9936 47.5269 15.4062 52.6147 20.3441 55.071C18.8127 56.8274 17.8502 59.1024 17.8502 61.6087V88.9909L3.91833 102.923C0.586967 106.254 0.130625 111.361 2.48701 115.211C1.60572 115.598 0.986938 116.473 0.986938 117.492C0.986938 118.874 2.10574 119.992 3.48706 119.992L65.0084 119.999C73.5088 119.999 80.7592 114.923 82.2412 107.923L83.185 103.46C83.8538 100.291 87.554 97.9036 91.7854 97.9036H95.0856C101.63 97.9036 107.292 93.9722 108.543 88.5595L109.58 84.0717C110.299 80.9529 113.987 78.6027 118.162 78.6027C123.575 78.6027 128.487 75.915 130.681 71.7587L134 65.4646C135.319 62.9645 138.569 61.2894 142.1 61.2894H148.513C149.894 61.2894 151.013 60.1706 151.013 58.7892C151.013 57.4079 149.894 56.2891 148.513 56.2891L148.5 56.29ZM16.9992 41.6456C16.9992 36.1328 21.4869 31.6451 26.9997 31.6451C32.5124 31.6451 37.0001 36.1328 37.0001 41.6456C37.0001 47.1583 32.5124 51.646 26.9997 51.646C21.4869 51.646 16.9992 47.1583 16.9992 41.6456ZM7.45505 106.461L22.1183 91.7982C22.5871 91.3294 22.8496 90.6919 22.8496 90.0293V61.6152C22.8496 58.8587 25.0934 56.6149 27.8561 56.6149C34.6377 56.5899 44.2248 54.846 48.6251 51.6459C49.3313 51.1334 50.7564 50.3396 52.3878 50.7458L53.1316 50.9334C55.3005 51.4771 56.3943 53.2272 56.7005 54.6836C57.0693 56.4463 56.463 58.1401 55.0693 59.2088C49.3189 63.6464 40.9998 65.4278 35.0427 66.1466C33.7864 66.2966 32.8364 67.3654 32.8364 68.628V95.21L14.5107 113.536C12.5605 115.486 9.39173 115.486 7.44156 113.536C5.49139 111.586 5.49139 108.411 7.44156 106.467L7.45505 106.461ZM53.6828 109.999C53.6828 112.756 51.4391 114.999 48.6826 114.999C45.9262 114.999 43.6824 112.756 43.6824 109.999V104.555C43.6824 103.174 42.5636 102.055 41.1823 102.055C39.8009 102.055 38.6821 103.174 38.6821 104.555V109.999C38.6821 111.83 39.2134 113.524 40.0759 114.999H20.131L37.119 98.0113C37.5878 97.5425 37.8503 96.905 37.8503 96.2424V83.7231L47.8633 88.3296C51.4009 89.9546 53.6822 93.5236 53.6822 97.4175L53.6828 109.999ZM103.66 87.4348C102.941 90.5537 99.2532 92.9039 95.0779 92.9039H91.7778C85.1275 92.9039 79.4522 96.9103 78.2834 102.429L77.3396 106.892C76.3645 111.517 71.058 114.999 65.0016 114.999H57.2887C58.1513 113.524 58.6825 111.83 58.6825 109.998V97.4166C58.6825 91.5788 55.2574 86.2285 49.9509 83.7909L37.8503 78.2219V70.809C44.1881 69.8527 52.1947 67.7526 58.1393 63.1712C58.4456 62.9337 58.7206 62.6775 58.9893 62.4149C59.5394 63.915 60.2331 65.3714 61.2144 66.7214C63.2083 69.459 65.971 71.2216 68.6397 72.9217C69.6273 73.553 70.6086 74.178 71.5399 74.853C72.4524 75.5155 73.3337 76.2531 74.2275 76.9905C76.6713 79.0156 79.2028 81.1094 82.4653 82.1721C85.6156 83.1909 88.8781 83.0033 92.0346 82.8158C94.4098 82.6721 96.7974 82.6721 99.1724 82.8158C100.422 82.8908 101.685 82.9658 102.954 82.9658C103.541 82.9658 104.129 82.9408 104.716 82.9033C104.71 82.9221 104.704 82.9408 104.698 82.9596L103.66 87.4473L103.66 87.4348Z" fill="white"/>
</svg>
