<svg width="168" height="172" viewBox="0 0 168 172" fill="none" xmlns="http://www.w3.org/2000/svg">
<path d="M71.5398 29.2905C32.2911 29.2905 0.492188 61.1394 0.492188 100.388C0.492188 139.637 32.3411 171.486 71.5398 171.486C85.1393 171.486 97.8889 167.636 108.688 161.036L119.138 171.486H142.637V100.388C142.637 61.1394 110.788 29.2905 71.5398 29.2905ZM80.4395 141.937H76.6396C68.2399 141.937 61.3901 135.087 61.3901 126.687V63.0394H71.4898C76.4396 63.0394 80.4395 67.0392 80.4395 71.9891V141.937Z" fill="#9764DB"/>
<path d="M130.222 18.7335V37.2638H136.341L139.071 34.5335C141.891 36.2599 145.203 37.2638 148.752 37.2638C158.976 37.2638 167.276 28.9706 167.276 18.7335C167.276 8.49638 158.976 0.203125 148.746 0.203125C138.515 0.203125 130.222 8.49638 130.222 18.7335Z" fill="#FB6F8E"/>
</svg>
