<svg width="146" height="115" viewBox="0 0 146 115" fill="none" xmlns="http://www.w3.org/2000/svg">
<path d="M34.7332 97.3839C25.4724 97.3839 17.9399 89.852 17.9399 80.5906L17.9338 70.3686C17.9338 61.1079 25.4658 53.5753 34.7272 53.5753C43.9886 53.5753 51.5205 61.1072 51.5205 70.3686V80.5845C51.5265 89.8453 43.9944 97.3839 34.7332 97.3839ZM34.7332 58.0808C27.9569 58.0808 22.438 63.5937 22.438 70.3761V80.592C22.438 87.3682 27.9509 92.8872 34.7332 92.8872C41.5095 92.8872 47.0285 87.3743 47.0285 80.592L47.0224 70.37C47.0224 63.5937 41.5095 58.0808 34.7332 58.0808Z" fill="white"/>
<path d="M66.2463 133.4H3.2218C1.97655 133.4 0.973145 132.39 0.973145 131.151V113.143C0.973145 108.905 3.69935 105.236 7.7615 104.021L25.7093 98.6352L27.4622 93.4729C27.8612 92.2941 29.1427 91.6654 30.3155 92.0644C31.4942 92.4634 32.123 93.7448 31.724 94.9177L29.5962 101.18C29.3604 101.869 28.8103 102.401 28.1091 102.613L9.05028 108.331C6.91042 108.972 5.47172 110.906 5.47172 113.137V128.897H63.9915V113.137C63.9915 110.9 62.5528 108.972 60.4129 108.325L41.3541 102.607C40.6589 102.395 40.1028 101.863 39.867 101.174L37.7392 94.9117C37.3403 93.7329 37.9689 92.4575 39.1477 92.0584C40.3264 91.6594 41.6018 92.2881 42.0009 93.4669L43.7539 98.6291L61.7017 104.015C65.7699 105.236 68.4961 108.899 68.4961 113.137V131.145C68.4961 132.39 67.4915 133.4 66.2463 133.4Z" fill="white"/>
<path d="M34.7334 106.5C31.1004 106.5 27.6911 104.723 25.6178 101.743C24.9045 100.722 25.1584 99.3192 26.18 98.612C27.2016 97.8987 28.604 98.1526 29.3112 99.1681C30.5624 100.97 32.5451 101.997 34.7394 101.997C36.9338 101.997 38.9104 100.963 40.1677 99.1681C40.881 98.1465 42.2834 97.8987 43.2989 98.612C44.3205 99.3253 44.5683 100.728 43.8611 101.743C41.7755 104.723 38.3663 106.5 34.7334 106.5Z" fill="white"/>
<path d="M110.422 99.7108C100.956 99.7108 93.2607 92.0036 93.2607 82.526V73.0537C93.2607 69.0217 96.259 65.5943 100.236 65.0806C101.857 64.869 103.7 64.5547 105.066 63.793C106.148 63.1885 107.521 63.5754 108.131 64.6635C108.736 65.7515 108.349 67.1176 107.261 67.7283C105.23 68.8587 102.86 69.2818 100.817 69.5478C99.0759 69.7715 97.7641 71.2827 97.7641 73.0538V82.5261C97.7641 89.52 103.446 95.2082 110.428 95.2082C117.41 95.2082 123.092 89.52 123.092 82.5261L123.08 73.7489C123.08 72.5037 124.09 71.5003 125.329 71.5003C126.574 71.5003 127.577 72.5098 127.577 73.7489V82.5261C127.583 92.0045 119.883 99.7108 110.422 99.7108Z" fill="white"/>
<path d="M135.309 112.158C134.064 112.158 133.061 111.148 133.061 109.909V75.0599C133.061 62.5772 122.905 52.4217 110.423 52.4217C97.9397 52.4217 87.7844 62.5771 87.7844 75.0599L87.7783 109.909C87.7783 111.155 86.7688 112.158 85.5297 112.158C84.2844 112.158 83.281 111.148 83.281 109.909V75.0599C83.281 60.0928 95.4554 47.9185 110.422 47.9185C125.389 47.9185 137.564 60.0929 137.564 75.0599L137.558 109.909C137.558 111.148 136.555 112.158 135.309 112.158Z" fill="white"/>
<path d="M142.774 133.4H77.7795C76.5343 133.4 75.5309 132.391 75.5309 131.151V117.956C75.5309 113.633 78.3116 109.892 82.4523 108.646L100.81 103.14L102.672 96.0307C102.986 94.8278 104.219 94.1084 105.422 94.4227C106.625 94.737 107.345 95.9702 107.03 97.1731L104.848 105.503C104.649 106.265 104.068 106.863 103.319 107.087L83.7507 112.956C81.5262 113.621 80.0332 115.628 80.0332 117.949V128.897H140.524V117.949C140.524 115.628 139.031 113.621 136.807 112.95L117.239 107.081C116.489 106.857 115.909 106.252 115.71 105.497L113.527 97.167C113.213 95.9641 113.932 94.737 115.135 94.4167C116.338 94.1024 117.565 94.8217 117.886 96.0247L119.747 103.134L138.105 108.64C142.24 109.886 145.027 113.628 145.027 117.949V131.145C145.027 132.391 144.017 133.4 142.772 133.4H142.774Z" fill="white"/>
<path d="M110.422 110.272C107.001 110.272 103.785 108.942 101.361 106.518C100.485 105.642 100.485 104.215 101.361 103.333C102.238 102.456 103.664 102.456 104.547 103.333C106.118 104.904 108.204 105.769 110.422 105.769C112.641 105.769 114.726 104.904 116.298 103.333C117.175 102.456 118.601 102.456 119.484 103.333C120.36 104.209 120.36 105.636 119.484 106.518C117.06 108.942 113.844 110.272 110.422 110.272Z" fill="white"/>
<path d="M135.309 77.5264C135.176 77.5264 135.049 77.5143 134.916 77.4901L118.185 74.5341C107.304 72.6178 98.9493 63.5989 97.88 52.6155C97.7591 51.3763 98.6658 50.2761 99.899 50.1553C101.132 50.0344 102.238 50.9411 102.359 52.1743C103.236 61.157 110.066 68.5312 118.964 70.0973L135.701 73.0533C136.928 73.2709 137.744 74.4376 137.527 75.6586C137.333 76.7588 136.385 77.5264 135.309 77.5264Z" fill="white"/>
<path d="M49.0846 70.3692H46.5217C44.6901 70.3692 42.8645 70.1577 41.0994 69.7345C39.691 69.4021 38.3127 68.9366 36.9828 68.3502C33.9906 69.6801 30.7203 70.3693 27.45 70.3693H20.3835C19.1383 70.3693 18.1349 69.3598 18.1349 68.1206C18.1349 66.8754 19.1444 65.8719 20.3835 65.8719H27.45C30.3938 65.8719 33.3437 65.1768 35.9793 63.859C36.614 63.5446 37.3575 63.5446 37.9922 63.859C39.31 64.5179 40.7064 65.0256 42.139 65.3581C43.5656 65.6966 45.0406 65.8719 46.5215 65.8719H49.0845C50.3297 65.8719 51.3331 66.8814 51.3331 68.1206C51.3331 69.3658 50.3238 70.3692 49.0846 70.3692Z" fill="white"/>
<path d="M93.2547 45.6095C92.892 45.6095 92.5232 45.5188 92.1908 45.3435C91.4593 44.9567 91.006 44.189 91.006 43.3609V36.6087H84.2538C83.0086 36.6087 82.0052 35.5993 82.0052 34.3601L81.9991 2.84863C81.9991 1.60338 83.0086 0.599976 84.2478 0.599976H138.271C139.516 0.599976 140.519 1.60946 140.519 2.84863V34.3601C140.519 35.6053 139.51 36.6087 138.271 36.6087H107.442L94.5055 45.2348C94.1307 45.4826 93.6959 45.6095 93.2547 45.6095ZM86.5025 32.1052H93.2547C94.4999 32.1052 95.5033 33.1147 95.5033 34.3539V39.1536L105.508 32.4861C105.876 32.2382 106.311 32.1052 106.759 32.1052H136.022V5.09696H86.5022L86.5025 32.1052Z" fill="white"/>
<path d="M52.7413 41.1124C52.3061 41.1124 51.8708 40.9854 51.49 40.7316L38.554 32.1056H7.71875C6.4735 32.1056 5.47009 31.0961 5.47009 29.8569V2.84863C5.47009 1.60338 6.47958 0.599976 7.71875 0.599976H61.7415C62.9867 0.599976 63.9902 1.60946 63.9902 2.84863V29.8569C63.9902 31.1022 62.9807 32.1056 61.7415 32.1056H54.9894V38.8577C54.9894 39.6859 54.5299 40.4474 53.7985 40.8404C53.4661 41.0217 53.104 41.1124 52.7413 41.1124ZM9.97342 27.6081H39.2364C39.6837 27.6081 40.1129 27.7411 40.4877 27.9889L50.4858 34.6564V29.8567C50.4858 28.6115 51.4953 27.6081 52.7345 27.6081H59.4866L59.4927 5.09679H9.9731L9.97342 27.6081Z" fill="white"/>
<path d="M52.7415 14.0976H16.7268C15.4816 14.0976 14.4781 13.0882 14.4781 11.849C14.4781 10.6037 15.4876 9.60034 16.7268 9.60034H52.7415C53.9867 9.60034 54.9901 10.6098 54.9901 11.849C54.9901 13.0942 53.9806 14.0976 52.7415 14.0976Z" fill="white"/>
<path d="M52.7415 23.1044H16.7268C15.4816 23.1044 14.4781 22.0949 14.4781 20.8558C14.4781 19.6105 15.4876 18.6071 16.7268 18.6071H52.7415C53.9867 18.6071 54.9901 19.6166 54.9901 20.8558C54.9901 22.095 53.9806 23.1044 52.7415 23.1044Z" fill="white"/>
<path d="M129.269 14.0976H93.2545C92.0093 14.0976 91.0059 13.0882 91.0059 11.849C91.0059 10.6037 92.0153 9.60034 93.2545 9.60034H129.269C130.514 9.60034 131.518 10.6098 131.518 11.849C131.518 13.0942 130.514 14.0976 129.269 14.0976Z" fill="white"/>
<path d="M129.269 23.1044H93.2545C92.0093 23.1044 91.0059 22.0949 91.0059 20.8558C91.0059 19.6105 92.0153 18.6071 93.2545 18.6071H129.269C130.514 18.6071 131.518 19.6166 131.518 20.8558C131.518 22.095 130.514 23.1044 129.269 23.1044Z" fill="white"/>
</svg>
