<svg width="683" height="559" viewBox="0 0 683 559" fill="none" xmlns="http://www.w3.org/2000/svg">
<g clip-path="url(#clip0_2300_12116)">
<path d="M644.06 539.889L644.058 539.89C629.382 545.399 614.234 549.478 598.814 552.072C556.385 559.211 512.881 555.159 472.395 540.295C375.3 504.445 305.845 409.091 305.891 297.046V297.044C305.891 154.309 418.714 38.7 557.695 38.7L557.701 38.7C610.233 38.6216 661.47 55.4803 704.17 86.9068L704.171 86.9082C767.933 133.771 809.5 210.438 809.5 297.1C809.5 408.708 740.547 503.742 644.06 539.889Z" fill="white" stroke="#F2F0F6" stroke-width="7"/>
<path d="M645.288 543.167C630.402 548.755 615.037 552.892 599.395 555.524C556.363 562.764 512.243 558.653 471.186 543.579L482.976 495.049L483.688 492.136L507.748 492.231L628.624 492.676L630.171 497.366L645.288 543.167Z" fill="#2F2E41"/>
<path d="M221.768 0H0V257.42H221.768V0Z" fill="#F2F0F6"/>
<path d="M217.426 5.44604H3.9541V251.975H217.426V5.44604Z" fill="white"/>
<path d="M110.884 243.209C117.493 243.209 122.85 237.713 122.85 230.934C122.85 224.154 117.493 218.659 110.884 218.659C104.276 218.659 98.9182 224.154 98.9182 230.934C98.9182 237.713 104.276 243.209 110.884 243.209Z" fill="#E6E6E6"/>
<path d="M108.863 92.7119H40.1338V99.9245H108.863V92.7119Z" fill="#A07ED1"/>
<path d="M143.864 114.325H40.1338V121.538H143.864V114.325Z" fill="#8262B0"/>
<path d="M133.682 136.074H40.1338V143.286H133.682V136.074Z" fill="#A07ED1"/>
<path d="M184.592 157.248H40.1338V164.461H184.592V157.248Z" fill="#8262B0"/>
<path d="M159.366 177.413H41.6355V184.626H159.366V177.413Z" fill="#E6E6E6" fill-opacity="0.75"/>
<path d="M315.347 418.874C316.19 419.763 316.964 420.718 317.661 421.731L426.056 419.01L438.702 395.306L476.069 410.207L457.656 454.403C456.169 457.973 453.593 460.952 450.314 462.893C447.036 464.833 443.233 465.631 439.475 465.165L317.006 449.988C314.118 453.74 310.184 456.501 305.728 457.903C301.273 459.305 296.507 459.283 292.064 457.838C287.621 456.394 283.712 453.596 280.857 449.818C278.002 446.039 276.336 441.458 276.081 436.684C275.826 431.91 276.994 427.17 279.429 423.094C281.864 419.017 285.451 415.798 289.713 413.864C293.975 411.93 298.711 411.373 303.289 412.267C307.867 413.161 312.072 415.464 315.343 418.869L315.347 418.874Z" fill="#C29CA2"/>
<path d="M461.242 283.52L511.969 266.465L526.868 245.504L599.372 249.906L610.017 274.366L648.677 293.106L642.736 406.297L632.572 512.23C580.305 484.466 482.763 505.633 481.908 505.977L461.242 283.52Z" fill="#8262B0"/>
<path d="M472.086 436.73L420.488 415.553L420.708 414.611C420.929 413.659 442.89 319.52 445.806 304.392C448.843 288.631 459.941 284.273 460.413 284.096L460.757 283.966L481.177 290.342L490.145 362.627L472.086 436.73Z" fill="#8262B0"/>
<path d="M583.496 507.573C584.706 507.544 585.915 507.612 587.114 507.778L658.868 424.389L650.522 398.766L686.58 380.788L705.655 424.686C707.196 428.233 707.574 432.196 706.732 435.982C705.89 439.767 703.874 443.17 700.986 445.681L606.872 527.483C607.589 532.207 606.887 537.043 604.86 541.347C602.832 545.652 599.575 549.222 595.522 551.581C591.469 553.941 586.811 554.979 582.169 554.557C577.527 554.135 573.12 552.273 569.534 549.219C565.949 546.165 563.354 542.063 562.096 537.46C560.839 532.857 560.977 527.97 562.492 523.449C564.008 518.928 566.829 514.987 570.581 512.151C574.333 509.316 578.838 507.719 583.496 507.573Z" fill="#C29CA2"/>
<path d="M653.141 432.506L623.209 360.28L634.883 309.971L647.462 293.669C648.383 293.265 649.376 293.061 650.378 293.071C651.38 293.08 652.369 293.303 653.283 293.724C657.925 295.639 661.871 301.51 665.025 311.172L693.077 393.138L653.141 432.506Z" fill="#8262B0"/>
<path d="M497.847 218.741V164.29C497.816 154.708 499.625 145.213 503.171 136.349C506.717 127.484 511.93 119.423 518.513 112.625C525.096 105.827 532.919 100.426 541.537 96.7295C550.155 93.0334 559.398 91.1147 568.738 91.0829C578.079 91.0512 587.334 92.907 595.976 96.5445C604.617 100.182 612.476 105.53 619.102 112.283C625.729 119.036 630.994 127.062 634.597 135.902C638.2 144.742 640.071 154.224 640.102 163.806C640.102 163.967 640.102 164.128 640.102 164.29V218.741C640.099 221.34 639.091 223.831 637.3 225.668C635.509 227.506 633.08 228.539 630.547 228.542H507.401C504.868 228.539 502.439 227.506 500.648 225.668C498.857 223.831 497.849 221.34 497.847 218.741Z" fill="#2F2E41"/>
<path d="M554.358 227.274C583.158 227.274 606.506 203.323 606.506 173.779C606.506 144.234 583.158 120.284 554.358 120.284C525.557 120.284 502.21 144.234 502.21 173.779C502.21 203.323 525.557 227.274 554.358 227.274Z" fill="#C29CA2"/>
<path d="M481.02 168.646C481.036 153.343 486.97 138.672 497.518 127.851C508.066 117.031 522.367 110.944 537.285 110.927H547.902C562.819 110.944 577.12 117.031 587.668 127.852C598.216 138.672 604.15 153.343 604.166 168.646V169.735H581.73L574.078 147.751L572.548 169.735H560.954L557.093 158.644L556.32 169.735H481.02V168.646Z" fill="#2F2E41"/>
<path d="M549.226 234.666C548.173 233.203 547.544 231.464 547.412 229.651C547.279 227.837 547.649 226.021 548.478 224.414C559.728 202.463 575.478 161.903 554.572 136.889L553.073 135.094H613.77V228.576L558.631 238.556C558.073 238.658 557.508 238.709 556.941 238.71C555.436 238.71 553.952 238.343 552.611 237.641C551.271 236.938 550.112 235.92 549.23 234.668L549.226 234.666Z" fill="#2F2E41"/>
<path d="M110.691 20.0488C105.659 20.0486 100.739 21.5792 96.554 24.4473C92.3693 27.3154 89.1076 31.392 87.1814 36.1617C85.2552 40.9313 84.751 46.1798 85.7326 51.2435C86.7142 56.3071 89.1374 60.9584 92.696 64.6092C96.2545 68.26 100.788 70.7464 105.724 71.7538C110.66 72.7613 115.777 72.2446 120.427 70.2692C125.076 68.2937 129.051 64.9482 131.847 60.6557C134.643 56.3631 136.136 51.3164 136.136 46.1536V46.1522C136.136 42.7243 135.478 39.3299 134.199 36.1629C132.92 32.9959 131.046 30.1183 128.683 27.6943C126.32 25.2704 123.515 23.3476 120.428 22.0358C117.341 20.724 114.032 20.0488 110.69 20.0488H110.691ZM110.691 27.8792C112.201 27.8791 113.677 28.3384 114.932 29.1988C116.187 30.0592 117.166 31.2821 117.743 32.7129C118.321 34.1437 118.472 35.7181 118.178 37.2371C117.883 38.756 117.156 40.1512 116.089 41.2463C115.021 42.3414 113.661 43.0872 112.18 43.3893C110.7 43.6915 109.165 43.5364 107.77 42.9438C106.375 42.3511 105.183 41.3475 104.345 40.0598C103.506 38.7721 103.058 37.2582 103.058 35.7095C103.058 33.6328 103.862 31.6411 105.294 30.1726C106.725 28.7041 108.667 27.8792 110.691 27.8792ZM110.691 65.5779C107.676 65.5637 104.709 64.795 102.048 63.3385C99.3878 61.882 97.1138 59.7816 95.4236 57.2195C95.5462 51.9988 105.602 49.1251 110.691 49.1251C115.78 49.1251 125.836 51.9988 125.959 57.2195C124.267 59.7797 121.993 61.8787 119.332 63.335C116.672 64.7913 113.706 65.5611 110.691 65.5779Z" fill="#8262B0"/>
<path d="M110.987 235.639C121.47 215.933 146.583 203.453 167.126 214.702C176.372 219.764 183.723 228.72 186.056 239.304C188.764 251.6 183.058 263.325 177.168 273.655C173.972 279.262 170.469 284.754 167.823 290.669C165.083 296.793 163.125 303.872 165.188 310.534C167.044 316.536 171.7 320.902 176.799 324.111C182.426 327.518 188.411 330.26 194.64 332.285C207.462 336.66 220.986 338.455 234.471 337.572C241.173 337.105 247.819 336.003 254.323 334.28C261.242 332.47 268.031 330.177 274.962 328.407C286.532 325.458 299.726 323.993 310.697 329.915C321.357 335.67 326.127 347.707 327.602 359.417C330.327 381.041 321.97 403.48 306.879 418.623C299.64 425.888 290.529 431.89 280.606 434.345C271.948 436.488 260.831 436.351 253.941 429.711C246.252 422.301 248.061 410.419 254.168 402.601C261.962 392.625 275.167 390.229 286.95 389.987C300.354 389.71 313.746 391.758 327.143 390.485C333.682 389.963 340.098 388.375 346.15 385.782C351.47 383.381 356.323 380.012 360.474 375.838C368.744 367.596 374.322 356.615 377.096 345.198C380.436 331.468 379.708 317.038 377.115 303.247C375.734 296.136 373.954 289.112 371.786 282.21C370.891 279.297 366.408 280.543 367.31 283.476C375.294 309.447 379.746 339.477 364.32 363.59C357.936 373.816 347.991 381.159 336.513 384.124C323.162 387.528 309.152 385.845 295.58 385.339C282.673 384.857 268.502 385.377 257.439 393.088C248.363 399.413 242.015 411.443 244.758 422.799C247.404 433.752 257.664 439.307 267.925 440.163C278.692 441.063 289.287 437.356 298.33 431.559C317.14 419.501 329.646 398.295 332.264 375.812C333.628 364.097 332.24 351.479 327.061 340.845C324.332 335.089 320.085 330.233 314.801 326.829C309.532 323.516 303.447 321.885 297.335 321.308C283.449 319.996 270.109 324.886 256.936 328.627C250.208 330.63 243.31 331.981 236.336 332.661C229.566 333.237 222.758 333.123 216.01 332.322C209.315 331.511 202.716 330.009 196.315 327.838C190.043 325.849 184.037 323.063 178.438 319.547C173.498 316.306 169.226 311.665 168.983 305.341C168.719 298.483 172.09 292.068 175.296 286.286C181.63 274.865 189.454 263.694 191.106 250.323C192.552 238.627 187.965 227.1 180.043 218.758C176.072 214.524 171.292 211.176 166.002 208.925C160.712 206.674 155.026 205.567 149.3 205.675C137.546 206.02 126.292 211.264 117.646 219.317C113.358 223.313 109.75 228.015 106.97 233.229C105.538 235.92 109.544 238.326 110.978 235.632L110.987 235.639Z" fill="#3F3D56"/>
</g>
<defs>
<clipPath id="clip0_2300_12116">
<rect width="813" height="559" fill="white"/>
</clipPath>
</defs>
</svg>
