<svg width="136" height="126" viewBox="0 0 136 126" fill="none" xmlns="http://www.w3.org/2000/svg">
<path d="M89.8748 109.568C91.685 106.546 92.5033 102.75 92.036 99.3099H101.598C102.181 105.419 100.224 111.754 96.5488 116.581C92.7672 121.549 87.2048 124.877 80.7772 124.774V124.774H80.7671L21.6468 124.773L21.639 124.774C9.4763 124.927 -0.273013 112.629 0.824272 99.3099H10.3733C9.84452 103.029 10.856 106.912 12.7922 109.908C14.8517 113.095 18.0368 115.385 21.6566 115.272L80.7671 115.272L80.7716 115.272C84.7845 115.243 87.9299 112.814 89.8748 109.568ZM21.6374 77.8115L21.6374 77.8116H21.6468H80.7671C87.6171 77.8116 93.7026 81.5528 97.5322 87.3128H4.85926C8.55286 81.597 15.1439 77.7132 21.6374 77.8115ZM30.0525 34.7084L30.0518 34.7285L30.0525 34.7486C30.9927 63.8951 73.196 63.8067 74.1351 34.7487L74.1358 34.7285L74.1351 34.7084C73.1955 5.57922 30.9921 5.57922 30.0525 34.7084ZM20.551 34.7285C20.551 17.34 34.6702 3.16479 52.1096 3.15882C93.8589 4.6454 93.8589 64.7579 52.1096 66.2444C34.7219 66.2385 20.551 52.1149 20.551 34.7285ZM102.738 51.0678L99.412 42.1836C102.997 40.6593 104.77 37.0973 104.777 33.6078C104.784 30.1177 103.023 26.5649 99.4139 25.0649L102.738 16.1856C118.08 22.2819 118.08 44.9715 102.738 51.0678ZM113.729 58.0513C121.826 52.3907 125.852 42.9901 125.852 33.6267C125.852 24.2633 121.826 14.8627 113.729 9.20212L119.191 1.45996C129.888 8.8409 135.259 21.2153 135.259 33.6267C135.259 46.0381 129.888 58.4125 119.191 65.7935L113.729 58.0513Z" fill="white" stroke="#393939" stroke-width="1.248"/>
</svg>
