<svg width="32" height="32" viewBox="0 0 32 32" fill="none" xmlns="http://www.w3.org/2000/svg">
<path d="M24.2365 3.46195V6.9239H25.3798L25.8899 6.4138C26.4167 6.73635 27.0355 6.9239 27.6985 6.9239C29.6087 6.9239 31.1592 5.3745 31.1592 3.46195C31.1592 1.5494 29.6087 0 27.6973 0C25.7859 0 24.2365 1.5494 24.2365 3.46195Z" fill="#EF5376"/>
<path fill-rule="evenodd" clip-rule="evenodd" d="M0 18.7171C0 11.3845 5.94086 5.43427 13.2735 5.43427C20.6062 5.43427 26.5564 11.3845 26.5564 18.7171V32H22.1661L20.2139 30.0477C18.1962 31.2808 15.8143 32 13.2735 32C5.9502 32 0 26.0498 0 18.7171ZM14.2263 26.4795H14.9362V13.4115C14.9362 12.9175 14.1889 11.7394 13.2642 11.7394H12.9921C12.5075 11.4857 11.956 11.3422 11.3711 11.3422H11.0903V22.9651C11.0903 23.6894 11.3104 24.3624 11.6873 24.9208C12.1593 25.8446 13.121 26.4795 14.2263 26.4795Z" fill="#461D7C"/>
</svg>
