<svg width="336" height="346" viewBox="0 0 336 346" fill="none" xmlns="http://www.w3.org/2000/svg">
<path d="M143.133 58.8829C64.0622 58.8829 0 123.046 0 202.116C0 281.187 64.1629 345.35 143.133 345.35C170.53 345.35 196.216 337.594 217.973 324.298L239.025 345.35H286.366V202.116C286.366 123.046 222.203 58.8829 143.133 58.8829ZM161.062 285.82H153.407C136.485 285.82 122.685 272.021 122.685 255.099V126.873H143.032C153.004 126.873 161.062 134.932 161.062 144.904V285.82Z" fill="#8549D4"/>
<path d="M261.35 37.6149V74.9462H273.678L279.179 69.4457C284.86 72.9237 291.532 74.9462 298.682 74.9462C319.28 74.9462 336 58.2385 336 37.6149C336 16.9912 319.28 0.283569 298.669 0.283569C278.058 0.283569 261.35 16.9912 261.35 37.6149Z" fill="#EF5376"/>
</svg>
