<svg width="320" height="320" viewBox="0 0 320 320" fill="none" xmlns="http://www.w3.org/2000/svg">
<rect width="320" height="320" rx="75" fill="#8262B0"/>
<path d="M224.01 60.4635V85.4621H232.265L235.948 81.7787C239.753 84.1078 244.221 85.4621 249.008 85.4621C262.802 85.4621 273.998 74.274 273.998 60.4635C273.998 46.653 262.802 35.4648 249 35.4648C235.198 35.4648 224.01 46.653 224.01 60.4635Z" fill="#F26B6D"/>
<path fill-rule="evenodd" clip-rule="evenodd" d="M49 170.619C49 117.67 91.8988 74.7041 144.848 74.7041C197.797 74.7041 240.763 117.67 240.763 170.619V266.535H209.061L194.964 252.437C180.394 261.341 163.194 266.535 144.848 266.535C91.9662 266.535 49 223.568 49 170.619ZM151.728 226.671H156.854V132.307C156.854 130.429 155.358 127.181 152.966 124.526C149.765 120.182 144.613 117.363 138.802 117.363H129.083V208.984C129.083 218.694 136.955 226.565 146.665 226.565H149.635C150.323 226.635 151.022 226.671 151.728 226.671Z" fill="white"/>
</svg>
