<?xml version="1.0" encoding="utf-8"?>
<svg width="87" height="80" viewBox="0 0.447 53.625 68.911" fill="none" xmlns="http://www.w3.org/2000/svg">
  <path d="M 49.799 25.825 C 48.367 28.837 44.293 32.333 45.166 40.075 C 45.517 43.188 43.984 46.151 41.58 45.434 C 40.656 45.158 39.673 45.038 38.833 45.208 C 34.951 46.013 33.409 52.324 33.026 53.891 C 31.239 61.189 34.399 64.153 32.549 66.499 C 30.963 68.519 26.592 68.934 21.594 67.714 C 21.569 67.707 21.55 67.701 21.531 67.695 C 16.139 66.367 10.018 63.127 5.873 57.936 C 4.569 56.307 -2.104 47.511 0.888 39.98 C 4.098 31.907 14.935 34.002 18.559 25.584 C 21.707 18.273 15.229 12.749 19.343 7.287 C 21.72 4.135 25.902 3.16 32.995 1.807 C 34.613 1.493 36.262 1.266 37.911 1.241 C 39.184 1.216 40.457 1.317 41.705 1.593 C 44.558 2.223 47.292 3.896 48.659 6.488 C 49.525 8.149 52.266 11.215 52.486 13.568 C 52.693 15.781 52.513 18.297 52.126 19.939 C 51.819 21.244 51.665 21.899 49.799 25.825 Z" fill="#FF1651" stroke="#1F1F1F" stroke-width="0.19" stroke-miterlimit="10"/>
  <path d="M 52.127 11.195 C 52.642 12.914 53.151 20.001 46.771 29.682 C 46.001 30.85 43.498 33.946 44.04 38.944 C 44.305 41.387 43.752 45.515 40.47 45.316 C 36.468 45.074 34.989 52.495 34.606 54.087 C 32.807 61.454 35.992 64.443 34.123 66.815 C 32.33 69.105 26.993 69.357 21.193 67.513 C 21.168 67.507 21.149 67.501 21.13 67.494 C 16.182 65.915 10.909 62.82 7.203 58.17 C 5.892 56.521 -0.843 47.637 2.18 40.031 C 5.415 31.883 16.346 33.997 20.008 25.497 C 23.187 18.11 16.647 12.536 20.798 7.018 C 23.2 3.834 27.42 2.853 34.569 1.481 C 35.541 1.299 36.525 1.141 37.51 1.041 C 39.473 0.833 41.442 0.846 43.361 1.267 C 46.245 1.903 48.844 3.54 50.218 6.163 C 51.096 7.837 51.631 9.541 52.127 11.195 Z" fill="#FF858A" stroke="#1F1F1F" stroke-width="0.19" stroke-miterlimit="10"/>
  <path d="M 32.807 44.881 C 31.264 46.491 28.486 48.064 25.953 51.77 C 25.953 51.77 23.086 56.182 23.25 60.774 C 23.273 61.426 23.243 62.005 23.651 62.441 C 23.94 62.75 24.548 63.045 24.592 63.347 C 24.629 63.63 24.478 64.093 23.99 64.341 C 23.392 64.526 22.422 64.297 21.839 64.14 C 19.845 63.592 18.634 62.334 18.17 61.831 C 17.731 61.365 16.998 60.56 16.552 59.295 C 16.396 58.848 16.276 58.339 16.226 57.766 C 15.687 51.801 19.418 46.378 23.049 41.609 C 26.674 36.84 30.555 31.599 30.386 25.609 C 30.317 23.142 29.552 20.764 29.088 18.342 C 28.461 15.032 28.63 13.044 29.621 11.106 C 29.966 10.439 30.599 9.231 31.998 8.501 C 33.415 7.765 35.089 7.784 36.356 8.319 C 37.234 8.69 38.695 9.647 39.811 12.912 C 43.536 23.759 40.727 36.582 32.807 44.881 Z" fill="#FF1651" stroke="#1F1F1F" stroke-width="0.19" stroke-miterlimit="10"/>
  <path d="M 29.95 43.065 C 27.981 44.858 25.604 46.324 23.115 49.967 C 21.867 51.798 19.333 55.598 20.424 58.99 C 20.688 59.808 21.108 61.28 22.387 62.11 C 22.864 62.419 23.39 62.601 23.811 62.784 C 24.218 62.966 24.519 63.142 24.563 63.444 C 24.601 63.727 24.388 64.004 24.181 64.199 C 23.731 64.444 23.215 64.212 22.632 64.048 C 20.644 63.501 19.44 62.243 18.969 61.739 C 18.537 61.274 17.803 60.468 17.358 59.197 C 17.201 58.751 17.082 58.241 17.032 57.668 C 16.499 51.698 20.217 46.261 23.836 41.486 C 27.454 36.717 31.323 31.463 31.154 25.467 C 31.085 23.001 30.32 20.616 29.862 18.188 C 29.398 15.765 29.306 13.199 30.352 11.089 C 30.655 10.477 31.146 9.665 32.089 9.24 C 33.014 8.823 34.215 9.068 34.929 9.429 C 35.932 9.926 36.34 10.965 36.497 11.367 C 37.619 14.211 41.181 32.873 29.95 43.065 Z" fill="white" stroke="#1F1F1F" stroke-width="0.19" stroke-miterlimit="10"/>
</svg>