<svg width="48" height="52" viewBox="0 0 48 52" fill="none" xmlns="http://www.w3.org/2000/svg">
<path d="M43.135 28.0487C41.4142 30.0178 40.6095 31.8556 40.2072 33.0434C39.6872 34.5749 39.5201 35.9564 39.2849 37.8567C38.9258 40.8323 39.2477 40.7823 38.9197 42.1138C38.8268 42.4888 38.7154 42.8514 38.5792 43.189C37.6198 45.7269 35.7875 47.296 35.0695 47.8523C34.5681 48.2462 31.3803 50.6341 29.8514 49.6089C29.4676 49.3589 29.1395 48.4274 28.471 46.5583C27.9944 45.2081 27.852 44.5705 27.1897 43.9641C26.9607 43.7578 26.3355 43.189 25.5432 43.2265C24.8561 43.2577 24.5156 43.7266 23.5253 44.5205C22.7515 45.1393 22.9063 44.9018 21.3278 46.002C19.1675 47.5085 19.2604 47.7023 17.6634 48.7775C15.7321 50.0777 14.556 50.5028 14.1784 50.6278C13.0952 50.9967 12.1729 51.303 11.0649 50.9967C10.0002 50.7091 9.33789 50.0215 9.04697 49.7027C8.01324 48.59 7.78422 47.3147 7.57995 46.1895C7.25807 44.4079 7.46234 42.9514 7.57995 42.3013C7.81517 41.0198 8.21132 40.0822 9.96308 36.9316C12.1481 33.0059 12.1729 33.3059 12.8971 31.7494C13.5409 30.3554 14.3827 28.2675 14.7293 25.642C14.7293 25.642 15.0326 23.3041 14.1784 21.385C14.0423 21.0787 13.838 20.7098 13.448 20.4598C13.0642 20.216 12.5752 20.1222 11.6096 20.2723C10.8111 20.4035 10.4026 20.5911 9.23266 21.0162C9.23266 21.0162 8.20513 21.385 7.02904 21.7538C6.47814 21.9288 5.43823 22.2414 4.1012 22.4977C2.96844 22.7102 2.44229 22.7227 1.89758 22.4977C1.69331 22.4102 1.24763 22.2164 0.981463 21.7538C0.839094 21.5037 0.777195 21.2224 0.801955 20.4598C0.820525 19.7409 0.832904 19.2533 0.981463 18.6095C1.37143 16.9279 2.39896 15.4339 2.63418 15.0901C4.18167 12.8647 5.17825 11.4331 7.02904 9.72658C8.09371 8.74515 10.4211 6.76354 13.9061 5.2195C13.9989 5.17574 14.0856 5.13199 14.1784 5.09448C14.915 4.77567 17.7191 3.61296 21.1421 3.24414C22.4792 3.10661 23.42 3.13787 24.2557 3.24414C24.4599 3.26914 24.6704 3.29415 24.8747 3.3254L28.112 4.70066C28.143 4.73816 28.1739 4.77567 28.1987 4.81943C28.5267 5.32577 28.5515 5.83837 28.5639 6.48223C28.601 7.96376 28.5267 8.30132 28.5577 9.06396C28.5577 9.12647 28.5577 9.19523 28.5639 9.26399C28.5824 9.59531 28.601 9.87661 28.6258 10.1204C28.6691 10.5767 28.7496 10.9143 28.9291 11.2956C29.319 12.102 29.9133 12.5521 30.2166 12.7771C30.6127 13.0709 31.1451 13.371 32.414 13.7023C33.6768 14.0336 34.4567 14.0774 35.899 14.2587C36.617 14.3524 37.6569 14.4962 38.9197 14.7212C41.9342 15.0401 43.2341 16.3903 43.6859 16.9404C46.1186 19.9222 45.2767 25.5982 43.135 28.0487Z" fill="#7247AC" stroke="#1F1F1F" stroke-width="0.167422" stroke-miterlimit="10"/>
<path d="M45.7105 24.776C44.064 26.6514 43.2964 28.4017 42.9126 29.5394C42.4174 30.9959 42.2565 32.3087 42.0398 34.1277C41.6932 36.9595 42.0027 36.9158 41.687 38.1847C41.0804 40.6414 39.5515 42.323 38.5797 43.1857C38.3568 43.3857 38.1649 43.542 38.0226 43.6545C37.5336 44.0296 34.5005 46.3112 33.0397 45.3298C32.6806 45.0923 32.3588 44.1983 31.7274 42.423C31.2693 41.129 31.1393 40.5289 30.508 39.9476C30.2851 39.7475 29.6909 39.2037 28.9295 39.2412C28.2796 39.2787 27.9577 39.7225 27.0106 40.4789C26.274 41.0728 26.4164 40.8415 24.9123 41.8917C22.8572 43.3294 22.9438 43.5107 21.4211 44.5359C19.5765 45.7799 18.4623 46.18 18.0971 46.305C17.0696 46.655 16.1844 46.9426 15.1259 46.655C14.1108 46.38 13.4856 45.7236 13.2071 45.4236C12.2229 44.3609 12 43.1419 11.8081 42.0667C11.4986 40.3664 11.6967 38.9849 11.8081 38.3598C12.031 37.1408 12.4086 36.2469 14.0798 33.2463C16.1597 29.5019 16.1844 29.7832 16.8777 28.3017C17.4905 26.9764 18.2952 24.9823 18.6233 22.4819C18.6233 22.4819 18.9142 20.2502 18.0971 18.4186C17.9671 18.1311 17.7752 17.781 17.3977 17.5372C17.0386 17.3059 16.5682 17.2184 15.6521 17.3622C14.8907 17.4809 14.5008 17.6622 13.3804 18.0685C13.3804 18.0685 12.4024 18.4249 11.282 18.7749C10.762 18.9374 9.76545 19.2375 8.49032 19.4813C7.41327 19.6813 6.91189 19.7001 6.39193 19.4813C6.19385 19.4 5.77294 19.2125 5.51915 18.7749C5.37678 18.5311 5.32107 18.2686 5.33964 17.5372C5.3644 16.8558 5.37678 16.387 5.51915 15.7744C5.88435 14.1741 6.86237 12.7426 7.09139 12.4238C8.5646 10.2984 9.51785 8.92936 11.282 7.30406C11.8205 6.81022 12.6995 6.04133 13.9065 5.21618C15.0269 4.44104 16.432 3.61589 18.0971 2.89075C18.8028 2.58445 21.4706 1.47174 24.7389 1.12793C26.0141 0.990403 26.9054 1.02166 27.7101 1.12793C28.8367 1.2717 29.9571 1.37172 30.8546 2.00934C31.1084 2.19062 31.3065 2.37816 31.4674 2.6282C31.7769 3.10954 31.8017 3.60338 31.814 4.216C31.845 5.74128 31.7707 5.99757 31.814 6.86023C31.8636 7.7729 31.8945 8.24174 32.1669 8.80434C32.5321 9.56698 33.1016 9.99831 33.3863 10.2171C33.7639 10.4984 34.2715 10.7797 35.4847 11.0985C36.6855 11.4111 37.4283 11.4548 38.8025 11.6236C39.4958 11.7111 40.4862 11.8549 41.687 12.0674C44.5653 12.3675 45.8033 13.6615 46.2304 14.1866C48.5517 17.0308 47.7532 22.4381 45.7105 24.776Z" fill="#C29CF0" stroke="#1F1F1F" stroke-width="0.19" stroke-miterlimit="10"/>
<path d="M26.8123 31.2288C26.5276 35.0107 25.3453 38.1363 23.0241 40.7805C21.9161 42.0495 20.7338 42.4121 19.7186 41.9182C18.3878 41.2744 18.2145 40.0616 18.3259 38.7739C18.5859 35.7671 19.1058 32.8041 20.839 30.2723C21.4642 29.3659 22.4051 28.6158 23.3521 28.0282C24.6025 27.2405 25.8591 27.7656 26.3666 29.1721C26.6328 29.8973 26.7009 30.7037 26.8123 31.2288Z" fill="#7247AC" stroke="#1F1F1F" stroke-width="0.19" stroke-miterlimit="10"/>
<path d="M39.7244 28.04C39.5325 30.2154 39.223 32.4283 38.5607 34.4975C38.115 35.879 36.9947 37.0542 36.1281 38.2857C35.9424 38.5545 35.5834 38.7232 35.2677 38.867C33.6026 39.6547 32.2346 38.8795 32.1603 37.0229C32.117 35.9727 32.3522 34.9225 32.3831 33.8661C32.4327 32.3721 32.5441 30.8656 32.3955 29.384C32.0118 25.5458 29.6348 23.1204 26.4903 21.3013C26.2118 21.145 25.9085 21.0262 25.6299 20.8762C24.07 20.0261 23.7729 18.3633 25.0419 17.0505C26.7441 15.2939 28.8425 14.1875 31.2566 13.9687C32.1294 13.8874 33.1074 14.3313 33.9554 14.7251C34.692 15.0689 34.6487 15.5565 33.943 16.0503C33.4416 16.4004 32.8907 16.6754 32.3831 17.0193C32.1046 17.2068 31.8632 17.4506 31.3742 17.8694C32.2903 18.2632 32.965 18.5695 33.6521 18.8383C35.5462 19.576 37.3784 20.4136 38.4741 22.2702C39.5202 24.0456 39.8977 26.0397 39.7244 28.04Z" fill="#7247AC" stroke="#1F1F1F" stroke-width="0.19" stroke-miterlimit="10"/>
<path d="M28.6263 10.1192C28.6139 10.163 28.6015 10.213 28.5829 10.263C28.5272 10.4318 28.4529 10.6006 28.3539 10.7381C26.3979 13.5573 23.9281 15.7015 20.5979 16.6704C19.7622 16.9142 18.7842 17.1268 18.1652 16.2954C17.5215 15.4264 17.8743 14.4638 18.419 13.6699C18.9885 12.8385 19.6942 12.1008 20.3998 11.2569C20.0098 11.1132 19.6323 10.9881 19.267 10.8506C17.3172 10.0942 16.7911 8.26263 18.1962 6.73109C20.0098 4.75573 22.3063 3.71179 24.8751 3.32422C25.8408 3.44924 26.7816 3.61802 27.5616 4.16812C27.7782 4.33065 27.9639 4.49943 28.1125 4.69947C28.2363 5.25582 28.0382 5.86219 27.4687 6.29351C26.7878 6.81236 25.9336 7.09366 25.1537 7.47498C24.5471 7.77504 23.9343 8.06884 23.3277 8.3689C23.3586 8.48767 23.3896 8.61269 23.4205 8.73146C23.8971 8.73146 24.3799 8.74396 24.8566 8.73146C25.8098 8.70021 26.7755 8.54393 27.7101 8.65645C28.1249 8.70021 28.4034 8.84398 28.5582 9.06277C28.5582 9.12528 28.5582 9.19405 28.5644 9.26281C28.5829 9.59412 28.6015 9.87542 28.6263 10.1192Z" fill="#7247AC" stroke="#1F1F1F" stroke-width="0.19" stroke-miterlimit="10"/>
<path d="M22.6217 40.3487C20.9133 38.0795 21.2599 35.6916 22.0213 33.3536C22.6341 31.4658 23.6802 29.853 25.8962 29.5654C27.1775 32.2784 24.7448 38.4483 22.6155 40.3487H22.6217Z" fill="white" stroke="#1F1F1F" stroke-width="0.19" stroke-miterlimit="10"/>
<path d="M27.2642 11.5688C25.271 13.8879 23.0117 15.8633 19.8858 16.4072C18.5178 16.6447 17.8864 15.8571 18.4683 14.5818C18.8706 13.7067 19.601 12.9815 20.1767 12.1876C20.4057 11.8688 20.61 11.5313 20.8266 11.2C20.4986 11.0062 20.1767 10.7936 19.8362 10.6186C19.632 10.5186 19.3906 10.4873 19.1739 10.4061C17.8802 9.92472 17.4345 8.69325 18.1092 7.48677C19.143 5.64268 22.8631 3.76109 24.9368 4.05489C25.5929 4.14866 26.2119 4.3362 26.3728 5.11134C26.509 5.76771 25.989 6.68663 25.3329 6.98668C24.8006 7.23048 24.2497 7.42426 23.7359 7.68681C23.185 7.96811 22.7827 8.34943 22.9436 9.08082C23.1045 9.80595 23.5193 10.2185 24.2559 10.2623C24.6025 10.281 24.9553 10.2623 25.302 10.2623C25.302 10.2435 25.302 10.2248 25.3082 10.2123C25.8219 10.2748 26.3543 10.2935 26.8494 10.4248C27.4684 10.5873 27.6727 11.0999 27.2642 11.5688Z" fill="white" stroke="#1F1F1F" stroke-width="0.19" stroke-miterlimit="10"/>
<path d="M38.2515 33.8788C37.7749 35.429 36.964 36.723 35.8189 37.817C35.4042 38.2171 34.7852 38.4483 34.2219 38.6171C33.5967 38.7984 33.0706 38.5046 32.8044 37.892C32.5506 37.3044 32.4949 36.7793 33.0334 36.2292C34.2962 34.9415 35.757 33.9913 37.3602 33.1474C37.8492 32.8911 38.4063 33.3599 38.2454 33.885L38.2515 33.8788Z" fill="white" stroke="#1F1F1F" stroke-width="0.19" stroke-miterlimit="10"/>
<path d="M39.1305 30.004C39.0253 31.2917 38.5115 32.0856 37.323 32.6795C36.085 33.3046 34.9213 34.0922 33.7081 34.8799C33.281 35.1612 32.7363 34.8424 32.7425 34.3298V34.2923C32.7672 32.5357 32.9405 30.7541 32.7425 29.0163C32.3277 25.3281 30.0127 22.9089 27.0229 21.0523C26.4101 20.671 25.754 20.371 25.135 20.0396C25.8716 17.2829 28.6076 15.4325 32.0554 15.345C32.6991 15.3263 32.9405 16.1889 32.3834 16.514L32.3649 16.5265C30.8855 17.4079 30.8112 19.4145 32.2473 20.4022C32.7239 20.7273 33.2624 20.9773 33.7947 21.2086C35.4289 21.9275 36.7659 23.0464 37.973 24.3342C39.5081 25.9782 39.2852 27.9786 39.1181 29.9977L39.1305 30.004Z" fill="white" stroke="#1F1F1F" stroke-width="0.19" stroke-miterlimit="10"/>
</svg>
