<svg width="76" height="67" viewBox="0 0 76 67" fill="none" xmlns="http://www.w3.org/2000/svg">
<path d="M70.5657 35.7007C69.5196 40.4078 69.4825 45.5275 66.1894 49.4532C64.3696 51.6224 61.7265 52.8914 59.1638 54.0916C55.5737 55.7794 51.9835 57.4672 48.3438 59.0425C38.2975 63.3871 27.9232 67.9254 16.806 65.1561C14.9676 64.6935 13.1478 63.9559 11.526 62.937C9.04383 61.3992 6.99495 59.23 5.96123 56.4983C4.67991 53.1227 4.63039 49.1594 4.69229 45.2525L4.72324 40.0078C4.70467 39.3389 4.67991 38.6888 4.63039 38.0512C4.31471 33.9504 4.30233 29.6559 6.06027 25.9489C7.81822 22.242 11.8107 19.329 15.8156 20.0854C15.8651 20.0979 15.9147 20.1041 15.9642 20.1166H15.9704C16.8927 20.3104 17.7902 20.6792 18.6754 21.0793C20.749 22.0232 22.7608 23.1422 24.9025 22.6358C27.2051 22.0982 28.6845 19.8478 29.613 17.6537C30.5353 15.4532 31.1977 13.0466 32.8504 11.34C37.3319 6.70789 45.7316 10.021 51.055 6.41409C52.8934 5.16386 54.2614 3.13849 56.3784 2.46962C57.4368 2.13831 58.5015 2.18831 59.5352 2.49462C61.4479 3.03847 63.274 4.43248 64.84 5.77022C64.9205 5.83898 65.001 5.90775 65.0814 5.97651C69.3215 9.57717 73.7474 13.6217 74.8368 19.0914C76.1491 25.6551 71.8718 29.8121 70.5657 35.7007Z" fill="#7247AC" stroke="#1F1F1F" stroke-width="0.187118" stroke-miterlimit="10"/>
<path d="M67.7864 33.9875C66.7155 38.6571 66.666 43.733 63.2925 47.6275C61.4293 49.7842 58.7243 51.0469 56.1059 52.2409C52.4353 53.9224 48.7585 55.604 45.0383 57.1668C34.763 61.4988 24.1472 66.0184 12.7887 63.2866C12.3677 63.1866 11.9468 63.0678 11.5259 62.9366C7.24247 61.6113 3.31185 58.8046 1.72103 54.7288C-0.414498 49.2653 0.835872 42.2265 0.390195 36.438C0.074508 32.3747 0.068318 28.1177 1.87578 24.4357C3.67706 20.7538 7.76861 17.8595 11.854 18.6034C13.2715 18.8597 14.6209 19.5223 15.9641 20.1162H15.9703C16.874 20.5163 17.7654 20.8851 18.6753 21.0789C19.4862 21.2664 20.3033 21.3102 21.1389 21.1164C23.4973 20.5788 25.0138 18.3409 25.9609 16.1655C26.9079 13.9838 27.5888 11.5959 29.2849 9.90183C33.8716 5.30099 42.4509 8.57034 47.898 4.98218C49.7798 3.7382 51.1849 1.72533 53.3514 1.06271C55.4807 0.412588 57.6101 1.24399 59.5352 2.49422C60.4017 3.05057 61.225 3.68819 61.9926 4.31955C62.073 4.38832 62.1597 4.45708 62.2402 4.52584C66.5607 8.089 71.0794 12.0897 72.1874 17.5095C73.5121 24.0169 69.1358 28.1489 67.7864 33.9875Z" fill="#C29CF0" stroke="#1F1F1F" stroke-width="0.19" stroke-miterlimit="10"/>
<path d="M61.7266 36.1882C61.5471 36.3382 60.4205 37.2446 59.0835 38.6574C58.3716 39.4013 57.6412 40.1764 56.8675 41.3204C55.9637 42.6644 55.4809 43.8021 55.0786 44.7772C54.082 47.1527 54.3605 47.4152 53.6239 49.1218C53.2835 49.9157 52.3736 52.0161 50.5661 53.5976C49.2786 54.7291 48.053 55.2854 45.5337 55.8918C42.1601 56.7044 38.6195 56.9545 35.4379 58.3547C34.1442 58.9236 32.9433 59.6675 31.6806 60.2988C27.3352 62.4555 22.2285 63.1244 17.5489 61.8616C12.8693 60.5926 8.69728 57.3295 6.58032 52.935C5.42899 50.5408 4.89665 47.9153 4.69238 45.2523C4.71714 43.4708 4.76047 41.7017 4.72333 40.0076C4.90284 38.7574 5.28662 37.6259 6.02322 36.532C9.0563 32.0312 16.1809 32.6938 16.9299 32.775C17.6418 32.9188 19.5854 33.4252 21.2072 35.2067C21.6652 35.7131 22.018 36.2319 22.2966 36.7508C23.417 38.1823 24.0298 39.9951 23.8131 41.8079C21.8385 45.8837 19.0716 40.9953 17.8955 42.4768C16.4285 43.7333 16.3852 45.7712 17.0599 47.584C17.9513 49.9782 20.6625 51.2597 23.1879 51.2597C25.7134 51.2597 28.1461 50.347 30.325 49.4093C32.12 48.6342 33.5314 47.1277 35.3698 46.3775C37.4805 45.5211 39.8575 45.8649 42.1044 46.2213C44.3514 46.5776 46.7345 46.9089 48.8391 46.0337C49.1424 45.9087 49.4148 45.7649 49.65 45.6149H49.6562C50.2256 44.7835 50.6342 43.8583 50.8818 42.6706C51.4265 40.0826 52.5035 37.6384 53.6115 35.2567C55.6357 30.9184 57.7774 26.1613 56.6508 21.498C56.1927 19.5789 55.2024 17.841 54.441 16.022C53.4073 13.5403 53.2092 11.9525 53.6549 10.2709C53.8096 9.68955 54.1067 8.63935 55.0662 7.83296C56.038 7.01406 57.3441 6.75151 58.4149 6.9578C59.1577 7.10157 60.4514 7.60792 61.8566 9.9771C66.27 17.3847 65.4777 33.0438 61.7266 36.1882Z" fill="#7247AC" stroke="#1F1F1F" stroke-width="0.187118" stroke-miterlimit="10"/>
<path d="M59.102 35.362C57.864 37.0936 56.2608 38.6439 54.9238 41.907C52.7635 47.1955 53.2587 52.5715 46.784 54.6781C43.5714 55.722 40.6064 55.5345 37.3753 55.2344C34.1317 54.9406 30.9749 56.2096 28.1151 57.6161C24.2711 59.504 20.0187 61.6606 15.9333 60.4041C13.3026 59.5977 11.2537 57.4724 9.72477 55.1657C7.88636 52.4027 6.59266 49.1958 6.43172 45.8702C6.26459 42.5446 7.31688 39.094 9.62573 36.7123C11.9284 34.3244 15.5433 33.1804 18.6878 34.1868C20.1115 34.6369 21.3743 35.5621 22.2966 36.7498C23.4169 38.1813 24.0297 39.9941 23.8131 41.807C21.8385 45.8827 19.0716 40.9943 17.8955 42.4759C16.4285 43.7323 16.3852 45.7702 17.0599 47.583C17.9512 49.9772 20.6624 51.2587 23.1879 51.2587C25.7134 51.2587 28.1461 50.3461 30.3249 49.4084C32.12 48.6332 33.5313 47.1267 35.3697 46.3766C37.4805 45.5202 39.8574 45.864 42.1044 46.2203C44.3513 46.5766 46.7345 46.9079 48.8391 46.0328C49.1424 45.9077 49.4147 45.764 49.6499 45.6139H49.6561C51.3088 44.5387 51.4264 42.8947 51.8536 40.9568C52.293 38.969 53.2215 36.9998 54.0819 35.1558C56.106 30.8175 58.2478 26.0603 57.1212 21.397C56.6631 19.4779 55.6728 17.7401 54.9114 15.921C54.15 14.1019 53.6177 12.0703 54.1253 10.1699C54.2119 9.85111 54.3357 9.53855 54.4843 9.24475C54.9361 8.85092 56.1618 7.8945 57.4059 8.21956C58.2663 8.4446 58.7553 9.18224 58.9472 9.46979C60.2905 11.5077 66.1461 25.504 59.102 35.362Z" fill="white" stroke="#1F1F1F" stroke-width="0.19" stroke-miterlimit="10"/>
<path d="M45.744 26.2497C44.0851 26.1622 42.4014 26.531 40.7301 26.681C39.8883 26.756 39.0403 26.7873 38.1984 26.8373C38.1365 26.6247 38.0684 26.4122 38.0065 26.1997C39.0403 25.6183 40.0864 25.037 41.1263 24.4431C42.4571 23.6867 43.9365 23.0991 45.0817 22.1239C46.9139 20.5674 46.3011 17.9794 44.0418 17.2105C43.3299 16.9667 42.5066 16.7667 41.7824 16.873C36.651 17.6418 32.1447 19.761 28.7959 23.8555C26.4747 26.6935 27.5951 29.8628 31.1048 30.988C31.7609 31.2006 32.4294 31.3819 33.1351 31.5882C31.9837 33.1572 30.8076 34.5262 29.8915 36.0515C29.0187 37.4955 28.4926 39.2271 29.7182 40.6961C30.8943 42.0963 32.5903 41.6212 34.0326 41.1087C39.7954 39.052 43.9365 35.0263 47.0934 29.8628C47.2543 29.6003 47.3596 29.294 47.44 29.0002C47.8919 27.3561 47.4091 26.3497 45.744 26.2497ZM41.6586 29.344H41.6524Z" fill="#7247AC"/>
<path d="M41.6586 29.344H41.6524M45.744 26.2497C44.0851 26.1622 42.4014 26.531 40.7301 26.681C39.8883 26.756 39.0403 26.7873 38.1984 26.8373C38.1365 26.6247 38.0684 26.4122 38.0065 26.1997C39.0403 25.6183 40.0864 25.037 41.1263 24.4431C42.4571 23.6867 43.9365 23.0991 45.0817 22.1239C46.9139 20.5674 46.3011 17.9794 44.0418 17.2105C43.3299 16.9667 42.5066 16.7667 41.7824 16.873C36.651 17.6418 32.1447 19.761 28.7959 23.8555C26.4747 26.6935 27.5951 29.8628 31.1048 30.988C31.7609 31.2006 32.4294 31.3819 33.1351 31.5882C31.9837 33.1572 30.8076 34.5262 29.8915 36.0515C29.0187 37.4955 28.4926 39.2271 29.7182 40.6961C30.8943 42.0963 32.5903 41.6212 34.0326 41.1087C39.7954 39.052 43.9365 35.0263 47.0934 29.8628C47.2543 29.6003 47.3596 29.294 47.44 29.0002C47.8919 27.3561 47.4091 26.3497 45.744 26.2497Z" stroke="#1F1F1F" stroke-width="0.187118" stroke-miterlimit="10"/>
<path d="M45.255 31.4299C40.7487 39.7439 22.315 46.8702 33.8716 31.4424C20.2104 28.7419 36.4467 14.5518 42.7295 19.509C45.0816 24.1286 36.6819 23.6285 37.3752 27.4979C37.827 31.8175 46.4991 26.7916 45.255 31.4299Z" fill="white" stroke="#1F1F1F" stroke-width="0.19" stroke-miterlimit="10"/>
</svg>
