<svg width="53" height="57" viewBox="0 0 53 57" fill="none" xmlns="http://www.w3.org/2000/svg">
<path d="M48.2049 30.8387C46.2725 33.02 45.369 35.0571 44.9173 36.3797C44.3401 38.0721 44.1519 39.6015 43.8946 41.7138C43.4868 45.0108 43.8507 44.9544 43.4805 46.4336C43.3801 46.8473 43.2547 47.2422 43.1041 47.612C43.1041 47.612 43.1041 47.6183 43.0978 47.6183C42.0312 50.4327 39.9733 52.1752 39.1702 52.7894C38.5993 53.2282 35.0356 55.8796 33.3165 54.7388C32.8899 54.4567 32.5197 53.4225 31.7793 51.3541C31.2398 49.856 31.0829 49.154 30.3363 48.4833C30.0791 48.2514 29.3826 47.6183 28.4917 47.6622C27.72 47.6998 27.3436 48.22 26.233 49.0976C25.3609 49.7871 25.5366 49.5175 23.7673 50.7398C21.3518 52.4134 21.4522 52.6265 19.6578 53.8174C17.4932 55.2591 16.1819 55.7229 15.7553 55.8671C14.5507 56.2745 13.5092 56.613 12.2669 56.2808C11.0748 55.9611 10.3408 55.1964 10.0082 54.8454C8.8538 53.6106 8.59029 52.194 8.36442 50.9466C8.0068 48.9722 8.23267 47.3613 8.36442 46.6342C8.62166 45.2176 9.0734 44.1771 11.0372 40.6858C13.4841 36.3358 13.5092 36.6618 14.3185 34.9443C15.0463 33.3961 15.9875 31.0769 16.3764 28.1685C16.3764 28.1685 16.7215 25.5798 15.7553 23.455C15.6047 23.1165 15.3789 22.7028 14.9397 22.427C14.513 22.1575 13.9609 22.0509 12.8818 22.2202C11.9846 22.3643 11.5266 22.5712 10.2153 23.0413C10.2153 23.0413 9.06085 23.455 7.74956 23.8624C7.1347 24.0567 5.96144 24.4014 4.46194 24.6835C3.20084 24.9217 2.61108 24.9405 1.99622 24.6835C1.77035 24.5895 1.26842 24.3701 0.973539 23.8624C0.810413 23.5803 0.741398 23.2732 0.766494 22.427C0.79159 21.631 0.804139 21.0856 0.973539 20.3774C1.40645 18.5157 2.55461 16.8547 2.81812 16.4786C4.55605 14.009 5.67284 12.4169 7.74956 10.5303C8.93536 9.43961 11.5579 7.25206 15.4604 5.52834C15.5608 5.48447 15.6549 5.44059 15.7553 5.39672C16.5835 5.04571 19.7205 3.75449 23.5603 3.34706C25.0598 3.19036 26.1138 3.22797 27.055 3.34706C28.3725 3.5163 29.6901 3.62913 30.7504 4.37502C31.0453 4.58187 31.2837 4.80125 31.4656 5.08958C31.8358 5.65371 31.8609 6.2241 31.8797 6.93866C31.8986 7.75977 31.886 8.26748 31.8797 8.67491C32.0868 8.88175 32.2875 9.09487 32.482 9.30798C32.6703 9.52109 32.8522 9.73421 33.0279 9.94732C33.3102 10.2983 33.5675 10.6556 33.8122 11.0254C33.9251 11.1884 34.0317 11.3576 34.1321 11.5269C34.2953 11.7839 34.4458 12.0471 34.5839 12.3104C34.7031 12.536 34.8223 12.7617 34.9289 12.9936C34.9666 13.0625 34.998 13.1378 35.0293 13.2067C35.136 13.4386 35.2427 13.6768 35.3368 13.915C35.3681 13.9839 35.3995 14.0592 35.4246 14.1281C35.5062 14.3475 35.5877 14.5669 35.663 14.7863C35.8261 14.8364 36.0018 14.8865 36.1963 14.9367C37.608 15.3002 38.4801 15.3504 40.0988 15.5572C40.9082 15.6575 40.9418 15.5962 42.3535 15.8469C42.4037 15.8532 43.2515 15.9344 43.2515 15.9344L44.0859 16.0152L44.9607 16.1767L45.9431 16.4593C45.9431 16.4593 46.658 16.7029 47.0736 16.9438C47.4892 17.1847 48.0561 17.684 48.0561 17.684C48.0561 17.684 48.757 18.4468 48.8261 18.5283C51.5553 21.8315 50.6142 28.1247 48.2112 30.8387H48.2049Z" fill="#7247AC" stroke="#1F1F1F" stroke-width="0.187118" stroke-miterlimit="10"/>
<path d="M50.6941 27.3042C48.8558 29.3852 47.9963 31.3283 47.5634 32.5882C47.0112 34.1991 46.8293 35.6595 46.5846 37.6716C46.1956 40.8181 46.547 40.768 46.1893 42.172C45.5117 44.8924 43.8052 46.7477 42.7135 47.7067C42.7135 47.7067 42.7135 47.713 42.7072 47.713C42.4562 47.9386 42.2429 48.1142 42.0798 48.2395C41.5402 48.6532 38.1397 51.1792 36.5021 50.0949C36.0943 49.8253 35.743 48.8412 35.034 46.8668C34.5195 45.4377 34.3689 44.767 33.66 44.1277C33.4153 43.9083 32.7439 43.3066 31.8969 43.3442C31.1629 43.3818 30.8052 43.877 29.7449 44.7169C28.9167 45.375 29.0799 45.118 27.3984 46.2839C25.0895 47.876 25.1899 48.0765 23.4771 49.2173C21.4192 50.59 20.1644 51.0351 19.7566 51.173C18.6084 51.5616 17.6171 51.8813 16.4313 51.5616C15.2957 51.2544 14.593 50.5274 14.2793 50.1951C13.175 49.0168 12.9303 47.6691 12.7108 46.4782C12.3657 44.5915 12.5853 43.0621 12.7108 42.3664C12.9554 41.0187 13.3821 40.0221 15.258 36.6938C17.592 32.5443 17.6171 32.864 18.3888 31.2218C19.079 29.7488 19.9762 27.5361 20.3463 24.7657C20.3463 24.7657 20.6789 22.2898 19.7566 20.2652C19.6123 19.9455 19.3989 19.5506 18.9786 19.2874C18.5708 19.0304 18.0437 18.9301 17.0211 19.0931C16.1615 19.2247 15.7286 19.4253 14.4738 19.8766C14.4738 19.8766 13.3758 20.2652 12.121 20.6538C11.5375 20.8419 10.4207 21.1741 8.99022 21.4373C7.78559 21.663 7.2272 21.6818 6.64371 21.4373C6.42411 21.3496 5.94728 21.1427 5.66495 20.6538C5.50809 20.3906 5.44535 20.096 5.46418 19.2874C5.48927 18.529 5.50182 18.0087 5.66495 17.3318C6.07904 15.5579 7.17073 13.9721 7.42169 13.6148C9.07805 11.258 10.1447 9.74742 12.121 7.94222C12.7296 7.39063 13.7146 6.53817 15.0698 5.62304C16.3246 4.76432 17.8932 3.84918 19.7566 3.05314C20.5471 2.71466 23.5398 1.47986 27.1976 1.09751C28.6281 0.947072 29.632 0.978412 30.5292 1.09751C31.7903 1.26047 33.0451 1.36703 34.0552 2.07532C34.3376 2.2759 34.5572 2.48274 34.7391 2.75854C35.0905 3.29759 35.1155 3.83664 35.1281 4.51986C35.1657 6.21224 35.0779 6.4943 35.1281 7.45331C35.1846 8.46873 35.2222 8.98271 35.5234 9.60325C35.9312 10.4494 36.5649 10.9321 36.8911 11.1703C37.3178 11.4837 37.8824 11.7971 39.2439 12.1481C40.5866 12.4928 41.421 12.543 42.9644 12.7373C43.7362 12.8313 44.8467 12.988 46.1893 13.2262C49.4142 13.5584 50.8008 14.9875 51.2839 15.5704C53.8814 18.7233 52.9842 24.7218 50.6941 27.3042Z" fill="#C29CF0" stroke="#1F1F1F" stroke-width="0.187118" stroke-miterlimit="10"/>
<path d="M35.4731 29.493C34.0363 35.3724 31.075 41.1954 25.949 44.4235C24.1797 45.5329 22.0215 46.3164 20.0137 45.7335C16.814 44.8058 15.4838 40.6877 16.4187 37.491C17.3598 34.263 20.4467 32.5769 21.5509 29.6685C21.9964 28.4776 22.5673 23.4318 25.0267 24.7606C25.033 24.7543 25.0895 24.7669 25.1083 24.7669C25.5977 24.7794 26.5702 25.425 26.6768 26.1082C26.7584 26.4906 26.7647 26.8291 26.7145 27.1425C26.7145 27.1864 26.7082 27.2302 26.6957 27.2741C26.3694 29.5933 23.019 30.1198 22.4104 32.4014C22.3916 32.4766 22.3728 32.5518 22.3665 32.627C22.034 34.6328 24.4621 36.3753 26.4259 35.8613C28.4587 35.3286 29.8013 33.2914 30.5542 31.2606C30.9997 30.0571 31.2946 28.8098 31.4451 27.5374C31.4765 27.3305 31.4953 27.1237 31.5142 26.9106C31.8781 22.6107 30.6483 18.1541 28.0069 14.8007C27.3419 13.9482 26.5764 13.1459 26.2 12.118C26.0682 11.7669 26.0055 11.3783 26.0055 10.9897C25.2087 9.76117 25.1083 7.76167 26.407 6.90921C27.6054 6.13197 29.2053 6.8528 30.3221 7.73659C30.7299 8.06253 31.1189 8.40728 31.4828 8.77082C31.6898 8.97767 31.8906 9.19078 32.0851 9.40389C32.2733 9.61701 32.4553 9.83012 32.631 10.0432C32.9133 10.3942 33.1705 10.7515 33.4152 11.1213C33.5281 11.2843 33.6348 11.4535 33.7352 11.6228C33.8983 11.8798 34.0489 12.143 34.1869 12.4063C34.3061 12.6319 34.4253 12.8576 34.532 13.0895C34.5696 13.1585 34.601 13.2337 34.6324 13.3026C34.739 13.5345 34.8457 13.7727 34.9398 14.0109C34.9712 14.0799 35.0026 14.1551 35.0277 14.224C35.1092 14.4434 35.1908 14.6628 35.2661 14.8822C36.8785 19.4829 36.6966 24.8233 35.4731 29.493Z" fill="#7247AC" stroke="#1F1F1F" stroke-width="0.187118" stroke-miterlimit="10"/>
<path d="M34.664 29.2964C33.428 34.5428 30.8744 39.739 26.47 42.616C24.9517 43.6064 23.0882 44.3084 21.3629 43.7882C18.6085 42.9545 17.4729 39.2877 18.2697 36.4357C18.8281 33.9348 20.6853 32.5558 22.1158 30.3996C22.511 29.8104 22.7871 29.146 22.9502 28.4502C23.289 27.0023 23.8349 24.7834 25.096 24.8775C25.4285 24.9025 25.8049 25.0906 26.2441 25.4917C26.4574 25.686 26.6017 25.943 26.6582 26.2251C26.7272 26.5573 26.746 26.8582 26.7147 27.1402C26.7147 27.1841 26.7084 27.228 26.6959 27.2719C26.3696 29.591 23.0192 30.1175 22.4106 32.3991C22.3918 32.4743 22.373 32.5496 22.3667 32.6248C22.0342 34.6305 24.4623 36.3731 26.4261 35.8591C28.4589 35.3263 29.8015 33.2892 30.5544 31.2583C30.9999 30.0549 31.2948 28.8075 31.4453 27.5351C31.4767 27.3283 31.4955 27.1214 31.5144 26.9083C31.8783 22.6084 30.6485 18.1518 28.0071 14.7984C27.3421 13.946 26.5766 13.1437 26.2002 12.1157C26.0684 11.7647 26.0057 11.3761 26.0057 10.9875C26.0057 10.8746 26.012 10.7493 26.0308 10.6364C26.1626 9.6649 26.7711 8.82498 28.0322 8.85632C28.6283 8.86885 29.1867 9.11958 29.6698 9.46432C32.6562 11.6268 34.4946 15.1682 35.1722 18.8539C35.7996 22.3076 35.467 25.8866 34.664 29.2964Z" fill="white" stroke="#1F1F1F" stroke-width="0.19" stroke-miterlimit="10"/>
<path d="M48.172 18.3605C47.8834 22.1527 46.6913 25.2929 44.3385 27.9381C43.2092 29.2105 42.0171 29.574 40.9819 29.0851C39.6329 28.4395 39.4635 27.2172 39.5765 25.926C39.8337 22.9111 40.367 19.94 42.1237 17.4015C42.4312 16.9564 42.8139 16.5553 43.2405 16.1792C43.2531 16.1729 43.2594 16.1667 43.2719 16.1541C43.4852 15.9724 43.7048 15.8031 43.937 15.6339C44.1754 15.4646 44.4201 15.3017 44.6648 15.1512C45.9384 14.3615 47.212 14.888 47.7265 16.2983C47.9837 17.0128 48.0528 17.7964 48.1657 18.3229C48.1657 18.3354 48.172 18.3479 48.172 18.3605Z" fill="#7247AC" stroke="#1F1F1F" stroke-width="0.187118" stroke-miterlimit="10"/>
<path d="M43.9121 27.6181C42.1804 25.3428 42.5318 22.9484 43.3035 20.6041C43.9246 18.7112 44.9849 17.094 47.2311 16.8057C48.5361 19.526 46.0641 25.7126 43.9121 27.6181Z" fill="white" stroke="#1F1F1F" stroke-width="0.19" stroke-miterlimit="10"/>
</svg>
