<?xml version="1.0" encoding="utf-8"?>
<svg width="87" height="80" viewBox="38.262 9.628 48.738 70.372" fill="none" xmlns="http://www.w3.org/2000/svg">
  <path d="M 78.064 47.945 C 77.963 48.819 77.863 49.776 77.756 50.839 C 77.756 50.864 77.763 50.883 77.769 50.864 C 77.769 50.864 78.064 53.199 78.346 55.948 C 78.509 56.326 78.703 56.697 78.916 57.062 C 79.788 58.528 81.017 59.786 81.663 61.365 C 83.5 65.845 79.249 70.998 78.59 71.86 C 73.385 78.655 59.828 80.404 50.083 77.913 C 45.279 76.692 41.404 74.44 39.899 71.256 C 36.149 63.309 48.007 51.223 43.342 46.517 C 42.859 46.026 41.158 44.203 40.793 42.088 C 39.79 36.276 45.844 33.242 49.079 30.542 C 53.813 26.592 52.498 23.193 54.408 18.614 C 54.995 17.205 58.868 14.051 61.157 12.893 C 62.129 12.403 66.625 10.238 71.498 10.509 C 72.809 10.578 74.157 10.823 75.461 11.333 C 81.099 13.516 83.268 19.393 83.544 20.179 C 85.15 24.722 84.046 28.78 82.974 32.719 C 81.801 37.041 79.87 42.559 79.819 43.044 C 79.725 44.025 78.402 47.36 78.064 47.945 Z" fill="#FF1651" stroke="#1F1F1F" stroke-width="0.19" stroke-miterlimit="10"/>
  <path d="M 80.196 44.718 C 78.96 48.852 78.71 53.571 80.911 57.283 C 81.795 58.761 83.03 60.039 83.682 61.63 C 85.539 66.154 81.249 71.364 80.585 72.232 C 74.941 79.606 59.565 81.097 49.682 77.712 C 45.838 76.397 42.827 74.346 41.542 71.622 C 37.761 63.6 49.78 51.009 45.077 46.259 C 44.621 45.799 42.017 43.593 42.306 40.454 C 42.639 36.816 48.975 32.894 49.554 32.181 C 55.83 24.449 53.651 24.713 54.842 20.758 C 56.229 16.152 59.69 14.354 62.995 12.68 C 63.822 12.265 67.146 10.654 71.097 10.308 C 73.122 10.132 75.317 10.283 77.424 11.101 C 83.112 13.31 85.307 19.243 85.589 20.042 C 87.2 24.628 86.09 28.724 85.012 32.701 C 83.287 39.043 81.933 38.898 80.196 44.718 Z" fill="#FF858A" stroke="#1F1F1F" stroke-width="0.19" stroke-miterlimit="10"/>
  <path d="M78.0071 42.9994C77.9068 43.9809 77.6622 44.8303 77.286 45.7804C77.0101 46.4662 76.7153 47.0639 76.4269 47.5861H76.4206C76.3203 48.5047 76.2137 49.5114 76.1008 50.6376C76.0694 50.9459 76.0381 51.2416 76.013 51.5247C76.2764 53.6702 77.0665 60.4905 76.9662 63.4225C76.847 66.9333 75.9189 70.8216 72.9214 72.7343C71.8429 73.4201 70.3566 73.7221 67.378 74.3135C64.6439 74.8546 62.5431 74.9868 61.9348 75.0182C58.6113 75.2007 56.4604 75.3139 53.8517 74.5338C52.3341 74.0745 48.4148 72.8979 46.5774 69.4248C45.8563 68.0658 45.712 66.8767 45.5114 64.7186C45.3358 62.8688 45.2919 60.9813 45.6681 59.1693C45.6681 59.0434 45.6807 58.9176 45.687 58.7917C45.7309 58.603 45.8061 58.3199 45.9064 57.9927C46.1322 57.2754 46.8032 55.2243 48.5089 53.2739C48.6029 53.1669 48.697 53.0599 48.7973 52.9467C49.1109 52.5944 49.462 52.242 49.8508 51.9085C50.5845 51.2731 52.2338 49.8826 54.717 49.4359C57.1251 48.9955 60.11 49.4862 60.3107 50.5432C60.3546 50.776 60.2417 50.9711 60.0159 51.1913C60.0097 51.1976 60.0034 51.2039 59.9971 51.2102C59.5331 51.6632 58.6175 52.2294 57.5389 53.4249C57.4825 53.4941 57.4198 53.557 57.3634 53.6262C57.1313 53.8967 56.8868 54.1988 56.6422 54.5322C55.3692 56.2687 55.087 57.4516 54.9867 58.0745C54.8362 59.0245 54.9303 59.7984 55.0306 60.5471C55.156 61.5161 55.3629 63.1456 56.1029 64.2341C57.5828 66.4111 61.4394 66.8075 64.2363 65.6686C65.4215 65.1842 66.3621 64.4543 67.0895 63.6867C68.3437 62.3592 68.9645 60.9121 69.1464 60.415C70.2814 57.2943 70.3566 54.6077 70.2438 53.1543C69.7735 47.1583 66.5502 44.6416 67.5661 40.6337C67.6915 40.1429 68.0239 38.9035 68.9959 37.7646C69.0147 37.7332 69.0398 37.708 69.0711 37.6766C69.0899 37.6514 69.115 37.6199 69.1464 37.5885C69.0774 37.6451 69.0084 37.7143 68.952 37.7835C70.0431 36.456 71.6861 35.2983 73.4231 35.3801C74.9219 35.4556 76.0193 36.4308 76.1948 36.5944C77.38 37.664 77.6497 39.0796 77.888 40.338C78.1137 41.5208 78.0573 42.4835 78.0071 42.9994Z" fill="#FF1651" stroke="#1F1F1F" stroke-width="0.19" stroke-miterlimit="10"/>
  <path d="M76.4269 47.5867H76.4207C76.3203 48.5053 76.2137 49.512 76.1009 50.6382C76.0695 50.9465 76.0381 51.2422 76.0131 51.5253C75.5051 56.3826 75.1978 57.2446 75.0536 60.6799C74.9157 64.0585 74.0189 67.8084 71.2346 69.6519C70.2313 70.3189 68.858 70.6083 66.0988 71.1745C63.5653 71.703 61.6151 71.8289 61.057 71.8603C57.978 72.0302 55.9838 72.1435 53.5758 71.3885C52.1774 70.948 48.5591 69.8155 46.8848 66.4683C46.2326 65.1533 46.1072 64.0082 45.9379 61.9256C45.8438 60.8183 45.7999 59.6983 45.8689 58.591C45.9128 58.396 45.988 58.1191 46.0884 57.7919C46.3016 57.0998 46.9412 55.162 48.5089 53.2745C48.603 53.1675 48.6971 53.0605 48.7974 52.9473C49.1109 52.5949 49.4621 52.2426 49.8509 51.9091C50.5846 51.2737 52.2338 49.8832 54.7171 49.4365C57.1251 48.996 60.1101 49.4868 60.3108 50.5438C60.3546 50.7766 60.2418 50.9717 60.016 51.1919C60.0097 51.1982 60.0035 51.2045 59.9972 51.2108C59.5332 51.6638 58.6176 52.23 57.539 53.4255C57.4826 53.4947 57.4199 53.5576 57.3634 53.6268C57.1314 53.8973 56.8868 54.1993 56.6423 54.5328C55.3693 56.2693 55.0871 57.4522 54.9868 58.0751C54.8363 59.0251 54.9303 59.799 55.0307 60.5477C55.1561 61.5167 55.363 63.1462 56.103 64.2347C57.5829 66.4117 61.4395 66.8081 64.2363 65.6692C65.4215 65.1848 66.3622 64.4549 67.0896 63.6873C68.3438 62.3598 68.9646 60.9127 69.1464 60.4156C70.2815 57.2949 70.3567 54.6083 70.2438 53.1549C69.7735 47.1588 66.5503 44.6421 67.5662 40.6343C67.6916 40.1435 68.0239 38.904 68.9959 37.7652C69.0147 37.7338 69.0398 37.7086 69.0712 37.6771C69.09 37.652 69.1151 37.6205 69.1464 37.5891C69.1715 37.5639 69.1966 37.5387 69.2217 37.5073C69.2593 37.4695 69.2969 37.4255 69.3408 37.394C69.391 37.3374 69.4412 37.2871 69.4976 37.2367C69.8989 36.8718 70.6452 36.1923 71.6736 36.0287C73.9437 35.6638 75.9253 38.0798 76.0256 38.2057C77.4616 40.0177 77.0728 41.8675 76.4269 47.5867Z" fill="white" stroke="#1F1F1F" stroke-width="0.19" stroke-miterlimit="10"/>
  <path d="M 64.712 28.182 C 63.501 29.943 61.702 31.208 60.266 32.787 C 57.757 35.537 56.403 39.148 54.208 42.156 C 53.079 43.71 51.844 44.503 50.602 44.358 C 49.492 44.232 48.715 43.32 48.332 42.779 C 47.686 41.344 47.874 40.262 47.975 39.866 C 48.219 38.846 48.878 38.009 49.498 37.236 C 50.138 36.437 50.715 35.877 51.085 35.531 C 52.734 33.989 54.176 33.001 54.427 32.819 C 56.215 31.554 57.155 29.327 57.839 27.181 C 57.845 27.175 57.845 27.169 57.845 27.162 C 58.158 25.055 58.221 23.104 59.268 21.877 C 59.814 21.72 60.397 21.695 60.962 21.777 C 62.291 21.563 64.36 21.412 65.031 22.198 C 66.687 24.136 64.994 27.76 64.705 28.182 L 64.712 28.182 Z" fill="#FF1651" stroke="#1F1F1F" stroke-width="0.19" stroke-miterlimit="10"/>
  <path d="M 62.78 28.031 C 61.72 29.566 60.153 30.667 58.892 32.045 C 56.697 34.442 55.512 37.588 53.593 40.205 C 52.828 41.25 51.718 42.3 50.439 42.124 C 49.511 41.992 48.802 41.206 48.545 40.293 C 48.545 39.79 48.721 39.356 48.997 38.928 C 49.279 38.507 49.661 38.098 50.082 37.645 C 51.693 35.921 51.637 35.984 51.681 35.933 C 53.004 34.706 54.095 34.109 55.054 33.215 C 56.986 31.422 57.531 29.226 57.839 27.181 C 57.845 27.175 57.845 27.169 57.845 27.162 C 58.158 25.055 58.221 23.104 59.268 21.877 C 59.814 21.72 60.397 21.695 60.962 21.777 C 61.808 21.89 62.586 22.261 63.062 22.821 C 64.505 24.507 63.025 27.666 62.774 28.031 L 62.78 28.031 Z" fill="white" stroke="#1F1F1F" stroke-width="0.19" stroke-miterlimit="10"/>
</svg>