<svg width="68" height="77" viewBox="0 0 68 77" fill="none" xmlns="http://www.w3.org/2000/svg">
<path d="M65.569 46.837C65.3214 47.3746 65.0491 47.8997 64.752 48.4185C64.5786 48.7248 64.3991 49.0249 64.2072 49.3249C62.7959 53.7133 65.2286 60.0707 64.1206 64.0777C63.2354 65.878 61.9108 67.6221 60.289 69.2036C54.749 74.6108 45.6807 78.149 38.488 75.611C34.644 74.1608 33.6846 71.4665 26.1948 67.9534C23.1307 66.5219 21.2304 66.1405 19.8253 65.4779C-6.00535 53.7195 -5.93726 15.8751 18.8659 3.09146C19.0206 3.0102 19.1692 2.92893 19.3239 2.85392C19.6953 2.64138 20.0667 2.44759 20.4319 2.27881C20.63 2.18505 20.8343 2.10378 21.0323 2.02252C21.2799 1.9225 21.5337 1.82873 21.7813 1.74747C21.9546 1.68495 22.1218 1.63494 22.2951 1.58494C22.4127 1.55368 22.5241 1.51617 22.6417 1.49117C28.9245 -0.0403629 33.8703 4.67925 33.7527 10.8304C30.3668 35.0098 57.4602 6.27955 66.2932 30.5965C68.1502 36.0288 67.915 41.7923 65.569 46.837Z" fill="#FF1651" stroke="#1F1F1F" stroke-width="0.19" stroke-miterlimit="10"/>
<path d="M67.55 41.4741C67.5438 41.5116 67.5438 41.5428 67.5377 41.5804C67.3643 43.0681 67.2034 44.3809 66.3678 45.6123C66.0768 46.0374 65.8107 46.4375 65.5693 46.8376C65.2598 47.3377 64.9874 47.844 64.7522 48.4191C64.6531 48.6504 64.5603 48.8942 64.4798 49.1567C63.0685 53.5451 65.5012 59.9025 64.3932 63.9095C63.8484 65.8723 62.3381 67.6977 60.2892 69.2042C59.6517 69.673 58.9584 70.1106 58.228 70.5107C53.6474 73.0236 47.4946 74.0926 42.8583 72.336C39.0144 70.8857 38.0549 68.1915 30.5651 64.6783C27.5073 63.2468 25.6069 62.8655 24.1956 62.2029C14.8674 57.8083 7.72418 48.9442 5.35962 38.8236C2.99506 28.703 5.46485 17.5509 11.8653 9.40569C12.7566 8.26798 13.7284 7.18653 14.7745 6.1926C16.0249 5.01113 17.3867 3.95469 18.8661 3.09203C19.1075 2.94826 19.3489 2.81698 19.5965 2.68571C19.8689 2.54193 20.1474 2.40441 20.4321 2.27938C20.6302 2.18562 20.8345 2.10435 21.0326 2.02309C21.2802 1.92307 21.534 1.8293 21.7816 1.74804C21.9549 1.68552 22.122 1.63551 22.2953 1.58551C22.4129 1.55425 22.5243 1.51674 22.642 1.49174C25.2232 0.79786 27.9777 0.885377 30.1689 2.34189C33.4991 4.5548 33.951 9.4682 34.0253 10.6622C34.2543 14.0941 32.9111 15.6693 34.1491 18.0823C36.6374 22.9394 42.1651 20.9703 46.3557 20.3077C49.5373 19.8076 52.8118 19.3075 55.9439 20.0451C60.9515 21.2204 64.876 25.5274 66.5658 30.4283C67.0363 31.7973 67.352 33.2038 67.5377 34.6353C67.841 36.8982 67.81 39.2112 67.55 41.4741Z" fill="#FF858A" stroke="#1F1F1F" stroke-width="0.19" stroke-miterlimit="10"/>
<path d="M62.2576 37.8105C62.0843 38.8545 61.9852 39.9484 61.7562 41.0049C61.7995 42.5239 61.4591 44.0804 60.8153 45.3369C60.7039 45.5494 60.5863 45.762 60.4563 45.9558C59.3359 47.6686 57.3366 48.8375 55.3063 48.7063C53.276 48.575 51.3509 47.0122 51.0104 44.9868C50.7133 47.406 47.8783 49.6064 45.4457 49.1376C44.0282 48.8688 41.0756 46.6371 41.2798 49.8002C41.3232 50.4441 41.5955 51.0567 41.8431 51.6506C42.4993 53.2009 43.0749 54.8324 43.0316 56.514C42.9697 59.3395 40.8713 61.4649 38.0673 61.5836C36.4207 61.6587 34.8237 61.0836 33.2701 60.5147C28.7081 58.8456 24.078 57.1453 20.1474 54.276C14.5517 50.1815 10.6829 43.7491 9.66778 36.8416C9.03022 32.472 9.90919 28.3213 10.522 24.0455C11.042 20.4448 14.1926 17.2442 17.5909 16.1815C19.7079 15.5189 22.2829 15.7002 24.2513 16.7692C25.9783 17.0692 27.5877 18.0069 28.7947 19.8072C30.1318 21.7951 30.3174 24.3956 29.8346 26.8148C29.1661 30.2029 27.3587 32.9159 27.3215 36.3915C27.2906 39.4421 28.4914 42.4614 30.955 44.3117C33.1029 45.9183 36.2041 46.5934 38.7853 45.3869C38.8534 45.3557 38.9215 45.3244 38.9834 45.2806C42.1836 43.5553 41.6389 37.7168 42.5426 36.8353C42.7283 36.5728 42.9759 36.3227 43.2668 36.1352C44.1334 35.6851 45.2352 35.7476 45.9966 37.1291C46.6589 38.7232 44.4367 39.8359 45.4333 40.8298C46.3618 41.7675 48.0517 41.7612 49.203 40.9736C49.2154 40.9674 49.2216 40.9611 49.2277 40.9549C49.4073 40.8548 49.5806 40.7361 49.7353 40.6048C50.8743 39.6234 51.4499 38.3669 50.6824 36.6416C50.1005 35.5164 50.5895 34.6662 51.4685 34.0973C51.4747 34.0911 51.4809 34.0848 51.4871 34.0848C52.9727 33.2847 55.2258 33.1597 55.6591 33.7348C56.6743 35.3976 54.1178 37.3667 53.9507 39.2858C53.8702 40.186 53.9816 41.2487 54.7925 41.655C55.3248 41.9175 55.9315 41.7675 56.4452 41.4049C57.0456 41.0924 57.5656 40.4735 57.7761 39.8296C58.2713 38.2919 57.2375 36.554 57.448 34.9037C57.5161 34.3911 57.7018 33.8911 58.0979 33.4035C58.5189 32.8846 59.0883 32.3783 59.7383 31.9594C59.7692 31.9407 59.794 31.9219 59.8249 31.9094C60.9082 31.2343 62.2143 30.828 63.4337 31.0655C64.8388 32.147 62.4433 36.6603 62.2576 37.8105Z" fill="#FF1651" stroke="#1F1F1F" stroke-width="0.19" stroke-miterlimit="10"/>
<path d="M53.8757 39.3727C53.9187 38.8737 54.1167 38.3787 54.3657 37.8937C54.5257 37.5837 54.7107 37.2717 54.8917 36.9647C54.9927 36.7947 55.0917 36.6267 55.1857 36.4617C55.4517 35.9927 55.6747 35.5417 55.7707 35.1077C55.8657 34.6787 55.8357 34.2717 55.6007 33.8827C55.5127 33.7707 55.3227 33.6777 55.0347 33.6227C54.7507 33.5677 54.3907 33.5547 53.9947 33.5837C53.2017 33.6417 52.2807 33.8707 51.5517 34.2627L51.5507 34.2637L51.5487 34.2657L51.5397 34.2717C51.1107 34.5497 50.7857 34.8897 50.6367 35.2887C50.4877 35.6837 50.5057 36.1497 50.7867 36.6927L50.7887 36.6977C51.1797 37.5767 51.2327 38.3457 51.0347 39.0237C50.8377 39.6987 50.3947 40.2737 49.8167 40.7717C49.6597 40.9047 49.4857 41.0247 49.3047 41.1267C49.2967 41.1337 49.2867 41.1417 49.2717 41.1497C48.0927 41.9537 46.3527 41.9687 45.3857 40.9917C45.2517 40.8577 45.1677 40.7177 45.1267 40.5707C45.0857 40.4247 45.0897 40.2767 45.1207 40.1307C45.1817 39.8487 45.3507 39.5567 45.5197 39.2647L45.5267 39.2517C45.8787 38.6447 46.2377 38.0107 45.9307 37.2647C45.5597 36.5947 45.1137 36.2547 44.6657 36.1317C44.2167 36.0077 43.7507 36.0967 43.3347 36.3117C43.0567 36.4917 42.8187 36.7327 42.6397 36.9847L42.6347 36.9917L42.6287 36.9977C42.5337 37.0907 42.4487 37.2597 42.3717 37.5037C42.2957 37.7447 42.2317 38.0477 42.1687 38.3957C42.1247 38.6377 42.0817 38.9027 42.0367 39.1827C41.9517 39.7027 41.8597 40.2757 41.7367 40.8557C41.3607 42.6397 40.6907 44.5697 39.0537 45.4557C38.8997 45.5647 38.7357 45.6547 38.5677 45.7357L38.5667 45.7367C35.9467 46.9607 32.8087 46.2737 30.6397 44.6517L30.6387 44.6507C28.1467 42.7797 26.9367 39.7287 26.9677 36.6537C26.9867 34.8997 27.4517 33.3407 27.9927 31.8027C28.0977 31.5037 28.2057 31.2057 28.3137 30.9077C28.7627 29.6667 29.2147 28.4187 29.4827 27.0597C29.9627 24.6547 29.7747 22.0827 28.4567 20.1237C27.2647 18.3447 25.6777 17.4217 23.9767 17.1257C20.6997 16.5647 16.9547 18.3317 14.6547 20.9337C12.9577 22.8467 12.5697 24.6387 12.0557 27.0147C12.0257 27.1507 11.9957 27.2897 11.9657 27.4297C10.9457 32.1057 10.4727 37.0437 11.9447 41.6647C13.3667 46.1157 16.4337 49.6137 20.1187 52.3627C22.0007 53.7697 23.6077 54.9387 25.8187 55.8777C28.1267 56.8557 30.5157 57.6297 32.9077 58.4037C32.9867 58.4297 33.0657 58.4557 33.1457 58.4807C34.6647 58.9697 36.2077 59.4567 37.8147 59.3457C39.4217 59.2287 41.1127 58.3647 41.7067 56.9227C42.2837 55.5267 41.7347 54.0067 41.1327 52.6407C40.5287 51.2847 39.8537 49.7577 40.3047 48.2367C40.5557 47.3967 40.8997 46.8927 41.3157 46.6287C41.7327 46.3637 42.2037 46.3517 42.6807 46.4517C43.1387 46.5467 43.6147 46.7477 44.0707 46.9407L44.1237 46.9627C44.6017 47.1647 45.0537 47.3507 45.4607 47.4127C46.6227 47.5927 47.9127 47.1597 48.9597 46.3927C50.0057 45.6257 50.7927 44.5377 50.9677 43.4287L51.1547 43.4297C51.4257 45.2697 53.3463 46.6604 55.6007 46.8127C58.0009 46.508 58.898 45.8818 60.2859 44.4769C61.1153 43.4287 61.3065 42.2569 61.5215 41.2779C61.6635 40.6209 61.7521 39.9297 61.8431 39.2647C61.8971 38.8627 62.6027 36.2966 62.8587 35.6246C63.5447 33.8216 63.925 32.2056 63.2141 31.4778C62.334 30.8515 59.9807 32.0607 59.9517 32.0897C59.3097 32.5037 58.6047 33.0477 58.1917 33.5577C57.8077 34.0307 57.6277 34.5137 57.5617 35.0107C57.4687 35.7397 57.6247 36.4867 57.7817 37.2447C57.7987 37.3247 57.8157 37.4047 57.8317 37.4847C58.0017 38.3157 58.1427 39.1577 57.8867 39.9537C57.6697 40.6187 57.1347 41.2557 56.5147 41.5807C55.9857 41.9517 55.3437 42.1177 54.7707 41.8347C54.3337 41.6157 54.0897 41.2217 53.9657 40.7757C53.8417 40.3317 53.8347 39.8287 53.8757 39.3727Z" fill="white"/>
<path d="M53.9707 39.3807L53.8757 39.3727M53.8757 39.3727C53.9187 38.8737 54.1167 38.3787 54.3657 37.8937C54.5257 37.5837 54.7107 37.2717 54.8917 36.9647C54.9927 36.7947 55.0917 36.6267 55.1857 36.4617C55.4517 35.9927 55.6747 35.5417 55.7707 35.1077C55.8657 34.6787 55.8357 34.2717 55.6007 33.8827C55.5127 33.7707 55.3227 33.6777 55.0347 33.6227C54.7507 33.5677 54.3907 33.5547 53.9947 33.5837C53.2017 33.6417 52.2807 33.8707 51.5517 34.2627L51.5507 34.2637L51.5487 34.2657L51.5397 34.2717C51.1107 34.5497 50.7857 34.8897 50.6367 35.2887C50.4877 35.6837 50.5057 36.1497 50.7867 36.6927L50.7887 36.6977C51.1797 37.5767 51.2327 38.3457 51.0347 39.0237C50.8377 39.6987 50.3947 40.2737 49.8167 40.7717C49.6597 40.9047 49.4857 41.0247 49.3047 41.1267C49.2967 41.1337 49.2867 41.1417 49.2717 41.1497C48.0927 41.9537 46.3527 41.9687 45.3857 40.9917C45.2517 40.8577 45.1677 40.7177 45.1267 40.5707C45.0857 40.4247 45.0897 40.2767 45.1207 40.1307C45.1817 39.8487 45.3507 39.5567 45.5197 39.2647L45.5267 39.2517C45.8787 38.6447 46.2377 38.0107 45.9307 37.2647C45.5597 36.5947 45.1137 36.2547 44.6657 36.1317C44.2167 36.0077 43.7507 36.0967 43.3347 36.3117C43.0567 36.4917 42.8187 36.7327 42.6397 36.9847L42.6347 36.9917L42.6287 36.9977C42.5337 37.0907 42.4487 37.2597 42.3717 37.5037C42.2957 37.7447 42.2317 38.0477 42.1687 38.3957C42.1247 38.6377 42.0817 38.9027 42.0367 39.1827C41.9517 39.7027 41.8597 40.2757 41.7367 40.8557C41.3607 42.6397 40.6907 44.5697 39.0537 45.4557C38.8997 45.5647 38.7357 45.6547 38.5677 45.7357L38.5667 45.7367C35.9467 46.9607 32.8087 46.2737 30.6397 44.6517L30.6387 44.6507C28.1467 42.7797 26.9367 39.7287 26.9677 36.6537C26.9867 34.8997 27.4517 33.3407 27.9927 31.8027C28.0977 31.5037 28.2057 31.2057 28.3137 30.9077C28.7627 29.6667 29.2147 28.4187 29.4827 27.0597C29.9627 24.6547 29.7747 22.0827 28.4567 20.1237C27.2647 18.3447 25.6777 17.4217 23.9767 17.1257C20.6997 16.5647 16.9547 18.3317 14.6547 20.9337C12.9577 22.8467 12.5697 24.6387 12.0557 27.0147C12.0257 27.1507 11.9957 27.2897 11.9657 27.4297C10.9457 32.1057 10.4727 37.0437 11.9447 41.6647C13.3667 46.1157 16.4337 49.6137 20.1187 52.3627C22.0007 53.7697 23.6077 54.9387 25.8187 55.8777C28.1267 56.8557 30.5157 57.6297 32.9077 58.4037C32.9867 58.4297 33.0657 58.4557 33.1457 58.4807C34.6647 58.9697 36.2077 59.4567 37.8147 59.3457C39.4217 59.2287 41.1127 58.3647 41.7067 56.9227C42.2837 55.5267 41.7347 54.0067 41.1327 52.6407C40.5287 51.2847 39.8537 49.7577 40.3047 48.2367C40.5557 47.3967 40.8997 46.8927 41.3157 46.6287C41.7327 46.3637 42.2037 46.3517 42.6807 46.4517C43.1387 46.5467 43.6147 46.7477 44.0707 46.9407L44.1237 46.9627C44.6017 47.1647 45.0537 47.3507 45.4607 47.4127C46.6227 47.5927 47.9127 47.1597 48.9597 46.3927C50.0057 45.6257 50.7927 44.5377 50.9677 43.4287L51.1547 43.4297C51.4257 45.2697 53.3463 46.6604 55.6007 46.8127C58.0009 46.508 58.898 45.8818 60.2859 44.4769C61.1153 43.4287 61.3065 42.2569 61.5215 41.2779C61.6635 40.6209 61.7521 39.9297 61.8431 39.2647C61.8971 38.8627 62.6027 36.2966 62.8587 35.6246C63.5447 33.8216 63.925 32.2056 63.2141 31.4778C62.334 30.8515 59.9807 32.0607 59.9517 32.0897C59.3097 32.5037 58.6047 33.0477 58.1917 33.5577C57.8077 34.0307 57.6277 34.5137 57.5617 35.0107C57.4687 35.7397 57.6247 36.4867 57.7817 37.2447C57.7987 37.3247 57.8157 37.4047 57.8317 37.4847C58.0017 38.3157 58.1427 39.1577 57.8867 39.9537C57.6697 40.6187 57.1347 41.2557 56.5147 41.5807C55.9857 41.9517 55.3437 42.1177 54.7707 41.8347C54.3337 41.6157 54.0897 41.2217 53.9657 40.7757C53.8417 40.3317 53.8347 39.8287 53.8757 39.3727Z" stroke="black" stroke-width="0.19"/>
<path d="M51.0538 28.3506C50.9362 28.4444 50.8124 28.5381 50.6886 28.6256C48.2498 30.3697 45.6748 31.8825 42.6479 32.1763C41.5646 32.2826 40.3824 32.0388 39.3363 31.6887C37.9373 31.2261 37.5226 29.9196 38.253 28.6194C38.6368 27.9443 39.2001 27.3754 39.522 26.9503C40.2957 26.3877 41.0756 25.8876 41.8679 25.4688C44.1768 24.2373 46.5723 23.6372 49.1783 23.6997C50.8496 23.7435 51.8833 24.4186 52.168 25.5188C52.4961 26.7941 51.908 27.6505 51.0538 28.3506Z" fill="#FF1651" stroke="#1F1F1F" stroke-width="0.19" stroke-miterlimit="10"/>
<path d="M48.679 24.5421C48.4546 25.4941 48.0558 26.2613 47.5329 26.8902L47.5327 26.8905C46.6009 28.0222 45.2817 28.7338 43.8626 29.307L43.8626 29.3071C42.0873 30.0254 40.2782 30.252 38.6969 28.8647C38.9742 28.2852 39.4867 27.7279 40.1539 27.2162C40.8442 26.6867 41.6944 26.2106 42.6054 25.8128L42.6055 25.8127C44.6213 24.9287 46.9207 24.4216 48.4479 24.5203L48.4479 24.5205H48.454C48.5279 24.5205 48.6032 24.5305 48.679 24.5421Z" fill="white" stroke="black" stroke-width="0.19"/>
</svg>
