<svg width="61" height="52" viewBox="0 0 61 52" fill="none" xmlns="http://www.w3.org/2000/svg">
<path d="M43.6675 5.48732C36.3311 11.7597 51.268 26.1288 34.9804 30.3587C19.8067 34.2987 33.0355 8.18273 14.4016 12.2782C7.03898 13.8974 1.43268 19.6829 0.821747 30.1206C-0.112987 46.0962 7.37431 47.836 17.4908 48.4879C30.1841 49.306 57.5513 57.6398 52.1734 39.9911C49.4425 31.0297 55.6032 26.2579 58.5269 15.2139C61.4505 4.16978 53.7976 -3.1746 43.6665 5.48838L43.6675 5.48732Z" fill="#FF1651" stroke="#1F1F1F" stroke-width="0.19" stroke-miterlimit="10"/>
<path d="M44.6633 4.48634C37.3531 10.6116 49.9333 10.9619 33.7305 15.1251C18.6375 19.0026 34.0868 7.13942 15.5535 11.1799C8.23073 12.7768 2.64119 18.4216 2.00301 28.5799C1.02741 44.1259 8.46441 45.7979 18.5191 46.4022C31.1327 47.1599 58.3123 55.189 53.0183 38.0324C50.3304 29.3218 56.467 24.6601 59.4053 13.906C62.3436 3.15187 54.7568 -3.97133 44.6623 4.4874L44.6633 4.48634Z" fill="#FF858A" stroke="#1F1F1F" stroke-width="0.19" stroke-miterlimit="10"/>
<path d="M21.3148 37.6252C23.6139 39.8147 35.6031 33.8726 38.1159 32.1793C41.6872 29.7728 48.1035 24.273 48.4514 20.132C48.7511 16.5551 43.2339 20.8326 45.7499 14.4618C47.8604 9.11967 52.4157 9.72923 53.5684 11.6553C54.7211 13.5813 53.0874 21.7363 50.3083 27.0361C47.0462 33.2588 34.4556 40.1005 25.8051 42.4974C22.4885 43.2668 16.2692 42.4858 14.7277 36.7838C12.8006 29.6564 15.9558 23.9767 20.18 21.8549C24.1337 19.8696 24.8735 24.9387 23.1309 27.6267C21.8168 29.6532 18.4404 34.8917 21.3138 37.6283L21.3148 37.6252Z" fill="#FF1651" stroke="#1F1F1F" stroke-width="0.19" stroke-miterlimit="10"/>
<path d="M23.1561 33.9497C25.2792 35.8556 36.5452 30.5928 38.9125 29.0975C42.2752 26.9725 48.33 22.1246 48.701 18.4968C49.0206 15.3633 43.8188 19.136 46.2394 13.5452C48.2703 8.85706 52.5195 9.36821 53.5748 11.0487C54.63 12.7293 53.0142 19.8779 50.3598 24.5311C47.2433 29.996 35.4062 36.0482 27.2975 38.1901C24.1915 38.8801 18.3892 38.2272 17.0123 33.2427C15.2905 27.0117 18.3012 22.023 22.2707 20.1435C25.9865 18.3857 26.6216 22.8209 24.9638 25.1819C23.7136 26.963 20.5018 31.5664 23.1561 33.9475V33.9497Z" fill="white" stroke="#1F1F1F" stroke-width="0.19" stroke-miterlimit="10"/>
<path d="M35.7361 21.3148C35.5653 20.0893 36.4958 19.6057 36.7725 18.4733C37.1843 16.7896 37.1393 15.8361 38.2364 15.3366C39.7328 14.6562 41.5394 16.1695 41.0155 19.2194C40.4548 22.482 35.9415 22.7911 35.7361 21.3148Z" fill="#FF1651" stroke="#1F1F1F" stroke-width="0.19" stroke-miterlimit="10"/>
<path d="M36.2045 19.9627C36.0588 18.8906 36.9328 18.4631 37.2042 17.4694C37.6076 15.9931 37.5762 15.1581 38.6063 14.7158C40.0115 14.1126 41.6829 15.428 41.16 18.1012C40.6005 20.9606 36.3795 21.2538 36.2045 19.9627Z" fill="white" stroke="#1F1F1F" stroke-width="0.19" stroke-miterlimit="10"/>
<path d="M29.7843 22.286C30.2884 25.0893 32.0729 24.539 32.9018 23.9136C33.6385 23.358 33.9686 22.2193 33.8732 21.5304C33.6689 20.052 34.6068 19.2593 34.5104 17.9058C34.4328 16.8232 33.4143 16.8243 32.9155 16.9608C31.6622 17.5682 29.2803 19.4826 29.7843 22.286Z" fill="#FF1651" stroke="#1F1F1F" stroke-width="0.19" stroke-miterlimit="10"/>
<path d="M30.4881 21.0585C30.9282 23.5105 32.6006 23.0205 33.3824 22.4681C34.0771 21.9782 34.3978 20.9802 34.3161 20.377C34.1411 19.0838 35.0265 18.3843 34.9511 17.2001C34.8903 16.2529 33.9399 16.2582 33.4715 16.3799C32.2936 16.9175 30.0479 18.6065 30.487 21.0585H30.4881Z" fill="white" stroke="#1F1F1F" stroke-width="0.19" stroke-miterlimit="10"/>
</svg>
