<svg width="32" height="38" viewBox="0 0 32 38" fill="none" xmlns="http://www.w3.org/2000/svg">
<path d="M24.2366 6.46195V9.9239H25.3798L25.8899 9.4138C26.4167 9.73635 27.0355 9.9239 27.6985 9.9239C29.6087 9.9239 31.1593 8.3745 31.1593 6.46195C31.1593 4.5494 29.6087 3 27.6973 3C25.786 3 24.2366 4.5494 24.2366 6.46195Z" fill="#676767"/>
<path fillRule="evenodd" clipRule="evenodd" d="M0 21.7171C0 14.3845 5.94086 8.43427 13.2735 8.43427C20.6062 8.43427 26.5564 14.3845 26.5564 21.7171V35H22.1661L20.2139 33.0477C18.1962 34.2808 15.8143 35 13.2735 35C5.9502 35 0 29.0498 0 21.7171ZM14.2263 29.4795H14.9362V16.4115C14.9362 15.9175 14.1889 14.7394 13.2642 14.7394H12.9921C12.5075 14.4857 11.956 14.3422 11.3711 14.3422H11.0903V25.9651C11.0903 26.6894 11.3104 27.3624 11.6873 27.9208C12.1593 28.8446 13.121 29.4795 14.2263 29.4795Z" fill="#676767"/>
</svg>
