<svg width="263" height="46" viewBox="0 0 263 46" fill="none" xmlns="http://www.w3.org/2000/svg">
<path d="M29.9563 31.5V28.356H32.4523V31.5H29.9563ZM8.40432 37.452C6.98032 37.452 5.70832 37.188 4.58832 36.66C3.46832 36.148 2.58832 35.436 1.94832 34.524C1.30832 33.612 0.98832 32.572 0.98832 31.404C0.98832 31.084 1.01232 30.668 1.06032 30.156C1.10832 29.628 1.17232 29.044 1.25232 28.404C1.33232 27.764 1.42032 27.108 1.51632 26.436C1.62832 25.748 1.73232 25.084 1.82832 24.444L5.45232 24.924C5.29232 25.996 5.14832 26.972 5.02032 27.852C4.90832 28.716 4.82032 29.452 4.75632 30.06C4.69232 30.652 4.66032 31.092 4.66032 31.38C4.66032 31.972 4.80432 32.484 5.09232 32.916C5.38032 33.364 5.80432 33.708 6.36432 33.948C6.92432 34.188 7.60432 34.308 8.40432 34.308C9.25232 34.308 9.92432 34.18 10.4203 33.924C10.9163 33.684 11.2683 33.356 11.4763 32.94C11.6843 32.54 11.7883 32.084 11.7883 31.572V21.9H15.4603V31.572C15.4603 32.756 15.1563 33.788 14.5483 34.668C13.9403 35.548 13.1003 36.228 12.0283 36.708C10.9723 37.204 9.76432 37.452 8.40432 37.452ZM15.4123 31.5L15.4603 28.356H17.1643C17.6603 28.356 18.0443 28.284 18.3163 28.14C18.5883 27.98 18.7723 27.668 18.8683 27.204C18.9803 26.724 19.0363 26.004 19.0363 25.044V20.7H22.7083V25.044C22.7083 26.548 22.5083 27.78 22.1083 28.74C21.7083 29.684 21.1003 30.38 20.2843 30.828C19.4683 31.276 18.4283 31.5 17.1643 31.5H15.4123ZM23.7163 31.5C23.0123 31.5 22.3163 31.372 21.6283 31.116C20.9563 30.844 20.3243 30.452 19.7323 29.94L21.9643 27.636C22.2523 27.876 22.5403 28.06 22.8283 28.188C23.1163 28.3 23.4123 28.356 23.7163 28.356H28.3003L26.2843 30.132V24.924C26.2843 24.684 26.2523 24.308 26.1883 23.796C26.1403 23.268 26.0603 22.676 25.9483 22.02C25.8523 21.348 25.7403 20.668 25.6123 19.98L29.2363 19.428C29.3483 20.004 29.4523 20.652 29.5483 21.372C29.6603 22.092 29.7563 22.772 29.8363 23.412C29.9163 24.052 29.9563 24.556 29.9563 24.924V31.5H23.7163ZM32.4523 31.5V28.356C32.5483 28.356 32.6203 28.396 32.6683 28.476C32.7323 28.54 32.7803 28.644 32.8123 28.788C32.8603 28.916 32.8923 29.076 32.9083 29.268C32.9243 29.46 32.9323 29.676 32.9323 29.916C32.9323 30.156 32.9243 30.38 32.9083 30.588C32.8923 30.78 32.8603 30.948 32.8123 31.092C32.7803 31.22 32.7323 31.324 32.6683 31.404C32.6203 31.468 32.5483 31.5 32.4523 31.5ZM40.3384 31.5V28.356H43.4584V31.5H40.3384ZM43.4584 31.5V28.356C43.5544 28.356 43.6264 28.396 43.6744 28.476C43.7384 28.54 43.7864 28.644 43.8184 28.788C43.8664 28.916 43.8984 29.076 43.9144 29.268C43.9304 29.46 43.9384 29.676 43.9384 29.916C43.9384 30.156 43.9304 30.38 43.9144 30.588C43.8984 30.78 43.8664 30.948 43.8184 31.092C43.7864 31.22 43.7384 31.324 43.6744 31.404C43.6264 31.468 43.5544 31.5 43.4584 31.5ZM32.4424 31.5C32.3464 31.5 32.2744 31.468 32.2264 31.404C32.1624 31.324 32.1144 31.22 32.0824 31.092C32.0504 30.948 32.0264 30.78 32.0104 30.588C31.9784 30.38 31.9624 30.156 31.9624 29.916C31.9624 29.596 31.9784 29.324 32.0104 29.1C32.0424 28.86 32.0984 28.676 32.1784 28.548C32.2424 28.42 32.3304 28.356 32.4424 28.356V31.5ZM32.4424 31.5V28.356H38.8984L36.6664 30.204V19.428H40.3384V31.5H32.4424ZM34.4104 17.196V14.268H37.9144V17.196H34.4104ZM39.1384 17.196V14.268H42.6424V17.196H39.1384ZM58.002 31.5V28.356H60.522V31.5H58.002ZM43.458 31.5C43.378 31.5 43.306 31.468 43.242 31.404C43.178 31.324 43.13 31.22 43.098 31.092C43.066 30.948 43.042 30.78 43.026 30.588C42.994 30.38 42.978 30.156 42.978 29.916C42.978 29.596 42.994 29.324 43.026 29.1C43.058 28.86 43.114 28.676 43.194 28.548C43.258 28.42 43.346 28.356 43.458 28.356V31.5ZM43.458 31.5V28.356H55.506L54.354 29.292V26.388C54.354 25.572 54.266 24.924 54.09 24.444C53.93 23.964 53.69 23.62 53.37 23.412C53.05 23.204 52.642 23.1 52.146 23.1H46.866L44.682 19.956L45.954 17.532C46.082 17.292 46.226 17.028 46.386 16.74C46.562 16.436 46.786 16.068 47.058 15.636C47.346 15.188 47.706 14.628 48.138 13.956L51.234 15.684C50.834 16.26 50.514 16.748 50.274 17.148C50.034 17.548 49.826 17.892 49.65 18.18C49.49 18.468 49.338 18.756 49.194 19.044L48.33 20.676L47.85 19.956H52.146C53.186 19.956 54.074 20.124 54.81 20.46C55.546 20.796 56.146 21.268 56.61 21.876C57.09 22.468 57.442 23.148 57.666 23.916C57.89 24.684 58.002 25.508 58.002 26.388V31.5H43.458ZM60.522 31.5V28.356C60.602 28.356 60.674 28.396 60.738 28.476C60.802 28.54 60.85 28.644 60.882 28.788C60.914 28.916 60.938 29.076 60.954 29.268C60.986 29.46 61.002 29.676 61.002 29.916C61.002 30.156 60.986 30.38 60.954 30.588C60.938 30.78 60.914 30.948 60.882 31.092C60.85 31.22 60.802 31.324 60.738 31.404C60.674 31.468 60.602 31.5 60.522 31.5ZM63.1845 31.5V14.628H66.8565V31.5H63.1845ZM60.5205 31.5V28.356H63.1845V31.5H60.5205ZM60.5205 31.5C60.4405 31.5 60.3685 31.468 60.3045 31.404C60.2405 31.324 60.1925 31.22 60.1605 31.092C60.1285 30.948 60.1045 30.78 60.0885 30.588C60.0565 30.38 60.0405 30.156 60.0405 29.916C60.0405 29.596 60.0565 29.324 60.0885 29.1C60.1205 28.86 60.1765 28.676 60.2565 28.548C60.3205 28.42 60.4085 28.356 60.5205 28.356V31.5ZM70.5778 31.5V14.628H74.2258V31.5H70.5778ZM77.4688 37.692C77.2928 37.692 77.0768 37.676 76.8208 37.644C76.5648 37.628 76.3008 37.612 76.0288 37.596L76.1488 34.5C76.4048 34.5 76.6528 34.508 76.8928 34.524C77.1328 34.54 77.3088 34.548 77.4208 34.548C78.0128 34.548 78.4768 34.316 78.8128 33.852C79.1648 33.388 79.3408 32.716 79.3408 31.836V19.428H83.0128V31.836C83.0128 32.972 82.7808 33.98 82.3168 34.86C81.8528 35.756 81.2048 36.452 80.3728 36.948C79.5408 37.444 78.5728 37.692 77.4688 37.692ZM86.6794 31.5V14.628H90.3274V31.5H86.6794ZM86.9434 12.564C86.6234 12.18 86.3754 11.812 86.1994 11.46C86.0394 11.108 85.9594 10.74 85.9594 10.356C85.9594 9.764 86.1114 9.244 86.4154 8.796C86.7194 8.332 87.1194 7.972 87.6154 7.716C88.1114 7.444 88.6554 7.308 89.2474 7.308C89.5834 7.308 89.9194 7.356 90.2554 7.452C90.5914 7.532 90.8714 7.652 91.0954 7.812L90.2314 9.42C90.0874 9.34 89.9354 9.284 89.7754 9.252C89.6314 9.22 89.4874 9.204 89.3434 9.204C88.9594 9.204 88.6634 9.308 88.4554 9.516C88.2474 9.724 88.1434 9.988 88.1434 10.308C88.1434 10.5 88.1834 10.684 88.2634 10.86C88.3434 11.036 88.4634 11.212 88.6234 11.388L86.9434 12.564ZM85.4074 12.804V10.932H91.5994V12.804H85.4074Z" fill="white"/>
<path d="M119.244 8.49994C109.181 8.49994 101.028 16.6658 101.028 26.7289C101.028 36.792 109.194 44.9578 119.244 44.9578C122.731 44.9578 126 43.9707 128.769 42.2786L131.448 44.9578H137.473V26.7289C137.473 16.6658 129.308 8.49994 119.244 8.49994ZM121.526 37.3817H120.552C118.398 37.3817 116.642 35.6254 116.642 33.4718V17.1529H119.232C120.501 17.1529 121.526 18.1785 121.526 19.4476V37.3817Z" fill="white"/>
<path d="M134.291 5.79323V10.5443H135.86L136.56 9.84425C137.283 10.2869 138.132 10.5443 139.042 10.5443C141.664 10.5443 143.791 8.41795 143.791 5.79323C143.791 3.16851 141.664 1.04218 139.04 1.04218C136.417 1.04218 134.291 3.16851 134.291 5.79323Z" fill="#F26B6D"/>
<path d="M164.466 20.4354C163.799 19.7684 163.013 19.2347 162.109 18.8493C161.205 18.4638 160.241 18.2711 159.218 18.2711C158.196 18.2711 157.247 18.4638 156.343 18.8493C155.438 19.2347 154.653 19.7684 153.985 20.4354C153.304 21.1173 152.77 21.903 152.384 22.7925C151.984 23.6967 151.792 24.6455 151.792 25.6832C151.792 26.7209 151.984 27.6548 152.384 28.559C152.785 29.4633 153.318 30.249 153.985 30.9309C154.653 31.6128 155.438 32.1316 156.343 32.5319C157.247 32.9173 158.196 33.11 159.218 33.11C159.974 33.11 160.701 32.9766 161.383 32.7246C162.079 32.4726 162.717 32.1168 163.31 31.6721C163.399 32.0427 163.591 32.3392 163.873 32.5764C164.155 32.8136 164.496 32.9321 164.896 32.9321C165.133 32.9321 165.356 32.8877 165.578 32.7987C165.785 32.7098 165.978 32.5764 166.126 32.4281C166.275 32.2799 166.408 32.0872 166.497 31.8796C166.586 31.6721 166.63 31.4497 166.63 31.2126V25.698C166.63 24.6751 166.438 23.7116 166.052 22.8073C165.667 21.9178 165.148 21.1173 164.466 20.4503M162.939 27.2397C162.732 27.7289 162.45 28.1588 162.079 28.5294C161.724 28.9 161.294 29.1817 160.79 29.404C160.301 29.6116 159.767 29.7301 159.204 29.7301C158.64 29.7301 158.121 29.6264 157.632 29.404C157.143 29.1965 156.713 28.9 156.343 28.5294C155.972 28.1588 155.675 27.7289 155.468 27.2397C155.26 26.7505 155.142 26.2317 155.142 25.6683C155.142 25.105 155.246 24.5862 155.468 24.0822C155.675 23.593 155.972 23.1631 156.343 22.7925C156.713 22.4219 157.143 22.1402 157.632 21.9327C158.121 21.7251 158.64 21.6065 159.189 21.6065C159.737 21.6065 160.271 21.7103 160.775 21.9327C161.264 22.1402 161.694 22.4367 162.065 22.7925C162.42 23.1482 162.717 23.5781 162.924 24.0822C163.132 24.5714 163.236 25.105 163.236 25.6683C163.236 26.2317 163.132 26.7357 162.924 27.2397" fill="white"/>
<path d="M177.289 18.449H177.259C176.207 18.449 175.199 18.6566 174.25 19.0716C173.301 19.4867 172.486 20.0352 171.774 20.7468C171.063 21.4583 170.514 22.2737 170.099 23.2224C169.684 24.1711 169.491 25.1792 169.491 26.2465V31.2719C169.491 31.4942 169.536 31.7166 169.625 31.9241C169.714 32.1317 169.847 32.3096 169.995 32.4578C170.159 32.606 170.336 32.7246 170.544 32.8136C170.752 32.9025 170.989 32.947 171.226 32.947C171.463 32.947 171.671 32.9025 171.863 32.8136C172.056 32.7246 172.234 32.606 172.382 32.4578C172.53 32.3096 172.649 32.1317 172.738 31.9241C172.827 31.7166 172.857 31.4942 172.857 31.2719V26.202C172.857 25.5942 172.975 25.0309 173.212 24.5121C173.449 23.9784 173.761 23.5189 174.161 23.1334C174.561 22.7332 175.021 22.4219 175.555 22.1995C176.088 21.9772 176.651 21.8586 177.244 21.8586H177.274C177.511 21.8586 177.734 21.8141 177.956 21.7252C178.164 21.6362 178.356 21.5176 178.519 21.3694C178.682 21.2211 178.801 21.0433 178.905 20.8357C178.994 20.6282 179.038 20.4058 179.038 20.1686C179.038 19.6794 178.89 19.2792 178.579 18.9679C178.267 18.6566 177.837 18.4935 177.274 18.4935" fill="white"/>
<path d="M192.261 20.4354C191.594 19.7684 190.809 19.2347 189.904 18.8493C189 18.4638 188.036 18.2711 187.014 18.2711C185.991 18.2711 185.042 18.4638 184.138 18.8493C183.233 19.2347 182.448 19.7684 181.781 20.4354C181.099 21.1173 180.565 21.903 180.18 22.7925C179.779 23.6967 179.587 24.6455 179.587 25.6832C179.587 26.7209 179.779 27.6548 180.18 28.559C180.58 29.4633 181.114 30.249 181.781 30.9309C182.448 31.6128 183.233 32.1316 184.138 32.5319C185.042 32.9173 185.991 33.11 187.014 33.11C187.77 33.11 188.496 32.9766 189.178 32.7246C189.875 32.4726 190.512 32.1168 191.105 31.6721C191.194 32.0427 191.387 32.3392 191.668 32.5764C191.95 32.8136 192.291 32.9321 192.691 32.9321C192.928 32.9321 193.151 32.8877 193.373 32.7987C193.581 32.7098 193.773 32.5764 193.922 32.4281C194.07 32.2799 194.203 32.0872 194.292 31.8796C194.381 31.6721 194.426 31.4497 194.426 31.2126V25.698C194.426 24.6751 194.233 23.7116 193.847 22.8073C193.462 21.9178 192.943 21.1173 192.261 20.4503M190.734 27.2397C190.527 27.7289 190.245 28.1588 189.875 28.5294C189.519 28.9 189.089 29.1817 188.585 29.404C188.096 29.6116 187.562 29.7301 186.999 29.7301C186.435 29.7301 185.917 29.6264 185.427 29.404C184.938 29.1965 184.508 28.9 184.138 28.5294C183.767 28.1588 183.471 27.7289 183.263 27.2397C183.056 26.7505 182.937 26.2317 182.937 25.6683C182.937 25.105 183.041 24.5862 183.263 24.0822C183.471 23.593 183.767 23.1631 184.138 22.7925C184.508 22.4219 184.938 22.1402 185.427 21.9327C185.917 21.7251 186.435 21.6065 186.999 21.6065C187.562 21.6065 188.081 21.7103 188.585 21.9327C189.074 22.1402 189.504 22.4367 189.875 22.7925C190.23 23.1482 190.527 23.5781 190.734 24.0822C190.942 24.5714 191.046 25.105 191.046 25.6683C191.046 26.2317 190.942 26.7357 190.734 27.2397Z" fill="white"/>
<path d="M203.883 30.0711C203.735 29.908 203.557 29.7894 203.35 29.6856C203.142 29.5967 202.92 29.5374 202.683 29.5374C202.164 29.5374 201.734 29.404 201.408 29.1371C201.067 28.8703 200.904 28.4552 200.904 27.9216V14.5502C200.904 14.3131 200.859 14.0907 200.755 13.8832C200.667 13.6756 200.533 13.4977 200.37 13.3495C200.207 13.2012 200.029 13.0827 199.822 12.9937C199.614 12.9048 199.392 12.8603 199.155 12.8603C198.917 12.8603 198.71 12.9048 198.517 12.9937C198.324 13.0827 198.146 13.2012 197.998 13.3495C197.85 13.4977 197.731 13.6756 197.642 13.8832C197.554 14.0907 197.509 14.3131 197.509 14.5502V28.0253C197.524 28.7517 197.672 29.4188 197.939 30.0118C198.206 30.6196 198.576 31.1236 199.051 31.5535C199.525 31.9834 200.059 32.3095 200.681 32.5467C201.304 32.7839 201.956 32.9025 202.668 32.9025C203.157 32.9025 203.557 32.7542 203.869 32.4429C204.18 32.1316 204.343 31.7314 204.343 31.257C204.343 31.0346 204.298 30.8123 204.224 30.6047C204.135 30.3972 204.032 30.2193 203.883 30.0562" fill="white"/>
<path d="M218.278 20.3909C217.596 19.7239 216.81 19.205 215.906 18.8196C215.002 18.4342 214.053 18.2415 213.03 18.2415C212.007 18.2415 211.044 18.4342 210.139 18.8196C209.235 19.205 208.449 19.7387 207.767 20.4058C207.1 21.0729 206.552 21.8585 206.166 22.7628C205.766 23.6671 205.573 24.6306 205.573 25.6535C205.573 26.6764 205.766 27.6399 206.166 28.5442C206.552 29.4485 207.1 30.2341 207.767 30.9012C208.435 31.5683 209.235 32.102 210.139 32.5022C211.044 32.8877 212.007 33.0804 213.03 33.0804C213.623 33.0804 214.157 33.0359 214.631 32.947C215.105 32.858 215.535 32.7394 215.906 32.5912C216.291 32.4429 216.617 32.2799 216.914 32.0872C217.21 31.8944 217.462 31.7017 217.685 31.4942C217.878 31.346 218.026 31.1681 218.129 30.9754C218.233 30.7826 218.293 30.5899 218.322 30.3972C218.352 30.2045 218.337 30.0118 218.293 29.8191C218.248 29.6264 218.174 29.4485 218.07 29.2854C217.922 29.0482 217.744 28.8555 217.507 28.7073C217.285 28.559 217.018 28.4849 216.721 28.4849C216.543 28.4849 216.365 28.5146 216.158 28.5887C215.965 28.648 215.758 28.7666 215.55 28.9C214.942 29.4633 214.097 29.745 213.03 29.745C212.6 29.745 212.2 29.6857 211.814 29.5671C211.429 29.4485 211.073 29.2706 210.762 29.0482C210.436 28.8259 210.154 28.559 209.917 28.2329C209.665 27.9216 209.487 27.5658 209.354 27.1804H218.841C219.345 27.1804 219.745 27.0321 220.042 26.7357C220.353 26.4392 220.501 26.0538 220.501 25.5794C220.501 24.5565 220.279 23.6078 219.894 22.7183C219.493 21.8289 218.96 21.058 218.278 20.3909ZM209.235 24.3935C209.354 23.9784 209.532 23.6078 209.769 23.2668C210.006 22.9259 210.302 22.6442 210.629 22.3922C210.969 22.155 211.34 21.9623 211.77 21.8289C212.185 21.6955 212.645 21.6362 213.119 21.6362C213.593 21.6362 214.053 21.6955 214.468 21.8289C214.898 21.9475 215.283 22.1402 215.624 22.3774C215.965 22.6146 216.262 22.911 216.499 23.252C216.736 23.593 216.929 23.9784 217.033 24.4083H209.235V24.3935Z" fill="white"/>
<path d="M225.527 24.1415C225.749 23.6523 226.031 23.2224 226.401 22.8518C226.757 22.4812 227.187 22.1847 227.676 21.9623C228.165 21.74 228.669 21.6362 229.203 21.6362C229.677 21.6362 230.122 21.7103 230.537 21.8585C230.967 22.0068 231.397 22.244 231.827 22.5701C232.049 22.748 232.286 22.9111 232.538 23.0593C232.79 23.2075 233.072 23.2817 233.369 23.2817C233.546 23.2817 233.724 23.252 233.917 23.1779C234.11 23.1038 234.302 22.9852 234.51 22.8073C234.703 22.6442 234.836 22.4515 234.925 22.244C235.014 22.0364 235.058 21.8141 235.058 21.5769C235.058 21.3397 234.999 21.1025 234.895 20.8802C234.792 20.643 234.643 20.4354 234.436 20.2279C233.798 19.5756 233.028 19.0864 232.138 18.7603C231.249 18.4342 230.315 18.2711 229.351 18.2711C228.314 18.2711 227.335 18.4638 226.431 18.8493C225.512 19.2347 224.726 19.7684 224.029 20.4354C223.347 21.1025 222.799 21.8882 222.414 22.8073C222.013 23.7116 221.821 24.69 221.821 25.7276H221.835C221.835 25.7276 221.835 25.7425 221.821 25.7573C221.821 26.795 222.013 27.7585 222.414 28.6628C222.814 29.5671 223.347 30.3379 224.029 31.005C224.711 31.6721 225.512 32.1909 226.431 32.5764C227.35 32.947 228.314 33.1397 229.351 33.1397C230.33 33.1397 231.264 32.9618 232.138 32.6208C233.028 32.2799 233.784 31.7759 234.436 31.1236C234.629 30.9161 234.777 30.6937 234.881 30.4713C234.984 30.249 235.029 30.0118 235.029 29.7746C235.029 29.5374 234.999 29.3151 234.91 29.1075C234.821 28.9 234.688 28.7073 234.51 28.559C234.302 28.3812 234.095 28.2477 233.902 28.1736C233.709 28.0995 233.517 28.055 233.339 28.055C233.042 28.055 232.761 28.1291 232.509 28.2774C232.257 28.4256 232.02 28.5887 231.812 28.7666C231.382 29.1372 230.937 29.3744 230.507 29.5226C230.078 29.656 229.588 29.7301 229.025 29.7301C228.491 29.7301 227.987 29.5967 227.513 29.3595C227.039 29.1224 226.638 28.811 226.283 28.4404C225.942 28.0698 225.66 27.6399 225.452 27.1508C225.245 26.6764 225.156 26.1872 225.156 25.698H225.171C225.171 25.1495 225.275 24.6455 225.497 24.1563" fill="white"/>
<path d="M249.69 28.6777C249.379 28.396 249.023 28.2626 248.652 28.2626C248.415 28.2626 248.178 28.3219 247.97 28.4257C247.748 28.5295 247.555 28.6777 247.377 28.8408C247.007 29.1669 246.621 29.3893 246.191 29.5375C245.761 29.6857 245.302 29.745 244.813 29.745C244.249 29.745 243.731 29.6413 243.227 29.4337C242.737 29.2262 242.307 28.9445 241.937 28.5887C241.581 28.233 241.285 27.8179 241.077 27.3287C240.869 26.8395 240.766 26.3355 240.766 25.787V21.8438H246.176C246.414 21.8438 246.636 21.7993 246.844 21.7104C247.051 21.6214 247.229 21.5028 247.392 21.3546C247.54 21.2063 247.674 21.0285 247.763 20.8209C247.852 20.6134 247.896 20.4058 247.896 20.1687C247.896 19.9315 247.852 19.7091 247.763 19.5016C247.674 19.294 247.555 19.1162 247.392 18.9531C247.229 18.8048 247.051 18.6714 246.844 18.5825C246.636 18.4935 246.414 18.4491 246.176 18.4491H240.766V15.7363C240.766 15.4991 240.721 15.2767 240.632 15.0692C240.543 14.8616 240.425 14.6837 240.277 14.5207C240.128 14.3724 239.95 14.239 239.743 14.1501C239.535 14.0611 239.328 14.0167 239.105 14.0167C238.883 14.0167 238.661 14.0611 238.453 14.1501C238.246 14.239 238.068 14.3576 237.905 14.5207C237.756 14.6689 237.623 14.8616 237.534 15.0692C237.445 15.2767 237.401 15.4991 237.401 15.7363V25.7277C237.401 26.7506 237.593 27.7141 237.979 28.6184C238.364 29.5078 238.898 30.2935 239.58 30.9606C240.247 31.6277 241.033 32.1465 241.937 32.532C242.841 32.9174 243.805 33.1101 244.828 33.1101C245.761 33.1101 246.636 32.9619 247.437 32.6506C248.252 32.3392 248.963 31.8945 249.586 31.2867C249.779 31.1088 249.912 30.9013 250.016 30.6789C250.12 30.4566 250.179 30.2194 250.194 29.9674C250.209 29.7302 250.179 29.493 250.105 29.2558C250.031 29.0335 249.897 28.8259 249.705 28.6629" fill="white"/>
<path d="M261.712 26.8839C261.46 26.3947 261.134 25.9796 260.704 25.6239C260.289 25.2681 259.8 24.9568 259.237 24.7196C258.673 24.4676 258.095 24.2601 257.487 24.0673C257.117 23.9487 256.776 23.845 256.45 23.756C256.138 23.6671 255.872 23.5633 255.634 23.4596C255.412 23.3558 255.234 23.2372 255.101 23.1038C254.967 22.9704 254.908 22.8073 254.908 22.6146C254.908 22.244 255.086 21.9623 255.427 21.7844C255.768 21.6065 256.287 21.5176 256.954 21.5176C257.221 21.5176 257.473 21.5324 257.68 21.5769C257.888 21.6065 258.095 21.6658 258.288 21.74C258.481 21.8141 258.673 21.903 258.851 22.0068C259.029 22.1106 259.237 22.2292 259.444 22.3626C259.637 22.4515 259.83 22.4812 259.993 22.4812C260.215 22.4812 260.423 22.4367 260.6 22.3477C260.793 22.2588 260.956 22.1254 261.104 21.9623C261.297 21.7548 261.416 21.4879 261.46 21.1618C261.505 20.8357 261.46 20.5096 261.297 20.1686C261.119 19.8276 260.867 19.5312 260.541 19.294C260.215 19.0568 259.83 18.8493 259.415 18.701C258.999 18.5528 258.555 18.449 258.08 18.3749C257.606 18.3156 257.161 18.2711 256.731 18.2711C255.975 18.2711 255.279 18.3749 254.641 18.5676C254.004 18.7751 253.455 19.0568 252.996 19.4422C252.536 19.8128 252.18 20.2724 251.914 20.806C251.647 21.3397 251.528 21.9327 251.528 22.5849C251.528 23.2372 251.647 23.756 251.914 24.2156C252.166 24.6603 252.492 25.0606 252.892 25.3867C253.292 25.7128 253.722 25.9945 254.196 26.2168C254.671 26.4392 255.13 26.6467 255.575 26.8394C255.827 26.9284 256.124 27.0173 256.479 27.1508C256.835 27.2693 257.176 27.4028 257.502 27.5658C257.828 27.7141 258.11 27.892 258.332 28.0698C258.555 28.2477 258.673 28.4553 258.673 28.6628C258.673 28.8555 258.614 29.0186 258.525 29.1668C258.421 29.3151 258.288 29.4337 258.11 29.5374C257.932 29.6412 257.725 29.7153 257.502 29.7746C257.28 29.8339 257.028 29.8636 256.776 29.8636C256.479 29.8636 256.213 29.8339 255.946 29.7746C255.679 29.7153 255.427 29.6264 255.204 29.5226C254.982 29.4188 254.775 29.2854 254.582 29.152C254.389 29.0038 254.241 28.8555 254.108 28.7073C253.841 28.4701 253.574 28.2922 253.292 28.1884C253.025 28.0847 252.759 28.0254 252.521 28.0254C252.24 28.0254 251.988 28.0847 251.75 28.2181C251.513 28.3367 251.335 28.5146 251.202 28.7369C251.069 28.9593 251.009 29.2261 251.009 29.5078C251.009 29.7894 251.098 30.1156 251.291 30.4713C251.558 30.9754 251.899 31.3904 252.314 31.7314C252.744 32.0723 253.203 32.3392 253.707 32.5615C254.211 32.7691 254.73 32.9173 255.264 33.0063C255.797 33.0952 256.301 33.1397 256.776 33.1397C257.547 33.1397 258.258 33.0211 258.896 32.7839C259.533 32.5467 260.096 32.2354 260.556 31.8203C261.03 31.4201 261.386 30.9457 261.653 30.3972C261.92 29.8487 262.053 29.2706 262.053 28.648C262.053 27.9809 261.935 27.4028 261.683 26.9136" fill="white"/>
</svg>
