<svg width="20" height="16" viewBox="0 0 20 16" fill="none" xmlns="http://www.w3.org/2000/svg">
<path fillRule="evenodd" clipRule="evenodd" d="M2.93775 2H0.750191C0.125032 2 0 2.2971 0 2.62552C0 3.21061 0.741188 6.11486 3.45388 9.95486C5.26134 12.5782 7.80898 14 10.1266 14C11.5179 14 11.69 13.6837 11.69 13.1411V11.1584C11.69 10.5268 11.822 10.4005 12.2621 10.4005C12.5872 10.4005 13.1423 10.5642 14.4417 11.8284C15.925 13.328 16.1691 14 17.0033 14H19.1919C19.817 14 20.1301 13.6837 19.9491 13.0602C19.752 12.4397 19.0438 11.5384 18.1036 10.4702C17.5935 9.86189 16.8293 9.20606 16.5972 8.87764C16.2721 8.45625 16.3652 8.26931 16.5972 7.8944C16.5972 7.8944 19.2629 4.10088 19.541 2.81246C19.681 2.34459 19.541 2 18.8788 2H16.6912C16.1351 2 15.878 2.2971 15.739 2.62552C15.739 2.62552 14.6267 5.36505 13.0503 7.14459C12.5402 7.65996 12.3081 7.82467 12.0301 7.82467C11.891 7.82467 11.69 7.65996 11.69 7.19208V2.81246C11.69 2.25061 11.5289 2 11.0648 2H7.62594C7.27885 2 7.0698 2.26072 7.0698 2.50829C7.0698 3.04084 7.858 3.16413 7.93902 4.66274V7.91764C7.93902 8.63208 7.81198 8.76143 7.53291 8.76143C6.79173 8.76143 4.98727 6.00876 3.917 2.85996C3.70694 2.24758 3.49689 2 2.93775 2Z" fill="#676767"/>
</svg>
