<svg width="639" height="856" viewBox="0 0 639 856" fill="none" xmlns="http://www.w3.org/2000/svg">
<g opacity="0.07">
<path d="M32.5801 147.375C-7.2544 172.328 -55.594 178.545 -108.963 172.175C-129.452 169.732 -150.864 165.068 -170.901 156.464C-197.172 145.187 -221.354 127.311 -239.992 105.895C-266.055 75.9441 -278.95 37.1149 -269.484 5.50467C-258.236 -32.0227 -219.921 -51.8425 -184.591 -67.0625C-173.758 -71.7343 -162.456 -75.3157 -150.915 -78.4048C-133.584 -83.0297 -115.714 -86.5353 -98.0478 -90.917C-91.4777 -92.5509 -84.2046 -94.8049 -82.5627 -100.911C-81.1353 -106.189 -84.7011 -112.746 -89.7822 -117.203C-94.8634 -121.66 -101.204 -124.438 -107.4 -126.942C-126.291 -134.574 -145.632 -140.8 -163.908 -150.244C-182.179 -159.694 -199.774 -172.992 -209.563 -189.995C-213.265 -196.413 -215.782 -203.38 -215.548 -209.897C-215.315 -216.413 -212.041 -222.411 -206.034 -224.927C-197.074 -228.673 -184.96 -224.214 -174.467 -219.47C-143.256 -205.352 -113.133 -187.929 -85.0338 -167.731C-67.7639 -155.322 -51.1158 -141.778 -32.4968 -131.657C-18.9821 -124.308 3.43174 -115.606 25.692 -118.62C33.8894 -119.731 37.5398 -121.963 47.3782 -121.198C51.6005 -120.873 66.9346 -119.477 82.1286 -108.208C86.8256 -104.722 104.248 -91.5657 103.74 -77.2872C103.489 -70.151 98.435 -64.5685 91.7185 -62.0184C85.0152 -59.469 76.8547 -59.6356 68.8627 -61.1205C58.3312 -63.0814 47.9332 -67.22 37.5011 -70.6595C-46.0554 -98.2751 -130.272 -78.6143 -178.626 -27.2163C-199.604 -4.91998 -216.021 31.5619 -200.49 66.6071C-174.031 126.302 -93.9078 143.96 -45.9365 123.811C-29.9732 117.103 -16.23 107.381 -3.96151 96.3985C6.22783 87.2867 13.6068 74.2821 31.9664 77.685C43.1745 79.7506 53.4026 89.5345 57.1097 99.8052C60.8216 110.069 58.7878 120.413 53.7263 128.383C48.6611 136.34 40.8158 142.218 32.5801 147.375Z" fill="#492C7C" stroke="black" stroke-width="0.139585" stroke-miterlimit="10"/>
<path d="M384.297 171.006C379.509 135.389 358.227 99.5566 324.041 88.5026C304.798 82.2872 280.803 82.874 269.017 66.4425C260.487 54.54 262.343 38.4098 267.007 24.2669C267.432 22.9698 267.881 21.6957 268.345 20.4371C268.764 19.3122 269.232 18.2332 269.738 17.185C273.475 9.44565 279.254 3.2915 281.13 -5.91908C283.105 -15.6784 282.201 -26.0632 278.15 -35.1927C271.153 -50.9672 255.77 -62.0935 239.083 -66.4738C212.116 -73.5562 192.439 -64.2197 174.011 -45.3952C160.344 -31.434 146.429 -13.481 125.722 -10.6801C110.11 -8.57246 95.0535 -16.0522 80.1975 -21.2834C59.467 -28.5848 34.6915 -33.1538 12.7 -30.0273C-7.74684 -27.1213 -28.1026 -15.7485 -43.101 -1.89846C-44.5168 -0.49917 -45.8694 0.961692 -47.166 2.48407C-66.4779 25.123 -72.8751 61.0005 -54.5327 86.333C-47.5172 96.0238 -37.2497 102.8 -28.9535 111.422C-5.96609 135.326 -0.314348 170.702 1.90638 203.796C4.12699 236.882 4.39462 271.51 19.9169 300.813C44.5953 347.381 101.396 367.653 154.025 370.376C211.937 373.372 272.03 359.115 317.619 323.279C346.948 300.226 369.342 267.583 379.512 231.934C385.156 212.176 387.055 191.495 384.297 171.006ZM300.984 205.589C288.073 246.272 261.97 277.333 227.413 301.558C214.147 310.86 199.368 318.975 183.699 323.344C163.157 329.074 140.998 328.646 120.607 322.504C92.0912 313.914 67.5701 291.396 59.5014 262.19C49.928 227.511 64.1595 191.56 78.6074 160.736C83.0352 151.28 88.2153 142.399 93.751 133.763C102.071 120.803 111.197 108.402 119.821 95.4452C123.027 90.6233 126.382 84.9466 124.713 79.4064C123.274 74.6133 118.306 71.5666 113.346 70.9436C108.386 70.3209 103.404 71.6611 98.6268 73.1306C84.0625 77.6141 69.8398 83.4133 54.8562 86.1832C39.8728 88.9454 23.6236 88.4127 10.418 80.8088C5.42919 77.9423 0.908411 74.0126 -1.7784 68.927C-4.46521 63.8415 -5.11624 57.495 -2.62823 52.3093C1.08508 44.5782 10.236 41.3715 18.5448 39.2655C43.2612 33.0058 68.763 29.8532 94.2629 29.9145C109.933 29.9482 125.725 31.1843 141.206 28.7424C152.445 26.9718 169.572 21.3832 181.527 6.96501C185.929 1.65437 187.135 -2.03254 193.328 -6.80943C195.985 -8.86236 205.726 -16.1524 219.664 -15.8557C223.975 -15.7618 240.059 -15.2422 245.949 -4.10206C248.894 1.4641 248.304 8.4643 245.409 14.0631C242.521 19.6541 237.587 23.9725 232.182 27.1962C225.057 31.4409 217.067 33.9562 209.361 37.0219C147.605 61.5259 105.959 122.358 99.441 187.803C96.6121 216.194 102.653 252.892 127.103 271.096C168.754 302.1 224.146 271.89 243.987 230.43C250.589 216.631 254.561 201.748 257.107 186.709C259.226 174.227 257.982 160.313 270.396 152.901C277.969 148.367 288.305 150.24 294.968 156.035C301.63 161.822 304.904 170.8 305.345 179.62C305.778 188.433 303.653 197.179 300.984 205.589ZM203.628 167.822C195.625 179.111 182.589 180.457 175.439 180.269C170.761 180.15 165.77 179.019 162.64 175.536C157.973 170.342 159.226 162.322 160.773 155.51C162.247 149.019 163.765 142.442 166.939 136.596C169.528 131.831 173.873 125.919 181.651 123.931C182.422 123.731 191.216 121.641 198.82 127.147C203.481 130.519 205.298 135.017 206.408 137.868C207.232 139.974 212.953 154.651 203.628 167.822Z" fill="#C8AED3" stroke="black" stroke-width="0.139585" stroke-miterlimit="10"/>
<path d="M95.1298 630.432C128.577 613.891 156.715 580.792 156.106 542.987C155.773 521.723 147.144 497.947 159.358 480.749C169.022 467.149 187.796 464.256 204.42 464.871C211.766 465.146 218.318 467.72 225.416 468.747C227.861 469.092 230.367 469.258 232.999 469.08C233.545 469.053 234.106 468.995 234.663 468.93C244.929 467.683 254.853 463.338 262.481 456.282C275.658 444.076 281.447 425.038 280.157 406.925C278.075 377.654 262.276 361.079 237.559 348.9C219.22 339.861 196.869 331.902 187.168 312.148C179.842 297.25 182.159 279.742 182.319 263.171C182.541 240.052 178.725 213.8 168.26 192.873C162.927 182.196 155.091 172.39 146.013 163.993C138.554 157.08 130.258 151.128 121.828 146.433C92.4988 131.375 51.1777 135.685 31.1286 164.177C23.9382 174.388 20.724 186.881 15.0195 198.009C-0.791678 228.864 -33.7317 246.205 -65.5581 259.361C-97.3842 272.517 -131.384 284.219 -155.016 309.41C-192.582 349.448 -193.463 412.879 -178.466 466.34C-161.975 525.168 -127.756 580.471 -77.1724 614.16C-35.8155 641.704 17 652.939 64.3901 641.528C74.9681 638.983 85.2778 635.307 95.1298 630.432ZM112.965 222.08C121.476 223.138 127.43 230.791 132.073 237.997C145.878 259.433 156.987 282.603 165.05 306.795C170.009 321.659 173.866 337.023 181.111 350.921C186.368 361.01 197.12 375.465 214.595 382.206C221.031 384.688 224.91 384.657 231.411 389.007C234.203 390.871 244.215 397.784 248.373 411.091C249.657 415.207 254.287 430.619 245.602 439.75C241.264 444.314 234.44 445.985 228.211 445.023C221.991 444.066 216.326 440.764 211.549 436.667C205.256 431.265 200.328 424.492 194.967 418.163C152.072 367.427 81.1439 347.321 17.0315 361.985C-10.7822 368.344 -43.6466 385.758 -53.1155 414.732C-69.2416 464.088 -22.9643 506.976 22.6564 512.58C37.8394 514.443 53.2117 513.469 68.2785 511.093C80.7861 509.126 93.5794 503.517 104.559 512.924C111.268 518.659 112.785 529.053 109.413 537.214C106.049 545.373 98.5818 551.336 90.3606 554.563C82.1443 557.78 73.1776 558.551 64.3551 558.698C21.6786 559.416 -16.0784 544.564 -50.047 519.521C-63.0898 509.908 -75.4887 498.482 -84.6197 485.02C-96.5935 467.373 -103.244 446.232 -103.916 424.946C-104.855 395.179 -91.3179 364.764 -66.2019 347.814C-36.3774 327.695 2.23345 329.737 36.0543 333.616C46.4274 334.802 56.4959 336.884 66.4458 339.381C81.38 343.14 96.0422 347.842 111.071 351.891C116.662 353.394 123.112 354.767 127.832 351.42C131.918 348.53 133.223 342.85 132.234 337.95C131.245 333.051 128.388 328.754 125.474 324.694C116.586 312.316 106.559 300.68 99.1615 287.359C91.7715 274.035 87.1016 258.463 90.1041 243.523C91.2327 237.881 93.518 232.344 97.4833 228.178C101.448 224.011 107.257 221.373 112.965 222.08ZM69.1513 454.384C55.9019 450.393 50.4741 438.464 48.3756 431.626C46.9988 427.154 46.481 422.062 48.7862 417.986C52.2236 411.908 60.2248 410.542 67.1749 409.839C73.7969 409.169 80.5155 408.514 87.0675 409.661C92.4089 410.597 99.3967 412.833 103.758 419.574C104.194 420.241 108.976 427.911 106.178 436.873C104.466 442.365 100.781 445.52 98.4311 447.48C96.6976 448.931 84.6062 459.029 69.1513 454.384Z" fill="#492C7C" stroke="black" stroke-width="0.139585" stroke-miterlimit="10"/>
</g>
</svg>
