<svg width="205" height="64" viewBox="0 0 205 64" fill="none"
  xmlns="http://www.w3.org/2000/svg">
  <path d="M98.3403 63.7H83.2446L83.1756 8.75875V7.53452C83.1756 7.87292 83.1855 8.23123 83.1855 8.58955L83.1658 0H92.3592L98.3403 63.7Z" fill="#7E5FAA"/>
  <path d="M83.2445 63.7H51.7668L62.2791 0H83.1656L83.2445 63.7Z" fill="#7E5FAA"/>
  <path d="M43.6686 63.7H0.269893L0.200928 7.9625V0H28.1613L43.6686 63.7Z" fill="#7E5FAA"/>
  <path d="M62.2988 0L55.1954 43.0473L54.2496 48.8002L51.7866 63.7H43.6684L28.1611 0H62.2988Z" fill="#7E5FAA"/>
  <path d="M129.224 0L119.973 63.7H98.3379L92.3577 0H129.224Z" fill="#7E5FAA"/>
  <path d="M155.313 63.7H119.963L129.215 0H144.525L155.313 63.7Z" fill="#7E5FAA"/>
  <path d="M172.919 63.7H155.313L144.525 0H172.84L172.919 63.7Z" fill="#7E5FAA"/>
  <path d="M204.83 7.9625V63.7H172.919L172.84 0H204.82L204.83 7.9625Z" fill="#7E5FAA"/>
  <path d="M92.1023 15.3379H86.6631V48.7804H92.1023V15.3379Z" fill="#7E5FAA"/>
  <path d="M90.7529 14.1416H85.2739V49.0537H90.7529V14.1416Z" fill="white"/>
  <path d="M80.1804 44.2419H82.1607V48.7806H78.3282C77.1952 48.7806 76.2691 48.4919 75.5401 47.9146C74.8209 47.3473 74.4563 46.561 74.4563 45.5756V45.4761H73.6485C73.4613 45.924 73.1263 46.4714 72.6534 47.1084C72.1805 47.7454 71.4613 48.3028 70.4859 48.7806C69.5401 49.2185 68.2396 49.4474 66.6042 49.4474C64.9687 49.4474 63.481 49.1588 62.1609 48.5815C60.8308 47.9843 59.7766 47.1184 58.9885 46.0036C58.2298 44.8889 57.8555 43.5253 57.8555 41.893C57.8555 40.2607 58.2298 38.9668 58.9885 37.8819C59.7766 36.797 60.8505 35.9908 62.2101 35.4434C63.5599 34.876 65.1066 34.5874 66.8406 34.5874H73.5992V33.1541C73.5992 31.91 73.2248 30.9047 72.4662 30.1483C71.7076 29.3521 70.5253 28.9539 68.9194 28.9539C67.3135 28.9539 66.151 29.3321 65.3234 30.0985C64.5352 30.8251 64.0229 31.7806 63.7668 32.965L58.752 31.2929C59.1362 30.0488 59.7274 28.9141 60.555 27.8989C61.4022 26.8837 62.5254 26.0675 63.9047 25.4604C65.2938 24.8234 66.9983 24.5049 69.018 24.5049C72.0721 24.5049 74.4662 25.2912 76.2002 26.8439C77.9735 28.3766 78.8504 30.6061 78.8504 33.5324V42.8087C78.8504 43.7642 79.2937 44.2419 80.1804 44.2419Z" fill="#7E5FAA"/>
  <path d="M80.2835 44.3903C79.2208 44.3903 79.2208 44.0451 79.2208 42.6369V33.4713C79.2208 30.545 78.4028 27.6506 76.6294 26.1178C74.8955 24.5651 72.0025 23.4385 68.9483 23.4385C66.9286 23.4385 64.9901 23.6164 62.8309 24.8671C60.6717 26.1178 60.6258 26.71 59.7786 27.7252C58.951 28.7404 58.3249 30.5802 57.9406 31.8243L62.8309 33.4713C63.087 32.2868 64.0657 30.1484 65.6982 29.1145C66.5258 28.3481 67.9639 28.2643 69.5402 28.2643C71.1165 28.2643 72.5259 29.3004 73.087 30.1484C73.8456 30.9048 73.9605 31.6163 73.9605 32.8604V33.7903H67.2249C65.491 33.7903 63.913 33.9934 62.5633 34.5607C61.2037 35.1081 58.2594 36.3407 58.2593 37.9347C57.5007 39.0196 57.3296 41.0444 57.3296 42.6369C57.3296 44.2294 58.2977 45.4542 59.0563 46.569C59.8445 47.6837 61.0737 48.3628 62.4037 48.96C63.7239 49.5373 66.1904 49.9337 67.7171 49.7039C70.4359 49.2947 70.3579 49.2186 71.3037 48.7807C72.2495 48.3427 72.5765 48.1862 73.4283 47.4157C74.032 46.8696 74.2909 46.6322 74.4781 46.1843L74.5689 46.4972L74.8105 46.9941C75.209 47.4723 75.2868 47.6754 76.006 48.2427C76.7351 48.82 77.6626 49.0395 78.7956 49.0395H82.0103V44.3903H80.2835Z" fill="white"/>
  <path d="M73.801 39.5816C73.4281 41.919 72.8354 42.4584 71.7022 43.5135C70.5592 44.5287 68.9465 44.899 67.1433 44.899C65.8229 44.899 64.8309 44.6932 64.0722 44.1159C63.3233 43.5088 62.5806 42.7967 62.5806 41.8412C62.5806 40.8857 63.0447 39.7603 63.7739 39.2427C64.4932 38.7351 66.2028 38.2991 68.2488 38.2991L71.3834 38.2988L73.9604 38.4657L73.801 39.5816Z" fill="#7E5FAA"/>
  <path d="M27.8768 35.881H18.1809L22.6249 18.9209H23.4329L27.8768 35.881Z" fill="#7E5FAA"/>
  <path d="M27.8768 35.881H18.1809L22.6249 18.9209H23.4329L27.8768 35.881Z" fill="#7E5FAA"/>
  <path d="M14.8706 48.7807L16.8512 41.1367H29.1977L31.1882 48.7807H14.8706Z" fill="#7E5FAA"/>
  <path d="M18.2206 35.8811L16.8608 41.1364L18.2305 35.8811H18.2206ZM22.206 18.921H23.443L26.3729 28.7963L31.4117 26.8986L27.4413 14.099L22.9601 14.0986" fill="white"/>
  <path d="M38.2492 48.9817H32.5541L29.9572 40.5682H16.9116L18.3088 35.5109H28.4537L26.3673 28.7822L31.4172 26.874L38.2492 48.9817Z" fill="white"/>
  <path d="M21.3605 25.3691L18.7334 33.866L17.6262 38.0373L16.828 40.8181L14.2275 49.0575H8.51147L19.3315 14.1044H24.809L21.3605 25.3691Z" fill="white"/>
  <path d="M55.1975 29.9395V43.0477L54.2516 48.8006H41.5208V48.7708H46.9599V35.1051C46.9599 34.0103 47.157 33.0946 47.5314 32.3581C47.7581 31.9201 48.0635 31.5419 48.4281 31.2334C48.4577 31.2035 48.4872 31.1836 48.5267 31.1537C48.6548 31.0442 48.7829 30.9447 48.9208 30.8651C49.039 30.7755 49.1671 30.6959 49.2952 30.6262C49.4332 30.5466 49.581 30.4769 49.7288 30.4172C50.458 30.0987 51.3054 29.9395 52.2612 29.9395H55.1975Z" fill="#7E5FAA"/>
  <path d="M51.6691 25.1016C50.8217 25.1712 50.0728 25.3803 49.4224 25.7386C48.6046 26.1865 48.0232 26.9031 47.6685 27.8884H46.8704V25.1613V25.1016H51.6691Z" fill="#7E5FAA"/>
  <path d="M55.1975 25.1016V29.9388H52.2612C50.6846 29.9388 49.4036 30.3767 48.4281 31.2327C47.4526 32.0588 46.9599 33.3527 46.9599 35.1045V48.7701H41.5208V25.1613H46.8713V27.8884H47.6694C48.0241 26.9031 48.6055 26.1865 49.4233 25.7386C50.0737 25.3803 50.8225 25.1712 51.67 25.1016H55.1975Z" fill="#7E5FAA"/>
  <path d="M55.5901 24.0393V28.9802H52.0099C50.4826 28.9802 50.2287 29.1007 49.6872 29.3501C49.0489 29.644 48.548 29.7788 47.7639 30.933C47.2172 31.7379 46.9394 33.3327 46.9394 35.0845L46.8901 27.8883V26.0066C46.8901 26.0066 47.5272 25.474 47.5272 25.464C48.2225 24.9718 48.5628 24.7351 49.6872 24.3939C50.1618 24.2499 50.8906 24.0781 51.8323 24.0393C52.7044 24.0034 53.5487 24.0393 53.7852 24.0393L55.5901 24.0393Z" fill="white"/>
  <path d="M46.9305 36.8763V48.9354H41.6958V24.0771H46.8713L46.8517 27.8986H46.8714L46.9305 36.8763Z" fill="white"/>
  <path d="M120.111 38.2934H101.325C101.385 40.1446 102.54 42.1499 103.772 43.2646C105.003 44.3794 107.571 44.6697 109.374 44.6697C112.017 44.6697 112.243 43.9883 113.319 43.0279C114.395 42.0676 114.542 41.5287 115.489 40.1084L120.111 42.2783C119.668 43.1343 118.901 44.2519 118.054 45.2373C117.206 46.2227 116.605 47.3151 115.016 48.0779C113.627 48.7448 112.685 49.3683 109.887 49.6166C107.088 49.8649 104.47 49.4273 102.667 48.4419C100.903 47.4267 99.0952 46.4812 98.0903 44.6697C97.115 42.8184 96.1177 40.8477 95.9204 38.5485V35.7289C95.9204 33.2506 96.9572 30.883 97.9325 29.0616C98.9079 27.2501 100.893 25.7857 102.667 24.8004C104.43 23.7752 106.713 23.6562 109.019 23.6562C111.324 23.6562 113.074 24.0521 114.779 25.0772C116.473 26.0626 118.133 28.1967 119.079 30.0082C120.025 31.8296 120.342 33.3003 120.342 35.7289L120.111 38.2934Z" fill="white"/>
  <path d="M114.713 33.602H101.498C101.744 32.0394 103.291 30.1094 103.845 29.7114C104.507 29.2364 105.623 28.4033 108.608 28.4033C109.983 28.4033 111.823 28.997 112.868 29.9127C113.942 30.8383 114.585 32.0394 114.713 33.602Z" fill="#7E5FAA"/>
  <path d="M143.943 38.4959C143.697 40.0884 143.013 41.8022 141.998 42.8174C141.023 43.8127 139.539 44.719 137.618 44.719C136.318 44.719 135.201 44.7737 133.791 44.1746C132.654 43.608 131.758 43.0676 130.805 41.7369C130.233 40.6222 129.552 39.3736 129.552 37.3719V36.0754C129.552 34.8686 129.801 33.2642 130.545 31.8833C131.362 30.3674 132.699 29.3936 133.636 28.999C134.751 28.5294 136.319 28.3243 137.618 28.412C139.212 28.5197 139.984 28.9045 140.831 29.3823C141.697 29.9968 142.39 30.7447 142.863 31.5808C143.336 32.377 143.589 33.7417 143.717 34.7271L148.968 33.6322C148.682 31.9103 148.052 30.1451 147.076 28.7716C146.091 27.3782 145.067 26.265 143.467 25.1418C141.617 23.8423 139.351 23.5859 137.114 23.5859C134.878 23.5859 132.378 23.9697 130.545 24.9252C128.723 25.8807 127.072 27.5608 126.008 29.3823C124.963 31.1937 124.329 32.8669 124.207 36.2855L124.329 38.9327C124.888 42.3211 125.743 43.7448 126.785 44.9589C128.212 46.6206 129.371 47.5667 131.194 48.5222C133.026 49.4776 135.352 49.6458 137.618 49.6458C139.884 49.6458 141.618 49.0496 143.195 48.2534C144.8 47.4273 146.091 46.3225 147.076 44.9589C148.052 43.5854 148.593 41.2286 148.968 39.5764L143.943 38.4959Z" fill="white"/>
  <path d="M194.301 38.1833C193.652 37.1513 192.608 36.4056 191.47 35.7218C190.081 35.2142 188.557 34.6641 186.823 34.3456L185.328 34.0352C184.165 33.8362 183.832 33.763 182.45 33.4144C181.067 33.0659 179.966 32.7823 179.741 31.2412C179.515 29.7002 180.248 28.9842 181.631 28.448C183.014 27.9119 184.501 28.1647 185.497 28.307C186.493 28.4492 187.416 28.8149 188.534 29.7002C189.165 30.508 189.23 31.4782 189.476 32.8219L194.527 31.6931C194.047 29.3792 193.116 27.1218 191.282 25.7673C189.448 24.4128 188.77 23.9896 184.876 23.5098C181.49 23.5099 178.736 24.2793 177.032 25.5135C175.357 26.7576 174.548 28.952 174.548 31.2412C174.548 33.1887 175.189 34.2792 176.439 35.7218C177.267 36.6773 178.806 37.1541 180.136 37.7314C181.456 38.2689 183.431 38.658 185.037 38.9765L186.505 39.2154C187.953 39.4941 188.749 40.0038 189.439 40.4118C190.071 41.0192 189.984 41.7263 189.984 42.2181C189.984 42.7099 189.563 43.6178 189.165 43.9112C188.436 44.4487 187.67 44.8142 186.367 45.038C185.382 45.038 184.453 45.038 183.381 44.8706C182.308 44.7033 181.081 44.2927 180.136 43.3468C179.057 42.1334 178.49 40.1908 178.273 38.9765L173.335 40.1018C173.749 42.6796 174.488 45.5404 176.439 46.8741C178.39 48.2078 180.559 49.8092 185.892 49.6399C189.796 49.516 191.072 48.6863 192.806 47.3825C194.54 46.0786 194.922 44.7577 195.204 42.2181C195.204 40.5958 194.95 39.2154 194.301 38.1833Z" fill="white"/>
  <path d="M170.356 28.8831V24.2649H162.693V15.8271H157.24L157.375 24.2649H150.486V28.7259H157.24V43.614C157.24 45.2753 157.705 46.5874 158.625 47.5715C159.587 48.5238 160.859 49 162.451 49H169.255V44.1749H164.333C162.451 44.1749 162.693 44.3603 162.693 42.6878V28.8831H170.356Z" fill="white"/>
</svg>
