<?xml version="1.0" encoding="UTF-8"?>
<svg id="Layer_1" xmlns="http://www.w3.org/2000/svg" version="1.1" viewBox="0 0 48 52">
  <!-- Generator: Adobe Illustrator 29.0.1, SVG Export Plug-In . SVG Version: 2.1.0 Build 192)  -->
  <defs>
    <style>
      .st0, .st1 {
        fill: #7247ac;
      }

      .st0, .st1, .st2 {
        stroke: #1f1f1f;
        stroke-miterlimit: 10;
      }

      .st0, .st2 {
        stroke-width: .2px;
      }

      .st1 {
        stroke-width: .2px;
      }

      .st2 {
        fill: #c29cf0;
      }
    </style>
  </defs>
  <path class="st1" d="M43.7,16.9c-.5-.5-1.8-1.9-4.8-2.2-1.3-.2-2.3-.4-3-.5-1.4-.2-2.2-.2-3.5-.6-1.3-.3-1.8-.6-2.2-.9-.3-.2-.9-.7-1.3-1.5-.2-.4-.3-.7-.3-1.2,0-.2,0-.5,0-.9v-.2c0-.8,0-1.1,0-2.6,0-.6,0-1.1-.4-1.7,0,0,0,0,0-.1l-3.2-1.4s0,0,0,0c-.2,0-.4,0-.6,0-.8,0-1.8-.1-3.1,0-3.4.4-6.2,1.5-7,1.9,0,0-.2,0-.3.1-3.5,1.5-5.8,3.5-6.9,4.5-1.9,1.7-2.9,3.1-4.4,5.4-.2.3-1.3,1.8-1.7,3.5-.1.6-.2,1.1-.2,1.9,0,.8,0,1,.2,1.3.3.5.7.7.9.8.5.2,1.1.2,2.2,0,1.3-.3,2.4-.6,2.9-.8,1.2-.4,2.2-.7,2.2-.7,1.2-.4,1.6-.6,2.4-.8,1-.2,1.5,0,1.8.2.4.2.6.6.7.9.9,1.9.5,4.2.5,4.2-.3,2.6-1.2,4.7-1.8,6.1-.7,1.6-.8,1.3-2.9,5.2-1.8,3.2-2.1,4.1-2.4,5.4-.1.7-.3,2.1,0,3.9.2,1.1.4,2.4,1.5,3.5.3.3,1,1,2,1.3,1.1.3,2,0,3.1-.4.4-.1,1.5-.5,3.5-1.8,1.6-1.1,1.5-1.3,3.7-2.8,1.6-1.1,1.4-.9,2.2-1.5,1-.8,1.3-1.3,2-1.3.8,0,1.4.5,1.7.7.7.6.8,1.2,1.3,2.6.7,1.9,1,2.8,1.4,3,1.5,1,4.7-1.4,5.2-1.8.7-.5,2.5-2.1,3.5-4.7.1-.3.2-.7.3-1.1.3-1.3,0-1.3.4-4.2.2-1.9.4-3.3.9-4.8.4-1.2,1.2-3,2.9-5,2.2-2.5,3-8.1.6-11.1ZM22,33.3c.6-1.9,1.7-3.5,3.9-3.8,1.3,2.7-1.2,8.9-3.3,10.8-1.7-2.3-1.4-4.7-.6-7ZM35.8,37.8c-.4.4-1,.6-1.6.8-.6.2-1.1-.1-1.4-.7-.2-.6-.3-1.1.2-1.7,1.3-1.3,2.7-2.2,4.3-3.1.5-.3,1,.2.9.7-.5,1.5-1.3,2.8-2.4,3.9ZM39.1,30c0,1.3-.6,2.1-1.8,2.7-1.2.6-2.4,1.4-3.6,2.2-.4.3-1,0-1-.5h0c0-1.8.2-3.6,0-5.3-.4-3.7-2.7-6.1-5.7-8-.6-.4-1.3-.7-1.9-1,.7-2.8,3.5-4.6,6.9-4.7.6,0,.9.8.3,1.2h0c-1.5.9-1.5,2.9-.1,3.9.5.3,1,.6,1.5.8,1.6.7,3,1.8,4.2,3.1,1.5,1.6,1.3,3.6,1.2,5.7h0ZM24.9,4c.7.1,1.3.3,1.4,1.1.1.7-.4,1.6-1,1.9-.5.2-1.1.4-1.6.7-.6.3-1,.7-.8,1.4.2.7.6,1.1,1.3,1.2.3,0,.7,0,1,0,0,0,0,0,0,0,.5,0,1,0,1.5.2.6.2.8.7.4,1.2-2,2.3-4.2,4.3-7.4,4.8-1.4.2-2-.5-1.4-1.8.4-.9,1.1-1.6,1.7-2.4.2-.3.4-.7.7-1-.3-.2-.7-.4-1-.6-.2,0-.5-.1-.7-.2-1.3-.5-1.7-1.7-1.1-2.9,1-1.8,4.8-3.7,6.8-3.4Z"/>
  <path class="st2" d="M46.2,14.2c-.4-.5-1.7-1.8-4.5-2.1-1.2-.2-2.2-.4-2.9-.5-1.4-.2-2.1-.2-3.3-.5-1.2-.3-1.7-.6-2.1-.9-.3-.2-.9-.6-1.2-1.4-.3-.6-.3-1-.4-1.9,0-.9,0-1.1,0-2.6,0-.6,0-1.1-.3-1.6-.2-.2-.4-.4-.6-.6-.9-.6-2-.7-3.1-.9-.8-.1-1.7-.1-3,0-3.3.3-5.9,1.5-6.6,1.8-1.7.7-3.1,1.5-4.2,2.3-1.2.8-2.1,1.6-2.6,2.1-1.8,1.6-2.7,3-4.2,5.1-.2.3-1.2,1.8-1.6,3.4-.1.6-.2,1.1-.2,1.8,0,.7,0,1,.2,1.2.2.4.7.6.9.7.5.2,1,.2,2.1,0,1.3-.2,2.3-.5,2.8-.7,1.1-.4,2.1-.7,2.1-.7,1.1-.4,1.5-.6,2.3-.7.9-.1,1.4,0,1.8.2.4.2.6.6.7.9.8,1.8.5,4.1.5,4.1-.3,2.5-1.1,4.5-1.7,5.8-.7,1.5-.7,1.2-2.8,5-1.7,3-2,3.9-2.3,5.1-.1.6-.3,2,0,3.7.2,1.1.4,2.3,1.4,3.3.3.3.9,1,1.9,1.2,1,.3,1.9,0,3-.3.4-.1,1.5-.5,3.3-1.8,1.5-1,1.4-1.2,3.5-2.6,1.5-1,1.4-.8,2.1-1.4,1-.8,1.3-1.2,1.9-1.2.8,0,1.4.5,1.6.7.6.6.8,1.2,1.2,2.5.6,1.8,1,2.7,1.3,2.9,1.5,1,4.5-1.3,5-1.7.1-.1.3-.3.6-.5,1-.9,2.5-2.5,3.1-5,.3-1.3,0-1.2.3-4,.2-1.8.4-3.1.9-4.6.4-1.1,1.2-2.9,2.8-4.8,2-2.3,2.8-7.8.5-10.6ZM32.8,37.9c-.2-.6-.3-1.1.2-1.7,1.3-1.3,2.7-2.2,4.3-3.1.5-.3,1,.2.9.7-.5,1.5-1.3,2.8-2.4,3.9-.4.4-1,.6-1.6.8-.6.2-1.1-.1-1.4-.7ZM37.3,32.7c-1.2.6-2.4,1.4-3.6,2.2-.4.3-1,0-1-.5h0c0-1.8.2-3.6,0-5.3-.4-3.7-2.7-6.1-5.7-8-.6-.4-1.3-.7-1.9-1,.7-2.8,3.5-4.6,6.9-4.7.6,0,.9.8.3,1.2h0c-1.5.9-1.5,2.9-.1,3.9.5.3,1,.6,1.5.8,1.6.7,3,1.8,4.2,3.1,1.5,1.6,1.3,3.6,1.2,5.7h0c0,1.3-.6,2.1-1.8,2.7ZM18.5,14.6c.4-.9,1.1-1.6,1.7-2.4.2-.3.4-.7.7-1-.3-.2-.7-.4-1-.6-.2,0-.5-.1-.7-.2-1.3-.5-1.7-1.7-1.1-2.9,1-1.8,4.8-3.7,6.8-3.4.7.1,1.3.3,1.4,1.1.1.7-.4,1.6-1,1.9-.5.2-1.1.4-1.6.7-.6.3-1,.7-.8,1.4.2.7.6,1.1,1.3,1.2.3,0,.7,0,1,0,0,0,0,0,0,0,.5,0,1,0,1.5.2.6.2.8.7.4,1.2-2,2.3-4.2,4.3-7.4,4.8-1.4.2-2-.5-1.4-1.8ZM22,33.3c.6-1.9,1.7-3.5,3.9-3.8,1.3,2.7-1.2,8.9-3.3,10.8-1.7-2.3-1.4-4.7-.6-7Z"/>
  <path class="st0" d="M26.4,29.2c-.5-1.4-1.8-1.9-3-1.1-.9.6-1.9,1.3-2.5,2.2-1.7,2.5-2.2,5.5-2.5,8.5-.1,1.3,0,2.5,1.4,3.1,1,.5,2.2.1,3.3-1.1,2.3-2.6,3.5-5.8,3.8-9.6-.1-.5-.2-1.3-.4-2.1ZM22.6,40.3c-1.7-2.3-1.4-4.7-.6-7,.6-1.9,1.7-3.5,3.9-3.8,1.3,2.7-1.2,8.9-3.3,10.8Z"/>
  <path class="st0" d="M38.5,22.3c-1.1-1.9-2.9-2.7-4.8-3.4-.7-.3-1.4-.6-2.3-1,.5-.4.7-.7,1-.8.5-.3,1.1-.6,1.6-1,.7-.5.8-1,0-1.3-.9-.4-1.8-.8-2.7-.8-2.4.2-4.5,1.3-6.2,3.1-1.3,1.3-1,3,.6,3.8.3.2.6.3.9.4,3.1,1.8,5.5,4.2,5.9,8.1.1,1.5,0,3,0,4.5,0,1-.3,2.1-.2,3.2,0,1.9,1.4,2.6,3.1,1.8.3-.2.7-.3.9-.6.9-1.2,2-2.4,2.4-3.8.7-2.1,1-4.3,1.2-6.5.2-2-.2-4-1.2-5.8ZM38.2,33.9c-.5,1.5-1.3,2.8-2.4,3.9-.4.4-1,.6-1.6.8-.6.2-1.1-.1-1.4-.7-.2-.6-.3-1.1.2-1.7,1.3-1.3,2.7-2.2,4.3-3.1.5-.3,1,.2.9.7ZM39.1,30c0,1.3-.6,2.1-1.8,2.7-1.2.6-2.4,1.4-3.6,2.2-.4.3-1,0-1-.5h0c0-1.8.2-3.6,0-5.3-.4-3.7-2.7-6.1-5.7-8-.6-.4-1.3-.7-1.9-1,.7-2.8,3.5-4.6,6.9-4.7.6,0,.9.8.3,1.2h0c-1.5.9-1.5,2.9-.1,3.9.5.3,1,.6,1.5.8,1.6.7,3,1.8,4.2,3.1,1.5,1.6,1.3,3.6,1.2,5.7h0Z"/>
  <path class="st0" d="M28.6,9.3v-.2c-.2-.2-.4-.4-.8-.4-.9-.1-1.9,0-2.9,0-.5,0-1,0-1.4,0,0-.1,0-.2,0-.4.6-.3,1.2-.6,1.8-.9.8-.4,1.6-.7,2.3-1.2.6-.4.8-1,.6-1.6-.1-.2-.3-.4-.5-.5-.8-.5-1.7-.7-2.7-.8h0s0,0,0,0c-2.6.4-4.8,1.4-6.6,3.4-1.4,1.5-.9,3.4,1.1,4.1.4.1.7.3,1.1.4-.7.8-1.4,1.6-2,2.4-.5.8-.9,1.8-.2,2.6.6.8,1.6.6,2.4.4,3.3-1,5.8-3.1,7.8-5.9.1-.1.2-.3.2-.5,0,0,0-.1,0-.1,0-.2,0-.5,0-.9ZM27.3,11.6c-2,2.3-4.2,4.3-7.4,4.8-1.4.2-2-.5-1.4-1.8.4-.9,1.1-1.6,1.7-2.4.2-.3.4-.7.7-1-.3-.2-.7-.4-1-.6-.2,0-.5-.1-.7-.2-1.3-.5-1.7-1.7-1.1-2.9,1-1.8,4.8-3.7,6.8-3.4.7.1,1.3.3,1.4,1.1.1.7-.4,1.6-1,1.9-.5.2-1.1.4-1.6.7-.6.3-1,.7-.8,1.4.2.7.6,1.1,1.3,1.2.3,0,.7,0,1,0,0,0,0,0,0,0,.5,0,1,0,1.5.2.6.2.8.7.4,1.2Z"/>
</svg>