<?xml version="1.0" encoding="UTF-8"?>
<svg id="Layer_1" xmlns="http://www.w3.org/2000/svg" version="1.1" viewBox="0 0 87 80">
  <!-- Generator: Adobe Illustrator 29.0.1, SVG Export Plug-In . SVG Version: 2.1.0 Build 192)  -->
  <defs>
    <style>
      .st0 {
        fill: #ff858a;
      }

      .st0, .st1 {
        stroke: #1f1f1f;
        stroke-miterlimit: 11.6;
        stroke-width: .2px;
      }

      .st1 {
        fill: #ff1651;
      }
    </style>
  </defs>
  <path class="st1" d="M73.3,15.2c0-.2,0-.4,0-.6-.6-2.6-3.4-5.8-4.3-7.6-1.6-3-4.8-5-8.1-5.7-1.4-.3-2.9-.4-4.4-.4-1.9,0-3.8.3-5.7.7-.7.1-1.4.3-2.1.4-7,1.4-11.3,2.6-13.8,6-4.8,6.3,2.7,12.8-.9,21.2-4.2,9.8-16.8,7.3-20.5,16.7-3.5,8.8,4.3,19,5.8,20.8,4.8,6,11.9,9.8,18.2,11.3,0,0,0,0,0,0,.5.1,1,.2,1.6.3,0,0,0,0,0,0,5.1,1,9.4.4,11.1-1.8,2.2-2.7-1.5-6.2.6-14.6.4-1.8,2.2-9.1,6.7-10.1.8-.2,1.7,0,2.6.1.2,0,.4,0,.6.2,2.8.8,4.6-2.6,4.2-6.2-1-9,3.7-13,5.4-16.5,2.2-4.6,2.3-5.3,2.7-6.8.5-1.9.7-4.8.4-7.4ZM47.1,49.5c-2.3,2.1-5,3.8-7.9,8-1.5,2.1-4.4,6.5-3.1,10.5.3.9.8,2.7,2.3,3.6.6.3,1.2.6,1.7.8.5.2.8.4.9.8,0,.3-.2.7-.4.9-.5.3-1.1,0-1.8-.2-2.3-.6-3.7-2.1-4.3-2.7-.5-.5-1.4-1.5-1.9-3-.2-.5-.3-1.1-.4-1.8-.6-6.9,3.7-13.2,7.9-18.8,4.2-5.5,8.7-11.6,8.5-18.6,0-2.9-1-5.6-1.5-8.5-.5-2.8-.6-5.8.6-8.2.4-.7.9-1.6,2-2.1,1.1-.5,2.5-.2,3.3.2,1.2.6,1.6,1.8,1.8,2.2,1.3,3.3,5.4,25-7.6,36.8Z"/>
  <path class="st0" d="M73.2,14.6c0-1-.2-1.7-.3-2.1-.6-1.9-1.2-3.9-2.2-5.8-1.6-3-4.6-5-8-5.7-2.2-.5-4.5-.5-6.8-.3-1.1.1-2.3.3-3.4.5-1.4.3-2.7.5-3.9.8-6,1.3-9.8,2.6-12.1,5.7-4.8,6.4,2.8,12.9-.9,21.5-4.2,9.9-16.9,7.4-20.7,16.9-3.5,8.8,4.3,19.1,5.8,21.1,4.3,5.4,10.4,9,16.2,10.8,0,0,0,0,0,0,.7.2,1.4.4,2,.6,0,0,0,0,0,0,5.9,1.5,11.1,1,12.9-1.4,2.2-2.8-1.5-6.2.6-14.8.4-1.9,2.2-10.5,6.8-10.2.2,0,.5,0,.7,0,3.2-.3,3.8-4.7,3.5-7.4-.6-5.8,2.3-9.4,3.2-10.8,5.8-8.8,6.7-15.8,6.5-19.3ZM34.4,71.2c-.5-.5-1.4-1.5-1.9-3-.2-.5-.3-1.1-.4-1.8-.6-6.9,3.7-13.2,7.9-18.8,4.2-5.5,8.7-11.6,8.5-18.6,0-2.9-1-5.6-1.5-8.5-.5-2.8-.6-5.8.6-8.2.4-.7.9-1.6,2-2.1,1.1-.5,2.5-.2,3.3.2,1.2.6,1.6,1.8,1.8,2.2,1.3,3.3,5.4,25-7.6,36.8-2.3,2.1-5,3.8-7.9,8-1.5,2.1-4.4,6.5-3.1,10.5.3.9.8,2.7,2.3,3.6.6.3,1.2.6,1.7.8.5.2.8.4.9.8,0,.3-.2.7-.4.9-.5.3-1.1,0-1.8-.2-2.3-.6-3.7-2.1-4.3-2.7Z"/>
  <path class="st1" d="M58.6,14.5c-1.3-3.8-3-4.9-4-5.3-1.5-.6-3.4-.6-5.1.2-1.6.9-2.4,2.2-2.8,3-1.2,2.2-1.4,4.6-.6,8.4.5,2.8,1.4,5.6,1.5,8.4.2,6.9-4.3,13-8.5,18.6-4.2,5.5-8.5,11.8-7.9,18.8,0,.7.2,1.3.4,1.8.5,1.5,1.4,2.4,1.9,2.9.5.6,1.9,2,4.3,2.7.7.2,1.8.5,2.5.2.6-.3.8-.8.7-1.2,0-.4-.8-.7-1.1-1.1-.5-.5-.4-1.2-.5-1.9-.2-5.3,3.1-10.5,3.1-10.5,2.9-4.3,6.2-6.1,8-8,9.2-9.6,12.4-24.5,8.1-37.1ZM47.1,49.5c-2.3,2.1-5,3.8-7.9,8-1.5,2.1-4.4,6.5-3.1,10.5.3.9.8,2.7,2.3,3.6.6.3,1.2.6,1.7.8.5.2.8.4.9.8,0,.3-.2.7-.4.9-.5.3-1.1,0-1.8-.2-2.3-.6-3.7-2.1-4.3-2.7-.5-.5-1.4-1.5-1.9-3-.2-.5-.3-1.1-.4-1.8-.6-6.9,3.7-13.2,7.9-18.8,4.2-5.5,8.7-11.6,8.5-18.6,0-2.9-1-5.6-1.5-8.5-.5-2.8-.6-5.8.6-8.2.4-.7.9-1.6,2-2.1,1.1-.5,2.5-.2,3.3.2,1.2.6,1.6,1.8,1.8,2.2,1.3,3.3,5.4,25-7.6,36.8Z"/>
</svg>