<?xml version="1.0" encoding="UTF-8"?>
<svg id="Layer_1" xmlns="http://www.w3.org/2000/svg" version="1.1" viewBox="0 0 76 67">
  <!-- Generator: Adobe Illustrator 29.0.1, SVG Export Plug-In . SVG Version: 2.1.0 Build 192)  -->
  <defs>
    <style>
      .st0, .st1 {
        stroke-width: .2px;
      }

      .st0, .st1, .st2 {
        stroke: #1f1f1f;
        stroke-miterlimit: 10;
      }

      .st0, .st3 {
        fill: #7247ac;
      }

      .st1 {
        fill: none;
      }

      .st2 {
        fill: #c29cf0;
        stroke-width: .2px;
      }
    </style>
  </defs>
  <path class="st0" d="M74.8,19.1c-1.1-5.5-5.5-9.5-9.8-13.1,0,0-.2-.1-.2-.2-1.6-1.3-3.4-2.7-5.3-3.3-1-.3-2.1-.3-3.2,0-2.1.7-3.5,2.7-5.3,3.9-5.3,3.6-13.7.3-18.2,4.9-1.6,1.7-2.3,4.1-3.2,6.3-.9,2.2-2.4,4.4-4.7,5-2.1.5-4.2-.6-6.2-1.6-.9-.4-1.8-.8-2.7-1h0c0,0,0,0-.1,0-4-.8-8,2.1-9.8,5.9-1.8,3.7-1.8,8-1.4,12.1,0,.6,0,1.3,0,2v5.2c0,3.9,0,7.9,1.2,11.2,1,2.7,3.1,4.9,5.6,6.4,1.6,1,3.4,1.8,5.3,2.2,11.1,2.8,21.5-1.8,31.5-6.1,3.6-1.6,7.2-3.3,10.8-4.9,2.6-1.2,5.2-2.5,7-4.6,3.3-3.9,3.3-9,4.4-13.8,1.3-5.9,5.6-10,4.3-16.6ZM42.7,19.5c2.4,4.6-6,4.1-5.3,8,.5,4.3,9.1-.7,7.9,3.9-4.5,8.3-22.9,15.4-11.4,0-13.7-2.7,2.6-16.9,8.9-11.9ZM23.8,41.8c-2,4.1-4.7-.8-5.9.7-1.5,1.2-1.5,3.3-.8,5.1.9,2.4,3.6,3.7,6.1,3.7s5-.9,7.1-1.9c1.8-.8,3.2-2.3,5-3,2.1-.9,4.5-.5,6.7-.2,2.2.4,4.6.7,6.7-.2.3-.1.6-.3.8-.4h0c1.7-1.1,1.8-2.7,2.2-4.6.4-2,1.4-4,2.2-5.8,2-4.3,4.2-9.1,3-13.8-.5-1.9-1.5-3.7-2.2-5.5-.8-1.8-1.3-3.8-.8-5.8,0-.3.2-.6.3-.9.5-.4,1.7-1.3,2.9-1,.9.2,1.4,1,1.5,1.2,1.3,2,7.2,16,.1,25.9-1.2,1.7-2.8,3.3-4.2,6.5-2.2,5.3-1.7,10.7-8.1,12.8-3.2,1-6.2.9-9.4.5-3.2-.3-6.4,1-9.3,2.4-3.8,1.9-8.1,4-12.2,2.8-2.6-.8-4.7-2.9-6.2-5.2-1.8-2.8-3.1-6-3.3-9.3-.2-3.3.9-6.8,3.2-9.2,2.3-2.4,5.9-3.5,9.1-2.5,1.4.5,2.7,1.4,3.6,2.6,1.1,1.4,1.7,3.2,1.5,5.1Z"/>
  <path class="st2" d="M72.2,17.5c-1.1-5.4-5.6-9.4-10-13,0,0-.2-.1-.2-.2-.8-.6-1.6-1.3-2.5-1.8-1.9-1.2-4.1-2.1-6.2-1.4-2.2.7-3.6,2.7-5.4,3.9-5.5,3.6-14,.3-18.6,4.9-1.7,1.7-2.4,4.1-3.3,6.3-1,2.2-2.5,4.4-4.8,5-.8.2-1.7.2-2.5,0-.9-.2-1.8-.6-2.7-1h0c-1.3-.6-2.7-1.3-4.1-1.5-4.1-.7-8.2,2.2-10,5.8C0,28.1,0,32.4.4,36.4c.5,5.8-.8,12.8,1.3,18.3,1.6,4.1,5.5,6.9,9.8,8.2.4.1.8.2,1.3.3,11.4,2.7,22-1.8,32.2-6.1,3.7-1.6,7.4-3.2,11.1-4.9,2.6-1.2,5.3-2.5,7.2-4.6,3.4-3.9,3.4-9,4.5-13.6,1.4-5.8,5.7-10,4.4-16.5ZM46.8,54.7c-3.2,1-6.2.9-9.4.5-3.2-.3-6.4,1-9.3,2.4-3.8,1.9-8.1,4-12.2,2.8-2.6-.8-4.7-2.9-6.2-5.2-1.8-2.8-3.1-6-3.3-9.3-.2-3.3.9-6.8,3.2-9.2,2.3-2.4,5.9-3.5,9.1-2.5,1.4.5,2.7,1.4,3.6,2.6,1.1,1.4,1.7,3.2,1.5,5.1-2,4.1-4.7-.8-5.9.7-1.5,1.2-1.5,3.3-.8,5.1.9,2.4,3.6,3.7,6.1,3.7s5-.9,7.1-1.9c1.8-.8,3.2-2.3,5-3,2.1-.9,4.5-.5,6.7-.2,2.2.4,4.6.7,6.7-.2.3-.1.6-.3.8-.4h0c1.7-1.1,1.8-2.7,2.2-4.6.4-2,1.4-4,2.2-5.8,2-4.3,4.2-9.1,3-13.8-.5-1.9-1.5-3.7-2.2-5.5-.8-1.8-1.3-3.8-.8-5.8,0-.3.2-.6.3-.9.5-.4,1.7-1.3,2.9-1,.9.2,1.4,1,1.5,1.2,1.3,2,7.2,16,.1,25.9-1.2,1.7-2.8,3.3-4.2,6.5-2.2,5.3-1.7,10.7-8.1,12.8ZM42.7,19.5c2.4,4.6-6,4.1-5.3,8,.5,4.3,9.1-.7,7.9,3.9-4.5,8.3-22.9,15.4-11.4,0-13.7-2.7,2.6-16.9,8.9-11.9Z"/>
  <path class="st0" d="M61.7,36.2c-.2.2-1.3,1-2.6,2.5-.7.7-1.4,1.5-2.2,2.7-.9,1.3-1.4,2.5-1.8,3.5-1,2.4-.7,2.6-1.5,4.3-.3.8-1.2,2.9-3,4.5-1.3,1.1-2.5,1.7-5,2.3-3.4.8-6.9,1.1-10.1,2.5-1.3.6-2.5,1.3-3.8,2-4.3,2.2-9.5,2.8-14.1,1.6-4.7-1.3-8.8-4.5-11-8.9-1.2-2.4-1.7-5-1.9-7.7,0-1.8,0-3.5,0-5.2.2-1.2.6-2.4,1.3-3.5,3-4.5,10.2-3.8,10.9-3.8.7.1,2.7.6,4.3,2.4.5.5.8,1,1.1,1.5-.9-1.2-2.2-2.1-3.6-2.6-3.2-1-6.8.1-9.1,2.5-2.3,2.4-3.4,5.8-3.2,9.2.2,3.3,1.5,6.5,3.3,9.3,1.5,2.3,3.6,4.4,6.2,5.2,4.1,1.3,8.3-.9,12.2-2.8,2.8-1.4,6-2.7,9.3-2.4,3.2.3,6.2.5,9.4-.5,6.5-2.1,6-7.5,8.1-12.8,1.3-3.3,2.9-4.8,4.2-6.5,7.1-9.9,1.2-23.8-.1-25.9-.2-.3-.7-1-1.5-1.2-1.2-.3-2.5.6-2.9,1-.1.3-.3.6-.3.9-.5,1.9,0,3.9.8,5.8.8,1.8,1.8,3.6,2.2,5.5,1.1,4.7-1,9.4-3,13.8-.9,1.8-1.8,3.8-2.2,5.8-.4,1.9-.5,3.6-2.2,4.6.6-.8,1-1.8,1.2-2.9.5-2.6,1.6-5,2.7-7.4,2-4.3,4.2-9.1,3-13.8-.5-1.9-1.5-3.7-2.2-5.5-1-2.5-1.2-4.1-.8-5.8.2-.6.5-1.6,1.4-2.4,1-.8,2.3-1.1,3.3-.9.8.1,2,.6,3.5,3,4.4,7.4,3.6,23.1-.1,26.2Z"/>
  <path class="st3" d="M45.7,26.2c-1.6,0-3.3.3-5,.4-.8,0-1.7.1-2.5.2,0-.2-.1-.4-.2-.6,1-.6,2.1-1.2,3.1-1.8,1.3-.8,2.8-1.3,4-2.3,1.8-1.5,1.2-4.1-1-4.9-.7-.2-1.5-.4-2.3-.3-5.1.8-9.6,2.9-13,7-2.3,2.8-1.2,6,2.3,7.1.7.2,1.3.4,2,.6-1.2,1.6-2.3,2.9-3.2,4.5-.9,1.5-1.4,3.2-.2,4.7,1.2,1.4,2.9.9,4.3.4,5.8-2.1,9.9-6.1,13.1-11.2.2-.3.3-.6.3-.9.5-1.6,0-2.7-1.7-2.8ZM45.3,31.4c-4.5,8.3-22.9,15.4-11.4,0-13.7-2.7,2.6-16.9,8.9-11.9,2.4,4.6-6,4.1-5.3,8,.5,4.3,9.1-.7,7.9,3.9Z"/>
  <path class="st1" d="M41.7,29.3h0M45.7,26.2c-1.6,0-3.3.3-5,.4-.8,0-1.7.1-2.5.2,0-.2-.1-.4-.2-.6,1-.6,2.1-1.2,3.1-1.8,1.3-.8,2.8-1.3,4-2.3,1.8-1.5,1.2-4.1-1-4.9-.7-.2-1.5-.4-2.3-.3-5.1.8-9.6,2.9-13,7-2.3,2.8-1.2,6,2.3,7.1.7.2,1.3.4,2,.6-1.2,1.6-2.3,2.9-3.2,4.5-.9,1.5-1.4,3.2-.2,4.7,1.2,1.4,2.9.9,4.3.4,5.8-2.1,9.9-6.1,13.1-11.2.2-.3.3-.6.3-.9.5-1.6,0-2.7-1.7-2.8ZM45.3,31.4c-4.5,8.3-22.9,15.4-11.4,0-13.7-2.7,2.6-16.9,8.9-11.9,2.4,4.6-6,4.1-5.3,8,.5,4.3,9.1-.7,7.9,3.9Z"/>
</svg>