<?xml version="1.0" encoding="UTF-8"?>
<svg id="Layer_1" xmlns="http://www.w3.org/2000/svg" version="1.1" viewBox="0 0 53 57">
  <!-- Generator: Adobe Illustrator 29.0.1, SVG Export Plug-In . SVG Version: 2.1.0 Build 192)  -->
  <defs>
    <style>
      .st0 {
        fill: #7247ac;
      }

      .st0, .st1, .st2 {
        stroke: #1f1f1f;
        stroke-miterlimit: 10;
      }

      .st0, .st2 {
        stroke-width: .2px;
      }

      .st1 {
        fill: #fff;
        stroke-width: .2px;
      }

      .st2 {
        fill: #c29cf0;
      }
    </style>
  </defs>
  <path class="st0" d="M48.8,18.5c0,0-.8-.9-.8-.9h0c0,0-.4-.3-.7-.6,1,2.8-1.4,8.7-3.4,10.5-1.7-2.3-1.4-4.7-.6-7,.6-1.8,1.6-3.4,3.6-3.7-.4-.2-1-.4-1-.4l-1-.3-.9-.2h-.6c0,0-.3,0-.3,0,0,0-.8,0-.9,0-1.4-.2-1.4-.2-2.2-.3-1.6-.2-2.5-.3-3.9-.6-.2,0-.4,0-.5-.2,0-.2-.1-.4-.2-.7,0,0,0-.2,0-.2-.1-.2-.2-.5-.3-.7,0,0,0-.2-.1-.2-.1-.2-.2-.5-.3-.7-.1-.3-.3-.5-.5-.8,0-.2-.2-.3-.3-.5-.2-.4-.5-.7-.8-1.1-.2-.2-.4-.4-.6-.6-.2-.2-.4-.4-.6-.6,0-.4,0-.9,0-1.7,0-.7,0-1.3-.4-1.8-.2-.3-.4-.5-.7-.7-1.1-.8-2.4-.9-3.7-1-1-.1-2-.2-3.5,0-3.8.4-7,1.7-7.8,2.1-.1,0-.2,0-.3.1-.3.1-.5.2-.8.4-3.5,1.6-5.8,3.6-6.9,4.6-2.1,1.9-3.2,3.5-4.9,5.9-.3.4-1.4,2-1.9,3.9-.2.7-.2,1.2-.2,2,0,.8,0,1.2.2,1.4.3.5.8.7,1,.8.6.3,1.2.2,2.5,0,1.5-.3,2.7-.6,3.3-.8,1.3-.4,2.5-.8,2.5-.8,1.3-.5,1.8-.7,2.7-.8,1.1-.2,1.6,0,2.1.2.4.3.7.7.8,1,1,2.1.6,4.7.6,4.7-.4,2.9-1.3,5.2-2.1,6.8-.8,1.7-.8,1.4-3.3,5.8-2,3.5-2.4,4.5-2.7,5.9-.1.7-.3,2.3,0,4.3.2,1.2.5,2.7,1.7,3.9.3.4,1.1,1.1,2.3,1.4,1.2.3,2.3,0,3.5-.4.4-.2,1.7-.6,3.9-2,1.8-1.2,1.7-1.4,4.1-3.1,1.8-1.2,1.6-1,2.5-1.6,1.1-.9,1.5-1.4,2.3-1.4.9,0,1.6.6,1.9.8.7.7.9,1.4,1.4,2.9.7,2.1,1.1,3.1,1.5,3.4,1.7,1.1,5.3-1.5,5.8-2,.8-.6,2.9-2.4,3.9-5.2h0c0-.1.1-.3.2-.4,0-.2.2-.5.2-.8.4-1.5,0-1.4.4-4.7.3-2.1.5-3.6,1-5.3.5-1.3,1.4-3.4,3.3-5.5h0c0-.1.2-.2.2-.3.3-.5.7-1,.9-1.6,1.5-3.1,1.7-7.8-.6-10.4ZM23,28.5c.3-1.5.9-3.7,2.1-3.6.3,0,.7.2,1.1.6.2.2.4.5.4.7,0,.2,0,.4,0,.6s0,.2,0,.3c0,0,0,0,0,.1-.3,2.3-3.7,2.8-4.3,5.1,0,0,0,.1,0,.2,0,.5,0,1.1.3,1.5,0,.2.2.3.3.5.8,1,2.2,1.5,3.5,1.2,2-.5,3.4-2.6,4.1-4.6.5-1.2.7-2.5.9-3.7,0-.2,0-.4,0-.6.4-4.3-.9-8.8-3.5-12.1-.7-.8-1.4-1.7-1.8-2.7-.1-.4-.2-.7-.2-1.1s0-.2,0-.3c.1-1,.7-1.8,2-1.8.6,0,1.2.3,1.6.6,3,2.2,4.8,5.7,5.5,9.4.6,3.5.3,7-.5,10.5-1.2,5.2-3.8,10.4-8.2,13.3-1.5,1-3.4,1.7-5.1,1.2-2.8-.8-3.9-4.5-3.1-7.3.6-2.5,2.4-3.9,3.8-6,.4-.6.7-1.2.8-2Z"/>
  <path class="st2" d="M51.3,15.6c-.5-.6-1.9-2-5.1-2.3-1.3-.2-2.5-.4-3.2-.5-1.5-.2-2.4-.2-3.7-.6-1.4-.4-1.9-.7-2.3-1-.3-.2-1-.7-1.4-1.6-.3-.6-.3-1.1-.4-2.1,0-1,0-1.2,0-2.9,0-.7,0-1.2-.4-1.8-.2-.3-.4-.5-.7-.7-1-.7-2.3-.8-3.5-1-.9-.1-1.9-.1-3.3,0-3.7.4-6.7,1.6-7.4,2-1.9.8-3.4,1.7-4.7,2.6-.1,0-.3.2-.4.3-1.2.8-2,1.5-2.6,2-2,1.8-3,3.3-4.7,5.7-.2.4-1.3,2-1.8,3.7-.2.7-.2,1.2-.2,2,0,.8,0,1.1.2,1.4.3.5.8.7,1,.8.6.2,1.1.2,2.3,0,1.4-.3,2.5-.6,3.1-.8,1.3-.4,2.3-.8,2.3-.8,1.3-.5,1.7-.7,2.6-.8,1-.2,1.5,0,2,.2.4.3.6.7.8,1,.9,2,.6,4.5.6,4.5-.4,2.8-1.3,5-2,6.4-.8,1.6-.8,1.3-3.1,5.5-1.9,3.3-2.3,4.3-2.5,5.7-.1.7-.3,2.2,0,4.1.2,1.2.5,2.5,1.6,3.7.3.3,1,1,2.1,1.4,1.2.3,2.2,0,3.3-.4.4-.1,1.7-.6,3.7-2,1.7-1.1,1.6-1.3,3.9-2.9,1.7-1.2,1.5-.9,2.3-1.6,1.1-.8,1.4-1.3,2.2-1.4.8,0,1.5.6,1.8.8.7.6.9,1.3,1.4,2.7.7,2,1.1,3,1.5,3.2,1.6,1.1,5-1.4,5.6-1.9.2-.1.4-.3.6-.5.2-.2.3-.3.5-.5,1-1,2.4-2.7,2.9-5,.4-1.4,0-1.3.4-4.5.2-2,.4-3.5,1-5.1.2-.6.5-1.3.9-2.1.2-.5.6-1,.9-1.6.4-.5.8-1.1,1.3-1.7,2.3-2.6,3.2-8.6.6-11.7ZM46.9,16.9c0,0,.1,0,.2,0,0,0,.2.1.3.2,1,2.8-1.4,8.7-3.4,10.5-1.7-2.3-1.4-4.7-.6-7,.6-1.8,1.6-3.4,3.6-3.7ZM26.5,42.6c-1.5,1-3.4,1.7-5.1,1.2-2.8-.8-3.9-4.5-3.1-7.3.6-2.5,2.4-3.9,3.8-6,.4-.6.7-1.2.8-2,.3-1.5.9-3.7,2.1-3.6.3,0,.7.2,1.1.6.2.2.4.5.4.7,0,.2,0,.4,0,.6s0,.2,0,.3c0,0,0,0,0,.1-.3,2.3-3.7,2.8-4.3,5.1,0,0,0,.1,0,.2,0,.5,0,1.1.3,1.5,0,.2.2.3.3.5.8,1,2.2,1.5,3.5,1.2,2-.5,3.4-2.6,4.1-4.6.5-1.2.7-2.5.9-3.7,0-.2,0-.4,0-.6.4-4.3-.9-8.8-3.5-12.1-.7-.8-1.4-1.7-1.8-2.7-.1-.4-.2-.7-.2-1.1s0-.2,0-.3c.1-1,.7-1.8,2-1.8.6,0,1.2.3,1.6.6,3,2.2,4.8,5.7,5.5,9.4.6,3.5.3,7-.5,10.5-1.2,5.2-3.8,10.4-8.2,13.3Z"/>
  <path class="st0" d="M35.5,29.5c-1.4,5.9-4.4,11.7-9.5,14.9-1.8,1.1-3.9,1.9-5.9,1.3-3.2-.9-4.5-5-3.6-8.2.9-3.2,4-4.9,5.1-7.8.5-1.2,1-6.2,3.5-4.9,0,0,0,0,0,0,.5,0,1.5.6,1.6,1.3,0,.3,0,.5,0,.7,0-.2,0-.4,0-.6,0-.3-.2-.5-.4-.7-.4-.4-.8-.6-1.1-.6-1.3,0-1.8,2.1-2.1,3.6-.2.7-.4,1.4-.8,2-1.4,2.2-3.3,3.5-3.8,6-.8,2.8.3,6.5,3.1,7.3,1.7.5,3.6-.2,5.1-1.2,4.4-2.9,7-8.1,8.2-13.3.8-3.4,1.1-7,.5-10.5-.7-3.7-2.5-7.2-5.5-9.4-.5-.3-1-.6-1.6-.6-1.3,0-1.9.8-2,1.8,0,.1,0,.2,0,.3-.8-1.2-.9-3.2.4-4.1,1.2-.8,2.8,0,3.9.8.4.3.8.7,1.2,1,.2.2.4.4.6.6.2.2.4.4.5.6.3.4.5.7.8,1.1.1.2.2.3.3.5.2.3.3.5.5.8.1.2.2.5.3.7,0,0,0,.1,0,.2.1.2.2.5.3.7,0,0,0,.1,0,.2,0,.2.2.4.2.7,1.6,4.6,1.4,9.9.2,14.6Z"/>
  <path class="st0" d="M48,17.7c0-.4-.2-.9-.3-1.4-.5-1.4-1.8-1.9-3.1-1.1-.2.1-.5.3-.7.5-.2.1-.3.2-.4.3,0,0-.2.1-.2.2,0,0,0,0,0,0-.4.4-.8.8-1.1,1.2-1.8,2.5-2.3,5.5-2.5,8.5-.1,1.3,0,2.5,1.4,3.2,1,.5,2.2.1,3.4-1.2,2.3-2.7,3.5-5.8,3.8-9.6h0c0-.2,0-.5-.1-.7ZM43.9,27.6c-1.7-2.3-1.4-4.7-.6-7,.6-1.8,1.6-3.4,3.6-3.7,0,0,.1,0,.2,0,0,0,.2.1.3.2,1,2.8-1.4,8.7-3.4,10.5Z"/>
  <path class="st1" d="M47.3,17.1c0,0-.2-.1-.3-.2,0,0,0,0-.2,0,.1,0,.2,0,.3,0,0,0,0,.2.1.3Z"/>
</svg>