<?xml version="1.0" encoding="UTF-8"?>
<svg id="Layer_1" xmlns="http://www.w3.org/2000/svg" version="1.1" viewBox="0 0 87 80">
  <!-- Generator: Adobe Illustrator 29.0.1, SVG Export Plug-In . SVG Version: 2.1.0 Build 192)  -->
  <defs>
    <style>
      .st0 {
        fill: #ff858a;
      }

      .st0, .st1 {
        stroke: #1f1f1f;
        stroke-miterlimit: 11.4;
        stroke-width: .2px;
      }

      .st1 {
        fill: #ff1651;
      }
    </style>
  </defs>
  <path class="st1" d="M63,38c0-.5,2.2-6.8,3.6-11.7,1.2-4.5,2.5-9.1.6-14.3-.3-.9-2.8-7.6-9.2-10-1.5-.6-3-.9-4.5-.9-.8,0-1.6,0-2.3,0-4.6.3-8.5,2.2-9.4,2.7-2.6,1.3-7,4.9-7.7,6.5-2.2,5.2-.7,9.1-6.1,13.6-3.7,3.1-10.6,6.5-9.4,13.1.4,2.4,2.4,4.5,2.9,5,5.3,5.3-8.2,19.1-3.9,28.1,1.7,3.6,6.1,6.2,11.6,7.6.4,0,.8.2,1.2.3,0,0,0,0,0,0,11,2.4,25.5.3,31.1-7.2.8-1,5.6-6.8,3.5-11.9-.7-1.8-2.1-3.2-3.1-4.9-.2-.4-.5-.8-.6-1.3-.3-3.1-.7-5.8-.7-5.8,0,0,0,0,0,0,.1-1.2.2-2.3.3-3.3.4-.7,1.9-4.5,2-5.6ZM59.2,43.2c-.1,1-.2,2.2-.4,3.5,0,.3,0,.7,0,1-.6,5.5-.9,6.5-1.1,10.4-.2,3.8-1.2,8.1-4.3,10.2-1.1.8-2.7,1.1-5.8,1.7-2.9.6-5.1.7-5.7.8-3.5.2-5.8.3-8.5-.5-1.6-.5-5.7-1.8-7.6-5.6-.7-1.5-.9-2.8-1.1-5.2-.1-1.3-.2-2.5,0-3.8,0-.2.1-.5.2-.9.2-.8,1-3,2.8-5.1,0-.1.2-.2.3-.4.2-.2.4-.4.6-.6.2-.2.4-.4.6-.6.8-.7,2.7-2.3,5.5-2.8,2.7-.5,6.1,0,6.4,1.3,0,.3,0,.5-.3.7s0,0,0,0c-.5.5-1.6,1.2-2.8,2.5,0,0-.1.2-.2.2-.3.3-.5.6-.8,1-1.5,2-1.8,3.3-1.9,4-.2,1.1,0,2,0,2.8.1,1.1.4,3,1.2,4.2,1.7,2.5,6.1,2.9,9.2,1.6,1.3-.6,2.4-1.4,3.2-2.2,1.4-1.5,2.1-3.2,2.3-3.7,1.3-3.5,1.4-6.6,1.2-8.3-.5-6.8-4.2-9.7-3-14.2.1-.6.5-2,1.6-3.3,0,0,0,0,0,0,0,0,0,0,0-.1,0,0,0,0,0,0,0,0,0,0,.1-.1,0,0,.1-.1.2-.2.5-.4,1.3-1.2,2.5-1.4,2.6-.4,4.8,2.3,4.9,2.5,1.6,2.1,1.2,4.2.5,10.7ZM38.1,19.9c.4-2.4.4-4.6,1.6-6,.6-.2,1.3-.2,1.9-.1,1,.1,1.9.5,2.4,1.2,1.6,1.9,0,5.5-.3,5.9h0c-1.2,1.8-3,3-4.4,4.6-2.5,2.7-3.8,6.3-6,9.3-.9,1.2-2.1,2.4-3.6,2.2-1.1-.2-1.9-1-2.2-2.1,0-.6.2-1.1.5-1.5.3-.5.8-.9,1.2-1.5,1.8-2,1.8-1.9,1.8-1.9,1.5-1.4,2.8-2.1,3.8-3.1,2.2-2,2.8-4.5,3.2-6.9,0,0,0,0,0,0Z"/>
  <path class="st0" d="M68.9,26.2c1.2-4.5,2.5-9.2.7-14.4-.3-.9-2.8-7.7-9.3-10.2-2.4-.9-4.9-1.1-7.2-.9-.6,0-1.3.1-1.9.2-3.6.6-6.5,2-7.3,2.4-3.8,1.9-7.7,4-9.3,9.2-1.4,4.5,1.1,4.2-6,13-.7.8-7.9,5.3-8.2,9.4-.3,3.6,2.6,6.1,3.1,6.6,5.4,5.4-8.3,19.7-4,28.8,1.5,3.1,4.9,5.4,9.2,6.9.5.2,1.1.4,1.7.5,0,0,0,0,0,0,11.2,3.1,27.3,1.2,33.4-6.8.8-1,5.6-6.9,3.5-12-.7-1.8-2.1-3.3-3.1-5-2.5-4.2-2.2-9.6-.8-14.3,2-6.6,3.5-6.5,5.5-13.7ZM52.2,49.5c-.5-6.8-4.2-9.7-3-14.2.1-.6.5-2,1.6-3.3,0,0,0,0,0,0,0,0,0,0,0-.1,0,0,0,0,0,0,0,0,0,0,.1-.1,0,0,.1-.1.2-.2.5-.4,1.3-1.2,2.5-1.4,2.6-.4,4.8,2.3,4.9,2.5,1.6,2.1,1.2,4.2.5,10.7-.1,1-.2,2.2-.4,3.5,0,.3,0,.7,0,1-.6,5.5-.9,6.5-1.1,10.4-.2,3.8-1.2,8.1-4.3,10.2-1.1.8-2.7,1.1-5.8,1.7-2.9.6-5.1.7-5.7.8-3.5.2-5.8.3-8.5-.5-1.6-.5-5.7-1.8-7.6-5.6-.7-1.5-.9-2.8-1.1-5.2-.1-1.3-.2-2.5,0-3.8,0-.2.1-.5.2-.9.2-.8,1-3,2.8-5.1,0-.1.2-.2.3-.4.2-.2.4-.4.6-.6.2-.2.4-.4.6-.6.8-.7,2.7-2.3,5.5-2.8,2.7-.5,6.1,0,6.4,1.3,0,.3,0,.5-.3.7s0,0,0,0c-.5.5-1.6,1.2-2.8,2.5,0,0-.1.2-.2.2-.3.3-.5.6-.8,1-1.5,2-1.8,3.3-1.9,4-.2,1.1,0,2,0,2.8.1,1.1.4,3,1.2,4.2,1.7,2.5,6.1,2.9,9.2,1.6,1.3-.6,2.4-1.4,3.2-2.2,1.4-1.5,2.1-3.2,2.3-3.7,1.3-3.5,1.4-6.6,1.2-8.3ZM38.1,19.9c.4-2.4.4-4.6,1.6-6,.6-.2,1.3-.2,1.9-.1,1,.1,1.9.5,2.4,1.2,1.6,1.9,0,5.5-.3,5.9h0c-1.2,1.8-3,3-4.4,4.6-2.5,2.7-3.8,6.3-6,9.3-.9,1.2-2.1,2.4-3.6,2.2-1.1-.2-1.9-1-2.2-2.1,0-.6.2-1.1.5-1.5.3-.5.8-.9,1.2-1.5,1.8-2,1.8-1.9,1.8-1.9,1.5-1.4,2.8-2.1,3.8-3.1,2.2-2,2.8-4.5,3.2-6.9,0,0,0,0,0,0Z"/>
  <path class="st1" d="M58.7,47.6c.3,2.4,1.2,10.2,1.1,13.5-.1,4-1.2,8.4-4.6,10.6-1.2.8-2.9,1.1-6.3,1.8-3.1.6-5.5.8-6.2.8-3.8.2-6.2.3-9.2-.6-1.7-.5-6.2-1.9-8.3-5.8-.8-1.5-1-2.9-1.2-5.3-.2-2.1-.2-4.2.2-6.3,0-.1,0-.3,0-.4,0-.2.1-.5.2-.9.2-.8,1-3.1,3-5.4-1.8,2.1-2.5,4.3-2.8,5.1-.1.4-.2.7-.2.9,0,1.3,0,2.5,0,3.8.2,2.4.3,3.7,1.1,5.2,1.9,3.8,6,5.1,7.6,5.6,2.7.9,5,.7,8.5.5.6,0,2.8-.2,5.7-.8,3.1-.6,4.7-1,5.8-1.7,3.2-2.1,4.2-6.4,4.3-10.2.2-3.9.5-4.9,1.1-10.4Z"/>
  <path class="st1" d="M61,37.9c-.1,1.1-.4,2.1-.8,3.2-.3.8-.6,1.5-1,2.1.7-6.5,1.2-8.6-.5-10.7-.1-.1-2.4-2.9-4.9-2.5-1.2.2-2,1-2.5,1.4,0,0-.1.1-.2.2,0,0,0,0-.1.1,0,0,0,0,0,0,0,0,0,0-.1,0,1.2-1.5,3-2.7,5-2.6,1.7,0,2.9,1.2,3.1,1.4,1.4,1.2,1.7,2.8,1.9,4.2.3,1.4.2,2.4.1,3Z"/>
  <path class="st1" d="M45.9,21.1h0c-1.4,2-3.4,3.4-5.1,5.2-2.8,3.1-4.4,7.2-6.9,10.6-1.3,1.8-2.7,2.7-4.1,2.5-1.3-.1-2.2-1.2-2.6-1.8-.7-1.6-.5-2.9-.4-3.3.3-1.2,1-2.1,1.7-3,.7-.9,1.4-1.5,1.8-1.9,1.9-1.8,3.5-2.9,3.8-3.1,2-1.4,3.1-4,3.9-6.4-.3,2.3-1,4.8-3.2,6.9-1.1,1-2.3,1.7-3.8,3.1,0,0,0,0-1.8,1.9-.5.5-.9,1-1.2,1.5-.3.5-.5,1-.5,1.5.3,1,1.1,1.9,2.2,2.1,1.5.2,2.7-1,3.6-2.2,2.2-3,3.5-6.5,6-9.3,1.4-1.6,3.2-2.8,4.4-4.6h0c.3-.4,2-4,.3-5.9-.5-.6-1.4-1.1-2.4-1.2,1.5-.2,3.9-.4,4.6.5,1.9,2.2,0,6.3-.4,6.8Z"/>
</svg>