<?xml version="1.0" encoding="UTF-8"?>
<svg id="Layer_1" xmlns="http://www.w3.org/2000/svg" version="1.1" viewBox="0 0 68 77">
  <!-- Generator: Adobe Illustrator 29.0.1, SVG Export Plug-In . SVG Version: 2.1.0 Build 192)  -->
  <defs>
    <style>
      .st0 {
        fill: none;
        stroke: #000;
      }

      .st0, .st1, .st2 {
        stroke-width: .2px;
      }

      .st1 {
        fill: #ff1651;
      }

      .st1, .st2 {
        stroke: #1f1f1f;
        stroke-miterlimit: 10;
      }

      .st2 {
        fill: #ff858a;
      }
    </style>
  </defs>
  <path class="st1" d="M66.3,30.6c-8.8-24.3-35.9,4.4-32.5-19.8.1-6.2-4.8-10.9-11.1-9.3-.1,0-.2,0-.3,0-.2,0-.3,0-.5.2-.2,0-.5.2-.8.3-.2,0-.4.2-.6.3-.4.2-.7.4-1.1.6-.2,0-.3.2-.5.2-24.8,12.8-24.9,50.6,1,62.4,1.4.7,3.3,1,6.4,2.5,7.5,3.5,8.5,6.2,12.3,7.7,7.2,2.5,16.3-1,21.8-6.4,1.6-1.6,3-3.3,3.8-5.1,1.1-4-1.3-10.4,0-14.8.2-.3.4-.6.5-.9.3-.5.6-1,.8-1.6,2.3-5.1,2.6-10.8.7-16.2ZM62.9,35.6c-.3.7-1,3.2-1,3.6,0,.7-.2,1.4-.3,2-.2,1-.4,2.1-1.2,3.2-1.4,1.4-2.3,2-4.7,2.3-2.2-.2-4.2-1.5-4.4-3.4h-.2c-.2,1.1-1,2.2-2,3-1.1.8-2.3,1.2-3.5,1-.4,0-.9-.2-1.3-.4h0c-.5-.2-.9-.4-1.4-.5-.5-.1-1,0-1.4.2-.4.3-.8.8-1,1.6-.5,1.5.2,3,.8,4.4.6,1.4,1.2,2.9.6,4.3-.6,1.4-2.3,2.3-3.9,2.4-1.6.1-3.2-.4-4.7-.9,0,0-.2,0-.2,0-2.4-.8-4.8-1.5-7.1-2.5-2.2-.9-3.8-2.1-5.7-3.5-3.7-2.8-6.8-6.2-8.2-10.7-1.5-4.6-1-9.5,0-14.2,0-.1,0-.3,0-.4.5-2.4.9-4.2,2.6-6.1,2.3-2.6,6-4.4,9.3-3.8,1.7.3,3.3,1.2,4.5,3,1.3,2,1.5,4.5,1,6.9-.3,1.4-.7,2.6-1.2,3.8,0,.3-.2.6-.3.9-.5,1.5-1,3.1-1,4.9h0c0,3.1,1.2,6.1,3.7,8,1.4,1,3.2,1.7,5,1.7s2-.2,2.9-.6c.2,0,.3-.2.5-.3,1.6-.9,2.3-2.8,2.7-4.6.1-.6.2-1.2.3-1.7,0-.3,0-.5.1-.8,0-.4.1-.7.2-.9,0-.2.2-.4.3-.5h0s0,0,0,0c.2-.2.4-.5.7-.7.4-.2.9-.3,1.3-.2.4.1.9.5,1.3,1.1.3.8,0,1.4-.4,2h0c-.2.3-.3.6-.4.9,0,.2,0,.3,0,.4,0,.1.1.3.3.4,1,1,2.7,1,3.9.2,0,0,0,0,0,0,.2-.1.4-.2.5-.4.6-.5,1-1.1,1.2-1.8.2-.7.1-1.4-.2-2.3h0c-.3-.5-.3-1-.1-1.4.1-.4.5-.7.9-1h0c.7-.4,1.7-.6,2.4-.7.4,0,.8,0,1,0,.3,0,.5.2.6.3.2.4.3.8.2,1.2-.1.4-.3.9-.6,1.4,0,.2-.2.3-.3.5-.2.3-.4.6-.5.9-.2.5-.5,1-.5,1.5,0,.5,0,1,0,1.4.1.4.4.8.8,1,.6.3,1.2.1,1.7-.2.6-.3,1.2-1,1.4-1.6.2-.8.1-1.6,0-2.5,0,0,0-.2,0-.2-.2-.8-.3-1.5-.2-2.2,0-.5.2-1,.6-1.5.4-.5,1.1-1.1,1.8-1.5,0,0,2.4-1.2,3.3-.6.7.7.3,2.3-.4,4.1ZM40.2,27.2c.7-.5,1.5-1,2.5-1.4,1.8-.8,3.9-1.3,5.4-1.3s.3,0,.4,0c0,0,.1,0,.2,0-.2,1-.6,1.7-1.1,2.4-.9,1.1-2.2,1.8-3.7,2.4-.8.3-1.7.6-2.5.6s-1.8-.3-2.6-1c.3-.6.8-1.1,1.5-1.6Z"/>
  <path class="st2" d="M67.5,34.6c-.2-1.4-.5-2.8-1-4.2-1.7-4.9-5.6-9.2-10.6-10.4-3.1-.7-6.4-.2-9.6.3-4.2.7-9.7,2.6-12.2-2.2-1.2-2.4,0-4-.1-7.4,0-1.2-.5-6.1-3.9-8.3-2.2-1.5-5-1.5-7.5-.9-.1,0-.2,0-.3.1-.2,0-.3,0-.5.2-.2,0-.5.2-.8.3-.2,0-.4.2-.6.3-.3.1-.6.3-.8.4,0,0-.2,0-.3.2-.2,0-.3.2-.5.2-1.5.9-2.8,1.9-4.1,3.1-1,1-2,2.1-2.9,3.2-6.4,8.1-8.9,19.3-6.5,29.4s9.5,19,18.8,23.4c1.4.7,3.3,1,6.4,2.5,7.5,3.5,8.4,6.2,12.3,7.7,4.6,1.8,10.8.7,15.4-1.8.7-.4,1.4-.8,2.1-1.3,2.1-1.5,3.6-3.3,4.1-5.3,1.1-4-1.3-10.4,0-14.8,0-.3.2-.5.3-.7.2-.6.5-1.1.8-1.6.2-.4.5-.8.8-1.2.8-1.2,1-2.5,1.2-4,0,0,0,0,0-.1.3-2.3.3-4.6,0-6.8ZM49,46.4c-1.1.8-2.3,1.2-3.5,1-.4,0-.9-.2-1.3-.4h0c-.5-.2-.9-.4-1.4-.5-.5-.1-1,0-1.4.2-.4.3-.8.8-1,1.6-.5,1.5.2,3,.8,4.4.6,1.4,1.2,2.9.6,4.3-.6,1.4-2.3,2.3-3.9,2.4-1.6.1-3.2-.4-4.7-.9,0,0-.2,0-.2,0-2.4-.8-4.8-1.5-7.1-2.5-2.2-.9-3.8-2.1-5.7-3.5-3.7-2.8-6.8-6.2-8.2-10.7-1.5-4.6-1-9.5,0-14.2,0-.1,0-.3,0-.4.5-2.4.9-4.2,2.6-6.1,2.3-2.6,6-4.4,9.3-3.8,1.7.3,3.3,1.2,4.5,3,1.3,2,1.5,4.5,1,6.9-.3,1.4-.7,2.6-1.2,3.8,0,.3-.2.6-.3.9-.5,1.5-1,3.1-1,4.9h0c0,3.1,1.2,6.1,3.7,8,1.4,1,3.2,1.7,5,1.7s2-.2,2.9-.6c.2,0,.3-.2.5-.3,1.6-.9,2.3-2.8,2.7-4.6.1-.6.2-1.2.3-1.7,0-.3,0-.5.1-.8,0-.4.1-.7.2-.9,0-.2.2-.4.3-.5h0s0,0,0,0c.2-.2.4-.5.7-.7.4-.2.9-.3,1.3-.2.4.1.9.5,1.3,1.1.3.8,0,1.4-.4,2h0c-.2.3-.3.6-.4.9,0,.2,0,.3,0,.4,0,.1.1.3.3.4,1,1,2.7,1,3.9.2,0,0,0,0,0,0,.2-.1.4-.2.5-.4.6-.5,1-1.1,1.2-1.8.2-.7.1-1.4-.2-2.3h0c-.3-.5-.3-1-.1-1.4.1-.4.5-.7.9-1h0c.7-.4,1.7-.6,2.4-.7.4,0,.8,0,1,0,.3,0,.5.2.6.3.2.4.3.8.2,1.2-.1.4-.3.9-.6,1.4,0,.2-.2.3-.3.5-.2.3-.4.6-.5.9-.2.5-.5,1-.5,1.5,0,.5,0,1,0,1.4.1.4.4.8.8,1,.6.3,1.2.1,1.7-.2.6-.3,1.2-1,1.4-1.6.2-.8.1-1.6,0-2.5,0,0,0-.2,0-.2-.2-.8-.3-1.5-.2-2.2,0-.5.2-1,.6-1.5.4-.5,1.1-1.1,1.8-1.5,0,0,2.4-1.2,3.3-.6.7.7.3,2.3-.4,4.1-.3.7-1,3.2-1,3.6,0,.7-.2,1.4-.3,2-.2,1-.4,2.1-1.2,3.2-1.4,1.4-2.3,2-4.7,2.3-2.2-.2-4.2-1.5-4.4-3.4h-.2c-.2,1.1-1,2.2-2,3ZM48,24.5c.1,0,.3,0,.4,0,0,0,.1,0,.2,0-.2,1-.6,1.7-1.1,2.4-.9,1.1-2.2,1.8-3.7,2.4-.8.3-1.7.6-2.5.6s-1.8-.3-2.6-1c.3-.6.8-1.1,1.5-1.6.7-.5,1.5-1,2.5-1.4,1.8-.8,3.9-1.3,5.4-1.3Z"/>
  <path class="st1" d="M63.4,31.1c-1.2-.2-2.5.2-3.6.8,0,0,0,0,0,0-.6.4-1.2.9-1.6,1.4-.4.5-.6,1-.6,1.5-.2,1.6.8,3.4.3,4.9-.2.6-.7,1.3-1.3,1.6-.5.4-1.1.5-1.7.2-.8-.4-.9-1.4-.8-2.3h0c.2-2,2.7-4,1.7-5.7-.4-.6-2.7-.4-4.2.4,0,0,0,0,0,0-.9.6-1.4,1.4-.8,2.5.8,1.7.2,3-.9,4-.2.1-.3.2-.5.4,0,0,0,0,0,0-1.2.8-2.8.8-3.8-.1-1-1,1.2-2.1.6-3.7-.8-1.4-1.9-1.4-2.7-1-.3.2-.5.4-.7.7-.9.9-.4,6.7-3.6,8.4,0,0-.1,0-.2.1-2.6,1.2-5.7.5-7.8-1.1-2.5-1.8-3.7-4.9-3.6-7.9,0-3.5,1.8-6.2,2.5-9.6.5-2.4.3-5-1-7-1.2-1.8-2.8-2.7-4.5-3-2-1.1-4.5-1.2-6.7-.6-3.4,1.1-6.6,4.3-7.1,7.9-.6,4.3-1.5,8.4-.9,12.8,1,6.9,4.9,13.3,10.5,17.4,3.9,2.9,8.6,4.6,13.1,6.2,1.5.6,3.1,1.1,4.8,1.1,2.8-.1,4.9-2.2,5-5.1,0-1.7-.5-3.3-1.2-4.9-.2-.6-.5-1.2-.6-1.9-.2-3.2,2.8-.9,4.2-.7,2.4.5,5.3-1.7,5.6-4.2.3,2,2.3,3.6,4.3,3.7,2,.1,4-1,5.2-2.8.1-.2.2-.4.4-.6.6-1.3,1-2.8.9-4.3.2-1,.3-2.2.5-3.2.2-1.2,2.6-5.7,1.2-6.7ZM61.8,39.3c0,.7-.2,1.4-.3,2-.2,1-.4,2.1-1.2,3.2-1.4,1.4-2.3,2-4.7,2.3-2.2-.2-4.2-1.5-4.4-3.4h-.2c-.2,1.1-1,2.2-2,3-1.1.8-2.3,1.2-3.5,1-.4,0-.9-.2-1.3-.4h0c-.5-.2-.9-.4-1.4-.5-.5-.1-1,0-1.4.2-.4.3-.8.8-1,1.6-.5,1.5.2,3,.8,4.4.6,1.4,1.2,2.9.6,4.3-.6,1.4-2.3,2.3-3.9,2.4-1.6.1-3.2-.4-4.7-.9,0,0-.2,0-.2,0-2.4-.8-4.8-1.5-7.1-2.5-2.2-.9-3.8-2.1-5.7-3.5-3.7-2.8-6.8-6.2-8.2-10.7-1.5-4.6-1-9.5,0-14.2,0-.1,0-.3,0-.4.5-2.4.9-4.2,2.6-6.1,2.3-2.6,6-4.4,9.3-3.8,1.7.3,3.3,1.2,4.5,3,1.3,2,1.5,4.5,1,6.9-.3,1.4-.7,2.6-1.2,3.8,0,.3-.2.6-.3.9-.5,1.5-1,3.1-1,4.9h0c0,3.1,1.2,6.1,3.7,8,1.4,1,3.2,1.7,5,1.7s2-.2,2.9-.6c.2,0,.3-.2.5-.3,1.6-.9,2.3-2.8,2.7-4.6.1-.6.2-1.2.3-1.7,0-.3,0-.5.1-.8,0-.4.1-.7.2-.9,0-.2.2-.4.3-.5h0s0,0,0,0c.2-.2.4-.5.7-.7.4-.2.9-.3,1.3-.2.4.1.9.5,1.3,1.1.3.8,0,1.4-.4,2h0c-.2.3-.3.6-.4.9,0,.2,0,.3,0,.4,0,.1.1.3.3.4,1,1,2.7,1,3.9.2,0,0,0,0,0,0,.2-.1.4-.2.5-.4.6-.5,1-1.1,1.2-1.8.2-.7.1-1.4-.2-2.3h0c-.3-.5-.3-1-.1-1.4.1-.4.5-.7.9-1h0c.7-.4,1.7-.6,2.4-.7.4,0,.8,0,1,0,.3,0,.5.2.6.3.2.4.3.8.2,1.2-.1.4-.3.9-.6,1.4,0,.2-.2.3-.3.5-.2.3-.4.6-.5.9-.2.5-.5,1-.5,1.5,0,.5,0,1,0,1.4.1.4.4.8.8,1,.6.3,1.2.1,1.7-.2.6-.3,1.2-1,1.4-1.6.2-.8.1-1.6,0-2.5,0,0,0-.2,0-.2-.2-.8-.3-1.5-.2-2.2,0-.5.2-1,.6-1.5.4-.5,1.1-1.1,1.8-1.5,0,0,2.4-1.2,3.3-.6.7.7.3,2.3-.4,4.1-.3.7-1,3.2-1,3.6Z"/>
  <path class="st0" d="M54,39.4h0"/>
  <path class="st1" d="M52.2,25.5c-.3-1.1-1.3-1.8-3-1.8-2.6,0-5,.5-7.3,1.8-.8.4-1.6.9-2.3,1.5-.3.4-.9,1-1.3,1.7-.7,1.3-.3,2.6,1.1,3.1,1,.3,2.2.6,3.3.5,3-.3,5.6-1.8,8-3.5.1,0,.2-.2.4-.3.9-.7,1.5-1.6,1.1-2.8ZM47.5,26.9c-.9,1.1-2.2,1.8-3.7,2.4-.8.3-1.7.6-2.5.6s-1.8-.3-2.6-1c.3-.6.8-1.1,1.5-1.6.7-.5,1.5-1,2.5-1.4,1.8-.8,3.9-1.3,5.4-1.3s.3,0,.4,0c0,0,.1,0,.2,0-.2,1-.6,1.7-1.1,2.4Z"/>
</svg>