<?xml version="1.0" encoding="UTF-8"?>
<svg id="Layer_1" xmlns="http://www.w3.org/2000/svg" version="1.1" viewBox="0 0 61 52">
  <!-- Generator: Adobe Illustrator 29.0.1, SVG Export Plug-In . SVG Version: 2.1.0 Build 192)  -->
  <defs>
    <style>
      .st0 {
        fill: #ff1651;
      }

      .st0, .st1 {
        stroke: #1f1f1f;
        stroke-miterlimit: 10;
        stroke-width: .2px;
      }

      .st1 {
        fill: #ff858a;
      }
    </style>
  </defs>
  <path class="st0" d="M43.7,5.5c-.2.2-.3.3-.5.5,0,0,0,0,0,0-1.6,1.7-1.8,4-1.6,6.4.7,6.7,5.1,15-6.6,18-15.2,3.9-1.9-22.2-20.6-18.1-2.9.6-5.6,1.9-7.7,3.9-3.3,3-5.5,7.6-5.8,13.9-.9,16,6.5,17.7,16.7,18.4,11.1.7,33.4,7.2,35.2-3,.3-1.5.1-3.3-.6-5.5-2.7-9,3.4-13.7,6.4-24.8,2.9-11-4.7-18.4-14.9-9.7ZM22.3,20.1c3.7-1.8,4.3,2.7,2.7,5-1.2,1.8-4.5,6.4-1.8,8.8,2.1,1.9,13.4-3.4,15.8-4.9,3.1-1.9,8.3-6.1,9.5-9.5.1-.4.2-.7.3-1.1.3-3.1-4.9.6-2.5-5,.1-.3.3-.6.4-.8,2.1-3.8,5.9-3.2,6.9-1.7.2.4.3,1,.3,1.8,0,2.9-1.5,8-3.5,11.7-3.1,5.5-15,11.5-23.1,13.7-1.4.3-3.4.3-5.3-.2-2.2-.6-4.2-2-5-4.8-1.2-4.5,0-8.4,2.3-10.9.9-1,1.9-1.7,3-2.2Z"/>
  <path class="st1" d="M44.7,4.5c-.6.5-1.1,1-1.5,1.5,0,0,0,0,0,0-2.7,3.3,1,4.6-1.6,6.4-1.1.8-3.4,1.6-7.9,2.8-15.1,3.9.4-8-18.2-4-3.5.8-6.5,2.4-8.9,5-2.6,2.9-4.3,7-4.7,12.4-1,15.5,6.5,17.2,16.5,17.8,10.1.6,29.7,5.9,34.2-.9,1.1-1.7,1.3-4.1.3-7.4-2.7-8.7,3.4-13.4,6.4-24.1,2.9-10.8-4.6-17.9-14.8-9.4ZM48.4,19.6c.1-.4.2-.7.3-1.1.3-3.1-4.9.6-2.5-5,.1-.3.3-.6.4-.8,2.1-3.8,5.9-3.2,6.9-1.7.2.4.3,1,.3,1.8,0,2.9-1.5,8-3.5,11.7-3.1,5.5-15,11.5-23.1,13.7-1.4.3-3.4.3-5.3-.2-2.2-.6-4.2-2-5-4.8-1.2-4.5,0-8.4,2.3-10.9.9-1,1.9-1.7,3-2.2,3.7-1.8,4.3,2.7,2.7,5-1.2,1.8-4.5,6.4-1.8,8.8,2.1,1.9,13.4-3.4,15.8-4.9,3.1-1.9,8.3-6.1,9.5-9.5ZM36.9,17.5c.4-1.5.4-2.3,1.4-2.8,1.2-.5,2.5.3,2.6,2.2,0,.4,0,.8,0,1.2-.5,2.7-4.3,3.1-4.9,2.1,0,0,0-.1,0-.2-.2-1.1.7-1.5,1-2.5ZM31.2,18.2c.7-.9,1.6-1.5,2.2-1.8.5-.1,1.4-.1,1.5.8,0,1.2-.8,1.9-.6,3.2,0,.4,0,1.1-.4,1.6-.1.2-.3.4-.5.5-.8.6-2.5,1-2.9-1.4-.2-1.1.2-2.1.7-2.9Z"/>
  <path class="st0" d="M48.7,18.5c0,.3-.1.7-.3,1.1-.3-2.6-5.1.9-2.7-5.1.3-.7.6-1.3.9-1.8-.2.3-.3.5-.4.8-2.4,5.6,2.8,1.8,2.5,5Z"/>
  <path class="st0" d="M50.3,27c-3.3,6.2-15.8,13.1-24.5,15.5-3.3.8-9.5,0-11.1-5.7-1.8-6.6.8-12,4.6-14.4-2.3,2.5-3.5,6.3-2.3,10.9.7,2.7,2.8,4.1,5,4.8,1.9.5,3.9.5,5.3.2,8.1-2.1,19.9-8.2,23.1-13.7,2.1-3.6,3.5-8.8,3.5-11.7.3,3-1.2,9.7-3.6,14.2Z"/>
  <path class="st0" d="M41,19.2c-.6,3.3-5.1,3.6-5.3,2.1,0-.5,0-.8.2-1.2.6,1,4.4.6,4.9-2.1,0-.5.1-.9,0-1.2.2.6.3,1.4.1,2.4Z"/>
  <path class="st0" d="M33.9,22c0,.7-.4,1.5-1,2-.8.6-2.6,1.2-3.1-1.6-.3-1.8.5-3.1,1.4-4.1-.6.8-.9,1.7-.7,2.9.4,2.5,2.1,2,2.9,1.4.2-.1.4-.3.5-.5Z"/>
</svg>